<?xml version="1.0" encoding="UTF-8" standalone="no"?>
<svg
   xmlns:dc="http://purl.org/dc/elements/1.1/"
   xmlns:cc="http://creativecommons.org/ns#"
   xmlns:rdf="http://www.w3.org/1999/02/22-rdf-syntax-ns#"
   xmlns:svg="http://www.w3.org/2000/svg"
   xmlns="http://www.w3.org/2000/svg"
   xmlns:sodipodi="http://sodipodi.sourceforge.net/DTD/sodipodi-0.dtd"
   xmlns:inkscape="http://www.inkscape.org/namespaces/inkscape"
   style="fill-opacity:1; color-rendering:auto; color-interpolation:auto; text-rendering:auto; stroke:black; stroke-linecap:square; stroke-miterlimit:10; shape-rendering:auto; stroke-opacity:1; fill:black; stroke-dasharray:none; font-weight:normal; stroke-width:1; font-family:'Dialog'; font-style:normal; stroke-linejoin:miter; font-size:12px; stroke-dashoffset:0; image-rendering:auto;"
   width="560"
   height="420"
   id="svg2"
   version="1.1"
   inkscape:version="0.91 r13725"
   sodipodi:docname="alphaErrorPhysic.svg">
  <metadata
     id="metadata189">
    <rdf:RDF>
      <cc:Work
         rdf:about="">
        <dc:format>image/svg+xml</dc:format>
        <dc:type
           rdf:resource="http://purl.org/dc/dcmitype/StillImage" />
        <dc:title></dc:title>
      </cc:Work>
    </rdf:RDF>
  </metadata>
  <sodipodi:namedview
     pagecolor="#ffffff"
     bordercolor="#666666"
     borderopacity="1"
     objecttolerance="10"
     gridtolerance="10"
     guidetolerance="10"
     inkscape:pageopacity="0"
     inkscape:pageshadow="2"
     inkscape:window-width="640"
     inkscape:window-height="480"
     id="namedview187"
     showgrid="false"
     inkscape:zoom="0.56190476"
     inkscape:cx="280"
     inkscape:cy="210"
     inkscape:window-x="65"
     inkscape:window-y="24"
     inkscape:window-maximized="0"
     inkscape:current-layer="svg2" />
  <!--Generated by the Batik Graphics2D SVG Generator-->
  <defs
     id="genericDefs" />
  <g
     id="g5">
    <defs
       id="defs1">
      <clipPath
         clipPathUnits="userSpaceOnUse"
         id="clipPath1">
        <path
           d="M0 0 L560 0 L560 420 L0 420 L0 0 Z"
           id="path9" />
      </clipPath>
    </defs>
    <g
       style="fill:white; stroke:white;"
       id="g11">
      <rect
         x="0"
         y="0"
         width="560"
         style="clip-path:url(#clipPath1); stroke:none;"
         height="420"
         id="rect13"
         clip-path="url(#clipPath1)" />
    </g>
    <g
       style="fill:white; text-rendering:optimizeSpeed; color-rendering:optimizeSpeed; image-rendering:optimizeSpeed; shape-rendering:crispEdges; stroke:white; color-interpolation:sRGB;"
       id="g15">
      <rect
         x="0"
         width="560"
         height="420"
         y="0"
         style="stroke:none;"
         id="rect17" />
      <path
         style="stroke:none;"
         d="M94 353 L507 353 L507 31 L94 31 Z"
         id="path19" />
    </g>
    <g
       style="fill:rgb(38,38,38); text-rendering:geometricPrecision; image-rendering:optimizeQuality; color-rendering:optimizeQuality; stroke-linejoin:round; stroke:rgb(38,38,38); color-interpolation:linearRGB; stroke-width:0.6667;"
       id="g21">
      <line
         y2="353"
         style="fill:none;"
         x1="94"
         x2="507"
         y1="353"
         id="line23" />
      <line
         y2="348.8727"
         style="fill:none;"
         x1="94"
         x2="94"
         y1="353"
         id="line25" />
      <line
         y2="348.8727"
         style="fill:none;"
         x1="197.25"
         x2="197.25"
         y1="353"
         id="line27" />
      <line
         y2="348.8727"
         style="fill:none;"
         x1="300.5"
         x2="300.5"
         y1="353"
         id="line29" />
      <line
         y2="348.8727"
         style="fill:none;"
         x1="403.75"
         x2="403.75"
         y1="353"
         id="line31" />
      <line
         y2="348.8727"
         style="fill:none;"
         x1="507"
         x2="507"
         y1="353"
         id="line33" />
    </g>
    <g
       transform="translate(94,360.4667)"
       style="font-size:24px; fill:rgb(38,38,38); text-rendering:geometricPrecision; image-rendering:optimizeQuality; color-rendering:optimizeQuality; font-family:'SansSerif'; stroke:rgb(38,38,38); color-interpolation:linearRGB;"
       id="g35">
      <path
         style="stroke:none;"
         d="M-10.8906 21 L-2.625 21 L-2.625 23 L-13.7344 23 L-13.7344 21 Q-12.3906 19.6094 -10.0625 17.2578 Q-7.7344 14.9062 -7.1406 14.2344 Q-6 12.9531 -5.5547 12.0703 Q-5.1094 11.1875 -5.1094 10.3281 Q-5.1094 8.9375 -6.0859 8.0547 Q-7.0625 7.1719 -8.625 7.1719 Q-9.75 7.1719 -10.9844 7.5625 Q-12.2188 7.9531 -13.625 8.7344 L-13.625 6.3438 Q-12.1875 5.7656 -10.9453 5.4766 Q-9.7031 5.1875 -8.6719 5.1875 Q-5.9531 5.1875 -4.3359 6.5469 Q-2.7188 7.9062 -2.7188 10.1719 Q-2.7188 11.25 -3.125 12.2188 Q-3.5312 13.1875 -4.5938 14.5 Q-4.8906 14.8438 -6.4609 16.4688 Q-8.0312 18.0938 -10.8906 21 ZM7.3945 7.0625 Q5.5664 7.0625 4.6523 8.8594 Q3.7383 10.6562 3.7383 14.2656 Q3.7383 17.8594 4.6523 19.6641 Q5.5664 21.4688 7.3945 21.4688 Q9.2383 21.4688 10.1602 19.6641 Q11.082 17.8594 11.082 14.2656 Q11.082 10.6562 10.1602 8.8594 Q9.2383 7.0625 7.3945 7.0625 ZM7.3945 5.1875 Q10.3477 5.1875 11.8945 7.5156 Q13.4414 9.8438 13.4414 14.2656 Q13.4414 18.6875 11.8945 21.0156 Q10.3477 23.3438 7.3945 23.3438 Q4.457 23.3438 2.9023 21.0156 Q1.3477 18.6875 1.3477 14.2656 Q1.3477 9.8438 2.9023 7.5156 Q4.457 5.1875 7.3945 5.1875 Z"
         id="path37" />
    </g>
    <g
       transform="translate(197.25,360.4667)"
       style="font-size:24px; fill:rgb(38,38,38); text-rendering:geometricPrecision; image-rendering:optimizeQuality; color-rendering:optimizeQuality; font-family:'SansSerif'; stroke:rgb(38,38,38); color-interpolation:linearRGB;"
       id="g39">
      <path
         style="stroke:none;"
         d="M-6.4219 7.5625 L-12.4062 16.9062 L-6.4219 16.9062 L-6.4219 7.5625 ZM-7.0469 5.5 L-4.0781 5.5 L-4.0781 16.9062 L-1.5781 16.9062 L-1.5781 18.875 L-4.0781 18.875 L-4.0781 23 L-6.4219 23 L-6.4219 18.875 L-14.3281 18.875 L-14.3281 16.5938 L-7.0469 5.5 ZM7.3945 7.0625 Q5.5664 7.0625 4.6523 8.8594 Q3.7383 10.6562 3.7383 14.2656 Q3.7383 17.8594 4.6523 19.6641 Q5.5664 21.4688 7.3945 21.4688 Q9.2383 21.4688 10.1602 19.6641 Q11.082 17.8594 11.082 14.2656 Q11.082 10.6562 10.1602 8.8594 Q9.2383 7.0625 7.3945 7.0625 ZM7.3945 5.1875 Q10.3477 5.1875 11.8945 7.5156 Q13.4414 9.8438 13.4414 14.2656 Q13.4414 18.6875 11.8945 21.0156 Q10.3477 23.3438 7.3945 23.3438 Q4.457 23.3438 2.9023 21.0156 Q1.3477 18.6875 1.3477 14.2656 Q1.3477 9.8438 2.9023 7.5156 Q4.457 5.1875 7.3945 5.1875 Z"
         id="path41" />
    </g>
    <g
       transform="translate(300.5,360.4667)"
       style="font-size:24px; fill:rgb(38,38,38); text-rendering:geometricPrecision; image-rendering:optimizeQuality; color-rendering:optimizeQuality; font-family:'SansSerif'; stroke:rgb(38,38,38); color-interpolation:linearRGB;"
       id="g43">
      <path
         style="stroke:none;"
         d="M-7.5781 13.3125 Q-9.1719 13.3125 -10.1016 14.3984 Q-11.0312 15.4844 -11.0312 17.3906 Q-11.0312 19.2656 -10.1016 20.3672 Q-9.1719 21.4688 -7.5781 21.4688 Q-5.9844 21.4688 -5.0547 20.3672 Q-4.125 19.2656 -4.125 17.3906 Q-4.125 15.4844 -5.0547 14.3984 Q-5.9844 13.3125 -7.5781 13.3125 ZM-2.875 5.8906 L-2.875 8.0469 Q-3.7656 7.625 -4.6719 7.3984 Q-5.5781 7.1719 -6.4688 7.1719 Q-8.8125 7.1719 -10.0547 8.7578 Q-11.2969 10.3438 -11.4688 13.5469 Q-10.7812 12.5156 -9.7344 11.9766 Q-8.6875 11.4375 -7.4375 11.4375 Q-4.7969 11.4375 -3.2656 13.0312 Q-1.7344 14.625 -1.7344 17.3906 Q-1.7344 20.0781 -3.3281 21.7109 Q-4.9219 23.3438 -7.5781 23.3438 Q-10.6094 23.3438 -12.2188 21.0156 Q-13.8281 18.6875 -13.8281 14.2656 Q-13.8281 10.125 -11.8594 7.6562 Q-9.8906 5.1875 -6.5625 5.1875 Q-5.6719 5.1875 -4.7656 5.3594 Q-3.8594 5.5312 -2.875 5.8906 ZM7.3945 7.0625 Q5.5664 7.0625 4.6523 8.8594 Q3.7383 10.6562 3.7383 14.2656 Q3.7383 17.8594 4.6523 19.6641 Q5.5664 21.4688 7.3945 21.4688 Q9.2383 21.4688 10.1602 19.6641 Q11.082 17.8594 11.082 14.2656 Q11.082 10.6562 10.1602 8.8594 Q9.2383 7.0625 7.3945 7.0625 ZM7.3945 5.1875 Q10.3477 5.1875 11.8945 7.5156 Q13.4414 9.8438 13.4414 14.2656 Q13.4414 18.6875 11.8945 21.0156 Q10.3477 23.3438 7.3945 23.3438 Q4.457 23.3438 2.9023 21.0156 Q1.3477 18.6875 1.3477 14.2656 Q1.3477 9.8438 2.9023 7.5156 Q4.457 5.1875 7.3945 5.1875 Z"
         id="path45" />
    </g>
    <g
       transform="translate(403.75,360.4667)"
       style="font-size:24px; fill:rgb(38,38,38); text-rendering:geometricPrecision; image-rendering:optimizeQuality; color-rendering:optimizeQuality; font-family:'SansSerif'; stroke:rgb(38,38,38); color-interpolation:linearRGB;"
       id="g47">
      <path
         style="stroke:none;"
         d="M-7.875 14.6875 Q-9.5625 14.6875 -10.5234 15.5938 Q-11.4844 16.5 -11.4844 18.0781 Q-11.4844 19.6562 -10.5234 20.5625 Q-9.5625 21.4688 -7.875 21.4688 Q-6.1875 21.4688 -5.2109 20.5547 Q-4.2344 19.6406 -4.2344 18.0781 Q-4.2344 16.5 -5.2031 15.5938 Q-6.1719 14.6875 -7.875 14.6875 ZM-10.2344 13.6875 Q-11.7656 13.3125 -12.6094 12.2656 Q-13.4531 11.2188 -13.4531 9.7188 Q-13.4531 7.625 -11.9609 6.4062 Q-10.4688 5.1875 -7.875 5.1875 Q-5.25 5.1875 -3.7656 6.4062 Q-2.2812 7.625 -2.2812 9.7188 Q-2.2812 11.2188 -3.1328 12.2656 Q-3.9844 13.3125 -5.4844 13.6875 Q-3.7812 14.0781 -2.8281 15.2422 Q-1.875 16.4062 -1.875 18.0781 Q-1.875 20.625 -3.4219 21.9844 Q-4.9688 23.3438 -7.875 23.3438 Q-10.7656 23.3438 -12.3203 21.9844 Q-13.875 20.625 -13.875 18.0781 Q-13.875 16.4062 -12.9141 15.2422 Q-11.9531 14.0781 -10.2344 13.6875 ZM-11.1094 9.9375 Q-11.1094 11.2969 -10.2578 12.0625 Q-9.4062 12.8281 -7.875 12.8281 Q-6.3438 12.8281 -5.4844 12.0625 Q-4.625 11.2969 -4.625 9.9375 Q-4.625 8.5781 -5.4844 7.8203 Q-6.3438 7.0625 -7.875 7.0625 Q-9.4062 7.0625 -10.2578 7.8203 Q-11.1094 8.5781 -11.1094 9.9375 ZM7.3945 7.0625 Q5.5664 7.0625 4.6523 8.8594 Q3.7383 10.6562 3.7383 14.2656 Q3.7383 17.8594 4.6523 19.6641 Q5.5664 21.4688 7.3945 21.4688 Q9.2383 21.4688 10.1602 19.6641 Q11.082 17.8594 11.082 14.2656 Q11.082 10.6562 10.1602 8.8594 Q9.2383 7.0625 7.3945 7.0625 ZM7.3945 5.1875 Q10.3477 5.1875 11.8945 7.5156 Q13.4414 9.8438 13.4414 14.2656 Q13.4414 18.6875 11.8945 21.0156 Q10.3477 23.3438 7.3945 23.3438 Q4.457 23.3438 2.9023 21.0156 Q1.3477 18.6875 1.3477 14.2656 Q1.3477 9.8438 2.9023 7.5156 Q4.457 5.1875 7.3945 5.1875 Z"
         id="path49" />
    </g>
    <g
       transform="translate(507,360.4667)"
       style="font-size:24px; fill:rgb(38,38,38); text-rendering:geometricPrecision; image-rendering:optimizeQuality; color-rendering:optimizeQuality; font-family:'SansSerif'; stroke:rgb(38,38,38); color-interpolation:linearRGB;"
       id="g51">
      <path
         style="stroke:none;"
         d="M-20.0156 21 L-16.1562 21 L-16.1562 7.6562 L-20.3594 8.5 L-20.3594 6.3438 L-16.1719 5.5 L-13.8125 5.5 L-13.8125 21 L-9.9375 21 L-9.9375 23 L-20.0156 23 L-20.0156 21 ZM-0.1055 7.0625 Q-1.9336 7.0625 -2.8477 8.8594 Q-3.7617 10.6562 -3.7617 14.2656 Q-3.7617 17.8594 -2.8477 19.6641 Q-1.9336 21.4688 -0.1055 21.4688 Q1.7383 21.4688 2.6602 19.6641 Q3.582 17.8594 3.582 14.2656 Q3.582 10.6562 2.6602 8.8594 Q1.7383 7.0625 -0.1055 7.0625 ZM-0.1055 5.1875 Q2.8477 5.1875 4.3945 7.5156 Q5.9414 9.8438 5.9414 14.2656 Q5.9414 18.6875 4.3945 21.0156 Q2.8477 23.3438 -0.1055 23.3438 Q-3.043 23.3438 -4.5977 21.0156 Q-6.1523 18.6875 -6.1523 14.2656 Q-6.1523 9.8438 -4.5977 7.5156 Q-3.043 5.1875 -0.1055 5.1875 ZM15.1641 7.0625 Q13.3359 7.0625 12.4219 8.8594 Q11.5078 10.6562 11.5078 14.2656 Q11.5078 17.8594 12.4219 19.6641 Q13.3359 21.4688 15.1641 21.4688 Q17.0078 21.4688 17.9297 19.6641 Q18.8516 17.8594 18.8516 14.2656 Q18.8516 10.6562 17.9297 8.8594 Q17.0078 7.0625 15.1641 7.0625 ZM15.1641 5.1875 Q18.1172 5.1875 19.6641 7.5156 Q21.2109 9.8438 21.2109 14.2656 Q21.2109 18.6875 19.6641 21.0156 Q18.1172 23.3438 15.1641 23.3438 Q12.2266 23.3438 10.6719 21.0156 Q9.1172 18.6875 9.1172 14.2656 Q9.1172 9.8438 10.6719 7.5156 Q12.2266 5.1875 15.1641 5.1875 Z"
         id="path53" />
    </g>
    <g
       transform="translate(300.5002,391)"
       style="font-size:24px; fill:rgb(38,38,38); text-rendering:geometricPrecision; image-rendering:optimizeQuality; color-rendering:optimizeQuality; font-family:'SansSerif'; stroke:rgb(38,38,38); color-interpolation:linearRGB;"
       id="g55">
      <path
         style="stroke:none;"
         d="M-100.0469 15.2969 Q-101.0625 15.2969 -101.6484 16.1641 Q-102.2344 17.0312 -102.2344 18.5781 Q-102.2344 20.1094 -101.6484 20.9766 Q-101.0625 21.8438 -100.0469 21.8438 Q-99.0469 21.8438 -98.4688 20.9766 Q-97.8906 20.1094 -97.8906 18.5781 Q-97.8906 17.0469 -98.4688 16.1719 Q-99.0469 15.2969 -100.0469 15.2969 ZM-100.0469 13.8125 Q-98.2031 13.8125 -97.1094 15.1016 Q-96.0156 16.3906 -96.0156 18.5781 Q-96.0156 20.7656 -97.1094 22.0547 Q-98.2031 23.3438 -100.0469 23.3438 Q-101.9219 23.3438 -103.0156 22.0547 Q-104.1094 20.7656 -104.1094 18.5781 Q-104.1094 16.375 -103.0078 15.0938 Q-101.9062 13.8125 -100.0469 13.8125 ZM-112.1406 6.6719 Q-113.1562 6.6719 -113.7344 7.5469 Q-114.3125 8.4219 -114.3125 9.9375 Q-114.3125 11.4844 -113.7344 12.3516 Q-113.1562 13.2188 -112.1406 13.2188 Q-111.125 13.2188 -110.5469 12.3516 Q-109.9688 11.4844 -109.9688 9.9375 Q-109.9688 8.4375 -110.5547 7.5547 Q-111.1406 6.6719 -112.1406 6.6719 ZM-101.5625 5.1875 L-99.6875 5.1875 L-110.625 23.3438 L-112.5 23.3438 L-101.5625 5.1875 ZM-112.1406 5.1875 Q-110.2969 5.1875 -109.1953 6.4688 Q-108.0938 7.75 -108.0938 9.9375 Q-108.0938 12.1562 -109.1875 13.4375 Q-110.2812 14.7188 -112.1406 14.7188 Q-114 14.7188 -115.0859 13.4297 Q-116.1719 12.1406 -116.1719 9.9375 Q-116.1719 7.7656 -115.0859 6.4766 Q-114 5.1875 -112.1406 5.1875 ZM-79.7227 11.3906 Q-81.457 11.3906 -82.4648 12.7422 Q-83.4727 14.0938 -83.4727 16.4531 Q-83.4727 18.7969 -82.4648 20.1562 Q-81.457 21.5156 -79.7227 21.5156 Q-77.9883 21.5156 -76.9805 20.1562 Q-75.9727 18.7969 -75.9727 16.4531 Q-75.9727 14.1094 -76.9805 12.75 Q-77.9883 11.3906 -79.7227 11.3906 ZM-79.7227 9.5625 Q-76.9102 9.5625 -75.3008 11.3906 Q-73.6914 13.2188 -73.6914 16.4531 Q-73.6914 19.6719 -75.3008 21.5078 Q-76.9102 23.3438 -79.7227 23.3438 Q-82.5352 23.3438 -84.1367 21.5078 Q-85.7383 19.6719 -85.7383 16.4531 Q-85.7383 13.2188 -84.1367 11.3906 Q-82.5352 9.5625 -79.7227 9.5625 ZM-63.4766 4.7656 L-63.4766 6.5625 L-65.5391 6.5625 Q-66.6953 6.5625 -67.1484 7.0312 Q-67.6016 7.5 -67.6016 8.7188 L-67.6016 9.875 L-64.0547 9.875 L-64.0547 11.5469 L-67.6016 11.5469 L-67.6016 23 L-69.7734 23 L-69.7734 11.5469 L-71.8359 11.5469 L-71.8359 9.875 L-69.7734 9.875 L-69.7734 8.9531 Q-69.7734 6.7656 -68.75 5.7656 Q-67.7266 4.7656 -65.5078 4.7656 L-63.4766 4.7656 ZM-48.9609 11.3906 Q-50.6953 11.3906 -51.7031 12.7422 Q-52.7109 14.0938 -52.7109 16.4531 Q-52.7109 18.7969 -51.7031 20.1562 Q-50.6953 21.5156 -48.9609 21.5156 Q-47.2266 21.5156 -46.2188 20.1562 Q-45.2109 18.7969 -45.2109 16.4531 Q-45.2109 14.1094 -46.2188 12.75 Q-47.2266 11.3906 -48.9609 11.3906 ZM-48.9609 9.5625 Q-46.1484 9.5625 -44.5391 11.3906 Q-42.9297 13.2188 -42.9297 16.4531 Q-42.9297 19.6719 -44.5391 21.5078 Q-46.1484 23.3438 -48.9609 23.3438 Q-51.7734 23.3438 -53.375 21.5078 Q-54.9766 19.6719 -54.9766 16.4531 Q-54.9766 13.2188 -53.375 11.3906 Q-51.7734 9.5625 -48.9609 9.5625 ZM-29.9336 16.4531 Q-29.9336 14.0625 -30.9102 12.7109 Q-31.8867 11.3594 -33.6055 11.3594 Q-35.3086 11.3594 -36.293 12.7109 Q-37.2773 14.0625 -37.2773 16.4531 Q-37.2773 18.8281 -36.293 20.1797 Q-35.3086 21.5312 -33.6055 21.5312 Q-31.8867 21.5312 -30.9102 20.1797 Q-29.9336 18.8281 -29.9336 16.4531 ZM-37.2773 11.8594 Q-36.5898 10.6875 -35.5508 10.125 Q-34.5117 9.5625 -33.0742 9.5625 Q-30.6836 9.5625 -29.1914 11.4609 Q-27.6992 13.3594 -27.6992 16.4531 Q-27.6992 19.5469 -29.1914 21.4453 Q-30.6836 23.3438 -33.0742 23.3438 Q-34.5117 23.3438 -35.5508 22.7734 Q-36.5898 22.2031 -37.2773 21.0312 L-37.2773 23 L-39.4336 23 L-39.4336 4.7656 L-37.2773 4.7656 L-37.2773 11.8594 ZM-15.7617 10.2656 L-15.7617 12.2969 Q-16.668 11.8281 -17.6523 11.5938 Q-18.6367 11.3594 -19.6992 11.3594 Q-21.293 11.3594 -22.0977 11.8516 Q-22.9023 12.3438 -22.9023 13.3281 Q-22.9023 14.0781 -22.332 14.5078 Q-21.7617 14.9375 -20.0273 15.3281 L-19.2773 15.4844 Q-16.9805 15.9844 -16.0195 16.875 Q-15.0586 17.7656 -15.0586 19.375 Q-15.0586 21.2031 -16.5039 22.2734 Q-17.9492 23.3438 -20.4805 23.3438 Q-21.5273 23.3438 -22.6758 23.1328 Q-23.8242 22.9219 -25.0898 22.5156 L-25.0898 20.2969 Q-23.8867 20.9062 -22.7305 21.2188 Q-21.5742 21.5312 -20.4336 21.5312 Q-18.9023 21.5312 -18.082 21.0078 Q-17.2617 20.4844 -17.2617 19.5469 Q-17.2617 18.6562 -17.8555 18.1875 Q-18.4492 17.7188 -20.4492 17.2969 L-21.1992 17.1094 Q-23.2148 16.6875 -24.1055 15.8203 Q-24.9961 14.9531 -24.9961 13.4219 Q-24.9961 11.5781 -23.6836 10.5703 Q-22.3711 9.5625 -19.9492 9.5625 Q-18.7617 9.5625 -17.707 9.7344 Q-16.6523 9.9062 -15.7617 10.2656 ZM-0.3984 15.8906 L-0.3984 16.9531 L-10.3047 16.9531 Q-10.1641 19.1719 -8.9609 20.3438 Q-7.7578 21.5156 -5.6172 21.5156 Q-4.3828 21.5156 -3.2109 21.2109 Q-2.0391 20.9062 -0.8984 20.2969 L-0.8984 22.3281 Q-2.0547 22.8281 -3.2734 23.0859 Q-4.4922 23.3438 -5.7422 23.3438 Q-8.8828 23.3438 -10.7188 21.5156 Q-12.5547 19.6875 -12.5547 16.5625 Q-12.5547 13.3438 -10.8125 11.4531 Q-9.0703 9.5625 -6.1172 9.5625 Q-3.4766 9.5625 -1.9375 11.2656 Q-0.3984 12.9688 -0.3984 15.8906 ZM-2.5547 15.2656 Q-2.5703 13.5 -3.5391 12.4453 Q-4.5078 11.3906 -6.1016 11.3906 Q-7.8984 11.3906 -8.9844 12.4062 Q-10.0703 13.4219 -10.2422 15.2812 L-2.5547 15.2656 ZM10.7578 11.8906 Q10.3828 11.6719 9.9609 11.5781 Q9.5391 11.4844 9.0234 11.4844 Q7.1953 11.4844 6.2109 12.6719 Q5.2266 13.8594 5.2266 16.0781 L5.2266 23 L3.0703 23 L3.0703 9.875 L5.2266 9.875 L5.2266 11.9062 Q5.9141 10.7188 7 10.1406 Q8.0859 9.5625 9.6484 9.5625 Q9.8672 9.5625 10.1406 9.5859 Q10.4141 9.6094 10.7422 9.6719 L10.7578 11.8906 ZM11.4688 9.875 L13.75 9.875 L17.8594 20.8906 L21.9531 9.875 L24.2344 9.875 L19.3125 23 L16.3906 23 L11.4688 9.875 ZM38.4375 15.8906 L38.4375 16.9531 L28.5312 16.9531 Q28.6719 19.1719 29.875 20.3438 Q31.0781 21.5156 33.2188 21.5156 Q34.4531 21.5156 35.625 21.2109 Q36.7969 20.9062 37.9375 20.2969 L37.9375 22.3281 Q36.7812 22.8281 35.5625 23.0859 Q34.3438 23.3438 33.0938 23.3438 Q29.9531 23.3438 28.1172 21.5156 Q26.2812 19.6875 26.2812 16.5625 Q26.2812 13.3438 28.0234 11.4531 Q29.7656 9.5625 32.7188 9.5625 Q35.3594 9.5625 36.8984 11.2656 Q38.4375 12.9688 38.4375 15.8906 ZM36.2812 15.2656 Q36.2656 13.5 35.2969 12.4453 Q34.3281 11.3906 32.7344 11.3906 Q30.9375 11.3906 29.8516 12.4062 Q28.7656 13.4219 28.5938 15.2812 L36.2812 15.2656 ZM50.625 11.8594 L50.625 4.7656 L52.7812 4.7656 L52.7812 23 L50.625 23 L50.625 21.0312 Q49.9375 22.2031 48.8984 22.7734 Q47.8594 23.3438 46.4062 23.3438 Q44.0312 23.3438 42.5391 21.4453 Q41.0469 19.5469 41.0469 16.4531 Q41.0469 13.3594 42.5391 11.4609 Q44.0312 9.5625 46.4062 9.5625 Q47.8594 9.5625 48.8984 10.125 Q49.9375 10.6875 50.625 11.8594 ZM43.2656 16.4531 Q43.2656 18.8281 44.25 20.1797 Q45.2344 21.5312 46.9375 21.5312 Q48.6562 21.5312 49.6406 20.1797 Q50.625 18.8281 50.625 16.4531 Q50.625 14.0625 49.6406 12.7109 Q48.6562 11.3594 46.9375 11.3594 Q45.2344 11.3594 44.25 12.7109 Q43.2656 14.0625 43.2656 16.4531 ZM73.4883 11.8594 L73.4883 4.7656 L75.6445 4.7656 L75.6445 23 L73.4883 23 L73.4883 21.0312 Q72.8008 22.2031 71.7617 22.7734 Q70.7227 23.3438 69.2695 23.3438 Q66.8945 23.3438 65.4023 21.4453 Q63.9102 19.5469 63.9102 16.4531 Q63.9102 13.3594 65.4023 11.4609 Q66.8945 9.5625 69.2695 9.5625 Q70.7227 9.5625 71.7617 10.125 Q72.8008 10.6875 73.4883 11.8594 ZM66.1289 16.4531 Q66.1289 18.8281 67.1133 20.1797 Q68.0977 21.5312 69.8008 21.5312 Q71.5195 21.5312 72.5039 20.1797 Q73.4883 18.8281 73.4883 16.4531 Q73.4883 14.0625 72.5039 12.7109 Q71.5195 11.3594 69.8008 11.3594 Q68.0977 11.3594 67.1133 12.7109 Q66.1289 14.0625 66.1289 16.4531 ZM86.0508 16.4062 Q83.4258 16.4062 82.418 17 Q81.4102 17.5938 81.4102 19.0312 Q81.4102 20.1875 82.168 20.8594 Q82.9258 21.5312 84.2227 21.5312 Q86.0195 21.5312 87.1055 20.2578 Q88.1914 18.9844 88.1914 16.875 L88.1914 16.4062 L86.0508 16.4062 ZM90.3477 15.5156 L90.3477 23 L88.1914 23 L88.1914 21 Q87.457 22.2031 86.3555 22.7734 Q85.2539 23.3438 83.6602 23.3438 Q81.6445 23.3438 80.4492 22.2109 Q79.2539 21.0781 79.2539 19.1719 Q79.2539 16.9688 80.7383 15.8438 Q82.2227 14.7188 85.1602 14.7188 L88.1914 14.7188 L88.1914 14.5 Q88.1914 13.0156 87.2148 12.2031 Q86.2383 11.3906 84.457 11.3906 Q83.332 11.3906 82.2695 11.6562 Q81.207 11.9219 80.2227 12.4688 L80.2227 10.4688 Q81.4102 10.0156 82.5195 9.7891 Q83.6289 9.5625 84.6914 9.5625 Q87.5352 9.5625 88.9414 11.0391 Q90.3477 12.5156 90.3477 15.5156 ZM96.9141 6.1406 L96.9141 9.875 L101.3672 9.875 L101.3672 11.5469 L96.9141 11.5469 L96.9141 18.6719 Q96.9141 20.2812 97.3594 20.7344 Q97.8047 21.1875 99.1484 21.1875 L101.3672 21.1875 L101.3672 23 L99.1484 23 Q96.6484 23 95.7031 22.0703 Q94.7578 21.1406 94.7578 18.6719 L94.7578 11.5469 L93.1641 11.5469 L93.1641 9.875 L94.7578 9.875 L94.7578 6.1406 L96.9141 6.1406 ZM110.168 16.4062 Q107.543 16.4062 106.5352 17 Q105.5273 17.5938 105.5273 19.0312 Q105.5273 20.1875 106.2852 20.8594 Q107.043 21.5312 108.3398 21.5312 Q110.1367 21.5312 111.2227 20.2578 Q112.3086 18.9844 112.3086 16.875 L112.3086 16.4062 L110.168 16.4062 ZM114.4648 15.5156 L114.4648 23 L112.3086 23 L112.3086 21 Q111.5742 22.2031 110.4727 22.7734 Q109.3711 23.3438 107.7773 23.3438 Q105.7617 23.3438 104.5664 22.2109 Q103.3711 21.0781 103.3711 19.1719 Q103.3711 16.9688 104.8555 15.8438 Q106.3398 14.7188 109.2773 14.7188 L112.3086 14.7188 L112.3086 14.5 Q112.3086 13.0156 111.332 12.2031 Q110.3555 11.3906 108.5742 11.3906 Q107.4492 11.3906 106.3867 11.6562 Q105.3242 11.9219 104.3398 12.4688 L104.3398 10.4688 Q105.5273 10.0156 106.6367 9.7891 Q107.7461 9.5625 108.8086 9.5625 Q111.6523 9.5625 113.0586 11.0391 Q114.4648 12.5156 114.4648 15.5156 Z"
         id="path57" />
    </g>
    <g
       style="fill:rgb(38,38,38); text-rendering:geometricPrecision; image-rendering:optimizeQuality; color-rendering:optimizeQuality; stroke-linejoin:round; stroke:rgb(38,38,38); color-interpolation:linearRGB; stroke-width:0.6667;"
       id="g59">
      <line
         y2="31"
         style="fill:none;"
         x1="94"
         x2="94"
         y1="353"
         id="line61" />
      <line
         y2="353"
         style="fill:none;"
         x1="94"
         x2="98.1273"
         y1="353"
         id="line63" />
      <line
         y2="299.3333"
         style="fill:none;"
         x1="94"
         x2="98.1273"
         y1="299.3333"
         id="line65" />
      <line
         y2="245.6667"
         style="fill:none;"
         x1="94"
         x2="98.1273"
         y1="245.6667"
         id="line67" />
      <line
         y2="192"
         style="fill:none;"
         x1="94"
         x2="98.1273"
         y1="192"
         id="line69" />
      <line
         y2="138.3333"
         style="fill:none;"
         x1="94"
         x2="98.1273"
         y1="138.3333"
         id="line71" />
      <line
         y2="84.6667"
         style="fill:none;"
         x1="94"
         x2="98.1273"
         y1="84.6667"
         id="line73" />
      <line
         y2="31"
         style="fill:none;"
         x1="94"
         x2="98.1273"
         y1="31"
         id="line75" />
    </g>
    <g
       transform="translate(86.5333,353)"
       style="font-size:24px; fill:rgb(38,38,38); text-rendering:geometricPrecision; image-rendering:optimizeQuality; color-rendering:optimizeQuality; font-family:'SansSerif'; stroke:rgb(38,38,38); color-interpolation:linearRGB;"
       id="g77">
      <path
         style="stroke:none;"
         d="M-8.375 -7.4375 Q-10.2031 -7.4375 -11.1172 -5.6406 Q-12.0312 -3.8438 -12.0312 -0.2344 Q-12.0312 3.3594 -11.1172 5.1641 Q-10.2031 6.9688 -8.375 6.9688 Q-6.5312 6.9688 -5.6094 5.1641 Q-4.6875 3.3594 -4.6875 -0.2344 Q-4.6875 -3.8438 -5.6094 -5.6406 Q-6.5312 -7.4375 -8.375 -7.4375 ZM-8.375 -9.3125 Q-5.4219 -9.3125 -3.875 -6.9844 Q-2.3281 -4.6562 -2.3281 -0.2344 Q-2.3281 4.1875 -3.875 6.5156 Q-5.4219 8.8438 -8.375 8.8438 Q-11.3125 8.8438 -12.8672 6.5156 Q-14.4219 4.1875 -14.4219 -0.2344 Q-14.4219 -4.6562 -12.8672 -6.9844 Q-11.3125 -9.3125 -8.375 -9.3125 Z"
         id="path79" />
    </g>
    <g
       transform="translate(86.5333,299.3333)"
       style="font-size:24px; fill:rgb(38,38,38); text-rendering:geometricPrecision; image-rendering:optimizeQuality; color-rendering:optimizeQuality; font-family:'SansSerif'; stroke:rgb(38,38,38); color-interpolation:linearRGB;"
       id="g81">
      <path
         style="stroke:none;"
         d="M-46.375 -7.4375 Q-48.2031 -7.4375 -49.1172 -5.6406 Q-50.0312 -3.8438 -50.0312 -0.2344 Q-50.0312 3.3594 -49.1172 5.1641 Q-48.2031 6.9688 -46.375 6.9688 Q-44.5312 6.9688 -43.6094 5.1641 Q-42.6875 3.3594 -42.6875 -0.2344 Q-42.6875 -3.8438 -43.6094 -5.6406 Q-44.5312 -7.4375 -46.375 -7.4375 ZM-46.375 -9.3125 Q-43.4219 -9.3125 -41.875 -6.9844 Q-40.3281 -4.6562 -40.3281 -0.2344 Q-40.3281 4.1875 -41.875 6.5156 Q-43.4219 8.8438 -46.375 8.8438 Q-49.3125 8.8438 -50.8672 6.5156 Q-52.4219 4.1875 -52.4219 -0.2344 Q-52.4219 -4.6562 -50.8672 -6.9844 Q-49.3125 -9.3125 -46.375 -9.3125 ZM-36.168 5.5156 L-33.6836 5.5156 L-33.6836 8.5 L-36.168 8.5 L-36.168 5.5156 ZM-23.4766 -7.4375 Q-25.3047 -7.4375 -26.2188 -5.6406 Q-27.1328 -3.8438 -27.1328 -0.2344 Q-27.1328 3.3594 -26.2188 5.1641 Q-25.3047 6.9688 -23.4766 6.9688 Q-21.6328 6.9688 -20.7109 5.1641 Q-19.7891 3.3594 -19.7891 -0.2344 Q-19.7891 -3.8438 -20.7109 -5.6406 Q-21.6328 -7.4375 -23.4766 -7.4375 ZM-23.4766 -9.3125 Q-20.5234 -9.3125 -18.9766 -6.9844 Q-17.4297 -4.6562 -17.4297 -0.2344 Q-17.4297 4.1875 -18.9766 6.5156 Q-20.5234 8.8438 -23.4766 8.8438 Q-26.4141 8.8438 -27.9688 6.5156 Q-29.5234 4.1875 -29.5234 -0.2344 Q-29.5234 -4.6562 -27.9688 -6.9844 Q-26.4141 -9.3125 -23.4766 -9.3125 ZM-13.2383 -9 L-3.9414 -9 L-3.9414 -7 L-11.0664 -7 L-11.0664 -2.7188 Q-10.5508 -2.8906 -10.0352 -2.9766 Q-9.5195 -3.0625 -9.0039 -3.0625 Q-6.082 -3.0625 -4.3711 -1.4609 Q-2.6602 0.1406 -2.6602 2.8906 Q-2.6602 5.7031 -4.418 7.2734 Q-6.1758 8.8438 -9.3789 8.8438 Q-10.4727 8.8438 -11.6133 8.6562 Q-12.7539 8.4688 -13.9727 8.0938 L-13.9727 5.7031 Q-12.9258 6.2812 -11.8008 6.5625 Q-10.6758 6.8438 -9.4258 6.8438 Q-7.3945 6.8438 -6.207 5.7812 Q-5.0195 4.7188 -5.0195 2.8906 Q-5.0195 1.0625 -6.207 -0.0078 Q-7.3945 -1.0781 -9.4258 -1.0781 Q-10.3633 -1.0781 -11.3086 -0.8672 Q-12.2539 -0.6562 -13.2383 -0.2031 L-13.2383 -9 Z"
         id="path83" />
    </g>
    <g
       transform="translate(86.5333,245.6667)"
       style="font-size:24px; fill:rgb(38,38,38); text-rendering:geometricPrecision; image-rendering:optimizeQuality; color-rendering:optimizeQuality; font-family:'SansSerif'; stroke:rgb(38,38,38); color-interpolation:linearRGB;"
       id="g85">
      <path
         style="stroke:none;"
         d="M-31.375 -7.4375 Q-33.2031 -7.4375 -34.1172 -5.6406 Q-35.0312 -3.8438 -35.0312 -0.2344 Q-35.0312 3.3594 -34.1172 5.1641 Q-33.2031 6.9688 -31.375 6.9688 Q-29.5312 6.9688 -28.6094 5.1641 Q-27.6875 3.3594 -27.6875 -0.2344 Q-27.6875 -3.8438 -28.6094 -5.6406 Q-29.5312 -7.4375 -31.375 -7.4375 ZM-31.375 -9.3125 Q-28.4219 -9.3125 -26.875 -6.9844 Q-25.3281 -4.6562 -25.3281 -0.2344 Q-25.3281 4.1875 -26.875 6.5156 Q-28.4219 8.8438 -31.375 8.8438 Q-34.3125 8.8438 -35.8672 6.5156 Q-37.4219 4.1875 -37.4219 -0.2344 Q-37.4219 -4.6562 -35.8672 -6.9844 Q-34.3125 -9.3125 -31.375 -9.3125 ZM-21.168 5.5156 L-18.6836 5.5156 L-18.6836 8.5 L-21.168 8.5 L-21.168 5.5156 ZM-13.1172 6.5 L-9.2578 6.5 L-9.2578 -6.8438 L-13.4609 -6 L-13.4609 -8.1562 L-9.2734 -9 L-6.9141 -9 L-6.9141 6.5 L-3.0391 6.5 L-3.0391 8.5 L-13.1172 8.5 L-13.1172 6.5 Z"
         id="path87" />
    </g>
    <g
       transform="translate(86.5333,192)"
       style="font-size:24px; fill:rgb(38,38,38); text-rendering:geometricPrecision; image-rendering:optimizeQuality; color-rendering:optimizeQuality; font-family:'SansSerif'; stroke:rgb(38,38,38); color-interpolation:linearRGB;"
       id="g89">
      <path
         style="stroke:none;"
         d="M-46.375 -7.4375 Q-48.2031 -7.4375 -49.1172 -5.6406 Q-50.0312 -3.8438 -50.0312 -0.2344 Q-50.0312 3.3594 -49.1172 5.1641 Q-48.2031 6.9688 -46.375 6.9688 Q-44.5312 6.9688 -43.6094 5.1641 Q-42.6875 3.3594 -42.6875 -0.2344 Q-42.6875 -3.8438 -43.6094 -5.6406 Q-44.5312 -7.4375 -46.375 -7.4375 ZM-46.375 -9.3125 Q-43.4219 -9.3125 -41.875 -6.9844 Q-40.3281 -4.6562 -40.3281 -0.2344 Q-40.3281 4.1875 -41.875 6.5156 Q-43.4219 8.8438 -46.375 8.8438 Q-49.3125 8.8438 -50.8672 6.5156 Q-52.4219 4.1875 -52.4219 -0.2344 Q-52.4219 -4.6562 -50.8672 -6.9844 Q-49.3125 -9.3125 -46.375 -9.3125 ZM-36.168 5.5156 L-33.6836 5.5156 L-33.6836 8.5 L-36.168 8.5 L-36.168 5.5156 ZM-28.1172 6.5 L-24.2578 6.5 L-24.2578 -6.8438 L-28.4609 -6 L-28.4609 -8.1562 L-24.2734 -9 L-21.9141 -9 L-21.9141 6.5 L-18.0391 6.5 L-18.0391 8.5 L-28.1172 8.5 L-28.1172 6.5 ZM-13.2383 -9 L-3.9414 -9 L-3.9414 -7 L-11.0664 -7 L-11.0664 -2.7188 Q-10.5508 -2.8906 -10.0352 -2.9766 Q-9.5195 -3.0625 -9.0039 -3.0625 Q-6.082 -3.0625 -4.3711 -1.4609 Q-2.6602 0.1406 -2.6602 2.8906 Q-2.6602 5.7031 -4.418 7.2734 Q-6.1758 8.8438 -9.3789 8.8438 Q-10.4727 8.8438 -11.6133 8.6562 Q-12.7539 8.4688 -13.9727 8.0938 L-13.9727 5.7031 Q-12.9258 6.2812 -11.8008 6.5625 Q-10.6758 6.8438 -9.4258 6.8438 Q-7.3945 6.8438 -6.207 5.7812 Q-5.0195 4.7188 -5.0195 2.8906 Q-5.0195 1.0625 -6.207 -0.0078 Q-7.3945 -1.0781 -9.4258 -1.0781 Q-10.3633 -1.0781 -11.3086 -0.8672 Q-12.2539 -0.6562 -13.2383 -0.2031 L-13.2383 -9 Z"
         id="path91" />
    </g>
    <g
       transform="translate(86.5333,138.3333)"
       style="font-size:24px; fill:rgb(38,38,38); text-rendering:geometricPrecision; image-rendering:optimizeQuality; color-rendering:optimizeQuality; font-family:'SansSerif'; stroke:rgb(38,38,38); color-interpolation:linearRGB;"
       id="g93">
      <path
         style="stroke:none;"
         d="M-31.375 -7.4375 Q-33.2031 -7.4375 -34.1172 -5.6406 Q-35.0312 -3.8438 -35.0312 -0.2344 Q-35.0312 3.3594 -34.1172 5.1641 Q-33.2031 6.9688 -31.375 6.9688 Q-29.5312 6.9688 -28.6094 5.1641 Q-27.6875 3.3594 -27.6875 -0.2344 Q-27.6875 -3.8438 -28.6094 -5.6406 Q-29.5312 -7.4375 -31.375 -7.4375 ZM-31.375 -9.3125 Q-28.4219 -9.3125 -26.875 -6.9844 Q-25.3281 -4.6562 -25.3281 -0.2344 Q-25.3281 4.1875 -26.875 6.5156 Q-28.4219 8.8438 -31.375 8.8438 Q-34.3125 8.8438 -35.8672 6.5156 Q-37.4219 4.1875 -37.4219 -0.2344 Q-37.4219 -4.6562 -35.8672 -6.9844 Q-34.3125 -9.3125 -31.375 -9.3125 ZM-21.168 5.5156 L-18.6836 5.5156 L-18.6836 8.5 L-21.168 8.5 L-21.168 5.5156 ZM-11.4922 6.5 L-3.2266 6.5 L-3.2266 8.5 L-14.3359 8.5 L-14.3359 6.5 Q-12.9922 5.1094 -10.6641 2.7578 Q-8.3359 0.4062 -7.7422 -0.2656 Q-6.6016 -1.5469 -6.1562 -2.4297 Q-5.7109 -3.3125 -5.7109 -4.1719 Q-5.7109 -5.5625 -6.6875 -6.4453 Q-7.6641 -7.3281 -9.2266 -7.3281 Q-10.3516 -7.3281 -11.5859 -6.9375 Q-12.8203 -6.5469 -14.2266 -5.7656 L-14.2266 -8.1562 Q-12.7891 -8.7344 -11.5469 -9.0234 Q-10.3047 -9.3125 -9.2734 -9.3125 Q-6.5547 -9.3125 -4.9375 -7.9531 Q-3.3203 -6.5938 -3.3203 -4.3281 Q-3.3203 -3.25 -3.7266 -2.2812 Q-4.1328 -1.3125 -5.1953 0 Q-5.4922 0.3438 -7.0625 1.9688 Q-8.6328 3.5938 -11.4922 6.5 Z"
         id="path95" />
    </g>
    <g
       transform="translate(86.5333,84.6667)"
       style="font-size:24px; fill:rgb(38,38,38); text-rendering:geometricPrecision; image-rendering:optimizeQuality; color-rendering:optimizeQuality; font-family:'SansSerif'; stroke:rgb(38,38,38); color-interpolation:linearRGB;"
       id="g97">
      <path
         style="stroke:none;"
         d="M-46.375 -7.4375 Q-48.2031 -7.4375 -49.1172 -5.6406 Q-50.0312 -3.8438 -50.0312 -0.2344 Q-50.0312 3.3594 -49.1172 5.1641 Q-48.2031 6.9688 -46.375 6.9688 Q-44.5312 6.9688 -43.6094 5.1641 Q-42.6875 3.3594 -42.6875 -0.2344 Q-42.6875 -3.8438 -43.6094 -5.6406 Q-44.5312 -7.4375 -46.375 -7.4375 ZM-46.375 -9.3125 Q-43.4219 -9.3125 -41.875 -6.9844 Q-40.3281 -4.6562 -40.3281 -0.2344 Q-40.3281 4.1875 -41.875 6.5156 Q-43.4219 8.8438 -46.375 8.8438 Q-49.3125 8.8438 -50.8672 6.5156 Q-52.4219 4.1875 -52.4219 -0.2344 Q-52.4219 -4.6562 -50.8672 -6.9844 Q-49.3125 -9.3125 -46.375 -9.3125 ZM-36.168 5.5156 L-33.6836 5.5156 L-33.6836 8.5 L-36.168 8.5 L-36.168 5.5156 ZM-26.4922 6.5 L-18.2266 6.5 L-18.2266 8.5 L-29.3359 8.5 L-29.3359 6.5 Q-27.9922 5.1094 -25.6641 2.7578 Q-23.3359 0.4062 -22.7422 -0.2656 Q-21.6016 -1.5469 -21.1562 -2.4297 Q-20.7109 -3.3125 -20.7109 -4.1719 Q-20.7109 -5.5625 -21.6875 -6.4453 Q-22.6641 -7.3281 -24.2266 -7.3281 Q-25.3516 -7.3281 -26.5859 -6.9375 Q-27.8203 -6.5469 -29.2266 -5.7656 L-29.2266 -8.1562 Q-27.7891 -8.7344 -26.5469 -9.0234 Q-25.3047 -9.3125 -24.2734 -9.3125 Q-21.5547 -9.3125 -19.9375 -7.9531 Q-18.3203 -6.5938 -18.3203 -4.3281 Q-18.3203 -3.25 -18.7266 -2.2812 Q-19.1328 -1.3125 -20.1953 0 Q-20.4922 0.3438 -22.0625 1.9688 Q-23.6328 3.5938 -26.4922 6.5 ZM-13.2383 -9 L-3.9414 -9 L-3.9414 -7 L-11.0664 -7 L-11.0664 -2.7188 Q-10.5508 -2.8906 -10.0352 -2.9766 Q-9.5195 -3.0625 -9.0039 -3.0625 Q-6.082 -3.0625 -4.3711 -1.4609 Q-2.6602 0.1406 -2.6602 2.8906 Q-2.6602 5.7031 -4.418 7.2734 Q-6.1758 8.8438 -9.3789 8.8438 Q-10.4727 8.8438 -11.6133 8.6562 Q-12.7539 8.4688 -13.9727 8.0938 L-13.9727 5.7031 Q-12.9258 6.2812 -11.8008 6.5625 Q-10.6758 6.8438 -9.4258 6.8438 Q-7.3945 6.8438 -6.207 5.7812 Q-5.0195 4.7188 -5.0195 2.8906 Q-5.0195 1.0625 -6.207 -0.0078 Q-7.3945 -1.0781 -9.4258 -1.0781 Q-10.3633 -1.0781 -11.3086 -0.8672 Q-12.2539 -0.6562 -13.2383 -0.2031 L-13.2383 -9 Z"
         id="path99" />
    </g>
    <g
       transform="translate(86.5333,31)"
       style="font-size:24px; fill:rgb(38,38,38); text-rendering:geometricPrecision; image-rendering:optimizeQuality; color-rendering:optimizeQuality; font-family:'SansSerif'; stroke:rgb(38,38,38); color-interpolation:linearRGB;"
       id="g101">
      <path
         style="stroke:none;"
         d="M-31.375 -7.4375 Q-33.2031 -7.4375 -34.1172 -5.6406 Q-35.0312 -3.8438 -35.0312 -0.2344 Q-35.0312 3.3594 -34.1172 5.1641 Q-33.2031 6.9688 -31.375 6.9688 Q-29.5312 6.9688 -28.6094 5.1641 Q-27.6875 3.3594 -27.6875 -0.2344 Q-27.6875 -3.8438 -28.6094 -5.6406 Q-29.5312 -7.4375 -31.375 -7.4375 ZM-31.375 -9.3125 Q-28.4219 -9.3125 -26.875 -6.9844 Q-25.3281 -4.6562 -25.3281 -0.2344 Q-25.3281 4.1875 -26.875 6.5156 Q-28.4219 8.8438 -31.375 8.8438 Q-34.3125 8.8438 -35.8672 6.5156 Q-37.4219 4.1875 -37.4219 -0.2344 Q-37.4219 -4.6562 -35.8672 -6.9844 Q-34.3125 -9.3125 -31.375 -9.3125 ZM-21.168 5.5156 L-18.6836 5.5156 L-18.6836 8.5 L-21.168 8.5 L-21.168 5.5156 ZM-6.3672 -0.9375 Q-4.6641 -0.5781 -3.7109 0.5703 Q-2.7578 1.7188 -2.7578 3.4062 Q-2.7578 6 -4.5391 7.4219 Q-6.3203 8.8438 -9.6016 8.8438 Q-10.6953 8.8438 -11.8594 8.625 Q-13.0234 8.4062 -14.2734 7.9688 L-14.2734 5.6875 Q-13.2891 6.2656 -12.1172 6.5547 Q-10.9453 6.8438 -9.6641 6.8438 Q-7.4453 6.8438 -6.2734 5.9688 Q-5.1016 5.0938 -5.1016 3.4062 Q-5.1016 1.8594 -6.1875 0.9922 Q-7.2734 0.125 -9.2109 0.125 L-11.2422 0.125 L-11.2422 -1.8281 L-9.1172 -1.8281 Q-7.3672 -1.8281 -6.4453 -2.5234 Q-5.5234 -3.2188 -5.5234 -4.5312 Q-5.5234 -5.875 -6.4766 -6.6016 Q-7.4297 -7.3281 -9.2109 -7.3281 Q-10.1797 -7.3281 -11.2969 -7.1172 Q-12.4141 -6.9062 -13.7422 -6.4531 L-13.7422 -8.5625 Q-12.3984 -8.9375 -11.2188 -9.125 Q-10.0391 -9.3125 -8.9922 -9.3125 Q-6.3047 -9.3125 -4.7344 -8.0859 Q-3.1641 -6.8594 -3.1641 -4.7812 Q-3.1641 -3.3281 -3.9922 -2.3281 Q-4.8203 -1.3281 -6.3672 -0.9375 Z"
         id="path103" />
    </g>
    <g
       transform="translate(28.8,191.9998) rotate(-90)"
       style="font-size:24px; fill:rgb(38,38,38); text-rendering:geometricPrecision; image-rendering:optimizeQuality; color-rendering:optimizeQuality; font-family:'mwa_cmr10'; stroke:rgb(38,38,38); color-interpolation:linearRGB;"
       id="g105">
      <path
         style="stroke:none;"
         d="M-76.2746 -10.9995 Q-76.2746 -12.4213 -75.1496 -13.3198 Q-74.0246 -14.2182 -72.4543 -14.5854 Q-70.884 -14.9526 -69.4621 -14.9526 L-69.4621 -15.937 Q-69.4621 -16.6401 -69.7668 -17.2885 Q-70.0715 -17.937 -70.6418 -18.351 Q-71.2121 -18.7651 -71.9153 -18.7651 Q-73.509 -18.7651 -74.3371 -18.0463 Q-73.884 -18.0463 -73.5793 -17.7026 Q-73.2746 -17.3588 -73.2746 -16.9057 Q-73.2746 -16.4213 -73.6184 -16.0854 Q-73.9621 -15.7495 -74.4309 -15.7495 Q-74.9153 -15.7495 -75.2512 -16.0854 Q-75.5871 -16.4213 -75.5871 -16.9057 Q-75.5871 -18.1713 -74.4387 -18.7885 Q-73.2903 -19.4057 -71.9153 -19.4057 Q-70.9309 -19.4057 -69.9465 -18.9838 Q-68.9621 -18.562 -68.3371 -17.7885 Q-67.7121 -17.0151 -67.7121 -15.9838 L-67.7121 -10.5932 Q-67.7121 -10.1245 -67.5168 -9.726 Q-67.3215 -9.3276 -66.8996 -9.3276 Q-66.4934 -9.3276 -66.2981 -9.726 Q-66.1028 -10.1245 -66.1028 -10.5932 L-66.1028 -12.1245 L-65.3996 -12.1245 L-65.3996 -10.5932 Q-65.3996 -10.0463 -65.6809 -9.562 Q-65.9621 -9.0776 -66.4387 -8.7885 Q-66.9153 -8.4995 -67.4621 -8.4995 Q-68.1653 -8.4995 -68.6809 -9.0463 Q-69.1965 -9.5932 -69.2434 -10.3432 Q-69.6965 -9.437 -70.5637 -8.9057 Q-71.4309 -8.3745 -72.4153 -8.3745 Q-73.3215 -8.3745 -74.2121 -8.6401 Q-75.1028 -8.9057 -75.6887 -9.4917 Q-76.2746 -10.0776 -76.2746 -10.9995 ZM-74.3371 -10.9995 Q-74.3371 -10.1557 -73.7121 -9.5776 Q-73.0871 -8.9995 -72.2434 -8.9995 Q-71.4778 -8.9995 -70.8449 -9.3901 Q-70.2121 -9.7807 -69.8371 -10.4448 Q-69.4621 -11.1088 -69.4621 -11.8588 L-69.4621 -14.3432 Q-70.5559 -14.3432 -71.6965 -13.9917 Q-72.8371 -13.6401 -73.5871 -12.8745 Q-74.3371 -12.1088 -74.3371 -10.9995 Z"
         id="path107" />
      <path
         style="stroke:none;"
         d="M-62.7433 -8.6401 L-62.7433 -22.8432 Q-62.7433 -23.4838 -62.9387 -23.7729 Q-63.134 -24.062 -63.4933 -24.1245 Q-63.8527 -24.187 -64.6183 -24.187 L-64.6183 -25.0307 L-61.0715 -25.2963 L-61.0715 -17.7807 Q-60.6652 -18.2338 -60.134 -18.562 Q-59.6027 -18.8901 -58.9933 -19.0698 Q-58.384 -19.2495 -57.759 -19.2495 Q-56.6808 -19.2495 -55.759 -18.812 Q-54.8371 -18.3745 -54.1574 -17.6166 Q-53.4777 -16.8588 -53.0949 -15.8667 Q-52.7121 -14.8745 -52.7121 -13.8276 Q-52.7121 -12.3745 -53.423 -11.1167 Q-54.134 -9.8588 -55.3605 -9.1167 Q-56.5871 -8.3745 -58.0402 -8.3745 Q-58.9621 -8.3745 -59.8137 -8.8432 Q-60.6652 -9.312 -61.2277 -10.0776 L-62.0558 -8.6401 L-62.7433 -8.6401 ZM-60.9933 -10.9995 Q-60.6027 -10.1245 -59.8527 -9.562 Q-59.1027 -8.9995 -58.1808 -8.9995 Q-56.9465 -8.9995 -56.1808 -9.7182 Q-55.4152 -10.437 -55.1105 -11.5229 Q-54.8058 -12.6088 -54.8058 -13.8276 Q-54.8058 -15.8432 -55.3215 -16.9057 Q-55.5558 -17.3745 -55.9621 -17.7729 Q-56.3683 -18.1713 -56.8683 -18.3979 Q-57.3683 -18.6245 -57.9152 -18.6245 Q-58.884 -18.6245 -59.7043 -18.1166 Q-60.5246 -17.6088 -60.9933 -16.7495 L-60.9933 -10.9995 Z"
         id="path109" />
      <path
         style="stroke:none;"
         d="M-51.1131 -8.562 L-51.1131 -12.4838 Q-51.1131 -12.6713 -50.8943 -12.6713 L-50.6131 -12.6713 Q-50.4725 -12.6713 -50.4256 -12.4838 Q-49.7537 -8.9995 -47.1912 -8.9995 Q-46.0506 -8.9995 -45.285 -9.5151 Q-44.5193 -10.0307 -44.5193 -11.1088 Q-44.5193 -11.8901 -45.1131 -12.437 Q-45.7068 -12.9838 -46.535 -13.1713 L-48.1287 -13.4995 Q-48.9412 -13.6713 -49.6053 -14.0307 Q-50.2693 -14.3901 -50.6912 -14.9995 Q-51.1131 -15.6088 -51.1131 -16.4057 Q-51.1131 -17.4526 -50.5584 -18.1245 Q-50.0037 -18.7963 -49.1131 -19.101 Q-48.2225 -19.4057 -47.1912 -19.4057 Q-45.9568 -19.4057 -45.035 -18.7495 L-44.3475 -19.3432 Q-44.3475 -19.4057 -44.2381 -19.4057 L-44.0506 -19.4057 Q-43.9881 -19.4057 -43.9256 -19.3354 Q-43.8631 -19.2651 -43.8631 -19.2026 L-43.8631 -16.062 Q-43.8631 -15.8432 -44.0506 -15.8432 L-44.3475 -15.8432 Q-44.5662 -15.8432 -44.5662 -16.062 Q-44.5662 -17.312 -45.2615 -18.0776 Q-45.9568 -18.8432 -47.2068 -18.8432 Q-48.285 -18.8432 -49.074 -18.4448 Q-49.8631 -18.0463 -49.8631 -17.062 Q-49.8631 -16.4057 -49.3006 -15.976 Q-48.7381 -15.5463 -47.9725 -15.3588 L-46.3475 -15.0463 Q-45.5193 -14.8588 -44.8084 -14.4135 Q-44.0975 -13.9682 -43.6834 -13.2885 Q-43.2693 -12.6088 -43.2693 -11.7651 Q-43.2693 -10.8901 -43.5662 -10.2495 Q-43.8631 -9.6088 -44.4021 -9.187 Q-44.9412 -8.7651 -45.6678 -8.5698 Q-46.3943 -8.3745 -47.1912 -8.3745 Q-48.6912 -8.3745 -49.7537 -9.3745 L-50.6287 -8.4213 Q-50.6287 -8.3745 -50.7537 -8.3745 L-50.8943 -8.3745 Q-51.1131 -8.3745 -51.1131 -8.562 Z"
         id="path111" />
      <path
         style="stroke:none;"
         d="M-35.0058 -2.687 Q-36.3339 -3.7338 -37.3027 -5.101 Q-38.2714 -6.4682 -38.8886 -8.0151 Q-39.5058 -9.562 -39.8105 -11.2495 Q-40.1152 -12.937 -40.1152 -14.6401 Q-40.1152 -16.3588 -39.8105 -18.0463 Q-39.5058 -19.7338 -38.873 -21.2963 Q-38.2402 -22.8588 -37.2714 -24.2182 Q-36.3027 -25.5776 -35.0058 -26.5932 Q-35.0058 -26.6401 -34.8808 -26.6401 L-34.662 -26.6401 Q-34.5839 -26.6401 -34.5292 -26.5776 Q-34.4745 -26.5151 -34.4745 -26.437 Q-34.4745 -26.3276 -34.5214 -26.2807 Q-35.6933 -25.1245 -36.4745 -23.812 Q-37.2558 -22.4995 -37.7245 -21.0229 Q-38.1933 -19.5463 -38.4042 -17.9526 Q-38.6152 -16.3588 -38.6152 -14.6401 Q-38.6152 -7.0151 -34.537 -3.0463 Q-34.4745 -2.9838 -34.4745 -2.8432 Q-34.4745 -2.7963 -34.537 -2.7182 Q-34.5995 -2.6401 -34.662 -2.6401 L-34.8808 -2.6401 Q-35.0058 -2.6401 -35.0058 -2.687 Z"
         id="path113" />
      <path
         style="stroke:none;"
         d="M-28.2818 -8.3745 Q-29.4224 -8.3745 -30.3053 -8.9135 Q-31.1881 -9.4526 -31.6646 -10.3667 Q-32.1412 -11.2807 -32.1412 -12.437 Q-32.1412 -14.062 -31.2349 -15.6557 Q-30.3287 -17.2495 -28.8209 -18.2495 Q-27.3131 -19.2495 -25.6724 -19.2495 Q-24.4537 -19.2495 -23.524 -18.6088 Q-22.5943 -17.9682 -22.1178 -16.9057 Q-21.6412 -15.8432 -21.6412 -14.6401 L-21.6099 -13.0307 Q-20.7974 -14.1713 -20.2271 -15.3979 Q-19.6568 -16.6245 -19.3443 -17.937 Q-19.2974 -18.0776 -19.1568 -18.0776 L-18.8756 -18.0776 Q-18.6568 -18.0776 -18.6568 -17.8588 Q-18.6568 -17.8276 -18.6881 -17.7807 Q-18.9693 -16.687 -19.3912 -15.6713 Q-19.8131 -14.6557 -20.3756 -13.7026 Q-20.9381 -12.7495 -21.6099 -11.9838 Q-21.6099 -8.9995 -20.9224 -8.9995 Q-20.4693 -8.9995 -20.1881 -9.2651 Q-19.9068 -9.5307 -19.6881 -9.9213 Q-19.4693 -10.312 -19.4068 -10.312 L-19.1099 -10.312 Q-18.9224 -10.312 -18.9224 -10.0776 Q-18.9224 -9.4838 -19.6099 -8.9292 Q-20.2974 -8.3745 -20.9693 -8.3745 Q-21.8287 -8.3745 -22.4068 -8.937 Q-22.9849 -9.4995 -23.1881 -10.4057 Q-24.3131 -9.437 -25.6256 -8.9057 Q-26.9381 -8.3745 -28.2818 -8.3745 ZM-28.2349 -8.9995 Q-25.6724 -8.9995 -23.3131 -11.1088 Q-23.3287 -11.2495 -23.3521 -11.4604 Q-23.3756 -11.6713 -23.3756 -11.687 L-23.3756 -14.2807 Q-23.3756 -18.6245 -25.7193 -18.6245 Q-27.1256 -18.6245 -28.1803 -17.4213 Q-29.2349 -16.2182 -29.7662 -14.5542 Q-30.2974 -12.8901 -30.2974 -11.4995 Q-30.2974 -10.4526 -29.7662 -9.726 Q-29.2349 -8.9995 -28.2349 -8.9995 Z"
         id="path115" />
      <path
         style="stroke:none;"
         d="M-16.0589 -19.5058 Q-16.262 -19.5058 -16.4104 -19.6698 Q-16.5589 -19.8339 -16.5589 -20.0214 Q-16.5589 -20.3183 -16.3245 -20.4276 L-13.8714 -21.5995 L-16.3245 -22.7558 Q-16.5589 -22.8495 -16.5589 -23.162 Q-16.5589 -23.3495 -16.4104 -23.5136 Q-16.262 -23.6776 -16.0589 -23.6776 Q-15.9339 -23.6776 -15.8401 -23.5995 L-13.6526 -22.0058 L-13.9026 -24.7714 Q-13.9026 -24.9901 -13.762 -25.1229 Q-13.6214 -25.2558 -13.4183 -25.2558 Q-13.2151 -25.2558 -13.0823 -25.1308 Q-12.9495 -25.0058 -12.9495 -24.8183 L-12.9495 -24.7714 L-13.1995 -22.0058 L-11.012 -23.5995 Q-10.9183 -23.6776 -10.7933 -23.6776 Q-10.5745 -23.6776 -10.4339 -23.5136 Q-10.2933 -23.3495 -10.2933 -23.162 Q-10.2933 -22.8495 -10.5276 -22.7558 L-12.9808 -21.5995 L-10.5276 -20.4276 Q-10.2933 -20.3183 -10.2933 -20.0214 Q-10.2933 -19.8339 -10.4339 -19.6698 Q-10.5745 -19.5058 -10.7933 -19.5058 Q-10.9183 -19.5058 -11.012 -19.5839 L-13.1995 -21.1776 L-12.9495 -18.4276 L-12.9495 -18.3651 Q-12.9495 -18.1776 -13.0901 -18.0526 Q-13.2308 -17.9276 -13.4183 -17.9276 Q-13.6214 -17.9276 -13.762 -18.0683 Q-13.9026 -18.2089 -13.9026 -18.3964 L-13.6526 -21.1776 L-15.8401 -19.5839 Q-15.9339 -19.5058 -16.0589 -19.5058 Z"
         id="path117" />
      <path
         style="stroke:none;"
         d="M-0.2819 -14.1557 Q-0.485 -14.1557 -0.61 -14.312 Q-0.735 -14.4682 -0.735 -14.6401 Q-0.735 -14.812 -0.61 -14.9682 Q-0.485 -15.1245 -0.2819 -15.1245 L13.4837 -15.1245 Q13.6712 -15.1245 13.7962 -14.9682 Q13.9212 -14.812 13.9212 -14.6401 Q13.9212 -14.4682 13.7962 -14.312 Q13.6712 -14.1557 13.4837 -14.1557 L-0.2819 -14.1557 Z"
         id="path119" />
      <path
         style="stroke:none;"
         d="M26.093 -8.3745 Q24.9524 -8.3745 24.0696 -8.9135 Q23.1868 -9.4526 22.7102 -10.3667 Q22.2336 -11.2807 22.2336 -12.437 Q22.2336 -14.062 23.1399 -15.6557 Q24.0461 -17.2495 25.5539 -18.2495 Q27.0618 -19.2495 28.7024 -19.2495 Q29.9211 -19.2495 30.8508 -18.6088 Q31.7805 -17.9682 32.2571 -16.9057 Q32.7336 -15.8432 32.7336 -14.6401 L32.7649 -13.0307 Q33.5774 -14.1713 34.1477 -15.3979 Q34.718 -16.6245 35.0305 -17.937 Q35.0774 -18.0776 35.218 -18.0776 L35.4993 -18.0776 Q35.718 -18.0776 35.718 -17.8588 Q35.718 -17.8276 35.6868 -17.7807 Q35.4055 -16.687 34.9836 -15.6713 Q34.5618 -14.6557 33.9993 -13.7026 Q33.4368 -12.7495 32.7649 -11.9838 Q32.7649 -8.9995 33.4524 -8.9995 Q33.9055 -8.9995 34.1868 -9.2651 Q34.468 -9.5307 34.6868 -9.9213 Q34.9055 -10.312 34.968 -10.312 L35.2649 -10.312 Q35.4524 -10.312 35.4524 -10.0776 Q35.4524 -9.4838 34.7649 -8.9292 Q34.0774 -8.3745 33.4055 -8.3745 Q32.5461 -8.3745 31.968 -8.937 Q31.3899 -9.4995 31.1868 -10.4057 Q30.0618 -9.437 28.7493 -8.9057 Q27.4368 -8.3745 26.093 -8.3745 ZM26.1399 -8.9995 Q28.7024 -8.9995 31.0618 -11.1088 Q31.0461 -11.2495 31.0227 -11.4604 Q30.9993 -11.6713 30.9993 -11.687 L30.9993 -14.2807 Q30.9993 -18.6245 28.6555 -18.6245 Q27.2493 -18.6245 26.1946 -17.4213 Q25.1399 -16.2182 24.6086 -14.5542 Q24.0774 -12.8901 24.0774 -11.4995 Q24.0774 -10.4526 24.6086 -9.726 Q25.1399 -8.9995 26.1399 -8.9995 Z"
         id="path121" />
      <path
         style="stroke:none;"
         d="M37.9302 -5.337 Q37.9302 -5.4307 37.9459 -5.4776 L39.2115 -10.5557 Q39.3365 -11.0245 39.3365 -11.3839 Q39.3365 -12.1182 38.8365 -12.1182 Q38.3052 -12.1182 38.0474 -11.4776 Q37.7896 -10.837 37.5552 -9.8682 Q37.5552 -9.8214 37.5084 -9.7901 Q37.4615 -9.7589 37.4146 -9.7589 L37.2115 -9.7589 Q37.1646 -9.7589 37.1177 -9.8214 Q37.0709 -9.8839 37.0709 -9.9307 Q37.2584 -10.6807 37.4302 -11.1964 Q37.6021 -11.712 37.9615 -12.1339 Q38.3209 -12.5557 38.8521 -12.5557 Q39.4459 -12.5557 39.8912 -12.212 Q40.3365 -11.8682 40.4459 -11.3214 Q40.8834 -11.8839 41.4302 -12.2198 Q41.9771 -12.5557 42.6334 -12.5557 Q43.1802 -12.5557 43.5865 -12.2354 Q43.9927 -11.9151 43.9927 -11.3839 Q43.9927 -10.9464 43.7271 -10.6261 Q43.4615 -10.3057 43.0084 -10.3057 Q42.7427 -10.3057 42.5552 -10.4776 Q42.3677 -10.6495 42.3677 -10.9307 Q42.3677 -11.3057 42.6412 -11.5948 Q42.9146 -11.8839 43.274 -11.8839 Q42.9927 -12.1182 42.6021 -12.1182 Q41.8677 -12.1182 41.3287 -11.5948 Q40.7896 -11.0714 40.3677 -10.2745 L39.149 -5.4151 Q39.0865 -5.1807 38.8834 -5.0167 Q38.6802 -4.8526 38.4302 -4.8526 Q38.2271 -4.8526 38.0787 -4.9854 Q37.9302 -5.1182 37.9302 -5.337 Z"
         id="path123" />
      <path
         style="stroke:none;"
         d="M48.0857 -4.8526 Q47.2732 -4.8526 46.6639 -5.2745 Q46.0545 -5.6964 45.7342 -6.4151 Q45.4139 -7.1339 45.4139 -7.9307 Q45.4139 -9.1339 46.0232 -10.2042 Q46.6326 -11.2745 47.6795 -11.9151 Q48.7264 -12.5557 49.9139 -12.5557 Q50.6482 -12.5557 51.1951 -12.1729 Q51.742 -11.7901 51.742 -11.087 Q51.742 -10.1182 50.9607 -9.6417 Q50.1795 -9.1651 49.1951 -9.0479 Q48.2107 -8.9307 47.0232 -8.9307 L46.9764 -8.9307 Q46.7107 -7.9151 46.7107 -7.1964 Q46.7107 -6.4464 47.0545 -5.8682 Q47.3982 -5.2901 48.117 -5.2901 Q49.1326 -5.2901 50.0623 -5.7589 Q50.992 -6.2276 51.5857 -7.0557 Q51.6326 -7.1026 51.7264 -7.1026 Q51.8045 -7.1026 51.8904 -7.0089 Q51.9764 -6.9151 51.9764 -6.8214 Q51.9764 -6.7589 51.9451 -6.7276 Q51.3201 -5.8526 50.2654 -5.3526 Q49.2107 -4.8526 48.0857 -4.8526 ZM47.0857 -9.3682 Q48.0701 -9.3682 48.906 -9.462 Q49.742 -9.5557 50.4217 -9.9229 Q51.1014 -10.2901 51.1014 -11.0714 Q51.1014 -11.3839 50.9295 -11.6261 Q50.7576 -11.8682 50.4764 -11.9932 Q50.1951 -12.1182 49.8982 -12.1182 Q49.1795 -12.1182 48.6014 -11.7276 Q48.0232 -11.337 47.6482 -10.7042 Q47.2732 -10.0714 47.0857 -9.3682 Z"
         id="path125" />
      <path
         style="stroke:none;"
         d="M55.4395 -4.8526 Q54.377 -4.8526 53.752 -5.6573 Q53.127 -6.462 53.127 -7.5714 Q53.127 -8.6651 53.6973 -9.8292 Q54.2676 -10.9932 55.2208 -11.7745 Q56.1739 -12.5557 57.2833 -12.5557 Q57.7833 -12.5557 58.1817 -12.2823 Q58.5801 -12.0089 58.8145 -11.5245 Q59.002 -12.212 59.5645 -12.212 Q59.7676 -12.212 59.9161 -12.087 Q60.0645 -11.962 60.0645 -11.7432 Q60.0645 -11.6964 60.0645 -11.6651 Q60.0645 -11.6339 60.0489 -11.6026 L58.8614 -6.8526 Q58.752 -6.3526 58.752 -6.0245 Q58.752 -5.2901 59.2364 -5.2901 Q59.7676 -5.2901 60.0489 -5.9698 Q60.3301 -6.6495 60.5176 -7.5401 Q60.5489 -7.6339 60.6426 -7.6339 L60.8614 -7.6339 Q60.9239 -7.6339 60.9629 -7.5792 Q61.002 -7.5245 61.002 -7.4776 Q60.7051 -6.2901 60.3536 -5.5714 Q60.002 -4.8526 59.2051 -4.8526 Q58.627 -4.8526 58.1895 -5.1886 Q57.752 -5.5245 57.6426 -6.0714 Q56.5489 -4.8526 55.4395 -4.8526 ZM55.4551 -5.2901 Q56.0801 -5.2901 56.6504 -5.7511 Q57.2208 -6.212 57.6426 -6.837 Q57.6583 -6.8526 57.6583 -6.8839 L58.5645 -10.587 L58.5801 -10.6339 Q58.4864 -11.2432 58.1504 -11.6807 Q57.8145 -12.1182 57.2364 -12.1182 Q56.6739 -12.1182 56.1817 -11.6495 Q55.6895 -11.1807 55.3458 -10.5401 Q55.0176 -9.8526 54.7129 -8.6651 Q54.4083 -7.4776 54.4083 -6.8214 Q54.4083 -6.2432 54.6583 -5.7667 Q54.9083 -5.2901 55.4551 -5.2901 Z"
         id="path127" />
      <path
         style="stroke:none;"
         d="M62.1167 -6.4151 Q62.1167 -6.462 62.1245 -6.5636 Q62.1323 -6.6651 62.1479 -6.7589 Q62.1635 -6.8526 62.1635 -6.9151 L64.2729 -15.3214 Q64.3354 -15.6182 64.351 -15.7745 Q64.351 -16.0557 63.2573 -16.0557 Q63.0854 -16.0557 63.0854 -16.2745 Q63.101 -16.3214 63.1245 -16.4307 Q63.1479 -16.5401 63.1948 -16.5948 Q63.2417 -16.6495 63.3198 -16.6495 L65.6167 -16.837 Q65.8198 -16.837 65.8198 -16.6182 L63.3823 -6.837 Q63.2573 -6.5714 63.2573 -6.0245 Q63.2573 -5.2901 63.7417 -5.2901 Q64.2729 -5.2901 64.5307 -5.9464 Q64.7885 -6.6026 65.0073 -7.5401 Q65.0385 -7.6339 65.1479 -7.6339 L65.3354 -7.6339 Q65.4135 -7.6339 65.4604 -7.5792 Q65.5073 -7.5245 65.5073 -7.4776 Q65.3042 -6.6495 65.1401 -6.1729 Q64.976 -5.6964 64.6167 -5.2745 Q64.2573 -4.8526 63.7104 -4.8526 Q63.0385 -4.8526 62.5776 -5.2901 Q62.1167 -5.7276 62.1167 -6.4151 Z"
         id="path129" />
      <path
         style="stroke:none;"
         d="M69.4725 -2.6401 Q69.2538 -2.6401 69.2538 -2.8432 Q69.2538 -2.9526 69.3006 -2.9995 Q73.41 -7.0151 73.41 -14.6401 Q73.41 -22.2651 69.3475 -26.2338 Q69.2538 -26.2963 69.2538 -26.437 Q69.2538 -26.5151 69.3241 -26.5776 Q69.3944 -26.6401 69.4725 -26.6401 L69.6913 -26.6401 Q69.7694 -26.6401 69.8163 -26.5932 Q71.535 -25.2338 72.6834 -23.2885 Q73.8319 -21.3432 74.3631 -19.1401 Q74.8944 -16.937 74.8944 -14.6401 Q74.8944 -12.937 74.6053 -11.2963 Q74.3163 -9.6557 73.6913 -8.0542 Q73.0663 -6.4526 72.1053 -5.0932 Q71.1444 -3.7338 69.8163 -2.687 Q69.7694 -2.6401 69.6913 -2.6401 L69.4725 -2.6401 Z"
         id="path131" />
    </g>
    <g
       style="stroke-linecap:butt; fill:red; text-rendering:geometricPrecision; image-rendering:optimizeQuality; color-rendering:optimizeQuality; stroke-linejoin:round; stroke:red; color-interpolation:linearRGB; stroke-width:2.6667;"
       id="g133">
      <path
         d="M94 340.5143 L197.25 340.7526 L300.5 339.8605 L403.75 342.6402 L507 342.9693"
         style="fill:none; fill-rule:evenodd;"
         id="path135" />
      <path
         d="M0 -4 L0 4 M-4 0 L4 0"
         style="fill:none; stroke-linejoin:miter;"
         transform="translate(94,340.5143)"
         id="path137" />
      <path
         d="M0 -4 L0 4 M-4 0 L4 0"
         style="fill:none; stroke-linejoin:miter;"
         transform="translate(197.25,340.7526)"
         id="path139" />
      <path
         d="M0 -4 L0 4 M-4 0 L4 0"
         style="fill:none; stroke-linejoin:miter;"
         transform="translate(300.5,339.8605)"
         id="path141" />
      <path
         d="M0 -4 L0 4 M-4 0 L4 0"
         style="fill:none; stroke-linejoin:miter;"
         transform="translate(403.75,342.6402)"
         id="path143" />
      <path
         d="M0 -4 L0 4 M-4 0 L4 0"
         style="fill:none; stroke-linejoin:miter;"
         transform="translate(507,342.9693)"
         id="path145" />
      <path
         d="M94 56.0964 L197.25 243.3293 L300.5 300.3679 L403.75 333.3539 L507 349.167"
         style="fill:none; fill-rule:evenodd; stroke:blue;"
         id="path147" />
      <path
         d="M0 -4 L0 4 M-4 0 L4 0"
         style="fill:none; stroke:blue; stroke-linejoin:miter;"
         transform="translate(94,56.0964)"
         id="path149" />
      <path
         d="M0 -4 L0 4 M-4 0 L4 0"
         style="fill:none; stroke:blue; stroke-linejoin:miter;"
         transform="translate(197.25,243.3293)"
         id="path151" />
      <path
         d="M0 -4 L0 4 M-4 0 L4 0"
         style="fill:none; stroke:blue; stroke-linejoin:miter;"
         transform="translate(300.5,300.3679)"
         id="path153" />
      <path
         d="M0 -4 L0 4 M-4 0 L4 0"
         style="fill:none; stroke:blue; stroke-linejoin:miter;"
         transform="translate(403.75,333.3539)"
         id="path155" />
      <path
         d="M0 -4 L0 4 M-4 0 L4 0"
         style="fill:none; stroke:blue; stroke-linejoin:miter;"
         transform="translate(507,349.167)"
         id="path157" />
    </g>
    <g
       style="fill:white; text-rendering:optimizeSpeed; color-rendering:optimizeSpeed; image-rendering:optimizeSpeed; shape-rendering:crispEdges; stroke:white; color-interpolation:sRGB;"
       id="g159">
      <path
         style="stroke:none;"
         d="M219 103 L219 44 L494 44 L494 103 Z"
         id="path161" />
    </g>
    <g
       transform="translate(266,59.6325)"
       style="font-size:22px; text-rendering:geometricPrecision; color-rendering:optimizeQuality; image-rendering:optimizeQuality; font-family:'SansSerif'; color-interpolation:linearRGB;"
       id="g163">
      <path
         style="stroke:none;"
         d="M11.4375 -2.2188 Q12.1875 -3.5469 13.2188 -4.1875 Q14.25 -4.8281 15.6406 -4.8281 Q17.5156 -4.8281 18.5391 -3.5078 Q19.5625 -2.1875 19.5625 0.2344 L19.5625 7.5 L17.5781 7.5 L17.5781 0.2969 Q17.5781 -1.4219 16.9609 -2.2656 Q16.3438 -3.1094 15.0938 -3.1094 Q13.5625 -3.1094 12.6719 -2.0859 Q11.7812 -1.0625 11.7812 0.7031 L11.7812 7.5 L9.7812 7.5 L9.7812 0.2969 Q9.7812 -1.4375 9.1719 -2.2734 Q8.5625 -3.1094 7.2812 -3.1094 Q5.7656 -3.1094 4.875 -2.0781 Q3.9844 -1.0469 3.9844 0.7031 L3.9844 7.5 L2 7.5 L2 -4.5312 L3.9844 -4.5312 L3.9844 -2.6562 Q4.6562 -3.7656 5.6016 -4.2969 Q6.5469 -4.8281 7.8594 -4.8281 Q9.1562 -4.8281 10.0781 -4.1562 Q11 -3.4844 11.4375 -2.2188 ZM28.9775 1.4531 Q26.5713 1.4531 25.6494 2 Q24.7275 2.5469 24.7275 3.875 Q24.7275 4.9219 25.4229 5.5391 Q26.1182 6.1562 27.3057 6.1562 Q28.9463 6.1562 29.9385 4.9922 Q30.9307 3.8281 30.9307 1.8906 L30.9307 1.4531 L28.9775 1.4531 ZM32.915 0.6406 L32.915 7.5 L30.9307 7.5 L30.9307 5.6719 Q30.2588 6.7656 29.251 7.2891 Q28.2432 7.8125 26.7744 7.8125 Q24.9307 7.8125 23.8447 6.7734 Q22.7588 5.7344 22.7588 4 Q22.7588 1.9688 24.1182 0.9375 Q25.4775 -0.0938 28.165 -0.0938 L30.9307 -0.0938 L30.9307 -0.2812 Q30.9307 -1.6562 30.04 -2.3984 Q29.1494 -3.1406 27.5244 -3.1406 Q26.4932 -3.1406 25.5166 -2.8984 Q24.54 -2.6562 23.6338 -2.1562 L23.6338 -3.9844 Q24.7119 -4.4062 25.7354 -4.6172 Q26.7588 -4.8281 27.7275 -4.8281 Q30.3369 -4.8281 31.626 -3.4688 Q32.915 -2.1094 32.915 0.6406 ZM46.9902 -4.5312 L42.6309 1.3281 L47.209 7.5 L44.8809 7.5 L41.3809 2.7656 L37.8809 7.5 L35.5527 7.5 L40.2246 1.2031 L35.9434 -4.5312 L38.2715 -4.5312 L41.459 -0.25 L44.6621 -4.5312 L46.9902 -4.5312 ZM50.0098 -4.5312 L51.9785 -4.5312 L51.9785 7.5 L50.0098 7.5 L50.0098 -4.5312 ZM50.0098 -9.2188 L51.9785 -9.2188 L51.9785 -6.7188 L50.0098 -6.7188 L50.0098 -9.2188 ZM65.4814 -2.2188 Q66.2314 -3.5469 67.2627 -4.1875 Q68.2939 -4.8281 69.6846 -4.8281 Q71.5596 -4.8281 72.583 -3.5078 Q73.6064 -2.1875 73.6064 0.2344 L73.6064 7.5 L71.6221 7.5 L71.6221 0.2969 Q71.6221 -1.4219 71.0049 -2.2656 Q70.3877 -3.1094 69.1377 -3.1094 Q67.6064 -3.1094 66.7158 -2.0859 Q65.8252 -1.0625 65.8252 0.7031 L65.8252 7.5 L63.8252 7.5 L63.8252 0.2969 Q63.8252 -1.4375 63.2158 -2.2734 Q62.6064 -3.1094 61.3252 -3.1094 Q59.8096 -3.1094 58.9189 -2.0781 Q58.0283 -1.0469 58.0283 0.7031 L58.0283 7.5 L56.0439 7.5 L56.0439 -4.5312 L58.0283 -4.5312 L58.0283 -2.6562 Q58.7002 -3.7656 59.6455 -4.2969 Q60.5908 -4.8281 61.9033 -4.8281 Q63.2002 -4.8281 64.1221 -4.1562 Q65.0439 -3.4844 65.4814 -2.2188 ZM77.3496 2.75 L77.3496 -4.5312 L79.3184 -4.5312 L79.3184 2.6719 Q79.3184 4.3906 79.9824 5.2422 Q80.6465 6.0938 81.9902 6.0938 Q83.584 6.0938 84.5137 5.0703 Q85.4434 4.0469 85.4434 2.2969 L85.4434 -4.5312 L87.4277 -4.5312 L87.4277 7.5 L85.4434 7.5 L85.4434 5.6562 Q84.7246 6.75 83.7715 7.2812 Q82.8184 7.8125 81.5684 7.8125 Q79.4902 7.8125 78.4199 6.5234 Q77.3496 5.2344 77.3496 2.75 ZM100.8555 -2.2188 Q101.6055 -3.5469 102.6367 -4.1875 Q103.668 -4.8281 105.0586 -4.8281 Q106.9336 -4.8281 107.957 -3.5078 Q108.9805 -2.1875 108.9805 0.2344 L108.9805 7.5 L106.9961 7.5 L106.9961 0.2969 Q106.9961 -1.4219 106.3789 -2.2656 Q105.7617 -3.1094 104.5117 -3.1094 Q102.9805 -3.1094 102.0898 -2.0859 Q101.1992 -1.0625 101.1992 0.7031 L101.1992 7.5 L99.1992 7.5 L99.1992 0.2969 Q99.1992 -1.4375 98.5898 -2.2734 Q97.9805 -3.1094 96.6992 -3.1094 Q95.1836 -3.1094 94.293 -2.0781 Q93.4023 -1.0469 93.4023 0.7031 L93.4023 7.5 L91.418 7.5 L91.418 -4.5312 L93.4023 -4.5312 L93.4023 -2.6562 Q94.0742 -3.7656 95.0195 -4.2969 Q95.9648 -4.8281 97.2773 -4.8281 Q98.5742 -4.8281 99.4961 -4.1562 Q100.418 -3.4844 100.8555 -2.2188 ZM119.9199 -9.2188 L121.8887 -9.2188 L121.8887 7.5 L119.9199 7.5 L119.9199 -9.2188 ZM126.0322 -4.5312 L128.001 -4.5312 L128.001 7.5 L126.0322 7.5 L126.0322 -4.5312 ZM126.0322 -9.2188 L128.001 -9.2188 L128.001 -6.7188 L126.0322 -6.7188 L126.0322 -9.2188 ZM132.0664 -9.2188 L134.0508 -9.2188 L134.0508 0.6562 L139.957 -4.5312 L142.4727 -4.5312 L136.0977 1.0938 L142.7383 7.5 L140.1602 7.5 L134.0508 1.625 L134.0508 7.5 L132.0664 7.5 L132.0664 -9.2188 ZM155.166 0.9844 L155.166 1.9531 L146.0879 1.9531 Q146.2129 4 147.3145 5.0703 Q148.416 6.1406 150.3848 6.1406 Q151.5254 6.1406 152.5879 5.8594 Q153.6504 5.5781 154.7129 5.0156 L154.7129 6.8906 Q153.6504 7.3438 152.5332 7.5781 Q151.416 7.8125 150.2598 7.8125 Q147.3848 7.8125 145.7051 6.1328 Q144.0254 4.4531 144.0254 1.6094 Q144.0254 -1.3594 145.6191 -3.0938 Q147.2129 -4.8281 149.916 -4.8281 Q152.3535 -4.8281 153.7598 -3.2656 Q155.166 -1.7031 155.166 0.9844 ZM153.1973 0.4062 Q153.166 -1.2188 152.2832 -2.1797 Q151.4004 -3.1406 149.9473 -3.1406 Q148.291 -3.1406 147.291 -2.2109 Q146.291 -1.2812 146.1504 0.4219 L153.1973 0.4062 ZM158.4199 -9.2188 L160.3887 -9.2188 L160.3887 7.5 L158.4199 7.5 L158.4199 -9.2188 ZM164.5322 -4.5312 L166.501 -4.5312 L166.501 7.5 L164.5322 7.5 L164.5322 -4.5312 ZM164.5322 -9.2188 L166.501 -9.2188 L166.501 -6.7188 L164.5322 -6.7188 L164.5322 -9.2188 ZM180.6445 0.2344 L180.6445 7.5 L178.6602 7.5 L178.6602 0.2969 Q178.6602 -1.4062 177.9961 -2.2578 Q177.332 -3.1094 176.0039 -3.1094 Q174.3945 -3.1094 173.4727 -2.0859 Q172.5508 -1.0625 172.5508 0.7031 L172.5508 7.5 L170.5664 7.5 L170.5664 -9.2188 L172.5508 -9.2188 L172.5508 -2.6562 Q173.2539 -3.75 174.2227 -4.2891 Q175.1914 -4.8281 176.4414 -4.8281 Q178.5195 -4.8281 179.582 -3.5391 Q180.6445 -2.25 180.6445 0.2344 ZM189.2441 -3.1406 Q187.6504 -3.1406 186.7285 -1.9062 Q185.8066 -0.6719 185.8066 1.5 Q185.8066 3.6562 186.7285 4.8984 Q187.6504 6.1406 189.2441 6.1406 Q190.8223 6.1406 191.7441 4.8906 Q192.666 3.6406 192.666 1.5 Q192.666 -0.6406 191.7441 -1.8906 Q190.8223 -3.1406 189.2441 -3.1406 ZM189.2441 -4.8281 Q191.8223 -4.8281 193.291 -3.1484 Q194.7598 -1.4688 194.7598 1.5 Q194.7598 4.4531 193.291 6.1328 Q191.8223 7.8125 189.2441 7.8125 Q186.6504 7.8125 185.1895 6.1328 Q183.7285 4.4531 183.7285 1.5 Q183.7285 -1.4688 185.1895 -3.1484 Q186.6504 -4.8281 189.2441 -4.8281 ZM202.7041 -3.1406 Q201.1104 -3.1406 200.1885 -1.9062 Q199.2666 -0.6719 199.2666 1.5 Q199.2666 3.6562 200.1885 4.8984 Q201.1104 6.1406 202.7041 6.1406 Q204.2822 6.1406 205.2041 4.8906 Q206.126 3.6406 206.126 1.5 Q206.126 -0.6406 205.2041 -1.8906 Q204.2822 -3.1406 202.7041 -3.1406 ZM202.7041 -4.8281 Q205.2822 -4.8281 206.751 -3.1484 Q208.2197 -1.4688 208.2197 1.5 Q208.2197 4.4531 206.751 6.1328 Q205.2822 7.8125 202.7041 7.8125 Q200.1104 7.8125 198.6494 6.1328 Q197.1885 4.4531 197.1885 1.5 Q197.1885 -1.4688 198.6494 -3.1484 Q200.1104 -4.8281 202.7041 -4.8281 ZM219.4141 -2.7031 L219.4141 -9.2188 L221.3984 -9.2188 L221.3984 7.5 L219.4141 7.5 L219.4141 5.6875 Q218.8047 6.7656 217.8516 7.2891 Q216.8984 7.8125 215.5703 7.8125 Q213.3828 7.8125 212.0156 6.0703 Q210.6484 4.3281 210.6484 1.5 Q210.6484 -1.3438 212.0156 -3.0859 Q213.3828 -4.8281 215.5703 -4.8281 Q216.8984 -4.8281 217.8516 -4.3047 Q218.8047 -3.7812 219.4141 -2.7031 ZM212.6797 1.5 Q212.6797 3.6719 213.5781 4.9141 Q214.4766 6.1562 216.0547 6.1562 Q217.6172 6.1562 218.5156 4.9141 Q219.4141 3.6719 219.4141 1.5 Q219.4141 -0.6875 218.5156 -1.9297 Q217.6172 -3.1719 216.0547 -3.1719 Q214.4766 -3.1719 213.5781 -1.9297 Q212.6797 -0.6875 212.6797 1.5 Z"
         id="path165" />
    </g>
    <g
       style="stroke-linecap:butt; fill:red; text-rendering:geometricPrecision; image-rendering:optimizeQuality; color-rendering:optimizeQuality; stroke-linejoin:round; stroke:red; color-interpolation:linearRGB; stroke-width:2.6667;"
       id="g167">
      <line
         y2="59.6325"
         style="fill:none;"
         x1="223"
         x2="263"
         y1="59.6325"
         id="line169" />
      <path
         d="M0 -4 L0 4 M-4 0 L4 0"
         style="fill:none; stroke-linejoin:miter;"
         transform="translate(243,59.6325)"
         id="path171" />
    </g>
    <g
       transform="translate(266,87.3675)"
       style="font-size:22px; text-rendering:geometricPrecision; color-rendering:optimizeQuality; image-rendering:optimizeQuality; font-family:'SansSerif'; color-interpolation:linearRGB;"
       id="g173">
      <path
         style="stroke:none;"
         d="M11.4375 -2.2188 Q12.1875 -3.5469 13.2188 -4.1875 Q14.25 -4.8281 15.6406 -4.8281 Q17.5156 -4.8281 18.5391 -3.5078 Q19.5625 -2.1875 19.5625 0.2344 L19.5625 7.5 L17.5781 7.5 L17.5781 0.2969 Q17.5781 -1.4219 16.9609 -2.2656 Q16.3438 -3.1094 15.0938 -3.1094 Q13.5625 -3.1094 12.6719 -2.0859 Q11.7812 -1.0625 11.7812 0.7031 L11.7812 7.5 L9.7812 7.5 L9.7812 0.2969 Q9.7812 -1.4375 9.1719 -2.2734 Q8.5625 -3.1094 7.2812 -3.1094 Q5.7656 -3.1094 4.875 -2.0781 Q3.9844 -1.0469 3.9844 0.7031 L3.9844 7.5 L2 7.5 L2 -4.5312 L3.9844 -4.5312 L3.9844 -2.6562 Q4.6562 -3.7656 5.6016 -4.2969 Q6.5469 -4.8281 7.8594 -4.8281 Q9.1562 -4.8281 10.0781 -4.1562 Q11 -3.4844 11.4375 -2.2188 ZM28.165 -3.1406 Q26.5713 -3.1406 25.6494 -1.9062 Q24.7275 -0.6719 24.7275 1.5 Q24.7275 3.6562 25.6494 4.8984 Q26.5713 6.1406 28.165 6.1406 Q29.7432 6.1406 30.665 4.8906 Q31.5869 3.6406 31.5869 1.5 Q31.5869 -0.6406 30.665 -1.8906 Q29.7432 -3.1406 28.165 -3.1406 ZM28.165 -4.8281 Q30.7432 -4.8281 32.2119 -3.1484 Q33.6807 -1.4688 33.6807 1.5 Q33.6807 4.4531 32.2119 6.1328 Q30.7432 7.8125 28.165 7.8125 Q25.5713 7.8125 24.1104 6.1328 Q22.6494 4.4531 22.6494 1.5 Q22.6494 -1.4688 24.1104 -3.1484 Q25.5713 -4.8281 28.165 -4.8281 ZM44.875 -2.7031 L44.875 -9.2188 L46.8594 -9.2188 L46.8594 7.5 L44.875 7.5 L44.875 5.6875 Q44.2656 6.7656 43.3125 7.2891 Q42.3594 7.8125 41.0312 7.8125 Q38.8438 7.8125 37.4766 6.0703 Q36.1094 4.3281 36.1094 1.5 Q36.1094 -1.3438 37.4766 -3.0859 Q38.8438 -4.8281 41.0312 -4.8281 Q42.3594 -4.8281 43.3125 -4.3047 Q44.2656 -3.7812 44.875 -2.7031 ZM38.1406 1.5 Q38.1406 3.6719 39.0391 4.9141 Q39.9375 6.1562 41.5156 6.1562 Q43.0781 6.1562 43.9766 4.9141 Q44.875 3.6719 44.875 1.5 Q44.875 -0.6875 43.9766 -1.9297 Q43.0781 -3.1719 41.5156 -3.1719 Q39.9375 -3.1719 39.0391 -1.9297 Q38.1406 -0.6875 38.1406 1.5 ZM61.2148 0.9844 L61.2148 1.9531 L52.1367 1.9531 Q52.2617 4 53.3633 5.0703 Q54.4648 6.1406 56.4336 6.1406 Q57.5742 6.1406 58.6367 5.8594 Q59.6992 5.5781 60.7617 5.0156 L60.7617 6.8906 Q59.6992 7.3438 58.582 7.5781 Q57.4648 7.8125 56.3086 7.8125 Q53.4336 7.8125 51.7539 6.1328 Q50.0742 4.4531 50.0742 1.6094 Q50.0742 -1.3594 51.668 -3.0938 Q53.2617 -4.8281 55.9648 -4.8281 Q58.4023 -4.8281 59.8086 -3.2656 Q61.2148 -1.7031 61.2148 0.9844 ZM59.2461 0.4062 Q59.2148 -1.2188 58.332 -2.1797 Q57.4492 -3.1406 55.9961 -3.1406 Q54.3398 -3.1406 53.3398 -2.2109 Q52.3398 -1.2812 52.1992 0.4219 L59.2461 0.4062 ZM64.4688 -9.2188 L66.4375 -9.2188 L66.4375 7.5 L64.4688 7.5 L64.4688 -9.2188 Z"
         id="path175" />
    </g>
    <g
       style="stroke-linecap:butt; fill:blue; text-rendering:geometricPrecision; image-rendering:optimizeQuality; color-rendering:optimizeQuality; stroke-linejoin:round; stroke:blue; color-interpolation:linearRGB; stroke-width:2.6667;"
       id="g177">
      <line
         y2="87.3675"
         style="fill:none;"
         x1="223"
         x2="263"
         y1="87.3675"
         id="line179" />
      <path
         d="M0 -4 L0 4 M-4 0 L4 0"
         style="fill:none; stroke-linejoin:miter;"
         transform="translate(243,87.3675)"
         id="path181" />
    </g>
    <g
       style="stroke-linecap:butt; fill:rgb(38,38,38); text-rendering:geometricPrecision; color-rendering:optimizeQuality; image-rendering:optimizeQuality; stroke:rgb(38,38,38); color-interpolation:linearRGB; stroke-width:0.6667;"
       id="g183">
      <path
         d="M219 103 L219 44 L494 44 L494 103 Z"
         style="fill:none; fill-rule:evenodd;"
         id="path185" />
    </g>
  </g>
</svg>
