<?xml version="1.0" encoding="UTF-8" standalone="no"?>
<!-- Created with Inkscape (http://www.inkscape.org/) -->

<svg
   xmlns:dc="http://purl.org/dc/elements/1.1/"
   xmlns:cc="http://creativecommons.org/ns#"
   xmlns:rdf="http://www.w3.org/1999/02/22-rdf-syntax-ns#"
   xmlns:svg="http://www.w3.org/2000/svg"
   xmlns="http://www.w3.org/2000/svg"
   xmlns:sodipodi="http://sodipodi.sourceforge.net/DTD/sodipodi-0.dtd"
   xmlns:inkscape="http://www.inkscape.org/namespaces/inkscape"
   id="svg2"
   version="1.1"
   inkscape:version="0.91 r13725"
   xml:space="preserve"
   width="842.92004"
   height="405.16849"
   viewBox="0 0 842.92004 405.16848"
   sodipodi:docname="errorPriorVSinfV3.svg"><metadata
     id="metadata8"><rdf:RDF><cc:Work
         rdf:about=""><dc:format>image/svg+xml</dc:format><dc:type
           rdf:resource="http://purl.org/dc/dcmitype/StillImage" /><dc:title></dc:title></cc:Work></rdf:RDF></metadata><defs
     id="defs6" /><sodipodi:namedview
     pagecolor="#ffffff"
     bordercolor="#666666"
     borderopacity="1"
     objecttolerance="10"
     gridtolerance="10"
     guidetolerance="10"
     inkscape:pageopacity="0"
     inkscape:pageshadow="2"
     inkscape:window-width="1855"
     inkscape:window-height="1056"
     id="namedview4"
     showgrid="false"
     fit-margin-top="0"
     fit-margin-left="0"
     fit-margin-right="0"
     fit-margin-bottom="0"
     inkscape:zoom="1.2345719"
     inkscape:cx="101.27647"
     inkscape:cy="102.15591"
     inkscape:window-x="65"
     inkscape:window-y="24"
     inkscape:window-maximized="1"
     inkscape:current-layer="g12" /><g
     id="g10"
     inkscape:groupmode="layer"
     inkscape:label="errorPriorVSinfV3"
     transform="matrix(1.25,0,0,-1.25,-25.377083,405.16846)"><g
       id="g12"><g
         id="g14"
         transform="matrix(1,0,0,-1,0,324.13461)"><path
           d="m 119.172,275.297 575.199,0"
           style="fill:none;stroke:#262626;stroke-width:0.53336;stroke-linecap:square;stroke-linejoin:round;stroke-miterlimit:10;stroke-dasharray:none;stroke-opacity:1"
           id="path16"
           inkscape:connector-curvature="0" /></g><g
         id="g18"
         transform="matrix(1,0,0,-1,0,324.13461)"><path
           d="m 119.172,10.496 575.199,0"
           style="fill:none;stroke:#262626;stroke-width:0.53336;stroke-linecap:square;stroke-linejoin:round;stroke-miterlimit:10;stroke-dasharray:none;stroke-opacity:1"
           id="path20"
           inkscape:connector-curvature="0" /></g><g
         id="g22"
         transform="matrix(1,0,0,-1,0,324.13461)"><path
           d="m 119.172,275.297 0,-264.801"
           style="fill:none;stroke:#262626;stroke-width:0.53336;stroke-linecap:square;stroke-linejoin:round;stroke-miterlimit:10;stroke-dasharray:none;stroke-opacity:1"
           id="path24"
           inkscape:connector-curvature="0" /></g><g
         id="g26"
         transform="matrix(1,0,0,-1,0,324.13461)"><path
           d="m 694.371,275.297 0,-264.801"
           style="fill:none;stroke:#262626;stroke-width:0.53336;stroke-linecap:square;stroke-linejoin:round;stroke-miterlimit:10;stroke-dasharray:none;stroke-opacity:1"
           id="path28"
           inkscape:connector-curvature="0" /></g><g
         id="g30"
         transform="matrix(1,0,0,-1,0,324.13461)"><path
           d="m 119.172,251.023 5.75,0"
           style="fill:none;stroke:#262626;stroke-width:0.53336;stroke-linecap:square;stroke-linejoin:round;stroke-miterlimit:10;stroke-dasharray:none;stroke-opacity:1"
           id="path32"
           inkscape:connector-curvature="0" /></g><g
         id="g34"
         transform="matrix(1,0,0,-1,0,324.13461)"><path
           d="m 119.172,219.422 5.75,0"
           style="fill:none;stroke:#262626;stroke-width:0.53336;stroke-linecap:square;stroke-linejoin:round;stroke-miterlimit:10;stroke-dasharray:none;stroke-opacity:1"
           id="path36"
           inkscape:connector-curvature="0" /></g><g
         id="g38"
         transform="matrix(1,0,0,-1,0,324.13461)"><path
           d="m 119.172,187.82 5.75,0"
           style="fill:none;stroke:#262626;stroke-width:0.53336;stroke-linecap:square;stroke-linejoin:round;stroke-miterlimit:10;stroke-dasharray:none;stroke-opacity:1"
           id="path40"
           inkscape:connector-curvature="0" /></g><g
         id="g42"
         transform="matrix(1,0,0,-1,0,324.13461)"><path
           d="m 119.172,156.219 5.75,0"
           style="fill:none;stroke:#262626;stroke-width:0.53336;stroke-linecap:square;stroke-linejoin:round;stroke-miterlimit:10;stroke-dasharray:none;stroke-opacity:1"
           id="path44"
           inkscape:connector-curvature="0" /></g><g
         id="g46"
         transform="matrix(1,0,0,-1,0,324.13461)"><path
           d="m 119.172,124.617 5.75,0"
           style="fill:none;stroke:#262626;stroke-width:0.53336;stroke-linecap:square;stroke-linejoin:round;stroke-miterlimit:10;stroke-dasharray:none;stroke-opacity:1"
           id="path48"
           inkscape:connector-curvature="0" /></g><g
         id="g50"
         transform="matrix(1,0,0,-1,0,324.13461)"><path
           d="m 119.172,93.016 5.75,0"
           style="fill:none;stroke:#262626;stroke-width:0.53336;stroke-linecap:square;stroke-linejoin:round;stroke-miterlimit:10;stroke-dasharray:none;stroke-opacity:1"
           id="path52"
           inkscape:connector-curvature="0" /></g><g
         id="g54"
         transform="matrix(1,0,0,-1,0,324.13461)"><path
           d="m 119.172,61.414 5.75,0"
           style="fill:none;stroke:#262626;stroke-width:0.53336;stroke-linecap:square;stroke-linejoin:round;stroke-miterlimit:10;stroke-dasharray:none;stroke-opacity:1"
           id="path56"
           inkscape:connector-curvature="0" /></g><g
         id="g58"
         transform="matrix(1,0,0,-1,0,324.13461)"><path
           d="m 119.172,29.816 5.75,0"
           style="fill:none;stroke:#262626;stroke-width:0.53336;stroke-linecap:square;stroke-linejoin:round;stroke-miterlimit:10;stroke-dasharray:none;stroke-opacity:1"
           id="path60"
           inkscape:connector-curvature="0" /></g><g
         id="g62"
         transform="matrix(1,0,0,-1,0,324.13461)"><path
           d="m 694.371,251.023 -5.754,0"
           style="fill:none;stroke:#262626;stroke-width:0.53336;stroke-linecap:square;stroke-linejoin:round;stroke-miterlimit:10;stroke-dasharray:none;stroke-opacity:1"
           id="path64"
           inkscape:connector-curvature="0" /></g><g
         id="g66"
         transform="matrix(1,0,0,-1,0,324.13461)"><path
           d="m 694.371,219.422 -5.754,0"
           style="fill:none;stroke:#262626;stroke-width:0.53336;stroke-linecap:square;stroke-linejoin:round;stroke-miterlimit:10;stroke-dasharray:none;stroke-opacity:1"
           id="path68"
           inkscape:connector-curvature="0" /></g><g
         id="g70"
         transform="matrix(1,0,0,-1,0,324.13461)"><path
           d="m 694.371,187.82 -5.754,0"
           style="fill:none;stroke:#262626;stroke-width:0.53336;stroke-linecap:square;stroke-linejoin:round;stroke-miterlimit:10;stroke-dasharray:none;stroke-opacity:1"
           id="path72"
           inkscape:connector-curvature="0" /></g><g
         id="g74"
         transform="matrix(1,0,0,-1,0,324.13461)"><path
           d="m 694.371,156.219 -5.754,0"
           style="fill:none;stroke:#262626;stroke-width:0.53336;stroke-linecap:square;stroke-linejoin:round;stroke-miterlimit:10;stroke-dasharray:none;stroke-opacity:1"
           id="path76"
           inkscape:connector-curvature="0" /></g><g
         id="g78"
         transform="matrix(1,0,0,-1,0,324.13461)"><path
           d="m 694.371,124.617 -5.754,0"
           style="fill:none;stroke:#262626;stroke-width:0.53336;stroke-linecap:square;stroke-linejoin:round;stroke-miterlimit:10;stroke-dasharray:none;stroke-opacity:1"
           id="path80"
           inkscape:connector-curvature="0" /></g><g
         id="g82"
         transform="matrix(1,0,0,-1,0,324.13461)"><path
           d="m 694.371,93.016 -5.754,0"
           style="fill:none;stroke:#262626;stroke-width:0.53336;stroke-linecap:square;stroke-linejoin:round;stroke-miterlimit:10;stroke-dasharray:none;stroke-opacity:1"
           id="path84"
           inkscape:connector-curvature="0" /></g><g
         id="g86"
         transform="matrix(1,0,0,-1,0,324.13461)"><path
           d="m 694.371,61.414 -5.754,0"
           style="fill:none;stroke:#262626;stroke-width:0.53336;stroke-linecap:square;stroke-linejoin:round;stroke-miterlimit:10;stroke-dasharray:none;stroke-opacity:1"
           id="path88"
           inkscape:connector-curvature="0" /></g><g
         id="g90"
         transform="matrix(1,0,0,-1,0,324.13461)"><path
           d="m 694.371,29.816 -5.754,0"
           style="fill:none;stroke:#262626;stroke-width:0.53336;stroke-linecap:square;stroke-linejoin:round;stroke-miterlimit:10;stroke-dasharray:none;stroke-opacity:1"
           id="path92"
           inkscape:connector-curvature="0" /></g><text
         transform="matrix(1,0,0,-1,102.85486,65.453029)"
         style="font-variant:normal;font-weight:normal;font-size:21.36846542px;font-family:'DejaVu Sans';-inkscape-font-specification:DejaVuSans;writing-mode:lr-tb;fill:#262626;fill-opacity:1;fill-rule:nonzero;stroke:none"
         id="text94"><tspan
           x="0"
           y="0"
           id="tspan96">0</tspan><tspan
           x="-33.461266 -19.87092 -13.097116 0.49322692"
           y="-31.633427"
           sodipodi:role="line"
           id="tspan98">0.01</tspan><tspan
           x="-33.294327 -19.703983 -12.930181 0.66016293"
           y="-63.266876"
           sodipodi:role="line"
           id="tspan100">0.02</tspan><tspan
           x="-33.722111 -20.131767 -13.357965 0.23237906"
           y="-94.900299"
           sodipodi:role="line"
           id="tspan102">0.03</tspan><tspan
           x="-34.233368 -20.643024 -13.86922 -0.27887642"
           y="-126.53373"
           sodipodi:role="line"
           id="tspan104">0.04</tspan><tspan
           x="-33.565605 -19.975264 -13.20146 0.38888383"
           y="-158.16718"
           sodipodi:role="line"
           id="tspan106">0.05</tspan><tspan
           x="-34.087296 -20.49695 -13.723147 -0.13280372"
           y="-189.80058"
           sodipodi:role="line"
           id="tspan108">0.06</tspan><tspan
           x="-33.607342 -20.016998 -13.243195 0.3471491"
           y="-221.43404"
           sodipodi:role="line"
           id="tspan110">0.07</tspan></text>
<g
         id="g118"
         transform="matrix(1,0,0,-1,0,324.13461)"><path
           d="m 227.629,275.297 0,-264.801"
           style="fill:none;stroke:#bfbfbf;stroke-width:0.53336;stroke-linecap:butt;stroke-linejoin:round;stroke-miterlimit:10;stroke-dasharray:none;stroke-opacity:1"
           id="path120"
           inkscape:connector-curvature="0" /></g><g
         id="g122"
         transform="matrix(1,0,0,-1,0,324.13461)"><path
           d="m 347.055,275.297 0,-264.801"
           style="fill:none;stroke:#bfbfbf;stroke-width:0.53336;stroke-linecap:butt;stroke-linejoin:round;stroke-miterlimit:10;stroke-dasharray:none;stroke-opacity:1"
           id="path124"
           inkscape:connector-curvature="0" /></g><g
         id="g126"
         transform="matrix(1,0,0,-1,0,324.13461)"><path
           d="m 466.484,275.297 0,-264.801"
           style="fill:none;stroke:#bfbfbf;stroke-width:0.53336;stroke-linecap:butt;stroke-linejoin:round;stroke-miterlimit:10;stroke-dasharray:none;stroke-opacity:1"
           id="path128"
           inkscape:connector-curvature="0" /></g><g
         id="g130"
         transform="matrix(1,0,0,-1,0,324.13461)"><path
           d="m 585.91,275.297 0,-264.801"
           style="fill:none;stroke:#bfbfbf;stroke-width:0.53336;stroke-linecap:butt;stroke-linejoin:round;stroke-miterlimit:10;stroke-dasharray:none;stroke-opacity:1"
           id="path132"
           inkscape:connector-curvature="0" /></g><g
         id="g134"
         transform="matrix(1,0,0,-1,0,324.13461)"><path
           d="m 143.543,251.023 0,-190.222"
           style="fill:none;stroke:#bf0000;stroke-width:1.60000002;stroke-linecap:butt;stroke-linejoin:round;stroke-miterlimit:10;stroke-dasharray:none;stroke-opacity:1"
           id="path136"
           inkscape:connector-curvature="0" /></g><g
         id="g138"
         transform="matrix(1,0,0,-1,0,324.13461)"><path
           d="m 192.289,251.023 0,-168.128"
           style="fill:none;stroke:#00bfbf;stroke-width:1.60000002;stroke-linecap:butt;stroke-linejoin:round;stroke-miterlimit:10;stroke-dasharray:none;stroke-opacity:1"
           id="path140"
           inkscape:connector-curvature="0" /></g><g
         id="g142"
         transform="matrix(1,0,0,-1,0,324.13461)"><path
           d="m 262.969,251.023 0,-162.781"
           style="fill:none;stroke:#bf0000;stroke-width:1.60000002;stroke-linecap:butt;stroke-linejoin:round;stroke-miterlimit:10;stroke-dasharray:none;stroke-opacity:1"
           id="path144"
           inkscape:connector-curvature="0" /></g><g
         id="g146"
         transform="matrix(1,0,0,-1,0,324.13461)"><path
           d="m 311.715,251.023 0,-189.39"
           style="fill:none;stroke:#00bfbf;stroke-width:1.60000002;stroke-linecap:butt;stroke-linejoin:round;stroke-miterlimit:10;stroke-dasharray:none;stroke-opacity:1"
           id="path148"
           inkscape:connector-curvature="0" /></g><g
         id="g150"
         transform="matrix(1,0,0,-1,0,324.13461)"><path
           d="m 382.398,251.023 0,-162.781"
           style="fill:none;stroke:#bf0000;stroke-width:1.60000002;stroke-linecap:butt;stroke-linejoin:round;stroke-miterlimit:10;stroke-dasharray:none;stroke-opacity:1"
           id="path152"
           inkscape:connector-curvature="0" /></g><g
         id="g154"
         transform="matrix(1,0,0,-1,0,324.13461)"><path
           d="m 431.145,251.023 0,-228.492"
           style="fill:none;stroke:#00bfbf;stroke-width:1.60000002;stroke-linecap:butt;stroke-linejoin:round;stroke-miterlimit:10;stroke-dasharray:none;stroke-opacity:1"
           id="path156"
           inkscape:connector-curvature="0" /></g><g
         id="g158"
         transform="matrix(1,0,0,-1,0,324.13461)"><path
           d="m 501.824,251.023 0,-178.253"
           style="fill:none;stroke:#bf0000;stroke-width:1.60000002;stroke-linecap:butt;stroke-linejoin:round;stroke-miterlimit:10;stroke-dasharray:none;stroke-opacity:1"
           id="path160"
           inkscape:connector-curvature="0" /></g><g
         id="g162"
         transform="matrix(1,0,0,-1,0,324.13461)"><path
           d="m 550.57,251.023 0,-166.394"
           style="fill:none;stroke:#00bfbf;stroke-width:1.60000002;stroke-linecap:butt;stroke-linejoin:round;stroke-miterlimit:10;stroke-dasharray:none;stroke-opacity:1"
           id="path164"
           inkscape:connector-curvature="0" /></g><g
         id="g166"
         transform="matrix(1,0,0,-1,0,324.13461)"><path
           d="m 621.25,251.023 0,-150.187"
           style="fill:none;stroke:#bf0000;stroke-width:1.60000002;stroke-linecap:butt;stroke-linejoin:round;stroke-miterlimit:10;stroke-dasharray:none;stroke-opacity:1"
           id="path168"
           inkscape:connector-curvature="0" /></g><g
         id="g170"
         transform="matrix(1,0,0,-1,0,324.13461)"><path
           d="m 669.996,251.023 0,-93.097"
           style="fill:none;stroke:#00bfbf;stroke-width:1.60000002;stroke-linecap:butt;stroke-linejoin:round;stroke-miterlimit:10;stroke-dasharray:none;stroke-opacity:1"
           id="path172"
           inkscape:connector-curvature="0" /></g><g
         id="g174"
         transform="matrix(1,0,0,-1,0,324.13461)"><path
           d="m 143.543,227.742 0,-123.183"
           style="fill:none;stroke:#bf0000;stroke-width:8;stroke-linecap:butt;stroke-linejoin:round;stroke-miterlimit:10;stroke-dasharray:none;stroke-opacity:1"
           id="path176"
           inkscape:connector-curvature="0" /></g><g
         id="g178"
         transform="matrix(1,0,0,-1,0,324.13461)"><path
           d="m 192.289,251.023 0,-147.234"
           style="fill:none;stroke:#00bfbf;stroke-width:8;stroke-linecap:butt;stroke-linejoin:round;stroke-miterlimit:10;stroke-dasharray:none;stroke-opacity:1"
           id="path180"
           inkscape:connector-curvature="0" /></g><g
         id="g182"
         transform="matrix(1,0,0,-1,0,324.13461)"><path
           d="m 262.969,218.16 0,-56.234"
           style="fill:none;stroke:#bf0000;stroke-width:8;stroke-linecap:butt;stroke-linejoin:round;stroke-miterlimit:10;stroke-dasharray:none;stroke-opacity:1"
           id="path184"
           inkscape:connector-curvature="0" /></g><g
         id="g186"
         transform="matrix(1,0,0,-1,0,324.13461)"><path
           d="m 311.715,251.023 0,-155.992"
           style="fill:none;stroke:#00bfbf;stroke-width:8;stroke-linecap:butt;stroke-linejoin:round;stroke-miterlimit:10;stroke-dasharray:none;stroke-opacity:1"
           id="path188"
           inkscape:connector-curvature="0" /></g><g
         id="g190"
         transform="matrix(1,0,0,-1,0,324.13461)"><path
           d="m 382.398,251.023 0,-78.226"
           style="fill:none;stroke:#bf0000;stroke-width:8;stroke-linecap:butt;stroke-linejoin:round;stroke-miterlimit:10;stroke-dasharray:none;stroke-opacity:1"
           id="path192"
           inkscape:connector-curvature="0" /></g><g
         id="g194"
         transform="matrix(1,0,0,-1,0,324.13461)"><path
           d="m 431.145,251.023 0,-164.171"
           style="fill:none;stroke:#00bfbf;stroke-width:8;stroke-linecap:butt;stroke-linejoin:round;stroke-miterlimit:10;stroke-dasharray:none;stroke-opacity:1"
           id="path196"
           inkscape:connector-curvature="0" /></g><g
         id="g198"
         transform="matrix(1,0,0,-1,0,324.13461)"><path
           d="m 501.824,251.023 0,-73.242"
           style="fill:none;stroke:#bf0000;stroke-width:8;stroke-linecap:butt;stroke-linejoin:round;stroke-miterlimit:10;stroke-dasharray:none;stroke-opacity:1"
           id="path200"
           inkscape:connector-curvature="0" /></g><g
         id="g202"
         transform="matrix(1,0,0,-1,0,324.13461)"><path
           d="m 550.57,251.023 0,-104.73"
           style="fill:none;stroke:#00bfbf;stroke-width:8;stroke-linecap:butt;stroke-linejoin:round;stroke-miterlimit:10;stroke-dasharray:none;stroke-opacity:1"
           id="path204"
           inkscape:connector-curvature="0" /></g><g
         id="g206"
         transform="matrix(1,0,0,-1,0,324.13461)"><path
           d="m 621.25,251.023 0,-68.605"
           style="fill:none;stroke:#bf0000;stroke-width:8;stroke-linecap:butt;stroke-linejoin:round;stroke-miterlimit:10;stroke-dasharray:none;stroke-opacity:1"
           id="path208"
           inkscape:connector-curvature="0" /></g><g
         id="g210"
         transform="matrix(1,0,0,-1,0,324.13461)"><path
           d="m 669.996,251.023 0,-49.093"
           style="fill:none;stroke:#00bfbf;stroke-width:8;stroke-linecap:butt;stroke-linejoin:round;stroke-miterlimit:10;stroke-dasharray:none;stroke-opacity:1"
           id="path212"
           inkscape:connector-curvature="0" /></g><g
         id="g214"
         transform="matrix(1,0,0,-1,0,324.13461)"><path
           d="m 131.355,212.562 24.375,0"
           style="fill:none;stroke:#ff0000;stroke-width:1.60000002;stroke-linecap:butt;stroke-linejoin:round;stroke-miterlimit:10;stroke-dasharray:none;stroke-opacity:1"
           id="path216"
           inkscape:connector-curvature="0" /></g><g
         id="g218"
         transform="matrix(1,0,0,-1,0,324.13461)"><path
           d="m 180.102,225.762 24.375,0"
           style="fill:none;stroke:#ff0000;stroke-width:1.60000002;stroke-linecap:butt;stroke-linejoin:round;stroke-miterlimit:10;stroke-dasharray:none;stroke-opacity:1"
           id="path220"
           inkscape:connector-curvature="0" /></g><g
         id="g222"
         transform="matrix(1,0,0,-1,0,324.13461)"><path
           d="m 250.785,191.852 24.371,0"
           style="fill:none;stroke:#ff0000;stroke-width:1.60000002;stroke-linecap:butt;stroke-linejoin:round;stroke-miterlimit:10;stroke-dasharray:none;stroke-opacity:1"
           id="path224"
           inkscape:connector-curvature="0" /></g><g
         id="g226"
         transform="matrix(1,0,0,-1,0,324.13461)"><path
           d="m 299.531,138.227 24.371,0"
           style="fill:none;stroke:#ff0000;stroke-width:1.60000002;stroke-linecap:butt;stroke-linejoin:round;stroke-miterlimit:10;stroke-dasharray:none;stroke-opacity:1"
           id="path228"
           inkscape:connector-curvature="0" /></g><g
         id="g230"
         transform="matrix(1,0,0,-1,0,324.13461)"><path
           d="m 370.211,203.883 24.371,0"
           style="fill:none;stroke:#ff0000;stroke-width:1.60000002;stroke-linecap:butt;stroke-linejoin:round;stroke-miterlimit:10;stroke-dasharray:none;stroke-opacity:1"
           id="path232"
           inkscape:connector-curvature="0" /></g><g
         id="g234"
         transform="matrix(1,0,0,-1,0,324.13461)"><path
           d="m 418.957,150.867 24.371,0"
           style="fill:none;stroke:#ff0000;stroke-width:1.60000002;stroke-linecap:butt;stroke-linejoin:round;stroke-miterlimit:10;stroke-dasharray:none;stroke-opacity:1"
           id="path236"
           inkscape:connector-curvature="0" /></g><g
         id="g238"
         transform="matrix(1,0,0,-1,0,324.13461)"><path
           d="m 489.637,207.812 24.375,0"
           style="fill:none;stroke:#ff0000;stroke-width:1.60000002;stroke-linecap:butt;stroke-linejoin:round;stroke-miterlimit:10;stroke-dasharray:none;stroke-opacity:1"
           id="path240"
           inkscape:connector-curvature="0" /></g><g
         id="g242"
         transform="matrix(1,0,0,-1,0,324.13461)"><path
           d="m 538.383,194.691 24.375,0"
           style="fill:none;stroke:#ff0000;stroke-width:1.60000002;stroke-linecap:butt;stroke-linejoin:round;stroke-miterlimit:10;stroke-dasharray:none;stroke-opacity:1"
           id="path244"
           inkscape:connector-curvature="0" /></g><g
         id="g246"
         transform="matrix(1,0,0,-1,0,324.13461)"><path
           d="m 609.066,207.535 24.372,0"
           style="fill:none;stroke:#ff0000;stroke-width:1.60000002;stroke-linecap:butt;stroke-linejoin:round;stroke-miterlimit:10;stroke-dasharray:none;stroke-opacity:1"
           id="path248"
           inkscape:connector-curvature="0" /></g><g
         id="g250"
         transform="matrix(1,0,0,-1,0,324.13461)"><path
           d="m 657.812,215.285 24.372,0"
           style="fill:none;stroke:#ff0000;stroke-width:1.60000002;stroke-linecap:butt;stroke-linejoin:round;stroke-miterlimit:10;stroke-dasharray:none;stroke-opacity:1"
           id="path252"
           inkscape:connector-curvature="0" /></g><g
         id="g254"
         transform="matrix(1,0,0,-1,0,324.13461)"><path
           d="m 621.25,69.566 0,6.403 m -3.199,-3.199 6.402,0"
           style="fill:none;stroke:#ff0000;stroke-width:0.80000001;stroke-linecap:butt;stroke-linejoin:miter;stroke-miterlimit:10;stroke-dasharray:none;stroke-opacity:1"
           id="path256"
           inkscape:connector-curvature="0" /></g><g
         id="g258"
         transform="matrix(1,0,0,-1,0,324.13461)"><path
           d="m 669.996,101.602 0,6.398 m -3.199,-3.199 6.402,0"
           style="fill:none;stroke:#ff0000;stroke-width:0.80000001;stroke-linecap:butt;stroke-linejoin:miter;stroke-miterlimit:10;stroke-dasharray:none;stroke-opacity:1"
           id="path260"
           inkscape:connector-curvature="0" /></g><text
         transform="matrix(1,0,0,-1,288.2114,0.399942)"
         style="font-variant:normal;font-weight:normal;font-size:28.24561119px;font-family:'DejaVu Sans';-inkscape-font-specification:DejaVuSans;writing-mode:lr-tb;fill:#262626;fill-opacity:1;fill-rule:nonzero;stroke:none"
         id="text262"><tspan
           x="0 26.833332 35.787189 53.045258 62.987713 71.941574 88.295784 106.25999 123.51806 146.59473 164.4742 173.42805 191.33577 208.62209 219.69437"
           y="0"
           sodipodi:role="line"
           id="tspan264">% of known data</tspan></text>
<g
         id="g266"
         transform="matrix(1,0,0,-1,0,324.13461)"><path
           d="m 511.02,0.559 178.031,0 0,77.246 -178.031,0 0,-77.246 z"
           style="fill:#feffff;fill-opacity:1;fill-rule:nonzero;stroke:#000000;stroke-width:1.11831498;stroke-linecap:square;stroke-linejoin:miter;stroke-miterlimit:10;stroke-dasharray:none;stroke-opacity:1"
           id="path268"
           inkscape:connector-curvature="0" /></g><g
         id="g270"
         transform="matrix(1,0,0,-1,0,324.13461)"><path
           d="m 524.664,25.391 51.816,0"
           style="fill:none;stroke:#ff0000;stroke-width:3.94952512;stroke-linecap:butt;stroke-linejoin:miter;stroke-miterlimit:10;stroke-dasharray:none;stroke-opacity:1"
           id="path272"
           inkscape:connector-curvature="0" /></g><g
         id="g274"
         transform="matrix(1,0,0,-1,0,324.13461)"><path
           d="m 524.664,63.078 51.816,0"
           style="fill:none;stroke:#008886;stroke-width:3.94952512;stroke-linecap:butt;stroke-linejoin:miter;stroke-miterlimit:10;stroke-dasharray:none;stroke-opacity:1"
           id="path276"
           inkscape:connector-curvature="0" /></g><text
         transform="matrix(1,0,0,-1,590.6257,290.66395)"
         style="font-variant:normal;font-weight:normal;font-size:29.62143707px;font-family:'DejaVu Sans';-inkscape-font-specification:DejaVuSans;writing-mode:lr-tb;fill:#000707;fill-opacity:1;fill-rule:nonzero;stroke:none"
         id="text278"><tspan
           x="0 25.533678"
           y="0"
           sodipodi:role="line"
           id="tspan280">ML</tspan><tspan
           x="0.21695392 29.068233 47.166931 65.946922 84.164108"
           y="33.481613"
           sodipodi:role="line"
           id="tspan282">model</tspan></text>
<text
         transform="matrix(1,0,0,-1,154.77548,22.811005)"
         style="font-variant:normal;font-weight:normal;font-size:20px;font-family:'DejaVu Sans';-inkscape-font-specification:DejaVuSans;writing-mode:lr-tb;fill:#000000;fill-opacity:1;fill-rule:nonzero;stroke:none"
         id="text284"><tspan
           x="0 12.72 118.8 131.52 237.14 249.86 355.72672 368.44672 467.42673 480.14673 492.86673"
           y="0"
           sodipodi:role="line"
           id="tspan286">20406080100</tspan></text>
<text
         xml:space="preserve"
         style="font-style:normal;font-weight:normal;font-size:20px;line-height:125%;font-family:sans-serif;text-align:center;letter-spacing:0px;word-spacing:0px;text-anchor:middle;fill:#000000;fill-opacity:1;stroke:none;stroke-width:1px;stroke-linecap:butt;stroke-linejoin:miter;stroke-opacity:1"
         x="182.39268"
         y="35.496979"
         id="text4414"
         sodipodi:linespacing="125%"
         transform="matrix(0,1,1,0,0,0)"><tspan
           sodipodi:role="line"
           x="182.39268"
           y="35.496979"
           id="tspan4418">NMRSD(posterior) -</tspan><tspan
           sodipodi:role="line"
           x="182.39268"
           y="60.496979"
           id="tspan4422">NMRSD(prior)</tspan></text>
</g></g></svg>