<?xml version="1.0" encoding="UTF-8" standalone="no"?>
<!-- Created with Inkscape (http://www.inkscape.org/) -->

<svg
   xmlns:dc="http://purl.org/dc/elements/1.1/"
   xmlns:cc="http://creativecommons.org/ns#"
   xmlns:rdf="http://www.w3.org/1999/02/22-rdf-syntax-ns#"
   xmlns:svg="http://www.w3.org/2000/svg"
   xmlns="http://www.w3.org/2000/svg"
   xmlns:sodipodi="http://sodipodi.sourceforge.net/DTD/sodipodi-0.dtd"
   xmlns:inkscape="http://www.inkscape.org/namespaces/inkscape"
   id="svg2"
   version="1.1"
   inkscape:version="0.91 r13725"
   xml:space="preserve"
   width="460.03296"
   height="377.52139"
   viewBox="0 0 460.03296 377.52139"
   sodipodi:docname="visu-NMRSDiff.svg"><metadata
     id="metadata8"><rdf:RDF><cc:Work
         rdf:about=""><dc:format>image/svg+xml</dc:format><dc:type
           rdf:resource="http://purl.org/dc/dcmitype/StillImage" /><dc:title></dc:title></cc:Work></rdf:RDF></metadata><defs
     id="defs6" /><sodipodi:namedview
     pagecolor="#ffffff"
     bordercolor="#666666"
     borderopacity="1"
     objecttolerance="10"
     gridtolerance="10"
     guidetolerance="10"
     inkscape:pageopacity="0"
     inkscape:pageshadow="2"
     inkscape:window-width="1855"
     inkscape:window-height="1028"
     id="namedview4"
     showgrid="false"
     fit-margin-top="0"
     fit-margin-left="0"
     fit-margin-right="0"
     fit-margin-bottom="0"
     inkscape:zoom="1.6290366"
     inkscape:cx="298.60115"
     inkscape:cy="191.04779"
     inkscape:window-x="65"
     inkscape:window-y="24"
     inkscape:window-maximized="0"
     inkscape:current-layer="g12" /><g
     id="g10"
     inkscape:groupmode="layer"
     inkscape:label="visu-NMRSDiff"
     transform="matrix(1.25,0,0,-1.25,-28.869141,377.52138)"><g
       id="g12"><g
         id="g14"
         transform="matrix(1,0,0,-1,0,327.80542)"><path
           d="m 37.254,293.254 353.601,0"
           style="fill:none;stroke:#262626;stroke-width:0.53336;stroke-linecap:square;stroke-linejoin:round;stroke-miterlimit:10;stroke-dasharray:none;stroke-opacity:1"
           id="path16"
           inkscape:connector-curvature="0" /></g><g
         id="g18"
         transform="matrix(1,0,0,-1,0,327.80542)"><path
           d="m 37.254,26.055 353.601,0"
           style="fill:none;stroke:#262626;stroke-width:0.53336;stroke-linecap:square;stroke-linejoin:round;stroke-miterlimit:10;stroke-dasharray:none;stroke-opacity:1"
           id="path20"
           inkscape:connector-curvature="0" /></g><g
         id="g22"
         transform="matrix(1,0,0,-1,0,327.80542)"><path
           d="m 37.254,293.254 0,-267.199"
           style="fill:none;stroke:#262626;stroke-width:0.53336;stroke-linecap:square;stroke-linejoin:round;stroke-miterlimit:10;stroke-dasharray:none;stroke-opacity:1"
           id="path24"
           inkscape:connector-curvature="0" /></g><g
         id="g26"
         transform="matrix(1,0,0,-1,0,327.80542)"><path
           d="m 390.855,293.254 0,-267.199"
           style="fill:none;stroke:#262626;stroke-width:0.53336;stroke-linecap:square;stroke-linejoin:round;stroke-miterlimit:10;stroke-dasharray:none;stroke-opacity:1"
           id="path28"
           inkscape:connector-curvature="0" /></g><g
         id="g30"
         transform="matrix(1,0,0,-1,0,327.80542)"><path
           d="m 37.254,292.453 3.535,0"
           style="fill:none;stroke:#262626;stroke-width:0.53336;stroke-linecap:square;stroke-linejoin:round;stroke-miterlimit:10;stroke-dasharray:none;stroke-opacity:1"
           id="path32"
           inkscape:connector-curvature="0" /></g><g
         id="g34"
         transform="matrix(1,0,0,-1,0,327.80542)"><path
           d="m 37.254,256.398 3.535,0"
           style="fill:none;stroke:#262626;stroke-width:0.53336;stroke-linecap:square;stroke-linejoin:round;stroke-miterlimit:10;stroke-dasharray:none;stroke-opacity:1"
           id="path36"
           inkscape:connector-curvature="0" /></g><g
         id="g38"
         transform="matrix(1,0,0,-1,0,327.80542)"><path
           d="m 37.254,220.344 3.535,0"
           style="fill:none;stroke:#262626;stroke-width:0.53336;stroke-linecap:square;stroke-linejoin:round;stroke-miterlimit:10;stroke-dasharray:none;stroke-opacity:1"
           id="path40"
           inkscape:connector-curvature="0" /></g><g
         id="g42"
         transform="matrix(1,0,0,-1,0,327.80542)"><path
           d="m 37.254,184.285 3.535,0"
           style="fill:none;stroke:#262626;stroke-width:0.53336;stroke-linecap:square;stroke-linejoin:round;stroke-miterlimit:10;stroke-dasharray:none;stroke-opacity:1"
           id="path44"
           inkscape:connector-curvature="0" /></g><g
         id="g46"
         transform="matrix(1,0,0,-1,0,327.80542)"><path
           d="m 37.254,148.23 3.535,0"
           style="fill:none;stroke:#262626;stroke-width:0.53336;stroke-linecap:square;stroke-linejoin:round;stroke-miterlimit:10;stroke-dasharray:none;stroke-opacity:1"
           id="path48"
           inkscape:connector-curvature="0" /></g><g
         id="g50"
         transform="matrix(1,0,0,-1,0,327.80542)"><path
           d="m 37.254,112.176 3.535,0"
           style="fill:none;stroke:#262626;stroke-width:0.53336;stroke-linecap:square;stroke-linejoin:round;stroke-miterlimit:10;stroke-dasharray:none;stroke-opacity:1"
           id="path52"
           inkscape:connector-curvature="0" /></g><g
         id="g54"
         transform="matrix(1,0,0,-1,0,327.80542)"><path
           d="m 37.254,76.117 3.535,0"
           style="fill:none;stroke:#262626;stroke-width:0.53336;stroke-linecap:square;stroke-linejoin:round;stroke-miterlimit:10;stroke-dasharray:none;stroke-opacity:1"
           id="path56"
           inkscape:connector-curvature="0" /></g><g
         id="g58"
         transform="matrix(1,0,0,-1,0,327.80542)"><path
           d="m 37.254,40.062 3.535,0"
           style="fill:none;stroke:#262626;stroke-width:0.53336;stroke-linecap:square;stroke-linejoin:round;stroke-miterlimit:10;stroke-dasharray:none;stroke-opacity:1"
           id="path60"
           inkscape:connector-curvature="0" /></g><g
         id="g62"
         transform="matrix(1,0,0,-1,0,327.80542)"><path
           d="m 390.855,292.453 -3.539,0"
           style="fill:none;stroke:#262626;stroke-width:0.53336;stroke-linecap:square;stroke-linejoin:round;stroke-miterlimit:10;stroke-dasharray:none;stroke-opacity:1"
           id="path64"
           inkscape:connector-curvature="0" /></g><g
         id="g66"
         transform="matrix(1,0,0,-1,0,327.80542)"><path
           d="m 390.855,256.398 -3.539,0"
           style="fill:none;stroke:#262626;stroke-width:0.53336;stroke-linecap:square;stroke-linejoin:round;stroke-miterlimit:10;stroke-dasharray:none;stroke-opacity:1"
           id="path68"
           inkscape:connector-curvature="0" /></g><g
         id="g70"
         transform="matrix(1,0,0,-1,0,327.80542)"><path
           d="m 390.855,220.344 -3.539,0"
           style="fill:none;stroke:#262626;stroke-width:0.53336;stroke-linecap:square;stroke-linejoin:round;stroke-miterlimit:10;stroke-dasharray:none;stroke-opacity:1"
           id="path72"
           inkscape:connector-curvature="0" /></g><g
         id="g74"
         transform="matrix(1,0,0,-1,0,327.80542)"><path
           d="m 390.855,184.285 -3.539,0"
           style="fill:none;stroke:#262626;stroke-width:0.53336;stroke-linecap:square;stroke-linejoin:round;stroke-miterlimit:10;stroke-dasharray:none;stroke-opacity:1"
           id="path76"
           inkscape:connector-curvature="0" /></g><g
         id="g78"
         transform="matrix(1,0,0,-1,0,327.80542)"><path
           d="m 390.855,148.23 -3.539,0"
           style="fill:none;stroke:#262626;stroke-width:0.53336;stroke-linecap:square;stroke-linejoin:round;stroke-miterlimit:10;stroke-dasharray:none;stroke-opacity:1"
           id="path80"
           inkscape:connector-curvature="0" /></g><g
         id="g82"
         transform="matrix(1,0,0,-1,0,327.80542)"><path
           d="m 390.855,112.176 -3.539,0"
           style="fill:none;stroke:#262626;stroke-width:0.53336;stroke-linecap:square;stroke-linejoin:round;stroke-miterlimit:10;stroke-dasharray:none;stroke-opacity:1"
           id="path84"
           inkscape:connector-curvature="0" /></g><g
         id="g86"
         transform="matrix(1,0,0,-1,0,327.80542)"><path
           d="m 390.855,76.117 -3.539,0"
           style="fill:none;stroke:#262626;stroke-width:0.53336;stroke-linecap:square;stroke-linejoin:round;stroke-miterlimit:10;stroke-dasharray:none;stroke-opacity:1"
           id="path88"
           inkscape:connector-curvature="0" /></g><g
         id="g90"
         transform="matrix(1,0,0,-1,0,327.80542)"><path
           d="m 390.855,40.062 -3.539,0"
           style="fill:none;stroke:#262626;stroke-width:0.53336;stroke-linecap:square;stroke-linejoin:round;stroke-miterlimit:10;stroke-dasharray:none;stroke-opacity:1"
           id="path92"
           inkscape:connector-curvature="0" /></g><text
         transform="matrix(1,0,0,-1,22.5875,31.751972)"
         style="font-variant:normal;font-weight:normal;font-size:13px;font-family:'DejaVu Sans';-inkscape-font-specification:DejaVuSans;writing-mode:lr-tb;fill:#262626;fill-opacity:1;fill-rule:nonzero;stroke:none;"
         id="text94"><tspan
           x="0 3.744"
           y="0"
           sodipodi:role="line"
           id="tspan96">-1</tspan><tspan
           x="3.1999967"
           y="-36.055759"
           id="tspan98"
           style="font-size:13px;">0</tspan><tspan
           x="3.1999967"
           y="-72.111519"
           id="tspan100"
           style="font-size:13px;">1</tspan><tspan
           x="3.1999967"
           y="-108.16728"
           id="tspan102"
           style="font-size:13px;">2</tspan><tspan
           x="3.1999967"
           y="-144.22304"
           id="tspan104"
           style="font-size:13px;">3</tspan><tspan
           x="3.1999967"
           y="-180.27879"
           id="tspan106"
           style="font-size:13px;">4</tspan><tspan
           x="3.1999967"
           y="-216.33456"
           id="tspan108"
           style="font-size:13px;">5</tspan><tspan
           x="3.1999967"
           y="-252.39032"
           id="tspan110"
           style="font-size:13px;">6</tspan></text>
<g
         id="g116"
         transform="matrix(1,0,0,-1,0,327.80542)"><path
           d="m 103.93,293.254 0,-267.199"
           style="fill:none;stroke:#bfbfbf;stroke-width:0.53336;stroke-linecap:butt;stroke-linejoin:round;stroke-miterlimit:10;stroke-dasharray:none;stroke-opacity:1"
           id="path118"
           inkscape:connector-curvature="0" /></g><g
         id="g120"
         transform="matrix(1,0,0,-1,0,327.80542)"><path
           d="m 177.344,293.254 0,-267.199"
           style="fill:none;stroke:#bfbfbf;stroke-width:0.53336;stroke-linecap:butt;stroke-linejoin:round;stroke-miterlimit:10;stroke-dasharray:none;stroke-opacity:1"
           id="path122"
           inkscape:connector-curvature="0" /></g><g
         id="g124"
         transform="matrix(1,0,0,-1,0,327.80542)"><path
           d="m 250.762,293.254 0,-267.199"
           style="fill:none;stroke:#bfbfbf;stroke-width:0.53336;stroke-linecap:butt;stroke-linejoin:round;stroke-miterlimit:10;stroke-dasharray:none;stroke-opacity:1"
           id="path126"
           inkscape:connector-curvature="0" /></g><g
         id="g128"
         transform="matrix(1,0,0,-1,0,327.80542)"><path
           d="m 324.18,293.254 0,-267.199"
           style="fill:none;stroke:#bfbfbf;stroke-width:0.53336;stroke-linecap:butt;stroke-linejoin:round;stroke-miterlimit:10;stroke-dasharray:none;stroke-opacity:1"
           id="path130"
           inkscape:connector-curvature="0" /></g><g
         id="g132"
         transform="matrix(1,0,0,-1,0,327.80542)"><path
           d="m 52.238,270.105 0,-227.617"
           style="fill:none;stroke:#bf0000;stroke-width:0.53336;stroke-linecap:butt;stroke-linejoin:round;stroke-miterlimit:10;stroke-dasharray:none;stroke-opacity:1"
           id="path134"
           inkscape:connector-curvature="0" /></g><g
         id="g136"
         transform="matrix(1,0,0,-1,0,327.80542)"><path
           d="m 82.203,261.906 0,-223.707"
           style="fill:none;stroke:#00bfbf;stroke-width:0.53336;stroke-linecap:butt;stroke-linejoin:round;stroke-miterlimit:10;stroke-dasharray:none;stroke-opacity:1"
           id="path138"
           inkscape:connector-curvature="0" /></g><g
         id="g140"
         transform="matrix(1,0,0,-1,0,327.80542)"><path
           d="m 125.652,266.023 0,-219.359"
           style="fill:none;stroke:#bf0000;stroke-width:0.53336;stroke-linecap:butt;stroke-linejoin:round;stroke-miterlimit:10;stroke-dasharray:none;stroke-opacity:1"
           id="path142"
           inkscape:connector-curvature="0" /></g><g
         id="g144"
         transform="matrix(1,0,0,-1,0,327.80542)"><path
           d="m 155.621,261.859 0,-85.89"
           style="fill:none;stroke:#00bfbf;stroke-width:0.53336;stroke-linecap:butt;stroke-linejoin:round;stroke-miterlimit:10;stroke-dasharray:none;stroke-opacity:1"
           id="path146"
           inkscape:connector-curvature="0" /></g><g
         id="g148"
         transform="matrix(1,0,0,-1,0,327.80542)"><path
           d="m 199.07,256.031 0,-177.281"
           style="fill:none;stroke:#bf0000;stroke-width:0.53336;stroke-linecap:butt;stroke-linejoin:round;stroke-miterlimit:10;stroke-dasharray:none;stroke-opacity:1"
           id="path150"
           inkscape:connector-curvature="0" /></g><g
         id="g152"
         transform="matrix(1,0,0,-1,0,327.80542)"><path
           d="m 229.039,273.789 0,-69.418"
           style="fill:none;stroke:#00bfbf;stroke-width:0.53336;stroke-linecap:butt;stroke-linejoin:round;stroke-miterlimit:10;stroke-dasharray:none;stroke-opacity:1"
           id="path154"
           inkscape:connector-curvature="0" /></g><g
         id="g156"
         transform="matrix(1,0,0,-1,0,327.80542)"><path
           d="m 272.488,274.875 0,-116.434"
           style="fill:none;stroke:#bf0000;stroke-width:0.53336;stroke-linecap:butt;stroke-linejoin:round;stroke-miterlimit:10;stroke-dasharray:none;stroke-opacity:1"
           id="path158"
           inkscape:connector-curvature="0" /></g><g
         id="g160"
         transform="matrix(1,0,0,-1,0,327.80542)"><path
           d="m 302.453,271.68 0,-72.403"
           style="fill:none;stroke:#00bfbf;stroke-width:0.53336;stroke-linecap:butt;stroke-linejoin:round;stroke-miterlimit:10;stroke-dasharray:none;stroke-opacity:1"
           id="path162"
           inkscape:connector-curvature="0" /></g><g
         id="g164"
         transform="matrix(1,0,0,-1,0,327.80542)"><path
           d="m 345.906,281.109 0,-60.25"
           style="fill:none;stroke:#bf0000;stroke-width:0.53336;stroke-linecap:butt;stroke-linejoin:round;stroke-miterlimit:10;stroke-dasharray:none;stroke-opacity:1"
           id="path166"
           inkscape:connector-curvature="0" /></g><g
         id="g168"
         transform="matrix(1,0,0,-1,0,327.80542)"><path
           d="m 375.871,275.164 0,-56.719"
           style="fill:none;stroke:#00bfbf;stroke-width:0.53336;stroke-linecap:butt;stroke-linejoin:round;stroke-miterlimit:10;stroke-dasharray:none;stroke-opacity:1"
           id="path170"
           inkscape:connector-curvature="0" /></g><g
         id="g172"
         transform="matrix(1,0,0,-1,0,327.80542)"><path
           d="m 52.238,253.309 0,-134.43"
           style="fill:none;stroke:#bf0000;stroke-width:8.53359985;stroke-linecap:butt;stroke-linejoin:round;stroke-miterlimit:10;stroke-dasharray:none;stroke-opacity:1"
           id="path174"
           inkscape:connector-curvature="0" /></g><g
         id="g176"
         transform="matrix(1,0,0,-1,0,327.80542)"><path
           d="m 82.203,237.598 0,-137.414"
           style="fill:none;stroke:#00bfbf;stroke-width:8.53359985;stroke-linecap:butt;stroke-linejoin:round;stroke-miterlimit:10;stroke-dasharray:none;stroke-opacity:1"
           id="path178"
           inkscape:connector-curvature="0" /></g><g
         id="g180"
         transform="matrix(1,0,0,-1,0,327.80542)"><path
           d="m 125.652,221.762 0,-101.008"
           style="fill:none;stroke:#bf0000;stroke-width:8.53359985;stroke-linecap:butt;stroke-linejoin:round;stroke-miterlimit:10;stroke-dasharray:none;stroke-opacity:1"
           id="path182"
           inkscape:connector-curvature="0" /></g><g
         id="g184"
         transform="matrix(1,0,0,-1,0,327.80542)"><path
           d="m 155.621,252.441 0,-46.16"
           style="fill:none;stroke:#00bfbf;stroke-width:8.53359985;stroke-linecap:butt;stroke-linejoin:round;stroke-miterlimit:10;stroke-dasharray:none;stroke-opacity:1"
           id="path186"
           inkscape:connector-curvature="0" /></g><g
         id="g188"
         transform="matrix(1,0,0,-1,0,327.80542)"><path
           d="m 199.07,233.465 0,-65.36"
           style="fill:none;stroke:#bf0000;stroke-width:8.53359985;stroke-linecap:butt;stroke-linejoin:round;stroke-miterlimit:10;stroke-dasharray:none;stroke-opacity:1"
           id="path190"
           inkscape:connector-curvature="0" /></g><g
         id="g192"
         transform="matrix(1,0,0,-1,0,327.80542)"><path
           d="m 229.039,253.914 0,-34.84"
           style="fill:none;stroke:#00bfbf;stroke-width:8.53359985;stroke-linecap:butt;stroke-linejoin:round;stroke-miterlimit:10;stroke-dasharray:none;stroke-opacity:1"
           id="path194"
           inkscape:connector-curvature="0" /></g><g
         id="g196"
         transform="matrix(1,0,0,-1,0,327.80542)"><path
           d="m 272.488,242.445 0,-45.285"
           style="fill:none;stroke:#bf0000;stroke-width:8.53359985;stroke-linecap:butt;stroke-linejoin:round;stroke-miterlimit:10;stroke-dasharray:none;stroke-opacity:1"
           id="path198"
           inkscape:connector-curvature="0" /></g><g
         id="g200"
         transform="matrix(1,0,0,-1,0,327.80542)"><path
           d="m 302.453,254.184 0,-24.372"
           style="fill:none;stroke:#00bfbf;stroke-width:8.53359985;stroke-linecap:butt;stroke-linejoin:round;stroke-miterlimit:10;stroke-dasharray:none;stroke-opacity:1"
           id="path202"
           inkscape:connector-curvature="0" /></g><g
         id="g204"
         transform="matrix(1,0,0,-1,0,327.80542)"><path
           d="m 345.906,256.605 0,-16.757"
           style="fill:none;stroke:#bf0000;stroke-width:8.53359985;stroke-linecap:butt;stroke-linejoin:round;stroke-miterlimit:10;stroke-dasharray:none;stroke-opacity:1"
           id="path206"
           inkscape:connector-curvature="0" /></g><g
         id="g208"
         transform="matrix(1,0,0,-1,0,327.80542)"><path
           d="m 375.871,257.898 0,-19.867"
           style="fill:none;stroke:#00bfbf;stroke-width:8.53359985;stroke-linecap:butt;stroke-linejoin:round;stroke-miterlimit:10;stroke-dasharray:none;stroke-opacity:1"
           id="path210"
           inkscape:connector-curvature="0" /></g><g
         id="g212"
         transform="matrix(1,0,0,-1,0,327.80542)"><path
           d="m 44.746,168.902 14.984,0"
           style="fill:none;stroke:#ff0000;stroke-width:1.06640005;stroke-linecap:butt;stroke-linejoin:round;stroke-miterlimit:10;stroke-dasharray:none;stroke-opacity:1"
           id="path214"
           inkscape:connector-curvature="0" /></g><g
         id="g216"
         transform="matrix(1,0,0,-1,0,327.80542)"><path
           d="m 74.711,155.699 14.984,0"
           style="fill:none;stroke:#ff0000;stroke-width:1.06640005;stroke-linecap:butt;stroke-linejoin:round;stroke-miterlimit:10;stroke-dasharray:none;stroke-opacity:1"
           id="path218"
           inkscape:connector-curvature="0" /></g><g
         id="g220"
         transform="matrix(1,0,0,-1,0,327.80542)"><path
           d="m 118.164,153.348 14.981,0"
           style="fill:none;stroke:#ff0000;stroke-width:1.06640005;stroke-linecap:butt;stroke-linejoin:round;stroke-miterlimit:10;stroke-dasharray:none;stroke-opacity:1"
           id="path222"
           inkscape:connector-curvature="0" /></g><g
         id="g224"
         transform="matrix(1,0,0,-1,0,327.80542)"><path
           d="m 148.129,245.484 14.984,0"
           style="fill:none;stroke:#ff0000;stroke-width:1.06640005;stroke-linecap:butt;stroke-linejoin:round;stroke-miterlimit:10;stroke-dasharray:none;stroke-opacity:1"
           id="path226"
           inkscape:connector-curvature="0" /></g><g
         id="g228"
         transform="matrix(1,0,0,-1,0,327.80542)"><path
           d="m 191.578,198.234 14.984,0"
           style="fill:none;stroke:#ff0000;stroke-width:1.06640005;stroke-linecap:butt;stroke-linejoin:round;stroke-miterlimit:10;stroke-dasharray:none;stroke-opacity:1"
           id="path230"
           inkscape:connector-curvature="0" /></g><g
         id="g232"
         transform="matrix(1,0,0,-1,0,327.80542)"><path
           d="m 221.547,241.828 14.98,0"
           style="fill:none;stroke:#ff0000;stroke-width:1.06640005;stroke-linecap:butt;stroke-linejoin:round;stroke-miterlimit:10;stroke-dasharray:none;stroke-opacity:1"
           id="path234"
           inkscape:connector-curvature="0" /></g><g
         id="g236"
         transform="matrix(1,0,0,-1,0,327.80542)"><path
           d="m 264.996,225.332 14.984,0"
           style="fill:none;stroke:#ff0000;stroke-width:1.06640005;stroke-linecap:butt;stroke-linejoin:round;stroke-miterlimit:10;stroke-dasharray:none;stroke-opacity:1"
           id="path238"
           inkscape:connector-curvature="0" /></g><g
         id="g240"
         transform="matrix(1,0,0,-1,0,327.80542)"><path
           d="m 294.961,248.094 14.984,0"
           style="fill:none;stroke:#ff0000;stroke-width:1.06640005;stroke-linecap:butt;stroke-linejoin:round;stroke-miterlimit:10;stroke-dasharray:none;stroke-opacity:1"
           id="path242"
           inkscape:connector-curvature="0" /></g><g
         id="g244"
         transform="matrix(1,0,0,-1,0,327.80542)"><path
           d="m 338.414,247.996 14.984,0"
           style="fill:none;stroke:#ff0000;stroke-width:1.06640005;stroke-linecap:butt;stroke-linejoin:round;stroke-miterlimit:10;stroke-dasharray:none;stroke-opacity:1"
           id="path246"
           inkscape:connector-curvature="0" /></g><g
         id="g248"
         transform="matrix(1,0,0,-1,0,327.80542)"><path
           d="m 368.379,248.652 14.984,0"
           style="fill:none;stroke:#ff0000;stroke-width:1.06640005;stroke-linecap:butt;stroke-linejoin:round;stroke-miterlimit:10;stroke-dasharray:none;stroke-opacity:1"
           id="path250"
           inkscape:connector-curvature="0" /></g><g
         id="g252"
         transform="matrix(1,0,0,-1,0,327.80542)"><path
           d="m 155.621,131.02 0,6.398 m -3.199,-3.199 6.398,0"
           style="fill:none;stroke:#ff0000;stroke-width:0.80000001;stroke-linecap:butt;stroke-linejoin:miter;stroke-miterlimit:10;stroke-dasharray:none;stroke-opacity:1"
           id="path254"
           inkscape:connector-curvature="0" /></g><g
         id="g256"
         transform="matrix(1,0,0,-1,0,327.80542)"><path
           d="m 155.621,94.844 0,6.402 m -3.199,-3.203 6.398,0"
           style="fill:none;stroke:#ff0000;stroke-width:0.80000001;stroke-linecap:butt;stroke-linejoin:miter;stroke-miterlimit:10;stroke-dasharray:none;stroke-opacity:1"
           id="path258"
           inkscape:connector-curvature="0" /></g><g
         id="g260"
         transform="matrix(1,0,0,-1,0,327.80542)"><path
           d="m 155.621,85.766 0,6.398 m -3.199,-3.199 6.398,0"
           style="fill:none;stroke:#ff0000;stroke-width:0.80000001;stroke-linecap:butt;stroke-linejoin:miter;stroke-miterlimit:10;stroke-dasharray:none;stroke-opacity:1"
           id="path262"
           inkscape:connector-curvature="0" /></g><g
         id="g264"
         transform="matrix(1,0,0,-1,0,327.80542)"><path
           d="m 155.621,68.012 0,6.398 m -3.199,-3.199 6.398,0"
           style="fill:none;stroke:#ff0000;stroke-width:0.80000001;stroke-linecap:butt;stroke-linejoin:miter;stroke-miterlimit:10;stroke-dasharray:none;stroke-opacity:1"
           id="path266"
           inkscape:connector-curvature="0" /></g><g
         id="g268"
         transform="matrix(1,0,0,-1,0,327.80542)"><path
           d="m 155.621,59.805 0,6.398 m -3.199,-3.199 6.398,0"
           style="fill:none;stroke:#ff0000;stroke-width:0.80000001;stroke-linecap:butt;stroke-linejoin:miter;stroke-miterlimit:10;stroke-dasharray:none;stroke-opacity:1"
           id="path270"
           inkscape:connector-curvature="0" /></g><g
         id="g272"
         transform="matrix(1,0,0,-1,0,327.80542)"><path
           d="m 199.07,58.168 0,6.402 m -3.199,-3.199 6.399,0"
           style="fill:none;stroke:#ff0000;stroke-width:0.80000001;stroke-linecap:butt;stroke-linejoin:miter;stroke-miterlimit:10;stroke-dasharray:none;stroke-opacity:1"
           id="path274"
           inkscape:connector-curvature="0" /></g><g
         id="g276"
         transform="matrix(1,0,0,-1,0,327.80542)"><path
           d="m 199.07,54.262 0,6.398 m -3.199,-3.199 6.399,0"
           style="fill:none;stroke:#ff0000;stroke-width:0.80000001;stroke-linecap:butt;stroke-linejoin:miter;stroke-miterlimit:10;stroke-dasharray:none;stroke-opacity:1"
           id="path278"
           inkscape:connector-curvature="0" /></g><g
         id="g280"
         transform="matrix(1,0,0,-1,0,327.80542)"><path
           d="m 229.039,115.516 0,6.398 m -3.203,-3.199 6.402,0"
           style="fill:none;stroke:#ff0000;stroke-width:0.80000001;stroke-linecap:butt;stroke-linejoin:miter;stroke-miterlimit:10;stroke-dasharray:none;stroke-opacity:1"
           id="path282"
           inkscape:connector-curvature="0" /></g><g
         id="g284"
         transform="matrix(1,0,0,-1,0,327.80542)"><path
           d="m 229.039,102.465 0,6.402 m -3.203,-3.203 6.402,0"
           style="fill:none;stroke:#ff0000;stroke-width:0.80000001;stroke-linecap:butt;stroke-linejoin:miter;stroke-miterlimit:10;stroke-dasharray:none;stroke-opacity:1"
           id="path286"
           inkscape:connector-curvature="0" /></g><g
         id="g288"
         transform="matrix(1,0,0,-1,0,327.80542)"><path
           d="m 272.488,107.781 0,6.403 m -3.199,-3.2 6.399,0"
           style="fill:none;stroke:#ff0000;stroke-width:0.80000001;stroke-linecap:butt;stroke-linejoin:miter;stroke-miterlimit:10;stroke-dasharray:none;stroke-opacity:1"
           id="path290"
           inkscape:connector-curvature="0" /></g><g
         id="g292"
         transform="matrix(1,0,0,-1,0,327.80542)"><path
           d="m 272.488,99.809 0,6.398 m -3.199,-3.199 6.399,0"
           style="fill:none;stroke:#ff0000;stroke-width:0.80000001;stroke-linecap:butt;stroke-linejoin:miter;stroke-miterlimit:10;stroke-dasharray:none;stroke-opacity:1"
           id="path294"
           inkscape:connector-curvature="0" /></g><g
         id="g296"
         transform="matrix(1,0,0,-1,0,327.80542)"><path
           d="m 272.488,88.195 0,6.399 m -3.199,-3.199 6.399,0"
           style="fill:none;stroke:#ff0000;stroke-width:0.80000001;stroke-linecap:butt;stroke-linejoin:miter;stroke-miterlimit:10;stroke-dasharray:none;stroke-opacity:1"
           id="path298"
           inkscape:connector-curvature="0" /></g><g
         id="g300"
         transform="matrix(1,0,0,-1,0,327.80542)"><path
           d="m 302.453,177.816 0,6.399 m -3.199,-3.199 6.398,0"
           style="fill:none;stroke:#ff0000;stroke-width:0.80000001;stroke-linecap:butt;stroke-linejoin:miter;stroke-miterlimit:10;stroke-dasharray:none;stroke-opacity:1"
           id="path302"
           inkscape:connector-curvature="0" /></g><g
         id="g304"
         transform="matrix(1,0,0,-1,0,327.80542)"><path
           d="m 345.906,196.801 0,6.398 m -3.203,-3.199 6.402,0"
           style="fill:none;stroke:#ff0000;stroke-width:0.80000001;stroke-linecap:butt;stroke-linejoin:miter;stroke-miterlimit:10;stroke-dasharray:none;stroke-opacity:1"
           id="path306"
           inkscape:connector-curvature="0" /></g><g
         id="g308"
         transform="matrix(1,0,0,-1,0,327.80542)"><path
           d="m 345.906,185.477 0,6.398 m -3.203,-3.199 6.402,0"
           style="fill:none;stroke:#ff0000;stroke-width:0.80000001;stroke-linecap:butt;stroke-linejoin:miter;stroke-miterlimit:10;stroke-dasharray:none;stroke-opacity:1"
           id="path310"
           inkscape:connector-curvature="0" /></g><g
         id="g312"
         transform="matrix(1,0,0,-1,0,327.80542)"><path
           d="m 345.906,184.703 0,6.402 m -3.203,-3.203 6.402,0"
           style="fill:none;stroke:#ff0000;stroke-width:0.80000001;stroke-linecap:butt;stroke-linejoin:miter;stroke-miterlimit:10;stroke-dasharray:none;stroke-opacity:1"
           id="path314"
           inkscape:connector-curvature="0" /></g><g
         id="g316"
         transform="matrix(1,0,0,-1,0,327.80542)"><path
           d="m 345.906,163.738 0,6.403 m -3.203,-3.2 6.402,0"
           style="fill:none;stroke:#ff0000;stroke-width:0.80000001;stroke-linecap:butt;stroke-linejoin:miter;stroke-miterlimit:10;stroke-dasharray:none;stroke-opacity:1"
           id="path318"
           inkscape:connector-curvature="0" /></g><text
         transform="matrix(1,0,0,-1,133.15414,0.271868)"
         style="font-variant:normal;font-weight:normal;font-size:19.20000076px;font-family:'DejaVu Sans';-inkscape-font-specification:DejaVuSans;writing-mode:lr-tb;fill:#262626;fill-opacity:1;fill-rule:nonzero;stroke:none"
         id="text320"><tspan
           x="0 18.24 24.326401 36.057598 42.816002 48.902401 60.019199 72.2304 83.961601 99.648003 111.8016 117.888 130.06081 141.8112 149.3376"
           y="0"
           sodipodi:role="line"
           id="tspan322">% of known data</tspan></text>
<g
         id="g324"
         transform="matrix(1,0,0,-1,0,327.80542)"><path
           d="m 277.859,37.926 108.184,0 0,46.941 -108.184,0 0,-46.941 z"
           style="fill:#feffff;fill-opacity:1;fill-rule:nonzero;stroke:#000000;stroke-width:0.679564;stroke-linecap:square;stroke-linejoin:miter;stroke-miterlimit:10;stroke-dasharray:none;stroke-opacity:1"
           id="path326"
           inkscape:connector-curvature="0" /></g><g
         id="g328"
         transform="matrix(1,0,0,-1,0,327.80542)"><path
           d="m 286.152,53.016 31.489,0"
           style="fill:none;stroke:#ff0000;stroke-width:2.4000001;stroke-linecap:butt;stroke-linejoin:miter;stroke-miterlimit:10;stroke-dasharray:none;stroke-opacity:1"
           id="path330"
           inkscape:connector-curvature="0" /></g><g
         id="g332"
         transform="matrix(1,0,0,-1,0,327.80542)"><path
           d="m 286.152,75.914 31.489,0"
           style="fill:none;stroke:#008886;stroke-width:2.4000001;stroke-linecap:butt;stroke-linejoin:miter;stroke-miterlimit:10;stroke-dasharray:none;stroke-opacity:1"
           id="path334"
           inkscape:connector-curvature="0" /></g><text
         transform="matrix(1,0,0,-1,326.23386,269.88047)"
         style="font-variant:normal;font-weight:normal;font-size:18px;font-family:'DejaVu Sans';-inkscape-font-specification:DejaVuSans;writing-mode:lr-tb;fill:#000707;fill-opacity:1;fill-rule:nonzero;stroke:none"
         id="text336"><tspan
           x="0 15.516"
           y="0"
           sodipodi:role="line"
           id="tspan338">ML</tspan><tspan
           x="0.13183597 17.663836 28.661837 40.073837 51.143837"
           y="20.345707"
           sodipodi:role="line"
           id="tspan340">model</tspan></text>
<text
         transform="matrix(1,0,0,-1,60.190771,20.310986)"
         style="font-variant:normal;font-weight:normal;font-size:12.14768505px;font-family:'DejaVu Sans';-inkscape-font-specification:DejaVuSans;writing-mode:lr-tb;fill:#000000;fill-opacity:1;fill-rule:nonzero;stroke:none"
         id="text342"><tspan
           x="0 7.7259278 72.120804 79.846733 143.96222 151.68814 215.95763 223.68356 283.80246 291.52838 299.2543"
           y="0"
           sodipodi:role="line"
           id="tspan344">20406080100</tspan></text>
<g
         id="g346"
         transform="matrix(1,0,0,-1,0,327.80542)"><path
           d="m 36.672,255.535 351.637,0"
           style="fill:none;stroke:#000000;stroke-width:1.60000002;stroke-linecap:butt;stroke-linejoin:miter;stroke-miterlimit:10;stroke-dasharray:none;stroke-opacity:1"
           id="path348"
           inkscape:connector-curvature="0" /></g></g></g></svg>