<?xml version="1.0" encoding="UTF-8" standalone="no"?>
<!-- Created with Inkscape (http://www.inkscape.org/) -->

<svg
   xmlns:dc="http://purl.org/dc/elements/1.1/"
   xmlns:cc="http://creativecommons.org/ns#"
   xmlns:rdf="http://www.w3.org/1999/02/22-rdf-syntax-ns#"
   xmlns:svg="http://www.w3.org/2000/svg"
   xmlns="http://www.w3.org/2000/svg"
   xmlns:sodipodi="http://sodipodi.sourceforge.net/DTD/sodipodi-0.dtd"
   xmlns:inkscape="http://www.inkscape.org/namespaces/inkscape"
   id="svg2"
   version="1.1"
   inkscape:version="0.91 r13725"
   xml:space="preserve"
   width="484.47394"
   height="351.0596"
   viewBox="0 0 484.47394 351.0596"
   sodipodi:docname="visu-meanErrInf.svg"><metadata
     id="metadata8"><rdf:RDF><cc:Work
         rdf:about=""><dc:format>image/svg+xml</dc:format><dc:type
           rdf:resource="http://purl.org/dc/dcmitype/StillImage" /><dc:title></dc:title></cc:Work></rdf:RDF></metadata><defs
     id="defs6" /><sodipodi:namedview
     pagecolor="#ffffff"
     bordercolor="#666666"
     borderopacity="1"
     objecttolerance="10"
     gridtolerance="10"
     guidetolerance="10"
     inkscape:pageopacity="0"
     inkscape:pageshadow="2"
     inkscape:window-width="1855"
     inkscape:window-height="1028"
     id="namedview4"
     showgrid="false"
     fit-margin-top="0"
     fit-margin-left="0"
     fit-margin-right="0"
     fit-margin-bottom="0"
     inkscape:zoom="1.8628473"
     inkscape:cx="26.858803"
     inkscape:cy="185.07276"
     inkscape:window-x="65"
     inkscape:window-y="24"
     inkscape:window-maximized="0"
     inkscape:current-layer="g12" /><g
     id="g10"
     inkscape:groupmode="layer"
     inkscape:label="visu-meanErrInf"
     transform="matrix(1.25,0,0,-1.25,-18.19815,358.32717)"><g
       id="g12"><g
         id="g14"
         transform="matrix(1,0,0,-1,0,286.66174)"><path
           d="m 58.672,252.422 343.199,0"
           style="fill:none;stroke:#262626;stroke-width:0.53336;stroke-linecap:square;stroke-linejoin:round;stroke-miterlimit:10;stroke-dasharray:none;stroke-opacity:1"
           id="path16"
           inkscape:connector-curvature="0" /></g><g
         id="g18"
         transform="matrix(1,0,0,-1,0,286.66174)"><path
           d="m 58.672,3.621 343.199,0"
           style="fill:none;stroke:#262626;stroke-width:0.53336;stroke-linecap:square;stroke-linejoin:round;stroke-miterlimit:10;stroke-dasharray:none;stroke-opacity:1"
           id="path20"
           inkscape:connector-curvature="0" /></g><g
         id="g22"
         transform="matrix(1,0,0,-1,0,286.66174)"><path
           d="m 58.672,252.422 0,-248.801"
           style="fill:none;stroke:#262626;stroke-width:0.53336;stroke-linecap:square;stroke-linejoin:round;stroke-miterlimit:10;stroke-dasharray:none;stroke-opacity:1"
           id="path24"
           inkscape:connector-curvature="0" /></g><g
         id="g26"
         transform="matrix(1,0,0,-1,0,286.66174)"><path
           d="m 401.871,252.422 0,-248.801"
           style="fill:none;stroke:#262626;stroke-width:0.53336;stroke-linecap:square;stroke-linejoin:round;stroke-miterlimit:10;stroke-dasharray:none;stroke-opacity:1"
           id="path28"
           inkscape:connector-curvature="0" /></g><g
         id="g30"
         transform="matrix(1,0,0,-1,0,286.66174)"><path
           d="m 58.672,241.113 3.43,0"
           style="fill:none;stroke:#262626;stroke-width:0.53336;stroke-linecap:square;stroke-linejoin:round;stroke-miterlimit:10;stroke-dasharray:none;stroke-opacity:1"
           id="path32"
           inkscape:connector-curvature="0" /></g><g
         id="g34"
         transform="matrix(1,0,0,-1,0,286.66174)"><path
           d="m 58.672,207.254 3.43,0"
           style="fill:none;stroke:#262626;stroke-width:0.53336;stroke-linecap:square;stroke-linejoin:round;stroke-miterlimit:10;stroke-dasharray:none;stroke-opacity:1"
           id="path36"
           inkscape:connector-curvature="0" /></g><g
         id="g38"
         transform="matrix(1,0,0,-1,0,286.66174)"><path
           d="m 58.672,173.398 3.43,0"
           style="fill:none;stroke:#262626;stroke-width:0.53336;stroke-linecap:square;stroke-linejoin:round;stroke-miterlimit:10;stroke-dasharray:none;stroke-opacity:1"
           id="path40"
           inkscape:connector-curvature="0" /></g><g
         id="g42"
         transform="matrix(1,0,0,-1,0,286.66174)"><path
           d="m 58.672,139.543 3.43,0"
           style="fill:none;stroke:#262626;stroke-width:0.53336;stroke-linecap:square;stroke-linejoin:round;stroke-miterlimit:10;stroke-dasharray:none;stroke-opacity:1"
           id="path44"
           inkscape:connector-curvature="0" /></g><g
         id="g46"
         transform="matrix(1,0,0,-1,0,286.66174)"><path
           d="m 58.672,105.688 3.43,0"
           style="fill:none;stroke:#262626;stroke-width:0.53336;stroke-linecap:square;stroke-linejoin:round;stroke-miterlimit:10;stroke-dasharray:none;stroke-opacity:1"
           id="path48"
           inkscape:connector-curvature="0" /></g><g
         id="g50"
         transform="matrix(1,0,0,-1,0,286.66174)"><path
           d="m 58.672,71.832 3.43,0"
           style="fill:none;stroke:#262626;stroke-width:0.53336;stroke-linecap:square;stroke-linejoin:round;stroke-miterlimit:10;stroke-dasharray:none;stroke-opacity:1"
           id="path52"
           inkscape:connector-curvature="0" /></g><g
         id="g54"
         transform="matrix(1,0,0,-1,0,286.66174)"><path
           d="m 58.672,37.977 3.43,0"
           style="fill:none;stroke:#262626;stroke-width:0.53336;stroke-linecap:square;stroke-linejoin:round;stroke-miterlimit:10;stroke-dasharray:none;stroke-opacity:1"
           id="path56"
           inkscape:connector-curvature="0" /></g><g
         id="g58"
         transform="matrix(1,0,0,-1,0,286.66174)"><path
           d="m 58.672,4.117 3.43,0"
           style="fill:none;stroke:#262626;stroke-width:0.53336;stroke-linecap:square;stroke-linejoin:round;stroke-miterlimit:10;stroke-dasharray:none;stroke-opacity:1"
           id="path60"
           inkscape:connector-curvature="0" /></g><g
         id="g62"
         transform="matrix(1,0,0,-1,0,286.66174)"><path
           d="m 401.871,241.113 -3.43,0"
           style="fill:none;stroke:#262626;stroke-width:0.53336;stroke-linecap:square;stroke-linejoin:round;stroke-miterlimit:10;stroke-dasharray:none;stroke-opacity:1"
           id="path64"
           inkscape:connector-curvature="0" /></g><g
         id="g66"
         transform="matrix(1,0,0,-1,0,286.66174)"><path
           d="m 401.871,207.254 -3.43,0"
           style="fill:none;stroke:#262626;stroke-width:0.53336;stroke-linecap:square;stroke-linejoin:round;stroke-miterlimit:10;stroke-dasharray:none;stroke-opacity:1"
           id="path68"
           inkscape:connector-curvature="0" /></g><g
         id="g70"
         transform="matrix(1,0,0,-1,0,286.66174)"><path
           d="m 401.871,173.398 -3.43,0"
           style="fill:none;stroke:#262626;stroke-width:0.53336;stroke-linecap:square;stroke-linejoin:round;stroke-miterlimit:10;stroke-dasharray:none;stroke-opacity:1"
           id="path72"
           inkscape:connector-curvature="0" /></g><g
         id="g74"
         transform="matrix(1,0,0,-1,0,286.66174)"><path
           d="m 401.871,139.543 -3.43,0"
           style="fill:none;stroke:#262626;stroke-width:0.53336;stroke-linecap:square;stroke-linejoin:round;stroke-miterlimit:10;stroke-dasharray:none;stroke-opacity:1"
           id="path76"
           inkscape:connector-curvature="0" /></g><g
         id="g78"
         transform="matrix(1,0,0,-1,0,286.66174)"><path
           d="m 401.871,105.688 -3.43,0"
           style="fill:none;stroke:#262626;stroke-width:0.53336;stroke-linecap:square;stroke-linejoin:round;stroke-miterlimit:10;stroke-dasharray:none;stroke-opacity:1"
           id="path80"
           inkscape:connector-curvature="0" /></g><g
         id="g82"
         transform="matrix(1,0,0,-1,0,286.66174)"><path
           d="m 401.871,71.832 -3.43,0"
           style="fill:none;stroke:#262626;stroke-width:0.53336;stroke-linecap:square;stroke-linejoin:round;stroke-miterlimit:10;stroke-dasharray:none;stroke-opacity:1"
           id="path84"
           inkscape:connector-curvature="0" /></g><g
         id="g86"
         transform="matrix(1,0,0,-1,0,286.66174)"><path
           d="m 401.871,37.977 -3.43,0"
           style="fill:none;stroke:#262626;stroke-width:0.53336;stroke-linecap:square;stroke-linejoin:round;stroke-miterlimit:10;stroke-dasharray:none;stroke-opacity:1"
           id="path88"
           inkscape:connector-curvature="0" /></g><g
         id="g90"
         transform="matrix(1,0,0,-1,0,286.66174)"><path
           d="m 401.871,4.117 -3.43,0"
           style="fill:none;stroke:#262626;stroke-width:0.53336;stroke-linecap:square;stroke-linejoin:round;stroke-miterlimit:10;stroke-dasharray:none;stroke-opacity:1"
           id="path92"
           inkscape:connector-curvature="0" /></g><text
         transform="matrix(1,0,0,-1,47.205235,41.950111)"
         style="font-variant:normal;font-weight:normal;font-size:10.39999962px;font-family:'DejaVu Sans';-inkscape-font-specification:DejaVuSans;writing-mode:lr-tb;fill:#262626;fill-opacity:1;fill-rule:nonzero;stroke:none"
         id="text94"><tspan
           x="0"
           y="0"
           id="tspan96">0</tspan><tspan
           x="-16.000006 -9.3856049 -6.0888047 0.52559519"
           y="-33.856075"
           sodipodi:role="line"
           id="tspan98">0.02</tspan><tspan
           x="-16.000006 -9.3856049 -6.0888047 0.52559519"
           y="-67.712234"
           sodipodi:role="line"
           id="tspan100">0.04</tspan><tspan
           x="-16.000006 -9.3856049 -6.0888047 0.52559519"
           y="-101.56831"
           sodipodi:role="line"
           id="tspan102">0.06</tspan><tspan
           x="-16.000006 -9.3856049 -6.0888047 0.52559519"
           y="-135.42447"
           sodipodi:role="line"
           id="tspan104">0.08</tspan><tspan
           x="-9.6000004 -2.9856007 0.31119919"
           y="-169.28062"
           sodipodi:role="line"
           id="tspan106">0.1</tspan><tspan
           x="-16.000006 -9.3856049 -6.0888047 0.52559519"
           y="-203.1367"
           sodipodi:role="line"
           id="tspan108">0.12</tspan><tspan
           x="-16.000006 -9.3856049 -6.0888047 0.52559519"
           y="-236.99287"
           sodipodi:role="line"
           id="tspan110">0.14</tspan></text>
<g
         id="g132"
         transform="matrix(1,0,0,-1,0,286.66174)"><path
           d="m 123.387,252.422 0,-248.801"
           style="fill:none;stroke:#bfbfbf;stroke-width:0.53336;stroke-linecap:butt;stroke-linejoin:round;stroke-miterlimit:10;stroke-dasharray:none;stroke-opacity:1"
           id="path134"
           inkscape:connector-curvature="0" /></g><g
         id="g136"
         transform="matrix(1,0,0,-1,0,286.66174)"><path
           d="m 194.645,252.422 0,-248.801"
           style="fill:none;stroke:#bfbfbf;stroke-width:0.53336;stroke-linecap:butt;stroke-linejoin:round;stroke-miterlimit:10;stroke-dasharray:none;stroke-opacity:1"
           id="path138"
           inkscape:connector-curvature="0" /></g><g
         id="g140"
         transform="matrix(1,0,0,-1,0,286.66174)"><path
           d="m 265.902,252.422 0,-248.801"
           style="fill:none;stroke:#bfbfbf;stroke-width:0.53336;stroke-linecap:butt;stroke-linejoin:round;stroke-miterlimit:10;stroke-dasharray:none;stroke-opacity:1"
           id="path142"
           inkscape:connector-curvature="0" /></g><g
         id="g144"
         transform="matrix(1,0,0,-1,0,286.66174)"><path
           d="m 337.16,252.422 0,-248.801"
           style="fill:none;stroke:#bfbfbf;stroke-width:0.53336;stroke-linecap:butt;stroke-linejoin:round;stroke-miterlimit:10;stroke-dasharray:none;stroke-opacity:1"
           id="path146"
           inkscape:connector-curvature="0" /></g><g
         id="g148"
         transform="matrix(1,0,0,-1,0,286.66174)"><path
           d="m 73.215,241.113 0,-88.625"
           style="fill:none;stroke:#bf0000;stroke-width:0.53336;stroke-linecap:butt;stroke-linejoin:round;stroke-miterlimit:10;stroke-dasharray:none;stroke-opacity:1"
           id="path150"
           inkscape:connector-curvature="0" /></g><g
         id="g152"
         transform="matrix(1,0,0,-1,0,286.66174)"><path
           d="m 102.301,241.113 0,-121.73"
           style="fill:none;stroke:#00bfbf;stroke-width:0.53336;stroke-linecap:butt;stroke-linejoin:round;stroke-miterlimit:10;stroke-dasharray:none;stroke-opacity:1"
           id="path154"
           inkscape:connector-curvature="0" /></g><g
         id="g156"
         transform="matrix(1,0,0,-1,0,286.66174)"><path
           d="m 144.473,241.113 0,-99"
           style="fill:none;stroke:#bf0000;stroke-width:0.53336;stroke-linecap:butt;stroke-linejoin:round;stroke-miterlimit:10;stroke-dasharray:none;stroke-opacity:1"
           id="path158"
           inkscape:connector-curvature="0" /></g><g
         id="g160"
         transform="matrix(1,0,0,-1,0,286.66174)"><path
           d="m 173.555,241.113 0,-206.578"
           style="fill:none;stroke:#00bfbf;stroke-width:0.53336;stroke-linecap:butt;stroke-linejoin:round;stroke-miterlimit:10;stroke-dasharray:none;stroke-opacity:1"
           id="path162"
           inkscape:connector-curvature="0" /></g><g
         id="g164"
         transform="matrix(1,0,0,-1,0,286.66174)"><path
           d="m 215.73,227.059 0,-49.129"
           style="fill:none;stroke:#bf0000;stroke-width:0.53336;stroke-linecap:butt;stroke-linejoin:round;stroke-miterlimit:10;stroke-dasharray:none;stroke-opacity:1"
           id="path166"
           inkscape:connector-curvature="0" /></g><g
         id="g168"
         transform="matrix(1,0,0,-1,0,286.66174)"><path
           d="m 244.812,241.113 0,-138.375"
           style="fill:none;stroke:#00bfbf;stroke-width:0.53336;stroke-linecap:butt;stroke-linejoin:round;stroke-miterlimit:10;stroke-dasharray:none;stroke-opacity:1"
           id="path170"
           inkscape:connector-curvature="0" /></g><g
         id="g172"
         transform="matrix(1,0,0,-1,0,286.66174)"><path
           d="m 286.988,226.582 0,-38.48"
           style="fill:none;stroke:#bf0000;stroke-width:0.53336;stroke-linecap:butt;stroke-linejoin:round;stroke-miterlimit:10;stroke-dasharray:none;stroke-opacity:1"
           id="path174"
           inkscape:connector-curvature="0" /></g><g
         id="g176"
         transform="matrix(1,0,0,-1,0,286.66174)"><path
           d="m 316.07,241.113 0,-93.949"
           style="fill:none;stroke:#00bfbf;stroke-width:0.53336;stroke-linecap:butt;stroke-linejoin:round;stroke-miterlimit:10;stroke-dasharray:none;stroke-opacity:1"
           id="path178"
           inkscape:connector-curvature="0" /></g><g
         id="g180"
         transform="matrix(1,0,0,-1,0,286.66174)"><path
           d="m 358.246,241.113 0,-65.234"
           style="fill:none;stroke:#bf0000;stroke-width:0.53336;stroke-linecap:butt;stroke-linejoin:round;stroke-miterlimit:10;stroke-dasharray:none;stroke-opacity:1"
           id="path182"
           inkscape:connector-curvature="0" /></g><g
         id="g184"
         transform="matrix(1,0,0,-1,0,286.66174)"><path
           d="m 387.328,230.395 0,-54.536"
           style="fill:none;stroke:#00bfbf;stroke-width:0.53336;stroke-linecap:butt;stroke-linejoin:round;stroke-miterlimit:10;stroke-dasharray:none;stroke-opacity:1"
           id="path186"
           inkscape:connector-curvature="0" /></g><g
         id="g188"
         transform="matrix(1,0,0,-1,0,286.66174)"><path
           d="m 73.215,241.113 0,-72.242"
           style="fill:none;stroke:#bf0000;stroke-width:4.26664019;stroke-linecap:butt;stroke-linejoin:round;stroke-miterlimit:10;stroke-dasharray:none;stroke-opacity:1"
           id="path190"
           inkscape:connector-curvature="0" /></g><g
         id="g192"
         transform="matrix(1,0,0,-1,0,286.66174)"><path
           d="m 102.301,241.113 0,-80.031"
           style="fill:none;stroke:#00bfbf;stroke-width:4.26664019;stroke-linecap:butt;stroke-linejoin:round;stroke-miterlimit:10;stroke-dasharray:none;stroke-opacity:1"
           id="path194"
           inkscape:connector-curvature="0" /></g><g
         id="g196"
         transform="matrix(1,0,0,-1,0,286.66174)"><path
           d="m 144.473,221.059 0,-40.051"
           style="fill:none;stroke:#bf0000;stroke-width:4.26664019;stroke-linecap:butt;stroke-linejoin:round;stroke-miterlimit:10;stroke-dasharray:none;stroke-opacity:1"
           id="path198"
           inkscape:connector-curvature="0" /></g><g
         id="g200"
         transform="matrix(1,0,0,-1,0,286.66174)"><path
           d="m 173.555,227.867 0,-91.664"
           style="fill:none;stroke:#00bfbf;stroke-width:4.26664019;stroke-linecap:butt;stroke-linejoin:round;stroke-miterlimit:10;stroke-dasharray:none;stroke-opacity:1"
           id="path202"
           inkscape:connector-curvature="0" /></g><g
         id="g204"
         transform="matrix(1,0,0,-1,0,286.66174)"><path
           d="m 215.73,217.805 0,-20.399"
           style="fill:none;stroke:#bf0000;stroke-width:4.26664019;stroke-linecap:butt;stroke-linejoin:round;stroke-miterlimit:10;stroke-dasharray:none;stroke-opacity:1"
           id="path206"
           inkscape:connector-curvature="0" /></g><g
         id="g208"
         transform="matrix(1,0,0,-1,0,286.66174)"><path
           d="m 244.812,213.727 0,-61.973"
           style="fill:none;stroke:#00bfbf;stroke-width:4.26664019;stroke-linecap:butt;stroke-linejoin:round;stroke-miterlimit:10;stroke-dasharray:none;stroke-opacity:1"
           id="path210"
           inkscape:connector-curvature="0" /></g><g
         id="g212"
         transform="matrix(1,0,0,-1,0,286.66174)"><path
           d="m 286.988,217.074 0,-11.719"
           style="fill:none;stroke:#bf0000;stroke-width:4.26664019;stroke-linecap:butt;stroke-linejoin:round;stroke-miterlimit:10;stroke-dasharray:none;stroke-opacity:1"
           id="path214"
           inkscape:connector-curvature="0" /></g><g
         id="g216"
         transform="matrix(1,0,0,-1,0,286.66174)"><path
           d="m 316.07,216.473 0,-29.586"
           style="fill:none;stroke:#00bfbf;stroke-width:4.26664019;stroke-linecap:butt;stroke-linejoin:round;stroke-miterlimit:10;stroke-dasharray:none;stroke-opacity:1"
           id="path218"
           inkscape:connector-curvature="0" /></g><g
         id="g220"
         transform="matrix(1,0,0,-1,0,286.66174)"><path
           d="m 358.246,223.535 0,-19.492"
           style="fill:none;stroke:#bf0000;stroke-width:4.26664019;stroke-linecap:butt;stroke-linejoin:round;stroke-miterlimit:10;stroke-dasharray:none;stroke-opacity:1"
           id="path222"
           inkscape:connector-curvature="0" /></g><g
         id="g224"
         transform="matrix(1,0,0,-1,0,286.66174)"><path
           d="m 387.328,223.453 0,-19.555"
           style="fill:none;stroke:#00bfbf;stroke-width:4.26664019;stroke-linecap:butt;stroke-linejoin:round;stroke-miterlimit:10;stroke-dasharray:none;stroke-opacity:1"
           id="path226"
           inkscape:connector-curvature="0" /></g><g
         id="g228"
         transform="matrix(1,0,0,-1,0,286.66174)"><path
           d="m 65.941,208.734 14.543,0"
           style="fill:none;stroke:#ff0000;stroke-width:0.53336;stroke-linecap:butt;stroke-linejoin:round;stroke-miterlimit:10;stroke-dasharray:none;stroke-opacity:1"
           id="path230"
           inkscape:connector-curvature="0" /></g><g
         id="g232"
         transform="matrix(1,0,0,-1,0,286.66174)"><path
           d="m 95.027,208.934 14.543,0"
           style="fill:none;stroke:#ff0000;stroke-width:0.53336;stroke-linecap:butt;stroke-linejoin:round;stroke-miterlimit:10;stroke-dasharray:none;stroke-opacity:1"
           id="path234"
           inkscape:connector-curvature="0" /></g><g
         id="g236"
         transform="matrix(1,0,0,-1,0,286.66174)"><path
           d="m 137.199,209.871 14.543,0"
           style="fill:none;stroke:#ff0000;stroke-width:0.53336;stroke-linecap:butt;stroke-linejoin:round;stroke-miterlimit:10;stroke-dasharray:none;stroke-opacity:1"
           id="path238"
           inkscape:connector-curvature="0" /></g><g
         id="g240"
         transform="matrix(1,0,0,-1,0,286.66174)"><path
           d="m 166.285,202.605 14.543,0"
           style="fill:none;stroke:#ff0000;stroke-width:0.53336;stroke-linecap:butt;stroke-linejoin:round;stroke-miterlimit:10;stroke-dasharray:none;stroke-opacity:1"
           id="path242"
           inkscape:connector-curvature="0" /></g><g
         id="g244"
         transform="matrix(1,0,0,-1,0,286.66174)"><path
           d="m 208.457,206.738 14.543,0"
           style="fill:none;stroke:#ff0000;stroke-width:0.53336;stroke-linecap:butt;stroke-linejoin:round;stroke-miterlimit:10;stroke-dasharray:none;stroke-opacity:1"
           id="path246"
           inkscape:connector-curvature="0" /></g><g
         id="g248"
         transform="matrix(1,0,0,-1,0,286.66174)"><path
           d="m 237.543,186.578 14.543,0"
           style="fill:none;stroke:#ff0000;stroke-width:0.53336;stroke-linecap:butt;stroke-linejoin:round;stroke-miterlimit:10;stroke-dasharray:none;stroke-opacity:1"
           id="path250"
           inkscape:connector-curvature="0" /></g><g
         id="g252"
         transform="matrix(1,0,0,-1,0,286.66174)"><path
           d="m 279.715,212.715 14.543,0"
           style="fill:none;stroke:#ff0000;stroke-width:0.53336;stroke-linecap:butt;stroke-linejoin:round;stroke-miterlimit:10;stroke-dasharray:none;stroke-opacity:1"
           id="path254"
           inkscape:connector-curvature="0" /></g><g
         id="g256"
         transform="matrix(1,0,0,-1,0,286.66174)"><path
           d="m 308.801,203.242 14.543,0"
           style="fill:none;stroke:#ff0000;stroke-width:0.53336;stroke-linecap:butt;stroke-linejoin:round;stroke-miterlimit:10;stroke-dasharray:none;stroke-opacity:1"
           id="path258"
           inkscape:connector-curvature="0" /></g><g
         id="g260"
         transform="matrix(1,0,0,-1,0,286.66174)"><path
           d="m 350.973,213.602 14.543,0"
           style="fill:none;stroke:#ff0000;stroke-width:0.53336;stroke-linecap:butt;stroke-linejoin:round;stroke-miterlimit:10;stroke-dasharray:none;stroke-opacity:1"
           id="path262"
           inkscape:connector-curvature="0" /></g><g
         id="g264"
         transform="matrix(1,0,0,-1,0,286.66174)"><path
           d="m 380.059,211.793 14.543,0"
           style="fill:none;stroke:#ff0000;stroke-width:0.53336;stroke-linecap:butt;stroke-linejoin:round;stroke-miterlimit:10;stroke-dasharray:none;stroke-opacity:1"
           id="path266"
           inkscape:connector-curvature="0" /></g><g
         id="g268"
         transform="matrix(1,0,0,-1,0,286.66174)"><path
           d="m 215.73,144.512 0,6.398 m -3.199,-3.199 6.399,0"
           style="fill:none;stroke:#ff0000;stroke-width:0.80000001;stroke-linecap:butt;stroke-linejoin:miter;stroke-miterlimit:10;stroke-dasharray:none;stroke-opacity:1"
           id="path270"
           inkscape:connector-curvature="0" /></g><g
         id="g272"
         transform="matrix(1,0,0,-1,0,286.66174)"><path
           d="m 215.73,109.938 0,6.402 m -3.199,-3.199 6.399,0"
           style="fill:none;stroke:#ff0000;stroke-width:0.80000001;stroke-linecap:butt;stroke-linejoin:miter;stroke-miterlimit:10;stroke-dasharray:none;stroke-opacity:1"
           id="path274"
           inkscape:connector-curvature="0" /></g><g
         id="g276"
         transform="matrix(1,0,0,-1,0,286.66174)"><path
           d="m 244.812,39.117 0,6.403 m -3.199,-3.2 6.403,0"
           style="fill:none;stroke:#ff0000;stroke-width:0.80000001;stroke-linecap:butt;stroke-linejoin:miter;stroke-miterlimit:10;stroke-dasharray:none;stroke-opacity:1"
           id="path278"
           inkscape:connector-curvature="0" /></g><g
         id="g280"
         transform="matrix(1,0,0,-1,0,286.66174)"><path
           d="m 244.812,39.047 0,6.402 m -3.199,-3.203 6.403,0"
           style="fill:none;stroke:#ff0000;stroke-width:0.80000001;stroke-linecap:butt;stroke-linejoin:miter;stroke-miterlimit:10;stroke-dasharray:none;stroke-opacity:1"
           id="path282"
           inkscape:connector-curvature="0" /></g><g
         id="g284"
         transform="matrix(1,0,0,-1,0,286.66174)"><path
           d="m 244.812,11.73 0,6.399 m -3.199,-3.199 6.403,0"
           style="fill:none;stroke:#ff0000;stroke-width:0.80000001;stroke-linecap:butt;stroke-linejoin:miter;stroke-miterlimit:10;stroke-dasharray:none;stroke-opacity:1"
           id="path286"
           inkscape:connector-curvature="0" /></g><g
         id="g288"
         transform="matrix(1,0,0,-1,0,286.66174)"><path
           d="m 286.988,237.91 0,6.402 m -3.199,-3.199 6.399,0"
           style="fill:none;stroke:#ff0000;stroke-width:0.80000001;stroke-linecap:butt;stroke-linejoin:miter;stroke-miterlimit:10;stroke-dasharray:none;stroke-opacity:1"
           id="path290"
           inkscape:connector-curvature="0" /></g><g
         id="g292"
         transform="matrix(1,0,0,-1,0,286.66174)"><path
           d="m 286.988,172.941 0,6.403 m -3.199,-3.203 6.399,0"
           style="fill:none;stroke:#ff0000;stroke-width:0.80000001;stroke-linecap:butt;stroke-linejoin:miter;stroke-miterlimit:10;stroke-dasharray:none;stroke-opacity:1"
           id="path294"
           inkscape:connector-curvature="0" /></g><g
         id="g296"
         transform="matrix(1,0,0,-1,0,286.66174)"><path
           d="m 286.988,150.832 0,6.398 m -3.199,-3.199 6.399,0"
           style="fill:none;stroke:#ff0000;stroke-width:0.80000001;stroke-linecap:butt;stroke-linejoin:miter;stroke-miterlimit:10;stroke-dasharray:none;stroke-opacity:1"
           id="path298"
           inkscape:connector-curvature="0" /></g><g
         id="g300"
         transform="matrix(1,0,0,-1,0,286.66174)"><path
           d="m 286.988,139.66 0,6.402 m -3.199,-3.203 6.399,0"
           style="fill:none;stroke:#ff0000;stroke-width:0.80000001;stroke-linecap:butt;stroke-linejoin:miter;stroke-miterlimit:10;stroke-dasharray:none;stroke-opacity:1"
           id="path302"
           inkscape:connector-curvature="0" /></g><g
         id="g304"
         transform="matrix(1,0,0,-1,0,286.66174)"><path
           d="m 358.246,156.84 0,6.402 m -3.203,-3.203 6.402,0"
           style="fill:none;stroke:#ff0000;stroke-width:0.80000001;stroke-linecap:butt;stroke-linejoin:miter;stroke-miterlimit:10;stroke-dasharray:none;stroke-opacity:1"
           id="path306"
           inkscape:connector-curvature="0" /></g><g
         id="g308"
         transform="matrix(1,0,0,-1,0,286.66174)"><path
           d="m 387.328,157.082 0,6.398 m -3.199,-3.199 6.402,0"
           style="fill:none;stroke:#ff0000;stroke-width:0.80000001;stroke-linecap:butt;stroke-linejoin:miter;stroke-miterlimit:10;stroke-dasharray:none;stroke-opacity:1"
           id="path310"
           inkscape:connector-curvature="0" /></g><g
         id="g312"
         transform="matrix(1,0,0,-1,0,286.66174)"><path
           d="m 387.328,156.84 0,6.402 m -3.199,-3.203 6.402,0"
           style="fill:none;stroke:#ff0000;stroke-width:0.80000001;stroke-linecap:butt;stroke-linejoin:miter;stroke-miterlimit:10;stroke-dasharray:none;stroke-opacity:1"
           id="path314"
           inkscape:connector-curvature="0" /></g><g
         id="g320"
         transform="matrix(1,0,0,-1,0,286.66174)"><path
           d="m 71.938,208.891 71.628,1.511 73.145,-3.531 70.113,6.055 72.137,0.504"
           style="fill:none;stroke:#bf0000;stroke-width:1.60000002;stroke-linecap:butt;stroke-linejoin:miter;stroke-miterlimit:10;stroke-dasharray:none;stroke-opacity:1"
           id="path322"
           inkscape:connector-curvature="0" /></g><g
         id="g324"
         transform="matrix(1,0,0,-1,0,286.66174)"><path
           d="m 101.195,208.891 72.133,-6.055 72.133,-16.141 71.629,16.141 71.125,8.574"
           style="fill:none;stroke:#00bfbf;stroke-width:1.60000002;stroke-linecap:butt;stroke-linejoin:miter;stroke-miterlimit:10;stroke-dasharray:none;stroke-opacity:1"
           id="path326"
           inkscape:connector-curvature="0" /></g><g
         id="g328"
         transform="matrix(1,0,0,-1,0,286.66174)"><path
           d="m 287.211,11.895 108.184,0 0,46.941 -108.184,0 0,-46.941 z"
           style="fill:#feffff;fill-opacity:1;fill-rule:nonzero;stroke:#000000;stroke-width:0.679564;stroke-linecap:square;stroke-linejoin:miter;stroke-miterlimit:10;stroke-dasharray:none;stroke-opacity:1"
           id="path330"
           inkscape:connector-curvature="0" /></g><g
         id="g332"
         transform="matrix(1,0,0,-1,0,286.66174)"><path
           d="m 295.504,26.984 31.488,0"
           style="fill:none;stroke:#ff0000;stroke-width:2.4000001;stroke-linecap:butt;stroke-linejoin:miter;stroke-miterlimit:10;stroke-dasharray:none;stroke-opacity:1"
           id="path334"
           inkscape:connector-curvature="0" /></g><g
         id="g336"
         transform="matrix(1,0,0,-1,0,286.66174)"><path
           d="m 295.504,49.887 31.488,0"
           style="fill:none;stroke:#008886;stroke-width:2.4000001;stroke-linecap:butt;stroke-linejoin:miter;stroke-miterlimit:10;stroke-dasharray:none;stroke-opacity:1"
           id="path338"
           inkscape:connector-curvature="0" /></g><text
         transform="matrix(1,0,0,-1,335.58535,254.7675)"
         style="font-variant:normal;font-weight:normal;font-size:18px;font-family:'DejaVu Sans';-inkscape-font-specification:DejaVuSans;writing-mode:lr-tb;fill:#000707;fill-opacity:1;fill-rule:nonzero;stroke:none"
         id="text340"><tspan
           x="0 15.516"
           y="0"
           sodipodi:role="line"
           id="tspan342">ML</tspan><tspan
           x="0.13183597 17.663836 28.661837 40.073837 51.143837"
           y="20.345707"
           sodipodi:role="line"
           id="tspan344">model</tspan></text>
<text
         transform="matrix(1,0,0,-1,84.264185,20.176904)"
         style="font-variant:normal;font-weight:normal;font-size:11.33226967px;font-family:'DejaVu Sans';-inkscape-font-specification:DejaVuSans;writing-mode:lr-tb;fill:#000000;fill-opacity:1;fill-rule:nonzero;stroke:none"
         id="text346"><tspan
           x="0 7.2073236 67.279686 74.487007 134.29874 141.50606 201.46143 208.66875 264.75217 271.95947 279.16681"
           y="0"
           sodipodi:role="line"
           id="tspan348">20406080100</tspan></text>
<text
         xml:space="preserve"
         style="font-style:normal;font-weight:normal;font-size:6px;line-height:125%;font-family:sans-serif;letter-spacing:0px;word-spacing:0px;fill:#000000;fill-opacity:1;stroke:none;stroke-width:1px;stroke-linecap:butt;stroke-linejoin:miter;stroke-opacity:1"
         x="153.00267"
         y="26.421133"
         id="text3676"
         sodipodi:linespacing="125%"
         transform="matrix(-0.00694835,0.99997586,0.99997586,0.00694835,0,0)"><tspan
           sodipodi:role="line"
           id="tspan3678"
           x="153.00267"
           y="26.421133"
           style="font-size:14px">[m]</tspan></text>
<text
         xml:space="preserve"
         style="font-style:normal;font-weight:normal;font-size:6px;line-height:125%;font-family:sans-serif;letter-spacing:0px;word-spacing:0px;fill:#000000;fill-opacity:1;stroke:none;stroke-width:1px;stroke-linecap:butt;stroke-linejoin:miter;stroke-opacity:1"
         x="161.90269"
         y="-6.0122924"
         id="text3680"
         sodipodi:linespacing="125%"
         transform="scale(1,-1)"><tspan
           sodipodi:role="line"
           id="tspan3682"
           x="161.90269"
           y="-6.0122924"
           style="font-size:14px">% of known data</tspan></text>
</g></g></svg>