<?xml version="1.0" encoding="UTF-8" standalone="no"?>
<svg
   xmlns:dc="http://purl.org/dc/elements/1.1/"
   xmlns:cc="http://creativecommons.org/ns#"
   xmlns:rdf="http://www.w3.org/1999/02/22-rdf-syntax-ns#"
   xmlns:svg="http://www.w3.org/2000/svg"
   xmlns="http://www.w3.org/2000/svg"
   xmlns:sodipodi="http://sodipodi.sourceforge.net/DTD/sodipodi-0.dtd"
   xmlns:inkscape="http://www.inkscape.org/namespaces/inkscape"
   preserveAspectRatio="xMinYMin meet"
   width="100%"
   height="100%"
   viewBox="0 0 468.14898 335.37739"
   version="1.1"
   id="svg3004"
   inkscape:version="0.48.4 r9939"
   sodipodi:docname="mean_alpha_errV2.pdf">
  <metadata
     id="metadata3351">
    <rdf:RDF>
      <cc:Work
         rdf:about="">
        <dc:format>image/svg+xml</dc:format>
        <dc:type
           rdf:resource="http://purl.org/dc/dcmitype/StillImage" />
        <dc:title></dc:title>
      </cc:Work>
    </rdf:RDF>
  </metadata>
  <defs
     id="defs3349">
    <clipPath
       id="ID000001">
      <rect
         id="rect3013"
         height="299"
         width="406.79999"
         y="57"
         x="100" />
    </clipPath>
  </defs>
  <sodipodi:namedview
     pagecolor="#ffffff"
     bordercolor="#666666"
     borderopacity="1"
     objecttolerance="10"
     gridtolerance="10"
     guidetolerance="10"
     inkscape:pageopacity="0"
     inkscape:pageshadow="2"
     inkscape:window-width="1873"
     inkscape:window-height="1056"
     id="namedview3347"
     showgrid="false"
     fit-margin-top="0"
     fit-margin-left="0"
     fit-margin-right="0"
     fit-margin-bottom="0"
     inkscape:zoom="1.1238095"
     inkscape:cx="119.69162"
     inkscape:cy="70.969882"
     inkscape:window-x="47"
     inkscape:window-y="24"
     inkscape:window-maximized="1"
     inkscape:current-layer="g3419" />
  <desc
     id="desc3006">Matlab Figure Converted by PLOT2SVG written by Juerg Schwizer</desc>
  <g
     id="topgroup"
     transform="translate(-45.039404,-53.689387)">
    <polygon
       style="fill:#ffffff;fill-opacity:1;stroke:none"
       id="polygon3015"
       points="100,356 506.8,356 506.8,57 100,57 " />
    <polygon
       style="fill:#ffffff;fill-opacity:1;stroke:none"
       id="polygon3017"
       points="100,57 506.8,57 506.8,57 100,57 " />
    <polygon
       style="fill:#ffffff;fill-opacity:1;stroke:none"
       id="polygon3019"
       points="100,356 100,356 100,57 100,57 " />
    <g
       id="ID000002"
       clip-path="url(#ID000001)">
      <polygon
         points="140.68,259.364 143.392,259.208 146.104,259.177 148.816,259.281 151.528,259.528 154.24,259.924 156.952,260.475 159.664,261.184 162.376,262.056 165.088,263.09 167.8,264.287 170.512,265.644 173.224,267.16 175.936,268.831 178.648,270.65 181.36,272.613 184.072,274.712 186.784,276.938 189.496,279.284 192.208,281.737 194.92,284.287 197.632,286.922 200.344,289.626 203.056,292.384 205.768,295.178 208.48,297.99 211.192,300.796 213.904,303.575 216.616,306.299 219.328,308.943 222.04,311.477 224.752,313.87 227.464,316.092 230.176,318.11 232.888,319.894 235.6,321.413 238.312,322.637 241.024,323.541 243.736,324.101 246.448,324.298 249.16,324.116 251.872,323.544 254.584,322.578 257.296,321.218 260.008,319.47 262.72,317.347 265.432,314.865 268.144,312.047 270.856,308.921 273.568,305.517 276.28,301.871 278.992,298.02 281.704,294.002 284.416,289.857 287.128,285.625 289.84,281.344 292.552,277.051 295.264,272.78 297.976,268.563 300.688,264.428 303.4,260.401 306.112,256.501 308.824,252.746 311.536,249.15 314.248,245.724 316.96,242.473 319.672,239.402 322.384,236.513 325.096,233.804 327.808,231.273 330.52,228.915 333.232,226.726 335.944,224.697 338.656,222.823 341.368,221.095 344.08,219.504 346.792,218.043 349.504,216.704 352.216,215.477 354.928,214.356 357.64,213.332 360.352,212.398 360.352,66.816 357.64,67.835 354.928,68.951 352.216,70.174 349.504,71.51 346.792,72.969 344.08,74.56 341.368,76.291 338.656,78.171 335.944,80.208 333.232,82.412 330.52,84.788 327.808,87.345 325.096,90.087 322.384,93.019 319.672,96.142 316.96,99.457 314.248,102.96 311.536,106.647 308.824,110.508 306.112,114.531 303.4,118.698 300.688,122.99 297.976,127.38 295.264,131.841 292.552,136.339 289.84,140.838 287.128,145.298 284.416,149.676 281.704,153.929 278.992,158.013 276.28,161.882 273.568,165.495 270.856,168.81 268.144,171.791 265.432,174.405 262.72,176.625 260.008,178.43 257.296,179.807 254.584,180.747 251.872,181.254 249.16,181.333 246.448,181.002 243.736,180.283 241.024,179.205 238.312,177.803 235.6,176.115 232.888,174.187 230.176,172.062 227.464,169.79 224.752,167.417 222.04,164.991 219.328,162.558 216.616,160.16 213.904,157.837 211.192,155.624 208.48,153.551 205.768,151.645 203.056,149.926 200.344,148.409 197.632,147.104 194.92,146.016 192.208,145.146 189.496,144.49 186.784,144.041 184.072,143.787 181.36,143.715 178.648,143.81 175.936,144.055 173.224,144.431 170.512,144.919 167.8,145.501 165.088,146.16 162.376,146.876 159.664,147.635 156.952,148.421 154.24,149.221 151.528,150.022 148.816,150.816 146.104,151.592 143.392,152.344 140.68,153.066 137.968,153.755 135.256,154.407 132.544,155.02 129.832,155.593 127.12,156.126 124.408,156.62 121.696,157.075 118.984,157.493 116.272,157.876 113.56,158.226 110.848,158.544 108.136,158.833 105.424,159.095 102.712,159.333 102.712,268.516 105.424,267.751 108.136,266.969 110.848,266.176 113.56,265.379 116.272,264.587 118.984,263.807 121.696,263.051 124.408,262.329 127.12,261.653 129.832,261.033 132.544,260.482 135.256,260.013 137.968,259.636 "
         id="polygon3024"
         style="fill:#0000ff;fill-opacity:0.15;stroke:none" />
    </g>
    <g
       id="ID000003"
       clip-path="url(#ID000001)">
      <polyline
         points="102.712,268.516 105.424,267.751 108.136,266.969 110.848,266.176 113.560,265.379 116.272,264.587 118.984,263.807 121.696,263.051 124.408,262.329 127.120,261.653 129.832,261.033 132.544,260.482 135.256,260.013 137.968,259.636 140.680,259.364 143.392,259.208 146.104,259.177 148.816,259.281 151.528,259.528 154.240,259.924 156.952,260.475 159.664,261.184 162.376,262.056 165.088,263.090 167.800,264.287 170.512,265.644 173.224,267.160 175.936,268.831 178.648,270.650 181.360,272.613 184.072,274.712 186.784,276.938 189.496,279.284 192.208,281.737 194.920,284.287 197.632,286.922 200.344,289.626 203.056,292.384 205.768,295.178 208.480,297.990 211.192,300.796 213.904,303.575 216.616,306.299 219.328,308.943 222.040,311.477 224.752,313.870 227.464,316.092 230.176,318.110 232.888,319.894 235.600,321.413 238.312,322.637 241.024,323.541 243.736,324.101 246.448,324.298 249.160,324.116 251.872,323.544 254.584,322.578 257.296,321.218 260.008,319.470 262.720,317.347 265.432,314.865 268.144,312.047 270.856,308.921 273.568,305.517 276.280,301.871 278.992,298.020 281.704,294.002 284.416,289.857 287.128,285.625 289.840,281.344 292.552,277.051 295.264,272.780 297.976,268.563 300.688,264.428 303.400,260.401 306.112,256.501 308.824,252.746 311.536,249.150 314.248,245.724 316.960,242.473 319.672,239.402 322.384,236.513 325.096,233.804 327.808,231.273 330.520,228.915 333.232,226.726 335.944,224.697 338.656,222.823 341.368,221.095 344.080,219.504 346.792,218.043 349.504,216.704 352.216,215.477 354.928,214.356 357.640,213.332 360.352,212.398 "
         id="polyline3027"
         style="fill:none;stroke:#8c8cff;stroke-width:1pt;stroke-dasharray:none" />
      <g
         id="g3029" />
    </g>
    <g
       id="ID000004"
       clip-path="url(#ID000001)">
      <polyline
         points="102.712,159.333 105.424,159.095 108.136,158.833 110.848,158.544 113.560,158.226 116.272,157.876 118.984,157.493 121.696,157.075 124.408,156.620 127.120,156.126 129.832,155.593 132.544,155.020 135.256,154.407 137.968,153.755 140.680,153.066 143.392,152.344 146.104,151.592 148.816,150.816 151.528,150.022 154.240,149.221 156.952,148.421 159.664,147.635 162.376,146.876 165.088,146.160 167.800,145.501 170.512,144.919 173.224,144.431 175.936,144.055 178.648,143.810 181.360,143.715 184.072,143.787 186.784,144.041 189.496,144.490 192.208,145.146 194.920,146.016 197.632,147.104 200.344,148.409 203.056,149.926 205.768,151.645 208.480,153.551 211.192,155.624 213.904,157.837 216.616,160.160 219.328,162.558 222.040,164.991 224.752,167.417 227.464,169.790 230.176,172.062 232.888,174.187 235.600,176.115 238.312,177.803 241.024,179.205 243.736,180.283 246.448,181.002 249.160,181.333 251.872,181.254 254.584,180.747 257.296,179.807 260.008,178.430 262.720,176.625 265.432,174.405 268.144,171.791 270.856,168.810 273.568,165.495 276.280,161.882 278.992,158.013 281.704,153.929 284.416,149.676 287.128,145.298 289.840,140.838 292.552,136.339 295.264,131.841 297.976,127.380 300.688,122.990 303.400,118.698 306.112,114.531 308.824,110.508 311.536,106.647 314.248,102.960 316.960,99.457 319.672,96.142 322.384,93.019 325.096,90.087 327.808,87.345 330.520,84.788 333.232,82.412 335.944,80.208 338.656,78.171 341.368,76.291 344.080,74.560 346.792,72.969 349.504,71.510 352.216,70.174 354.928,68.951 357.640,67.835 360.352,66.816 "
         id="polyline3032"
         style="fill:none;stroke:#8c8cff;stroke-width:1pt;stroke-dasharray:none" />
      <g
         id="g3034" />
    </g>
    <g
       id="ID000005"
       clip-path="url(#ID000001)">
      <polyline
         points="102.712,213.924 105.424,213.423 108.136,212.901 110.848,212.360 113.560,211.802 116.272,211.231 118.984,210.650 121.696,210.063 124.408,209.475 127.120,208.889 129.832,208.313 132.544,207.751 135.256,207.210 137.968,206.696 140.680,206.215 143.392,205.776 146.104,205.384 148.816,205.048 151.528,204.775 154.240,204.572 156.952,204.448 159.664,204.410 162.376,204.466 165.088,204.625 167.800,204.894 170.512,205.282 173.224,205.795 175.936,206.443 178.648,207.230 181.360,208.164 184.072,209.249 186.784,210.490 189.496,211.887 192.208,213.442 194.920,215.152 197.632,217.013 200.344,219.017 203.056,221.155 205.768,223.412 208.480,225.770 211.192,228.210 213.904,230.706 216.616,233.230 219.328,235.750 222.040,238.234 224.752,240.643 227.464,242.941 230.176,245.086 232.888,247.040 235.600,248.764 238.312,250.220 241.024,251.373 243.736,252.192 246.448,252.650 249.160,252.724 251.872,252.399 254.584,251.663 257.296,250.512 260.008,248.950 262.720,246.986 265.432,244.635 268.144,241.919 270.856,238.865 273.568,235.506 276.280,231.877 278.992,228.016 281.704,223.966 284.416,219.767 287.128,215.461 289.840,211.091 292.552,206.695 295.264,202.311 297.976,197.972 300.688,193.709 303.400,189.549 306.112,185.516 308.824,181.627 311.536,177.899 314.248,174.342 316.960,170.965 319.672,167.772 322.384,164.766 325.096,161.945 327.808,159.309 330.520,156.852 333.232,154.569 335.944,152.453 338.656,150.497 341.368,148.693 344.080,147.032 346.792,145.506 349.504,144.107 352.216,142.825 354.928,141.653 357.640,140.583 360.352,139.607 "
         id="polyline3037"
         style="fill:none;stroke:#0000ff;stroke-width:1pt;stroke-dasharray:none" />
      <g
         id="g3039" />
    </g>
    <g
       id="ID000006"
       clip-path="url(#ID000001)">
      <polyline
         points="102.712,213.924 105.424,213.423 108.136,212.901 110.848,212.360 113.560,211.802 116.272,211.231 118.984,210.650 121.696,210.063 124.408,209.475 127.120,208.889 129.832,208.313 132.544,207.751 135.256,207.210 137.968,206.696 140.680,206.215 143.392,205.776 146.104,205.384 148.816,205.048 151.528,204.775 154.240,204.572 156.952,204.448 159.664,204.410 162.376,204.466 165.088,204.625 167.800,204.894 170.512,205.282 173.224,205.795 175.936,206.443 178.648,207.230 181.360,208.164 184.072,209.249 186.784,210.490 189.496,211.887 192.208,213.442 194.920,215.152 197.632,217.013 200.344,219.017 203.056,221.155 205.768,223.412 208.480,225.770 211.192,228.210 213.904,230.706 216.616,233.230 219.328,235.750 222.040,238.234 224.752,240.643 227.464,242.941 230.176,245.086 232.888,247.040 235.600,248.764 238.312,250.220 241.024,251.373 243.736,252.192 246.448,252.650 249.160,252.724 251.872,252.399 254.584,251.663 257.296,250.512 260.008,248.950 262.720,246.986 265.432,244.635 268.144,241.919 270.856,238.865 273.568,235.506 276.280,231.877 278.992,228.016 281.704,223.966 284.416,219.767 287.128,215.461 289.840,211.091 292.552,206.695 295.264,202.311 297.976,197.972 300.688,193.709 303.400,189.549 306.112,185.516 308.824,181.627 311.536,177.899 314.248,174.342 316.960,170.965 319.672,167.772 322.384,164.766 325.096,161.945 327.808,159.309 330.520,156.852 333.232,154.569 335.944,152.453 338.656,150.497 341.368,148.693 344.080,147.032 346.792,145.506 349.504,144.107 352.216,142.825 354.928,141.653 357.640,140.583 360.352,139.607 "
         id="polyline3042"
         style="fill:none;stroke:#0000ff;stroke-width:1pt;stroke-dasharray:none" />
      <g
         id="g3044" />
    </g>
    <g
       id="ID000007"
       clip-path="url(#ID000001)">
      <polygon
         points="140.68,223.716 143.392,223.709 146.104,223.697 148.816,223.685 151.528,223.681 154.24,223.691 156.952,223.727 159.664,223.799 162.376,223.92 165.088,224.104 167.8,224.367 170.512,224.725 173.224,225.195 175.936,225.795 178.648,226.542 181.36,227.453 184.072,228.546 186.784,229.833 189.496,231.329 192.208,233.043 194.92,234.981 197.632,237.149 200.344,239.544 203.056,242.162 205.768,244.993 208.48,248.021 211.192,251.226 213.904,254.583 216.616,258.061 219.328,261.624 222.04,265.235 224.752,268.849 227.464,272.421 230.176,275.903 232.888,279.247 235.6,282.406 238.312,285.332 241.024,287.982 243.736,290.315 246.448,292.295 249.16,293.893 251.872,295.084 254.584,295.852 257.296,296.185 260.008,296.083 262.72,295.548 265.432,294.593 268.144,293.236 270.856,291.501 273.568,289.417 276.28,287.019 278.992,284.343 281.704,281.429 284.416,278.318 287.128,275.051 289.84,271.669 292.552,268.212 295.264,264.716 297.976,261.217 300.688,257.745 303.4,254.329 306.112,250.992 308.824,247.754 311.536,244.634 314.248,241.642 316.96,238.79 319.672,236.084 322.384,233.527 325.096,231.123 327.808,228.869 330.52,226.764 333.232,224.804 335.944,222.984 338.656,221.299 341.368,219.743 344.08,218.309 346.792,216.99 349.504,215.779 352.216,214.669 354.928,213.653 357.64,212.725 360.352,211.878 360.352,113.572 357.64,114.447 354.928,115.406 352.216,116.457 349.504,117.605 346.792,118.859 344.08,120.227 341.368,121.715 338.656,123.331 335.944,125.083 333.232,126.979 330.52,129.023 327.808,131.223 325.096,133.583 322.384,136.107 319.672,138.797 316.96,141.653 314.248,144.673 311.536,147.852 308.824,151.183 306.112,154.656 303.4,158.257 300.688,161.967 297.976,165.767 295.264,169.632 292.552,173.534 289.84,177.443 287.128,181.324 284.416,185.143 281.704,188.861 278.992,192.443 276.28,195.849 273.568,199.045 270.856,201.994 268.144,204.667 265.432,207.035 262.72,209.075 260.008,210.769 257.296,212.105 254.584,213.078 251.872,213.687 249.16,213.938 246.448,213.844 243.736,213.425 241.024,212.702 238.312,211.706 235.6,210.468 232.888,209.023 230.176,207.411 227.464,205.669 224.752,203.838 222.04,201.956 219.328,200.061 216.616,198.188 213.904,196.369 211.192,194.633 208.48,193.006 205.768,191.509 203.056,190.157 200.344,188.964 197.632,187.937 194.92,187.08 192.208,186.393 189.496,185.873 186.784,185.513 184.072,185.303 181.36,185.231 178.648,185.285 175.936,185.449 173.224,185.709 170.512,186.048 167.8,186.45 165.088,186.9 162.376,187.384 159.664,187.889 156.952,188.402 154.24,188.912 151.528,189.41 148.816,189.888 146.104,190.34 143.392,190.761 140.68,191.148 137.968,191.498 135.256,191.811 132.544,192.086 129.832,192.325 127.12,192.528 124.408,192.697 121.696,192.836 118.984,192.946 116.272,193.031 113.56,193.093 110.848,193.136 108.136,193.161 105.424,193.172 102.712,193.171 102.712,222.656 105.424,222.778 108.136,222.899 110.848,223.017 113.56,223.132 116.272,223.24 118.984,223.341 121.696,223.432 124.408,223.512 127.12,223.58 129.832,223.634 132.544,223.675 135.256,223.701 137.968,223.714 "
         id="polygon3047"
         style="fill:#ff0000;fill-opacity:0.15;stroke:none" />
    </g>
    <g
       id="ID000008"
       clip-path="url(#ID000001)">
      <polyline
         points="102.712,222.656 105.424,222.778 108.136,222.899 110.848,223.017 113.560,223.132 116.272,223.240 118.984,223.341 121.696,223.432 124.408,223.512 127.120,223.580 129.832,223.634 132.544,223.675 135.256,223.701 137.968,223.714 140.680,223.716 143.392,223.709 146.104,223.697 148.816,223.685 151.528,223.681 154.240,223.691 156.952,223.727 159.664,223.799 162.376,223.920 165.088,224.104 167.800,224.367 170.512,224.725 173.224,225.195 175.936,225.795 178.648,226.542 181.360,227.453 184.072,228.546 186.784,229.833 189.496,231.329 192.208,233.043 194.920,234.981 197.632,237.149 200.344,239.544 203.056,242.162 205.768,244.993 208.480,248.021 211.192,251.226 213.904,254.583 216.616,258.061 219.328,261.624 222.040,265.235 224.752,268.849 227.464,272.421 230.176,275.903 232.888,279.247 235.600,282.406 238.312,285.332 241.024,287.982 243.736,290.315 246.448,292.295 249.160,293.893 251.872,295.084 254.584,295.852 257.296,296.185 260.008,296.083 262.720,295.548 265.432,294.593 268.144,293.236 270.856,291.501 273.568,289.417 276.280,287.019 278.992,284.343 281.704,281.429 284.416,278.318 287.128,275.051 289.840,271.669 292.552,268.212 295.264,264.716 297.976,261.217 300.688,257.745 303.400,254.329 306.112,250.992 308.824,247.754 311.536,244.634 314.248,241.642 316.960,238.790 319.672,236.084 322.384,233.527 325.096,231.123 327.808,228.869 330.520,226.764 333.232,224.804 335.944,222.984 338.656,221.299 341.368,219.743 344.080,218.309 346.792,216.990 349.504,215.779 352.216,214.669 354.928,213.653 357.640,212.725 360.352,211.878 "
         id="polyline3050"
         style="fill:none;stroke:#ff8c8c;stroke-width:1pt;stroke-dasharray:none" />
      <g
         id="g3052" />
    </g>
    <g
       id="ID000009"
       clip-path="url(#ID000001)">
      <polyline
         points="102.712,193.171 105.424,193.172 108.136,193.161 110.848,193.136 113.560,193.093 116.272,193.031 118.984,192.946 121.696,192.836 124.408,192.697 127.120,192.528 129.832,192.325 132.544,192.086 135.256,191.811 137.968,191.498 140.680,191.148 143.392,190.761 146.104,190.340 148.816,189.888 151.528,189.410 154.240,188.912 156.952,188.402 159.664,187.889 162.376,187.384 165.088,186.900 167.800,186.450 170.512,186.048 173.224,185.709 175.936,185.449 178.648,185.285 181.360,185.231 184.072,185.303 186.784,185.513 189.496,185.873 192.208,186.393 194.920,187.080 197.632,187.937 200.344,188.964 203.056,190.157 205.768,191.509 208.480,193.006 211.192,194.633 213.904,196.369 216.616,198.188 219.328,200.061 222.040,201.956 224.752,203.838 227.464,205.669 230.176,207.411 232.888,209.023 235.600,210.468 238.312,211.706 241.024,212.702 243.736,213.425 246.448,213.844 249.160,213.938 251.872,213.687 254.584,213.078 257.296,212.105 260.008,210.769 262.720,209.075 265.432,207.035 268.144,204.667 270.856,201.994 273.568,199.045 276.280,195.849 278.992,192.443 281.704,188.861 284.416,185.143 287.128,181.324 289.840,177.443 292.552,173.534 295.264,169.632 297.976,165.767 300.688,161.967 303.400,158.257 306.112,154.656 308.824,151.183 311.536,147.852 314.248,144.673 316.960,141.653 319.672,138.797 322.384,136.107 325.096,133.583 327.808,131.223 330.520,129.023 333.232,126.979 335.944,125.083 338.656,123.331 341.368,121.715 344.080,120.227 346.792,118.859 349.504,117.605 352.216,116.457 354.928,115.406 357.640,114.447 360.352,113.572 "
         id="polyline3055"
         style="fill:none;stroke:#ff8c8c;stroke-width:1pt;stroke-dasharray:none" />
      <g
         id="g3057" />
    </g>
    <g
       id="ID000010"
       clip-path="url(#ID000001)">
      <polyline
         points="102.712,207.914 105.424,207.975 108.136,208.030 110.848,208.077 113.560,208.112 116.272,208.135 118.984,208.143 121.696,208.134 124.408,208.105 127.120,208.054 129.832,207.980 132.544,207.881 135.256,207.756 137.968,207.606 140.680,207.432 143.392,207.235 146.104,207.018 148.816,206.786 151.528,206.545 154.240,206.301 156.952,206.064 159.664,205.844 162.376,205.652 165.088,205.502 167.800,205.408 170.512,205.386 173.224,205.452 175.936,205.622 178.648,205.913 181.360,206.342 184.072,206.924 186.784,207.673 189.496,208.601 192.208,209.718 194.920,211.031 197.632,212.543 200.344,214.254 203.056,216.160 205.768,218.251 208.480,220.514 211.192,222.930 213.904,225.476 216.616,228.124 219.328,230.843 222.040,233.595 224.752,236.343 227.464,239.045 230.176,241.657 232.888,244.135 235.600,246.437 238.312,248.519 241.024,250.342 243.736,251.870 246.448,253.070 249.160,253.916 251.872,254.385 254.584,254.465 257.296,254.145 260.008,253.426 262.720,252.311 265.432,250.814 268.144,248.951 270.856,246.748 273.568,244.231 276.280,241.434 278.992,238.393 281.704,235.145 284.416,231.730 287.128,228.187 289.840,224.556 292.552,220.873 295.264,217.174 297.976,213.492 300.688,209.856 303.400,206.293 306.112,202.824 308.824,199.469 311.536,196.243 314.248,193.158 316.960,190.222 319.672,187.441 322.384,184.817 325.096,182.353 327.808,180.046 330.520,177.893 333.232,175.891 335.944,174.034 338.656,172.315 341.368,170.729 344.080,169.268 346.792,167.925 349.504,166.692 352.216,165.563 354.928,164.530 357.640,163.586 360.352,162.725 "
         id="polyline3060"
         style="fill:none;stroke:#ff0000;stroke-width:1pt;stroke-dasharray:none" />
      <g
         id="g3062" />
    </g>
    <g
       id="ID000011"
       clip-path="url(#ID000001)">
      <polyline
         points="102.712,207.914 105.424,207.975 108.136,208.030 110.848,208.077 113.560,208.112 116.272,208.135 118.984,208.143 121.696,208.134 124.408,208.105 127.120,208.054 129.832,207.980 132.544,207.881 135.256,207.756 137.968,207.606 140.680,207.432 143.392,207.235 146.104,207.018 148.816,206.786 151.528,206.545 154.240,206.301 156.952,206.064 159.664,205.844 162.376,205.652 165.088,205.502 167.800,205.408 170.512,205.386 173.224,205.452 175.936,205.622 178.648,205.913 181.360,206.342 184.072,206.924 186.784,207.673 189.496,208.601 192.208,209.718 194.920,211.031 197.632,212.543 200.344,214.254 203.056,216.160 205.768,218.251 208.480,220.514 211.192,222.930 213.904,225.476 216.616,228.124 219.328,230.843 222.040,233.595 224.752,236.343 227.464,239.045 230.176,241.657 232.888,244.135 235.600,246.437 238.312,248.519 241.024,250.342 243.736,251.870 246.448,253.070 249.160,253.916 251.872,254.385 254.584,254.465 257.296,254.145 260.008,253.426 262.720,252.311 265.432,250.814 268.144,248.951 270.856,246.748 273.568,244.231 276.280,241.434 278.992,238.393 281.704,235.145 284.416,231.730 287.128,228.187 289.840,224.556 292.552,220.873 295.264,217.174 297.976,213.492 300.688,209.856 303.400,206.293 306.112,202.824 308.824,199.469 311.536,196.243 314.248,193.158 316.960,190.222 319.672,187.441 322.384,184.817 325.096,182.353 327.808,180.046 330.520,177.893 333.232,175.891 335.944,174.034 338.656,172.315 341.368,170.729 344.080,169.268 346.792,167.925 349.504,166.692 352.216,165.563 354.928,164.530 357.640,163.586 360.352,162.725 "
         id="polyline3065"
         style="fill:none;stroke:#ff0000;stroke-width:1pt;stroke-dasharray:none" />
      <g
         id="g3067" />
    </g>
    <g
       id="ID000012"
       clip-path="url(#ID000001)">
      <polyline
         points="100.002,207.242 102.706,207.522 105.411,207.776 108.115,208.003 110.820,208.201 113.525,208.387 116.229,208.541 118.934,208.684 121.638,208.776 124.343,208.816 127.048,208.814 129.752,208.764 132.457,208.628 135.161,208.481 137.866,208.272 140.571,207.996 143.275,207.714 145.980,207.359 148.684,206.970 151.389,206.427 154.094,205.979 156.798,205.285 159.503,204.719 162.207,204.033 164.912,203.525 167.616,203.110 170.321,203.036 173.026,203.498 175.730,204.537 178.435,206.543 181.139,208.201 183.844,209.786 186.549,212.447 189.253,214.823 191.958,217.622 194.662,219.890 197.367,222.322 200.072,224.952 202.776,224.952 205.481,230.786 208.185,233.541 210.890,236.461 213.595,239.496 216.299,242.413 219.004,245.859 221.708,249.388 224.413,252.711 227.118,255.051 229.822,257.690 232.527,260.196 235.231,262.005 237.936,263.870 240.641,265.048 243.345,265.370 246.050,266.202 248.754,266.827 251.459,267.343 254.164,267.595 256.868,267.588 259.573,267.059 262.277,266.433 264.982,265.615 267.687,264.538 270.391,263.114 273.096,261.595 275.800,259.627 278.505,257.172 281.209,254.973 283.914,252.081 286.619,248.896 289.323,246.212 292.028,242.362 294.732,239.240 297.437,235.108 300.142,231.158 302.846,227.033 305.551,222.774 308.255,218.425 310.960,214.270 313.665,209.991 316.369,205.632 319.074,201.421 321.778,197.272 324.483,193.316 327.188,189.661 329.892,186.385 332.597,183.534 335.301,181.092 338.006,179.029 340.711,177.248 343.415,175.692 346.120,174.483 348.824,173.071 351.529,171.860 354.234,170.709 356.938,169.708 359.643,168.882 362.347,168.332 365.052,167.973 367.757,167.819 370.461,167.783 373.166,167.844 375.870,167.966 378.575,168.143 381.280,168.354 383.984,168.586 386.689,168.829 389.393,169.073 392.098,169.313 394.802,169.532 397.507,169.680 400.212,169.850 402.916,169.902 405.621,169.870 408.325,169.727 "
         id="polyline3070"
         style="fill:none;stroke:#000000;stroke-width:2pt;stroke-dasharray:2, 2" />
      <g
         id="g3072" />
    </g>
    <g
       id="ID000013"
       clip-path="url(#ID000001)">
      <g
         id="g3075">
        <circle
           cx="102.712"
           cy="207.242"
           r="3"
           id="circle3077"
           sodipodi:cx="102.712"
           sodipodi:cy="207.242"
           sodipodi:rx="3"
           sodipodi:ry="3"
           style="fill:none;stroke:#000000;stroke-width:3pt"
           d="m 105.712,207.242 c 0,1.65686 -1.34315,3 -3,3 -1.65686,0 -3.000002,-1.34314 -3.000002,-3 0,-1.65685 1.343142,-3 3.000002,-3 1.65685,0 3,1.34315 3,3 z" />
        <circle
           cx="105.424"
           cy="207.522"
           r="3"
           id="circle3079"
           sodipodi:cx="105.424"
           sodipodi:cy="207.522"
           sodipodi:rx="3"
           sodipodi:ry="3"
           style="fill:none;stroke:#000000;stroke-width:3pt"
           d="m 108.424,207.522 c 0,1.65686 -1.34314,3 -3,3 -1.65685,0 -3,-1.34314 -3,-3 0,-1.65685 1.34315,-3 3,-3 1.65686,0 3,1.34315 3,3 z" />
        <circle
           cx="108.136"
           cy="207.776"
           r="3"
           id="circle3081"
           sodipodi:cx="108.136"
           sodipodi:cy="207.776"
           sodipodi:rx="3"
           sodipodi:ry="3"
           style="fill:none;stroke:#000000;stroke-width:3pt"
           d="m 111.136,207.776 c 0,1.65686 -1.34314,3 -3,3 -1.65685,0 -3,-1.34314 -3,-3 0,-1.65685 1.34315,-3 3,-3 1.65686,0 3,1.34315 3,3 z" />
        <circle
           cx="110.848"
           cy="208.00301"
           r="3"
           id="circle3083"
           sodipodi:cx="110.848"
           sodipodi:cy="208.00301"
           sodipodi:rx="3"
           sodipodi:ry="3"
           style="fill:none;stroke:#000000;stroke-width:3pt"
           d="m 113.848,208.00301 c 0,1.65685 -1.34315,3 -3,3 -1.65685,0 -3,-1.34315 -3,-3 0,-1.65686 1.34315,-3 3,-3 1.65685,0 3,1.34314 3,3 z" />
        <circle
           cx="113.56"
           cy="208.201"
           r="3"
           id="circle3085"
           sodipodi:cx="113.56"
           sodipodi:cy="208.201"
           sodipodi:rx="3"
           sodipodi:ry="3"
           style="fill:none;stroke:#000000;stroke-width:3pt"
           d="m 116.56,208.201 c 0,1.65686 -1.34315,3 -3,3 -1.65686,0 -3,-1.34314 -3,-3 0,-1.65685 1.34314,-3 3,-3 1.65685,0 3,1.34315 3,3 z" />
        <circle
           cx="116.272"
           cy="208.38699"
           r="3"
           id="circle3087"
           sodipodi:cx="116.272"
           sodipodi:cy="208.38699"
           sodipodi:rx="3"
           sodipodi:ry="3"
           style="fill:none;stroke:#000000;stroke-width:3pt"
           d="m 119.272,208.38699 c 0,1.65686 -1.34314,3 -3,3 -1.65685,0 -3,-1.34314 -3,-3 0,-1.65685 1.34315,-3 3,-3 1.65686,0 3,1.34315 3,3 z" />
        <circle
           cx="118.984"
           cy="208.541"
           r="3"
           id="circle3089"
           sodipodi:cx="118.984"
           sodipodi:cy="208.541"
           sodipodi:rx="3"
           sodipodi:ry="3"
           style="fill:none;stroke:#000000;stroke-width:3pt"
           d="m 121.984,208.541 c 0,1.65685 -1.34314,3 -3,3 -1.65685,0 -3,-1.34315 -3,-3 0,-1.65685 1.34315,-3 3,-3 1.65686,0 3,1.34315 3,3 z" />
        <circle
           cx="121.696"
           cy="208.68401"
           r="3"
           id="circle3091"
           sodipodi:cx="121.696"
           sodipodi:cy="208.68401"
           sodipodi:rx="3"
           sodipodi:ry="3"
           style="fill:none;stroke:#000000;stroke-width:3pt"
           d="m 124.696,208.68401 c 0,1.65685 -1.34315,3 -3,3 -1.65686,0 -3,-1.34315 -3,-3 0,-1.65686 1.34314,-3 3,-3 1.65685,0 3,1.34314 3,3 z" />
        <circle
           cx="124.408"
           cy="208.776"
           r="3"
           id="circle3093"
           sodipodi:cx="124.408"
           sodipodi:cy="208.776"
           sodipodi:rx="3"
           sodipodi:ry="3"
           style="fill:none;stroke:#000000;stroke-width:3pt"
           d="m 127.408,208.776 c 0,1.65686 -1.34315,3 -3,3 -1.65686,0 -3,-1.34314 -3,-3 0,-1.65685 1.34314,-3 3,-3 1.65685,0 3,1.34315 3,3 z" />
        <circle
           cx="127.12"
           cy="208.81599"
           r="3"
           id="circle3095"
           sodipodi:cx="127.12"
           sodipodi:cy="208.81599"
           sodipodi:rx="3"
           sodipodi:ry="3"
           style="fill:none;stroke:#000000;stroke-width:3pt"
           d="m 130.12,208.81599 c 0,1.65686 -1.34314,3 -3,3 -1.65685,0 -3,-1.34314 -3,-3 0,-1.65685 1.34315,-3 3,-3 1.65686,0 3,1.34315 3,3 z" />
        <circle
           cx="129.832"
           cy="208.814"
           r="3"
           id="circle3097"
           sodipodi:cx="129.832"
           sodipodi:cy="208.814"
           sodipodi:rx="3"
           sodipodi:ry="3"
           style="fill:none;stroke:#000000;stroke-width:3pt"
           d="m 132.832,208.814 c 0,1.65685 -1.34315,3 -3,3 -1.65685,0 -3,-1.34315 -3,-3 0,-1.65686 1.34315,-3 3,-3 1.65685,0 3,1.34314 3,3 z" />
        <circle
           cx="132.54401"
           cy="208.76401"
           r="3"
           id="circle3099"
           sodipodi:cx="132.54401"
           sodipodi:cy="208.76401"
           sodipodi:rx="3"
           sodipodi:ry="3"
           style="fill:none;stroke:#000000;stroke-width:3pt"
           d="m 135.54401,208.76401 c 0,1.65685 -1.34315,3 -3,3 -1.65686,0 -3,-1.34315 -3,-3 0,-1.65686 1.34314,-3 3,-3 1.65685,0 3,1.34314 3,3 z" />
        <circle
           cx="135.256"
           cy="208.62801"
           r="3"
           id="circle3101"
           sodipodi:cx="135.256"
           sodipodi:cy="208.62801"
           sodipodi:rx="3"
           sodipodi:ry="3"
           style="fill:none;stroke:#000000;stroke-width:3pt"
           d="m 138.256,208.62801 c 0,1.65685 -1.34315,3 -3,3 -1.65686,0 -3,-1.34315 -3,-3 0,-1.65686 1.34314,-3 3,-3 1.65685,0 3,1.34314 3,3 z" />
        <circle
           cx="137.968"
           cy="208.481"
           r="3"
           id="circle3103"
           sodipodi:cx="137.968"
           sodipodi:cy="208.481"
           sodipodi:rx="3"
           sodipodi:ry="3"
           style="fill:none;stroke:#000000;stroke-width:3pt"
           d="m 140.968,208.481 c 0,1.65686 -1.34314,3 -3,3 -1.65685,0 -3,-1.34314 -3,-3 0,-1.65685 1.34315,-3 3,-3 1.65686,0 3,1.34315 3,3 z" />
        <circle
           cx="140.67999"
           cy="208.272"
           r="3"
           id="circle3105"
           sodipodi:cx="140.67999"
           sodipodi:cy="208.272"
           sodipodi:rx="3"
           sodipodi:ry="3"
           style="fill:none;stroke:#000000;stroke-width:3pt"
           d="m 143.67999,208.272 c 0,1.65686 -1.34314,3 -3,3 -1.65685,0 -3,-1.34314 -3,-3 0,-1.65685 1.34315,-3 3,-3 1.65686,0 3,1.34315 3,3 z" />
        <circle
           cx="143.392"
           cy="207.996"
           r="3"
           id="circle3107"
           sodipodi:cx="143.392"
           sodipodi:cy="207.996"
           sodipodi:rx="3"
           sodipodi:ry="3"
           style="fill:none;stroke:#000000;stroke-width:3pt"
           d="m 146.392,207.996 c 0,1.65686 -1.34315,3 -3,3 -1.65686,0 -3,-1.34314 -3,-3 0,-1.65685 1.34314,-3 3,-3 1.65685,0 3,1.34315 3,3 z" />
        <circle
           cx="146.104"
           cy="207.714"
           r="3"
           id="circle3109"
           sodipodi:cx="146.104"
           sodipodi:cy="207.714"
           sodipodi:rx="3"
           sodipodi:ry="3"
           style="fill:none;stroke:#000000;stroke-width:3pt"
           d="m 149.104,207.714 c 0,1.65686 -1.34314,3 -3,3 -1.65685,0 -3,-1.34314 -3,-3 0,-1.65685 1.34315,-3 3,-3 1.65686,0 3,1.34315 3,3 z" />
        <circle
           cx="148.81599"
           cy="207.35899"
           r="3"
           id="circle3111"
           sodipodi:cx="148.81599"
           sodipodi:cy="207.35899"
           sodipodi:rx="3"
           sodipodi:ry="3"
           style="fill:none;stroke:#000000;stroke-width:3pt"
           d="m 151.81599,207.35899 c 0,1.65686 -1.34314,3 -3,3 -1.65685,0 -3,-1.34314 -3,-3 0,-1.65685 1.34315,-3 3,-3 1.65686,0 3,1.34315 3,3 z" />
        <circle
           cx="151.528"
           cy="206.97"
           r="3"
           id="circle3113"
           sodipodi:cx="151.528"
           sodipodi:cy="206.97"
           sodipodi:rx="3"
           sodipodi:ry="3"
           style="fill:none;stroke:#000000;stroke-width:3pt"
           d="m 154.528,206.97 c 0,1.65686 -1.34315,3 -3,3 -1.65685,0 -3,-1.34314 -3,-3 0,-1.65685 1.34315,-3 3,-3 1.65685,0 3,1.34315 3,3 z" />
        <circle
           cx="154.24001"
           cy="206.427"
           r="3"
           id="circle3115"
           sodipodi:cx="154.24001"
           sodipodi:cy="206.427"
           sodipodi:rx="3"
           sodipodi:ry="3"
           style="fill:none;stroke:#000000;stroke-width:3pt"
           d="m 157.24001,206.427 c 0,1.65686 -1.34315,3 -3,3 -1.65686,0 -3,-1.34314 -3,-3 0,-1.65685 1.34314,-3 3,-3 1.65685,0 3,1.34315 3,3 z" />
        <circle
           cx="156.952"
           cy="205.979"
           r="3"
           id="circle3117"
           sodipodi:cx="156.952"
           sodipodi:cy="205.979"
           sodipodi:rx="3"
           sodipodi:ry="3"
           style="fill:none;stroke:#000000;stroke-width:3pt"
           d="m 159.952,205.979 c 0,1.65686 -1.34315,3 -3,3 -1.65686,0 -3,-1.34314 -3,-3 0,-1.65685 1.34314,-3 3,-3 1.65685,0 3,1.34315 3,3 z" />
        <circle
           cx="159.664"
           cy="205.285"
           r="3"
           id="circle3119"
           sodipodi:cx="159.664"
           sodipodi:cy="205.285"
           sodipodi:rx="3"
           sodipodi:ry="3"
           style="fill:none;stroke:#000000;stroke-width:3pt"
           d="m 162.664,205.285 c 0,1.65686 -1.34314,3 -3,3 -1.65685,0 -3,-1.34314 -3,-3 0,-1.65685 1.34315,-3 3,-3 1.65686,0 3,1.34315 3,3 z" />
        <circle
           cx="162.37601"
           cy="204.71899"
           r="3"
           id="circle3121"
           sodipodi:cx="162.37601"
           sodipodi:cy="204.71899"
           sodipodi:rx="3"
           sodipodi:ry="3"
           style="fill:none;stroke:#000000;stroke-width:3pt"
           d="m 165.37601,204.71899 c 0,1.65686 -1.34315,3 -3,3 -1.65686,0 -3,-1.34314 -3,-3 0,-1.65685 1.34314,-3 3,-3 1.65685,0 3,1.34315 3,3 z" />
        <circle
           cx="165.088"
           cy="204.033"
           r="3"
           id="circle3123"
           sodipodi:cx="165.088"
           sodipodi:cy="204.033"
           sodipodi:rx="3"
           sodipodi:ry="3"
           style="fill:none;stroke:#000000;stroke-width:3pt"
           d="m 168.088,204.033 c 0,1.65686 -1.34315,3 -3,3 -1.65686,0 -3,-1.34314 -3,-3 0,-1.65685 1.34314,-3 3,-3 1.65685,0 3,1.34315 3,3 z" />
        <circle
           cx="167.8"
           cy="203.52499"
           r="3"
           id="circle3125"
           sodipodi:cx="167.8"
           sodipodi:cy="203.52499"
           sodipodi:rx="3"
           sodipodi:ry="3"
           style="fill:none;stroke:#000000;stroke-width:3pt"
           d="m 170.8,203.52499 c 0,1.65686 -1.34314,3 -3,3 -1.65685,0 -3,-1.34314 -3,-3 0,-1.65685 1.34315,-3 3,-3 1.65686,0 3,1.34315 3,3 z" />
        <circle
           cx="170.51199"
           cy="203.11"
           r="3"
           id="circle3127"
           sodipodi:cx="170.51199"
           sodipodi:cy="203.11"
           sodipodi:rx="3"
           sodipodi:ry="3"
           style="fill:none;stroke:#000000;stroke-width:3pt"
           d="m 173.51199,203.11 c 0,1.65685 -1.34314,3 -3,3 -1.65685,0 -3,-1.34315 -3,-3 0,-1.65685 1.34315,-3 3,-3 1.65686,0 3,1.34315 3,3 z" />
        <circle
           cx="173.224"
           cy="203.036"
           r="3"
           id="circle3129"
           sodipodi:cx="173.224"
           sodipodi:cy="203.036"
           sodipodi:rx="3"
           sodipodi:ry="3"
           style="fill:none;stroke:#000000;stroke-width:3pt"
           d="m 176.224,203.036 c 0,1.65685 -1.34315,3 -3,3 -1.65686,0 -3,-1.34315 -3,-3 0,-1.65686 1.34314,-3 3,-3 1.65685,0 3,1.34314 3,3 z" />
        <circle
           cx="175.936"
           cy="203.498"
           r="3"
           id="circle3131"
           sodipodi:cx="175.936"
           sodipodi:cy="203.498"
           sodipodi:rx="3"
           sodipodi:ry="3"
           style="fill:none;stroke:#000000;stroke-width:3pt"
           d="m 178.936,203.498 c 0,1.65686 -1.34314,3 -3,3 -1.65685,0 -3,-1.34314 -3,-3 0,-1.65685 1.34315,-3 3,-3 1.65686,0 3,1.34315 3,3 z" />
        <circle
           cx="178.64799"
           cy="204.537"
           r="3"
           id="circle3133"
           sodipodi:cx="178.64799"
           sodipodi:cy="204.537"
           sodipodi:rx="3"
           sodipodi:ry="3"
           style="fill:none;stroke:#000000;stroke-width:3pt"
           d="m 181.64799,204.537 c 0,1.65686 -1.34314,3 -3,3 -1.65685,0 -3,-1.34314 -3,-3 0,-1.65685 1.34315,-3 3,-3 1.65686,0 3,1.34315 3,3 z" />
        <circle
           cx="181.36"
           cy="206.543"
           r="3"
           id="circle3135"
           sodipodi:cx="181.36"
           sodipodi:cy="206.543"
           sodipodi:rx="3"
           sodipodi:ry="3"
           style="fill:none;stroke:#000000;stroke-width:3pt"
           d="m 184.36,206.543 c 0,1.65685 -1.34315,3 -3,3 -1.65685,0 -3,-1.34315 -3,-3 0,-1.65685 1.34315,-3 3,-3 1.65685,0 3,1.34315 3,3 z" />
        <circle
           cx="184.07201"
           cy="208.201"
           r="3"
           id="circle3137"
           sodipodi:cx="184.07201"
           sodipodi:cy="208.201"
           sodipodi:rx="3"
           sodipodi:ry="3"
           style="fill:none;stroke:#000000;stroke-width:3pt"
           d="m 187.07201,208.201 c 0,1.65686 -1.34315,3 -3,3 -1.65686,0 -3,-1.34314 -3,-3 0,-1.65685 1.34314,-3 3,-3 1.65685,0 3,1.34315 3,3 z" />
        <circle
           cx="186.784"
           cy="209.786"
           r="3"
           id="circle3139"
           sodipodi:cx="186.784"
           sodipodi:cy="209.786"
           sodipodi:rx="3"
           sodipodi:ry="3"
           style="fill:none;stroke:#000000;stroke-width:3pt"
           d="m 189.784,209.786 c 0,1.65685 -1.34315,3 -3,3 -1.65686,0 -3,-1.34315 -3,-3 0,-1.65686 1.34314,-3 3,-3 1.65685,0 3,1.34314 3,3 z" />
        <circle
           cx="189.496"
           cy="212.44701"
           r="3"
           id="circle3141"
           sodipodi:cx="189.496"
           sodipodi:cy="212.44701"
           sodipodi:rx="3"
           sodipodi:ry="3"
           style="fill:none;stroke:#000000;stroke-width:3pt"
           d="m 192.496,212.44701 c 0,1.65685 -1.34314,3 -3,3 -1.65685,0 -3,-1.34315 -3,-3 0,-1.65686 1.34315,-3 3,-3 1.65686,0 3,1.34314 3,3 z" />
        <circle
           cx="192.20799"
           cy="214.823"
           r="3"
           id="circle3143"
           sodipodi:cx="192.20799"
           sodipodi:cy="214.823"
           sodipodi:rx="3"
           sodipodi:ry="3"
           style="fill:none;stroke:#000000;stroke-width:3pt"
           d="m 195.20799,214.823 c 0,1.65685 -1.34314,3 -3,3 -1.65685,0 -3,-1.34315 -3,-3 0,-1.65686 1.34315,-3 3,-3 1.65686,0 3,1.34314 3,3 z" />
        <circle
           cx="194.92"
           cy="217.62199"
           r="3"
           id="circle3145"
           sodipodi:cx="194.92"
           sodipodi:cy="217.62199"
           sodipodi:rx="3"
           sodipodi:ry="3"
           style="fill:none;stroke:#000000;stroke-width:3pt"
           d="m 197.92,217.62199 c 0,1.65686 -1.34315,3 -3,3 -1.65686,0 -3,-1.34314 -3,-3 0,-1.65685 1.34314,-3 3,-3 1.65685,0 3,1.34315 3,3 z" />
      </g>
    </g>
    <g
       id="ID000014"
       transform="matrix(0.56523965,0,0,0.56523965,35.624207,84.227494)">
      <g
         transform="translate(38.527,207.5)"
         id="g3148">
        <g
           transform="matrix(0,-1,1,0,0,0)"
           id="g3150">
          <text
             x="0"
             y="0"
             font-size="24pt"
             id="text3152"
             style="font-size:30px;text-anchor:middle;fill:#000000;font-family:Helvetica">z[m]</text>
        </g>
      </g>
    </g>
    <g
       id="ID000015"
       transform="matrix(0.49566815,0,0,0.49566815,152.1518,178.57634)">
      <g
         transform="translate(302.4,418.3)"
         id="g3155">
        <g
           id="g3157">
          <text
             x="0"
             y="0"
             font-size="24pt"
             id="text3159"
             style="font-size:30px;text-anchor:middle;fill:#000000;font-family:Helvetica">Time [s]</text>
        </g>
      </g>
    </g>
    <g
       id="ID000017" />
    <g
       id="ID000018" />
    <polyline
       points="235.600,356.000 235.600,351.932 "
       id="polyline3172"
       style="fill:none;stroke:#000000;stroke-width:0.5pt;stroke-dasharray:none" />
    <polyline
       points="371.200,356.000 371.200,351.932 "
       id="polyline3174"
       style="fill:none;stroke:#000000;stroke-width:0.5pt;stroke-dasharray:none" />
    <polyline
       points="100.000,356.000 506.800,356.000 "
       id="polyline3176"
       style="fill:none;stroke:#000000;stroke-width:0.5pt;stroke-dasharray:none" />
    <polyline
       points="235.600,57.000 235.600,61.068 "
       id="polyline3178"
       style="fill:none;stroke:#000000;stroke-width:0.5pt;stroke-dasharray:none" />
    <polyline
       points="371.200,57.000 371.200,61.068 "
       id="polyline3180"
       style="fill:none;stroke:#000000;stroke-width:0.5pt;stroke-dasharray:none" />
    <polyline
       points="100.000,57.000 506.800,57.000 "
       id="polyline3182"
       style="fill:none;stroke:#000000;stroke-width:0.5pt;stroke-dasharray:none" />
    <g
       transform="matrix(0.60670474,0,0,0.60670474,101.58969,369.71053)"
       id="g3184">
      <g
         id="g3186">
        <text
           x="0"
           y="0"
           font-size="20pt"
           id="text3188"
           style="font-size:25px;text-anchor:middle;fill:#000000;font-family:Helvetica">0</text>
      </g>
    </g>
    <g
       transform="matrix(0.60670474,0,0,0.60670474,235.61328,369.71053)"
       id="g3190">
      <g
         id="g3192">
        <text
           x="0"
           y="0"
           font-size="20pt"
           id="text3194"
           style="font-size:25px;text-anchor:middle;fill:#000000;font-family:Helvetica">0.5</text>
      </g>
    </g>
    <g
       transform="matrix(0.60670474,0,0,0.60670474,370.49387,369.71053)"
       id="g3196">
      <g
         id="g3198">
        <text
           x="0"
           y="0"
           font-size="20pt"
           id="text3200"
           style="font-size:25px;text-anchor:middle;fill:#000000;font-family:Helvetica">1</text>
      </g>
    </g>
    <g
       transform="matrix(0.60670474,0,0,0.60670474,503.30407,369.71053)"
       id="g3202">
      <g
         id="g3204">
        <text
           x="0"
           y="0"
           font-size="20pt"
           id="text3206"
           style="font-size:25px;text-anchor:middle;fill:#000000;font-family:Helvetica">1.5</text>
      </g>
    </g>
    <polyline
       points="100.000,281.250 104.068,281.250 "
       id="polyline3208"
       style="fill:none;stroke:#000000;stroke-width:0.5pt;stroke-dasharray:none" />
    <polyline
       points="100.000,206.500 104.068,206.500 "
       id="polyline3210"
       style="fill:none;stroke:#000000;stroke-width:0.5pt;stroke-dasharray:none" />
    <polyline
       points="100.000,131.750 104.068,131.750 "
       id="polyline3212"
       style="fill:none;stroke:#000000;stroke-width:0.5pt;stroke-dasharray:none" />
    <polyline
       points="100.000,356.000 100.000,57.000 "
       id="polyline3214"
       style="fill:none;stroke:#000000;stroke-width:0.5pt;stroke-dasharray:none" />
    <polyline
       points="506.800,281.250 502.732,281.250 "
       id="polyline3216"
       style="fill:none;stroke:#000000;stroke-width:0.5pt;stroke-dasharray:none" />
    <polyline
       points="506.800,206.500 502.732,206.500 "
       id="polyline3218"
       style="fill:none;stroke:#000000;stroke-width:0.5pt;stroke-dasharray:none" />
    <polyline
       points="506.800,131.750 502.732,131.750 "
       id="polyline3220"
       style="fill:none;stroke:#000000;stroke-width:0.5pt;stroke-dasharray:none" />
    <polyline
       points="506.800,356.000 506.800,57.000 "
       id="polyline3222"
       style="fill:none;stroke:#000000;stroke-width:0.5pt;stroke-dasharray:none" />
    <g
       transform="matrix(0.5426077,0,0,0.5426077,96.784005,361.97745)"
       id="g3224">
      <g
         id="g3226">
        <text
           x="0"
           y="0"
           font-size="20pt"
           id="text3228"
           style="font-size:25px;text-anchor:end;fill:#000000;font-family:Helvetica">0</text>
      </g>
    </g>
    <g
       transform="matrix(0.5426077,0,0,0.5426077,96.784005,287.30987)"
       id="g3230">
      <g
         id="g3232">
        <text
           x="0"
           y="0"
           font-size="20pt"
           id="text3234"
           style="font-size:25px;text-anchor:end;fill:#000000;font-family:Helvetica">0.02</text>
      </g>
    </g>
    <g
       transform="matrix(0.5426077,0,0,0.5426077,96.784005,212.64227)"
       id="g3236">
      <g
         id="g3238">
        <text
           x="0"
           y="0"
           font-size="20pt"
           id="text3240"
           style="font-size:25px;text-anchor:end;fill:#000000;font-family:Helvetica">0.04</text>
      </g>
    </g>
    <g
       transform="matrix(0.5426077,0,0,0.5426077,96.784005,137.97467)"
       id="g3242">
      <g
         id="g3244">
        <text
           x="0"
           y="0"
           font-size="20pt"
           id="text3246"
           style="font-size:25px;text-anchor:end;fill:#000000;font-family:Helvetica">0.06</text>
      </g>
    </g>
    <g
       transform="matrix(0.5426077,0,0,0.5426077,96.784005,87.225909)"
       id="g3248">
      <g
         id="g3250"
         transform="translate(0,-44.081203)">
        <text
           x="0"
           y="0"
           font-size="20pt"
           id="text3252"
           style="font-size:25px;text-anchor:end;fill:#000000;font-family:Helvetica">0.08</text>
      </g>
    </g>
    <polyline
       points="100.000,356.000 100.000,353.010 "
       id="polyline3254"
       style="fill:none;stroke:#000000;stroke-width:0.5pt;stroke-dasharray:none" />
    <polyline
       points="100.000,356.000 100.000,356.000 "
       id="polyline3256"
       style="fill:none;stroke:#000000;stroke-width:0.5pt;stroke-dasharray:none" />
    <g
       id="ID000019"
       transform="translate(340.80509,-12.012712)">
      <clipPath
         id="ID000020">
        <rect
           x="330.25"
           y="198.875"
           width="205.5"
           height="150.875"
           id="rect3260" />
      </clipPath>
    </g>
    <path
       sodipodi:type="arc"
       style="fill:none;stroke:#00a900;stroke-width:3;stroke-linecap:round;stroke-miterlimit:4;stroke-opacity:1;stroke-dasharray:none;stroke-dashoffset:0"
       id="path3353"
       sodipodi:cx="385.74152"
       sodipodi:cy="169.06779"
       sodipodi:rx="25.805084"
       sodipodi:ry="10.677966"
       d="m 411.5466,169.06779 c 0,5.89728 -11.55333,10.67797 -25.80508,10.67797 -14.25176,0 -25.80509,-4.78069 -25.80509,-10.67797 0,-5.89727 11.55333,-10.67796 25.80509,-10.67796 13.50213,0 24.72153,4.30695 25.73263,9.87836"
       sodipodi:start="0"
       sodipodi:end="6.2082313"
       sodipodi:open="true" />
    <g
       id="g3419"
       transform="matrix(0.55929626,0,0,0.55929626,-9.9367404,124.84985)">
      <polygon
         transform="matrix(1.1786555,0,0,1.3184812,281.80409,-75.350656)"
         style="fill:#ffffff;fill-opacity:1;stroke:none"
         id="polygon3262"
         points="330.25,198.875 330.25,349.75 535.75,349.75 535.75,198.875 " />
      <polygon
         style="fill:#ffffff;fill-opacity:1;stroke:none"
         id="polygon3264"
         points="330.25,198.875 535.75,198.875 535.75,198.875 330.25,198.875 "
         transform="translate(340.80509,-12.012712)" />
      <polygon
         style="fill:#ffffff;fill-opacity:1;stroke:none"
         id="polygon3266"
         points="330.25,349.75 330.25,349.75 330.25,198.875 330.25,198.875 "
         transform="translate(340.80509,-12.012712)" />
      <g
         id="g3268"
         transform="translate(340.80509,-12.012712)">
        <g
           id="ID000021">
          <g
             id="g3271"
             transform="translate(379.63,229.357)">
            <g
               id="g3273">
              <text
                 style="font-size:25px;text-anchor:start;fill:#000000;font-family:Helvetica"
                 id="text3275"
                 font-size="20pt"
                 y="0"
                 x="0">real trajectory</text>
            </g>
          </g>
        </g>
        <g
           clip-path="url(#ID000020)"
           id="ID000022">
          <polyline
             style="fill:none;stroke:#000000;stroke-width:2pt;stroke-dasharray:2, 2"
             id="polyline3278"
             points="337.750,219.375 375.250,219.375 " />
          <g
             id="g3280" />
        </g>
        <g
           clip-path="url(#ID000020)"
           id="ID000023">
          <g
             id="g3283" />
        </g>
        <g
           id="ID000024">
          <g
             id="g3286"
             transform="translate(379.63,266.327)">
            <g
               id="g3288">
              <text
                 style="font-size:25px;text-anchor:start;fill:#000000;font-family:Helvetica"
                 id="text3290"
                 font-size="20pt"
                 y="0"
                 x="0">observations</text>
            </g>
          </g>
        </g>
        <g
           clip-path="url(#ID000020)"
           id="ID000025">
          <g
             id="g3293" />
        </g>
        <g
           clip-path="url(#ID000020)"
           id="ID000026">
          <g
             id="g3296">
            <circle
               d="m 359.5,256 c 0,1.65685 -1.34315,3 -3,3 -1.65685,0 -3,-1.34315 -3,-3 0,-1.65685 1.34315,-3 3,-3 1.65685,0 3,1.34315 3,3 z"
               style="fill:none;stroke:#000000;stroke-width:3pt"
               sodipodi:ry="3"
               sodipodi:rx="3"
               sodipodi:cy="256"
               sodipodi:cx="356.5"
               id="circle3298"
               r="3"
               cy="256"
               cx="356.5" />
          </g>
        </g>
        <g
           id="ID000027">
          <g
             id="g3301"
             transform="translate(379.63,302.297)">
            <g
               id="g3303">
              <text
                 style="font-size:25px;text-anchor:start;fill:#000000;font-family:Helvetica"
                 id="text3305"
                 font-size="20pt"
                 y="0"
                 x="0">prior proMP</text>
            </g>
          </g>
        </g>
        <g
           clip-path="url(#ID000020)"
           id="ID000028">
          <polyline
             style="fill:none;stroke:#0000ff;stroke-width:1pt;stroke-dasharray:none"
             id="polyline3308"
             points="337.750,292.625 375.250,292.625 " />
          <g
             id="g3310" />
        </g>
        <g
           clip-path="url(#ID000020)"
           id="ID000029">
          <g
             id="g3313" />
        </g>
        <g
           id="ID000030">
          <g
             id="g3316"
             transform="translate(379.63,339.266)">
            <g
               id="g3318">
              <text
                 style="font-size:25px;text-anchor:start;fill:#000000;font-family:Helvetica"
                 id="text3320"
                 font-size="20pt"
                 y="0"
                 x="0">prediction</text>
            </g>
          </g>
        </g>
        <g
           clip-path="url(#ID000020)"
           id="ID000031">
          <polyline
             style="fill:none;stroke:#ff0000;stroke-width:1pt;stroke-dasharray:none"
             id="polyline3323"
             points="337.750,329.250 375.250,329.250 " />
          <g
             id="g3325" />
        </g>
        <g
           clip-path="url(#ID000020)"
           id="ID000032">
          <g
             id="g3328" />
        </g>
        <g
           id="ID000033" />
        <g
           id="ID000034" />
        <g
           id="ID000035" />
      </g>
      <g
         transform="matrix(1.1912358,0,0,1.3171673,277.71622,-74.990246)"
         id="g3333">
        <polyline
           style="fill:none;stroke:#000000;stroke-width:0.5pt;stroke-dasharray:none"
           id="polyline3335"
           points="330.250,349.750 535.750,349.750 " />
        <polyline
           style="fill:none;stroke:#000000;stroke-width:0.5pt;stroke-dasharray:none"
           id="polyline3337"
           points="330.250,198.875 535.750,198.875 " />
        <polyline
           style="fill:none;stroke:#000000;stroke-width:0.5pt;stroke-dasharray:none"
           id="polyline3339"
           points="330.250,349.750 330.250,198.875 " />
        <polyline
           style="fill:none;stroke:#000000;stroke-width:0.5pt;stroke-dasharray:none"
           id="polyline3341"
           points="535.750,349.750 535.750,198.875 " />
        <polyline
           style="fill:none;stroke:#000000;stroke-width:0.5pt;stroke-dasharray:none"
           id="polyline3343"
           points="330.250,349.750 330.250,348.241 " />
        <polyline
           style="fill:none;stroke:#000000;stroke-width:0.5pt;stroke-dasharray:none"
           id="polyline3345"
           points="330.250,349.750 330.250,349.750 " />
      </g>
      <path
         transform="matrix(0.73929236,0,0,0.73929236,412.45136,237.61541)"
         sodipodi:type="arc"
         style="fill:none;stroke:#00a900;stroke-width:3;stroke-linecap:round;stroke-miterlimit:4;stroke-opacity:1;stroke-dasharray:none;stroke-dashoffset:0"
         id="path3355"
         sodipodi:cx="385.74152"
         sodipodi:cy="169.06779"
         sodipodi:rx="25.805084"
         sodipodi:ry="10.677966"
         d="m 411.5466,169.06779 c 0,5.89728 -11.55333,10.67797 -25.80508,10.67797 -14.25176,0 -25.80509,-4.78069 -25.80509,-10.67797 0,-5.89727 11.55333,-10.67796 25.80509,-10.67796 13.50213,0 24.72153,4.30695 25.73263,9.87836"
         sodipodi:start="0"
         sodipodi:end="6.2082313"
         sodipodi:open="true" />
      <text
         sodipodi:linespacing="125%"
         id="text3357"
         y="357.4877"
         x="720.81097"
         style="font-size:28.68689346px;font-style:normal;font-weight:normal;line-height:125%;letter-spacing:0px;word-spacing:0px;fill:#000000;fill-opacity:1;stroke:none;font-family:Sans"
         xml:space="preserve"><tspan
           style="font-size:19.12459564px"
           y="357.4877"
           x="720.81097"
           sodipodi:role="line"
           id="tspan3174" /></text>
      <rect
         style="fill:#ff0000;fill-opacity:0.36529685;fill-rule:evenodd;stroke:none"
         id="rect3172"
         width="31.144073"
         height="6.451263"
         x="361.93857"
         y="296.0795"
         transform="matrix(1.2041381,0,0,1.2041381,242.76075,-38.627535)" />
      <rect
         style="fill:#0000ff;fill-opacity:0.36529685;fill-rule:evenodd;stroke:none"
         id="rect3174"
         width="36.966026"
         height="8.8397121"
         x="679.12048"
         y="281.19495" />
      <text
         xml:space="preserve"
         style="font-size:7.56931925px;font-style:normal;font-weight:normal;line-height:125%;letter-spacing:0px;word-spacing:0px;fill:#000000;fill-opacity:1;stroke:none;font-family:Sans"
         x="723.6377"
         y="367.46295"
         id="text3210"
         sodipodi:linespacing="125%"><tspan
           sodipodi:role="line"
           id="tspan3212"
           x="723.6377"
           y="367.46295"
           style="font-size:22.70795822px">error of duration</tspan></text>
    </g>
  </g>
</svg>
