<?xml version="1.0" encoding="UTF-8" standalone="no"?>
<svg
   xmlns:dc="http://purl.org/dc/elements/1.1/"
   xmlns:cc="http://creativecommons.org/ns#"
   xmlns:rdf="http://www.w3.org/1999/02/22-rdf-syntax-ns#"
   xmlns:svg="http://www.w3.org/2000/svg"
   xmlns="http://www.w3.org/2000/svg"
   xmlns:sodipodi="http://sodipodi.sourceforge.net/DTD/sodipodi-0.dtd"
   xmlns:inkscape="http://www.inkscape.org/namespaces/inkscape"
   style="font-size:12px;font-style:normal;font-weight:normal;fill:#000000;fill-opacity:1;stroke:#000000;stroke-width:1;stroke-linecap:square;stroke-linejoin:miter;stroke-miterlimit:10;stroke-opacity:1;stroke-dasharray:none;stroke-dashoffset:0;font-family:Dialog"
   width="767"
   height="576"
   id="svg2"
   version="1.1"
   inkscape:version="0.48.4 r9939"
   sodipodi:docname="timeError.pdf">
  <sodipodi:namedview
     pagecolor="#ffffff"
     bordercolor="#666666"
     borderopacity="1"
     objecttolerance="10"
     gridtolerance="10"
     guidetolerance="10"
     inkscape:pageopacity="0"
     inkscape:pageshadow="2"
     inkscape:window-width="1873"
     inkscape:window-height="1056"
     id="namedview297"
     showgrid="false"
     inkscape:zoom="1.1588694"
     inkscape:cx="456.91641"
     inkscape:cy="228.75967"
     inkscape:window-x="47"
     inkscape:window-y="24"
     inkscape:window-maximized="1"
     inkscape:current-layer="svg2"
     fit-margin-top="0"
     fit-margin-left="0"
     fit-margin-right="0"
     fit-margin-bottom="0" />
  <metadata
     id="metadata299">
    <rdf:RDF>
      <cc:Work
         rdf:about="">
        <dc:format>image/svg+xml</dc:format>
        <dc:type
           rdf:resource="http://purl.org/dc/dcmitype/StillImage" />
        <dc:title></dc:title>
      </cc:Work>
    </rdf:RDF>
  </metadata>
  <!--Generated by the Batik Graphics2D SVG Generator-->
  <defs
     id="genericDefs">
    <defs
       id="defs1">
      <clipPath
         id="clipPath1"
         clipPathUnits="userSpaceOnUse">
        <path
           id="path9"
           d="M 0,0 767,0 767,576 0,576 0,0 z"
           inkscape:connector-curvature="0" />
      </clipPath>
    </defs>
  </defs>
  <rect
     x="0"
     y="0"
     width="767"
     style="fill:#ffffff;stroke:none"
     height="576"
     id="rect13"
     clip-path="url(#clipPath1)" />
  <path
     style="fill:#ffffff;stroke:none"
     d="m 100,513 594,0 0,-470 -594,0 z"
     id="path19"
     inkscape:connector-curvature="0" />
  <g
     id="g21"
     style="fill:#262626;stroke:#262626;stroke-width:0.66670001;stroke-linejoin:round">
    <line
       id="line23"
       y1="513"
       x2="694"
       x1="100"
       style="fill:none"
       y2="513" />
    <line
       id="line25"
       y1="513"
       x2="100"
       x1="100"
       style="fill:none"
       y2="507.06" />
    <line
       id="line27"
       y1="513"
       x2="199"
       x1="199"
       style="fill:none"
       y2="507.06" />
    <line
       id="line29"
       y1="513"
       x2="298"
       x1="298"
       style="fill:none"
       y2="507.06" />
    <line
       id="line31"
       y1="513"
       x2="397"
       x1="397"
       style="fill:none"
       y2="507.06" />
    <line
       id="line33"
       y1="513"
       x2="496"
       x1="496"
       style="fill:none"
       y2="507.06" />
    <line
       id="line35"
       y1="513"
       x2="595"
       x1="595"
       style="fill:none"
       y2="507.06" />
    <line
       id="line37"
       y1="513"
       x2="694"
       x1="694"
       style="fill:none"
       y2="507.06" />
  </g>
  <g
     id="g39"
     style="font-size:24px;fill:#262626;stroke:#262626;font-family:SansSerif"
     transform="translate(100,520.5327)">
    <path
       inkscape:connector-curvature="0"
       id="path41"
       d="m -5.7656,13.5625 q 1.7031,0.3594 2.6562,1.5078 0.9532,1.1485 0.9532,2.8359 0,2.5938 -1.7813,4.0157 -1.7813,1.4219 -5.0625,1.4219 -1.0938,0 -2.2578,-0.2188 -1.1641,-0.2188 -2.4141,-0.6562 l 0,-2.2813 q 0.9844,0.5781 2.1563,0.8672 1.1718,0.2891 2.4531,0.2891 2.2187,0 3.3906,-0.875 1.1719,-0.875 1.1719,-2.5626 0,-1.5468 -1.0859,-2.414 -1.086,-0.8672 -3.0235,-0.8672 l -2.0312,0 0,-1.9531 2.125,0 q 1.75,0 2.6718,-0.6953 0.9219,-0.6954 0.9219,-2.0078 0,-1.3438 -0.9531,-2.0704 -0.9531,-0.7265 -2.7344,-0.7265 -0.9687,0 -2.0859,0.2109 -1.1172,0.211 -2.4453,0.6641 l 0,-2.1094 q 1.3437,-0.375 2.5234,-0.5625 1.1797,-0.1875 2.2266,-0.1875 2.6875,0 4.2578,1.2266 1.5703,1.2265 1.5703,3.3047 0,1.4531 -0.8281,2.4531 -0.8282,1 -2.375,1.3906 z m 13.1601,-6.5 q -1.8281,0 -2.7422,1.7969 -0.914,1.7968 -0.914,5.4062 0,3.5938 0.914,5.3985 0.9141,1.8047 2.7422,1.8047 1.8438,0 2.7657,-1.8047 0.9218,-1.8047 0.9218,-5.3985 0,-3.6094 -0.9218,-5.4062 Q 9.2383,7.0625 7.3945,7.0625 z m 0,-1.875 q 2.9532,0 4.5,2.3281 1.5469,2.3282 1.5469,6.75 0,4.4219 -1.5469,6.75 -1.5468,2.3282 -4.5,2.3282 -2.9375,0 -4.4922,-2.3282 -1.5546,-2.3281 -1.5546,-6.75 0,-4.4218 1.5546,-6.75 Q 4.457,5.1875 7.3945,5.1875 z"
       style="stroke:none" />
  </g>
  <g
     id="g43"
     style="font-size:24px;fill:#262626;stroke:#262626;font-family:SansSerif"
     transform="translate(199,520.5327)">
    <path
       inkscape:connector-curvature="0"
       id="path45"
       d="m -6.4219,7.5625 -5.9843,9.3437 5.9843,0 0,-9.3437 z M -7.0469,5.5 l 2.9688,0 0,11.4062 2.5,0 0,1.9688 -2.5,0 0,4.125 -2.3438,0 0,-4.125 -7.9062,0 0,-2.2812 L -7.0469,5.5 z M 7.3945,7.0625 q -1.8281,0 -2.7422,1.7969 -0.914,1.7968 -0.914,5.4062 0,3.5938 0.914,5.3985 0.9141,1.8047 2.7422,1.8047 1.8438,0 2.7657,-1.8047 0.9218,-1.8047 0.9218,-5.3985 0,-3.6094 -0.9218,-5.4062 Q 9.2383,7.0625 7.3945,7.0625 z m 0,-1.875 q 2.9532,0 4.5,2.3281 1.5469,2.3282 1.5469,6.75 0,4.4219 -1.5469,6.75 -1.5468,2.3282 -4.5,2.3282 -2.9375,0 -4.4922,-2.3282 -1.5546,-2.3281 -1.5546,-6.75 0,-4.4218 1.5546,-6.75 Q 4.457,5.1875 7.3945,5.1875 z"
       style="stroke:none" />
  </g>
  <g
     id="g47"
     style="font-size:24px;fill:#262626;stroke:#262626;font-family:SansSerif"
     transform="translate(298,520.5327)">
    <path
       inkscape:connector-curvature="0"
       id="path49"
       d="m -12.9062,5.5 9.2968,0 0,2 -7.125,0 0,4.2812 q 0.5156,-0.1718 1.0313,-0.2578 0.5156,-0.0859 1.0312,-0.0859 2.9219,0 4.6328,1.6016 1.711,1.6015 1.711,4.3515 0,2.8125 -1.7578,4.3828 -1.7579,1.5704 -4.961,1.5704 -1.0937,0 -2.2343,-0.1876 -1.1407,-0.1874 -2.3594,-0.5624 l 0,-2.3907 q 1.0468,0.5781 2.1718,0.8594 1.125,0.2813 2.375,0.2813 2.0313,0 3.2188,-1.0626 1.1875,-1.0624 1.1875,-2.8906 0,-1.8281 -1.1875,-2.8984 -1.1875,-1.0703 -3.2188,-1.0703 -0.9374,0 -1.8828,0.2109 -0.9453,0.211 -1.9296,0.6641 l 0,-8.7969 z M 7.3945,7.0625 q -1.8281,0 -2.7422,1.7969 -0.914,1.7968 -0.914,5.4062 0,3.5938 0.914,5.3985 0.9141,1.8047 2.7422,1.8047 1.8438,0 2.7657,-1.8047 0.9218,-1.8047 0.9218,-5.3985 0,-3.6094 -0.9218,-5.4062 Q 9.2383,7.0625 7.3945,7.0625 z m 0,-1.875 q 2.9532,0 4.5,2.3281 1.5469,2.3282 1.5469,6.75 0,4.4219 -1.5469,6.75 -1.5468,2.3282 -4.5,2.3282 -2.9375,0 -4.4922,-2.3282 -1.5546,-2.3281 -1.5546,-6.75 0,-4.4218 1.5546,-6.75 Q 4.457,5.1875 7.3945,5.1875 z"
       style="stroke:none" />
  </g>
  <g
     id="g51"
     style="font-size:24px;fill:#262626;stroke:#262626;font-family:SansSerif"
     transform="translate(397,520.5327)">
    <path
       inkscape:connector-curvature="0"
       id="path53"
       d="m -7.5781,13.3125 q -1.5938,0 -2.5235,1.0859 -0.9296,1.086 -0.9296,2.9922 0,1.875 0.9296,2.9766 0.9297,1.1016 2.5235,1.1016 1.5937,0 2.5234,-1.1016 0.9297,-1.1016 0.9297,-2.9766 0,-1.9062 -0.9297,-2.9922 -0.9297,-1.0859 -2.5234,-1.0859 z m 4.7031,-7.4219 0,2.1563 Q -3.7656,7.625 -4.6719,7.3984 -5.5781,7.1719 -6.4688,7.1719 q -2.3437,0 -3.5859,1.5859 -1.2422,1.586 -1.4141,4.7891 0.6876,-1.0313 1.7344,-1.5703 1.0469,-0.5391 2.2969,-0.5391 2.6406,0 4.1719,1.5937 1.5312,1.5938 1.5312,4.3594 0,2.6875 -1.5937,4.3203 -1.5938,1.6329 -4.25,1.6329 -3.0313,0 -4.6407,-2.3282 -1.6093,-2.3281 -1.6093,-6.75 0,-4.1406 1.9687,-6.6094 1.9688,-2.4687 5.2969,-2.4687 0.8906,0 1.7969,0.1719 0.9062,0.1718 1.8906,0.5312 z M 7.3945,7.0625 q -1.8281,0 -2.7422,1.7969 -0.914,1.7968 -0.914,5.4062 0,3.5938 0.914,5.3985 0.9141,1.8047 2.7422,1.8047 1.8438,0 2.7657,-1.8047 0.9218,-1.8047 0.9218,-5.3985 0,-3.6094 -0.9218,-5.4062 Q 9.2383,7.0625 7.3945,7.0625 z m 0,-1.875 q 2.9532,0 4.5,2.3281 1.5469,2.3282 1.5469,6.75 0,4.4219 -1.5469,6.75 -1.5468,2.3282 -4.5,2.3282 -2.9375,0 -4.4922,-2.3282 -1.5546,-2.3281 -1.5546,-6.75 0,-4.4218 1.5546,-6.75 Q 4.457,5.1875 7.3945,5.1875 z"
       style="stroke:none" />
  </g>
  <g
     id="g55"
     style="font-size:24px;fill:#262626;stroke:#262626;font-family:SansSerif"
     transform="translate(496,520.5327)">
    <path
       inkscape:connector-curvature="0"
       id="path57"
       d="m -13.5312,5.5 11.25,0 0,1.0156 L -8.625,23 l -2.4844,0 5.9844,-15.5 -8.4062,0 0,-2 z M 7.3945,7.0625 q -1.8281,0 -2.7422,1.7969 -0.914,1.7968 -0.914,5.4062 0,3.5938 0.914,5.3985 0.9141,1.8047 2.7422,1.8047 1.8438,0 2.7657,-1.8047 0.9218,-1.8047 0.9218,-5.3985 0,-3.6094 -0.9218,-5.4062 Q 9.2383,7.0625 7.3945,7.0625 z m 0,-1.875 q 2.9532,0 4.5,2.3281 1.5469,2.3282 1.5469,6.75 0,4.4219 -1.5469,6.75 -1.5468,2.3282 -4.5,2.3282 -2.9375,0 -4.4922,-2.3282 -1.5546,-2.3281 -1.5546,-6.75 0,-4.4218 1.5546,-6.75 Q 4.457,5.1875 7.3945,5.1875 z"
       style="stroke:none" />
  </g>
  <g
     id="g59"
     style="font-size:24px;fill:#262626;stroke:#262626;font-family:SansSerif"
     transform="translate(595,520.5327)">
    <path
       inkscape:connector-curvature="0"
       id="path61"
       d="m -7.875,14.6875 q -1.6875,0 -2.6484,0.9063 -0.961,0.9062 -0.961,2.4843 0,1.5781 0.961,2.4844 0.9609,0.9063 2.6484,0.9063 1.6875,0 2.6641,-0.9141 0.9765,-0.9141 0.9765,-2.4766 0,-1.5781 -0.9687,-2.4843 -0.9688,-0.9063 -2.6719,-0.9063 z m -2.3594,-1 q -1.5312,-0.375 -2.375,-1.4219 -0.8437,-1.0468 -0.8437,-2.5468 0,-2.0938 1.4922,-3.3126 1.4921,-1.2187 4.0859,-1.2187 2.625,0 4.1094,1.2187 1.4844,1.2188 1.4844,3.3126 0,1.5 -0.8516,2.5468 -0.8516,1.0469 -2.3516,1.4219 1.7032,0.3906 2.6563,1.5547 0.9531,1.164 0.9531,2.8359 0,2.5469 -1.5469,3.9063 -1.5469,1.3594 -4.4531,1.3594 -2.8906,0 -4.4453,-1.3594 -1.5547,-1.3594 -1.5547,-3.9063 0,-1.6719 0.9609,-2.8359 0.961,-1.1641 2.6797,-1.5547 z m -0.875,-3.75 q 0,1.3594 0.8516,2.125 0.8516,0.7656 2.3828,0.7656 1.5312,0 2.3906,-0.7656 0.8594,-0.7656 0.8594,-2.125 0,-1.3594 -0.8594,-2.1172 -0.8594,-0.7578 -2.3906,-0.7578 -1.5312,0 -2.3828,0.7578 -0.8516,0.7578 -0.8516,2.1172 z M 7.3945,7.0625 q -1.8281,0 -2.7422,1.7969 -0.914,1.7968 -0.914,5.4062 0,3.5938 0.914,5.3985 0.9141,1.8047 2.7422,1.8047 1.8438,0 2.7657,-1.8047 0.9218,-1.8047 0.9218,-5.3985 0,-3.6094 -0.9218,-5.4062 Q 9.2383,7.0625 7.3945,7.0625 z m 0,-1.875 q 2.9532,0 4.5,2.3281 1.5469,2.3282 1.5469,6.75 0,4.4219 -1.5469,6.75 -1.5468,2.3282 -4.5,2.3282 -2.9375,0 -4.4922,-2.3282 -1.5546,-2.3281 -1.5546,-6.75 0,-4.4218 1.5546,-6.75 Q 4.457,5.1875 7.3945,5.1875 z"
       style="stroke:none" />
  </g>
  <g
     id="g63"
     style="font-size:24px;fill:#262626;stroke:#262626;font-family:SansSerif"
     transform="translate(694,520.5327)">
    <path
       inkscape:connector-curvature="0"
       id="path65"
       d="m -12.8594,22.6406 0,-2.1562 q 0.8906,0.4218 1.8047,0.6406 0.9141,0.2188 1.7891,0.2188 2.3437,0 3.5781,-1.5782 1.2344,-1.5781 1.4219,-4.7812 -0.6875,1 -1.7266,1.539 -1.039,0.5391 -2.3047,0.5391 -2.625,0 -4.1562,-1.5859 -1.5313,-1.586 -1.5313,-4.336 0,-2.7031 1.5938,-4.3281 1.5937,-1.625 4.2344,-1.625 3.0468,0 4.6406,2.3281 1.5937,2.3282 1.5937,6.75 0,4.1406 -1.9609,6.6094 -1.961,2.4688 -5.2734,2.4688 -0.8907,0 -1.8047,-0.1797 -0.9141,-0.1797 -1.8985,-0.5235 z m 4.7032,-7.4218 q 1.5937,0 2.5312,-1.0938 0.9375,-1.0938 0.9375,-2.9844 0,-1.8906 -0.9375,-2.9844 -0.9375,-1.0937 -2.5312,-1.0937 -1.5938,0 -2.5235,1.0937 -0.9297,1.0938 -0.9297,2.9844 0,1.8906 0.9297,2.9844 0.9297,1.0938 2.5235,1.0938 z M 7.3945,7.0625 q -1.8281,0 -2.7422,1.7969 -0.914,1.7968 -0.914,5.4062 0,3.5938 0.914,5.3985 0.9141,1.8047 2.7422,1.8047 1.8438,0 2.7657,-1.8047 0.9218,-1.8047 0.9218,-5.3985 0,-3.6094 -0.9218,-5.4062 Q 9.2383,7.0625 7.3945,7.0625 z m 0,-1.875 q 2.9532,0 4.5,2.3281 1.5469,2.3282 1.5469,6.75 0,4.4219 -1.5469,6.75 -1.5468,2.3282 -4.5,2.3282 -2.9375,0 -4.4922,-2.3282 -1.5546,-2.3281 -1.5546,-6.75 0,-4.4218 1.5546,-6.75 Q 4.457,5.1875 7.3945,5.1875 z"
       style="stroke:none" />
  </g>
  <g
     id="g67"
     style="font-size:24px;font-family:SansSerif"
     transform="translate(397.0003,550.866)">
    <text
       xml:space="preserve"
       style="font-size:25.43911171px;font-style:normal;font-weight:normal;line-height:125%;letter-spacing:0px;word-spacing:0px;fill:#000000;fill-opacity:1;stroke:none;font-family:Sans"
       x="-126.89844"
       y="22.260612"
       id="text3422"
       sodipodi:linespacing="125%"><tspan
         sodipodi:role="line"
         id="tspan3424"
         x="-126.89844"
         y="22.260612">% of observed data</tspan></text>
  </g>
  <g
     id="g71"
     style="fill:#262626;stroke:#262626;stroke-width:0.66670001;stroke-linejoin:round">
    <line
       id="line73"
       y1="513"
       x2="100"
       x1="100"
       style="fill:none"
       y2="43" />
    <line
       id="line75"
       y1="513"
       x2="105.94"
       x1="100"
       style="fill:none"
       y2="513" />
    <line
       id="line77"
       y1="434.66669"
       x2="105.94"
       x1="100"
       style="fill:none"
       y2="434.66669" />
    <line
       id="line79"
       y1="356.33331"
       x2="105.94"
       x1="100"
       style="fill:none"
       y2="356.33331" />
    <line
       id="line81"
       y1="278"
       x2="105.94"
       x1="100"
       style="fill:none"
       y2="278" />
    <line
       id="line83"
       y1="199.6667"
       x2="105.94"
       x1="100"
       style="fill:none"
       y2="199.6667" />
    <line
       id="line85"
       y1="121.3333"
       x2="105.94"
       x1="100"
       style="fill:none"
       y2="121.3333" />
    <line
       id="line87"
       y1="43"
       x2="105.94"
       x1="100"
       style="fill:none"
       y2="43" />
  </g>
  <g
     id="g89"
     style="font-size:24px;fill:#262626;stroke:#262626;font-family:SansSerif"
     transform="translate(92.4673,513)">
    <path
       inkscape:connector-curvature="0"
       id="path91"
       d="m -31.375,-7.4375 q -1.8281,0 -2.7422,1.7969 -0.914,1.7968 -0.914,5.4062 0,3.5938 0.914,5.3985 0.9141,1.8047 2.7422,1.8047 1.8438,0 2.7656,-1.8047 0.9219,-1.8047 0.9219,-5.3985 0,-3.6094 -0.9219,-5.4062 -0.9218,-1.7969 -2.7656,-1.7969 z m 0,-1.875 q 2.9531,0 4.5,2.3281 1.5469,2.3282 1.5469,6.75 0,4.4219 -1.5469,6.75 -1.5469,2.3282 -4.5,2.3282 -2.9375,0 -4.4922,-2.3282 -1.5547,-2.3281 -1.5547,-6.75 0,-4.4218 1.5547,-6.75 1.5547,-2.3281 4.4922,-2.3281 z m 10.207,14.8281 2.4844,0 0,2.9844 -2.4844,0 0,-2.9844 z m 8.0508,0.9844 3.8594,0 0,-13.3438 -4.2031,0.8438 0,-2.1562 4.1875,-0.8438 2.3593,0 0,15.5 3.875,0 0,2 -10.0781,0 0,-2 z"
       style="stroke:none" />
  </g>
  <g
     id="g93"
     style="font-size:24px;fill:#262626;stroke:#262626;font-family:SansSerif"
     transform="translate(92.4673,434.6667)">
    <path
       inkscape:connector-curvature="0"
       id="path95"
       d="m -31.375,-7.4375 q -1.8281,0 -2.7422,1.7969 -0.914,1.7968 -0.914,5.4062 0,3.5938 0.914,5.3985 0.9141,1.8047 2.7422,1.8047 1.8438,0 2.7656,-1.8047 0.9219,-1.8047 0.9219,-5.3985 0,-3.6094 -0.9219,-5.4062 -0.9218,-1.7969 -2.7656,-1.7969 z m 0,-1.875 q 2.9531,0 4.5,2.3281 1.5469,2.3282 1.5469,6.75 0,4.4219 -1.5469,6.75 -1.5469,2.3282 -4.5,2.3282 -2.9375,0 -4.4922,-2.3282 -1.5547,-2.3281 -1.5547,-6.75 0,-4.4218 1.5547,-6.75 1.5547,-2.3281 4.4922,-2.3281 z m 10.207,14.8281 2.4844,0 0,2.9844 -2.4844,0 0,-2.9844 z m 9.6758,0.9844 8.2656,0 0,2 -11.1093,0 0,-2 q 1.3437,-1.3906 3.6718,-3.7422 2.3282,-2.3516 2.9219,-3.0234 1.1406,-1.2813 1.586,-2.1641 0.4453,-0.8828 0.4453,-1.7422 0,-1.3906 -0.9766,-2.2734 -0.9766,-0.8828 -2.5391,-0.8828 -1.125,0 -2.3593,0.3906 -1.2344,0.3906 -2.6407,1.1719 l 0,-2.3906 q 1.4375,-0.5782 2.6797,-0.8672 1.2422,-0.2891 2.2735,-0.2891 2.7187,0 4.3359,1.3594 1.6172,1.3593 1.6172,3.625 0,1.0781 -0.4063,2.0469 Q -4.1328,-1.3125 -5.1953,0 -5.4922,0.3438 -7.0625,1.9688 -8.6328,3.5938 -11.4922,6.5 z"
       style="stroke:none" />
  </g>
  <g
     id="g97"
     style="font-size:24px;fill:#262626;stroke:#262626;font-family:SansSerif"
     transform="translate(92.4673,356.3333)">
    <path
       inkscape:connector-curvature="0"
       id="path99"
       d="m -31.375,-7.4375 q -1.8281,0 -2.7422,1.7969 -0.914,1.7968 -0.914,5.4062 0,3.5938 0.914,5.3985 0.9141,1.8047 2.7422,1.8047 1.8438,0 2.7656,-1.8047 0.9219,-1.8047 0.9219,-5.3985 0,-3.6094 -0.9219,-5.4062 -0.9218,-1.7969 -2.7656,-1.7969 z m 0,-1.875 q 2.9531,0 4.5,2.3281 1.5469,2.3282 1.5469,6.75 0,4.4219 -1.5469,6.75 -1.5469,2.3282 -4.5,2.3282 -2.9375,0 -4.4922,-2.3282 -1.5547,-2.3281 -1.5547,-6.75 0,-4.4218 1.5547,-6.75 1.5547,-2.3281 4.4922,-2.3281 z m 10.207,14.8281 2.4844,0 0,2.9844 -2.4844,0 0,-2.9844 z m 14.8008,-6.4531 q 1.7031,0.3594 2.6563,1.5078 0.9531,1.1485 0.9531,2.8359 0,2.5938 -1.7813,4.0157 -1.7812,1.4219 -5.0625,1.4219 -1.0937,0 -2.2578,-0.2188 -1.164,-0.2188 -2.414,-0.6562 l 0,-2.2813 q 0.9843,0.5781 2.1562,0.8672 1.1719,0.2891 2.4531,0.2891 2.2188,0 3.3907,-0.875 1.1718,-0.875 1.1718,-2.5626 0,-1.5468 -1.0859,-2.414 Q -7.2734,0.125 -9.2109,0.125 l -2.0313,0 0,-1.9531 2.125,0 q 1.75,0 2.6719,-0.6953 0.9219,-0.6954 0.9219,-2.0078 0,-1.3438 -0.9532,-2.0704 -0.9531,-0.7265 -2.7343,-0.7265 -0.9688,0 -2.086,0.2109 -1.1172,0.211 -2.4453,0.6641 l 0,-2.1094 q 1.3438,-0.375 2.5234,-0.5625 1.1797,-0.1875 2.2266,-0.1875 2.6875,0 4.2578,1.2266 1.5703,1.2265 1.5703,3.3047 0,1.4531 -0.8281,2.4531 -0.8281,1 -2.375,1.3906 z"
       style="stroke:none" />
  </g>
  <g
     id="g101"
     style="font-size:24px;fill:#262626;stroke:#262626;font-family:SansSerif"
     transform="translate(92.4673,278)">
    <path
       inkscape:connector-curvature="0"
       id="path103"
       d="m -31.375,-7.4375 q -1.8281,0 -2.7422,1.7969 -0.914,1.7968 -0.914,5.4062 0,3.5938 0.914,5.3985 0.9141,1.8047 2.7422,1.8047 1.8438,0 2.7656,-1.8047 0.9219,-1.8047 0.9219,-5.3985 0,-3.6094 -0.9219,-5.4062 -0.9218,-1.7969 -2.7656,-1.7969 z m 0,-1.875 q 2.9531,0 4.5,2.3281 1.5469,2.3282 1.5469,6.75 0,4.4219 -1.5469,6.75 -1.5469,2.3282 -4.5,2.3282 -2.9375,0 -4.4922,-2.3282 -1.5547,-2.3281 -1.5547,-6.75 0,-4.4218 1.5547,-6.75 1.5547,-2.3281 4.4922,-2.3281 z m 10.207,14.8281 2.4844,0 0,2.9844 -2.4844,0 0,-2.9844 z m 14.1446,-12.4531 -5.9844,9.3437 5.9844,0 0,-9.3437 z M -7.6484,-9 l 2.9687,0 0,11.4062 2.5,0 0,1.9688 -2.5,0 0,4.125 -2.3437,0 0,-4.125 -7.9063,0 0,-2.2812 L -7.6484,-9 z"
       style="stroke:none" />
  </g>
  <g
     id="g105"
     style="font-size:24px;fill:#262626;stroke:#262626;font-family:SansSerif"
     transform="translate(92.4673,199.6667)">
    <path
       inkscape:connector-curvature="0"
       id="path107"
       d="m -31.375,-7.4375 q -1.8281,0 -2.7422,1.7969 -0.914,1.7968 -0.914,5.4062 0,3.5938 0.914,5.3985 0.9141,1.8047 2.7422,1.8047 1.8438,0 2.7656,-1.8047 0.9219,-1.8047 0.9219,-5.3985 0,-3.6094 -0.9219,-5.4062 -0.9218,-1.7969 -2.7656,-1.7969 z m 0,-1.875 q 2.9531,0 4.5,2.3281 1.5469,2.3282 1.5469,6.75 0,4.4219 -1.5469,6.75 -1.5469,2.3282 -4.5,2.3282 -2.9375,0 -4.4922,-2.3282 -1.5547,-2.3281 -1.5547,-6.75 0,-4.4218 1.5547,-6.75 1.5547,-2.3281 4.4922,-2.3281 z m 10.207,14.8281 2.4844,0 0,2.9844 -2.4844,0 0,-2.9844 z M -13.5078,-9 l 9.2969,0 0,2 -7.125,0 0,4.2812 q 0.5156,-0.1718 1.0312,-0.2578 0.5156,-0.0859 1.0313,-0.0859 2.9218,0 4.6328,1.6016 1.7109,1.6015 1.7109,4.3515 0,2.8125 -1.7578,4.3828 -1.7578,1.5704 -4.9609,1.5704 -1.0938,0 -2.2344,-0.1876 -1.1406,-0.1874 -2.3594,-0.5624 l 0,-2.3907 q 1.0469,0.5781 2.1719,0.8594 1.125,0.2813 2.375,0.2813 2.0312,0 3.2187,-1.0626 1.1875,-1.0624 1.1875,-2.8906 0,-1.8281 -1.1875,-2.8984 -1.1875,-1.0703 -3.2187,-1.0703 -0.9375,0 -1.8828,0.2109 -0.9453,0.211 -1.9297,0.6641 l 0,-8.7969 z"
       style="stroke:none" />
  </g>
  <g
     id="g109"
     style="font-size:24px;fill:#262626;stroke:#262626;font-family:SansSerif"
     transform="translate(92.4673,121.3333)">
    <path
       inkscape:connector-curvature="0"
       id="path111"
       d="m -31.375,-7.4375 q -1.8281,0 -2.7422,1.7969 -0.914,1.7968 -0.914,5.4062 0,3.5938 0.914,5.3985 0.9141,1.8047 2.7422,1.8047 1.8438,0 2.7656,-1.8047 0.9219,-1.8047 0.9219,-5.3985 0,-3.6094 -0.9219,-5.4062 -0.9218,-1.7969 -2.7656,-1.7969 z m 0,-1.875 q 2.9531,0 4.5,2.3281 1.5469,2.3282 1.5469,6.75 0,4.4219 -1.5469,6.75 -1.5469,2.3282 -4.5,2.3282 -2.9375,0 -4.4922,-2.3282 -1.5547,-2.3281 -1.5547,-6.75 0,-4.4218 1.5547,-6.75 1.5547,-2.3281 4.4922,-2.3281 z m 10.207,14.8281 2.4844,0 0,2.9844 -2.4844,0 0,-2.9844 z m 12.9883,-6.7031 q -1.5937,0 -2.5234,1.0859 -0.9297,1.086 -0.9297,2.9922 0,1.875 0.9297,2.9766 0.9297,1.1016 2.5234,1.1016 1.5938,0 2.5235,-1.1016 0.9296,-1.1016 0.9296,-2.9766 0,-1.9062 -0.9296,-2.9922 -0.9297,-1.0859 -2.5235,-1.0859 z m 4.7031,-7.4219 0,2.1563 q -0.8906,-0.4219 -1.7968,-0.6485 -0.9063,-0.2265 -1.7969,-0.2265 -2.3438,0 -3.5859,1.5859 -1.2422,1.586 -1.4141,4.7891 0.6875,-1.0313 1.7344,-1.5703 1.0468,-0.5391 2.2968,-0.5391 2.6407,0 4.1719,1.5937 1.5313,1.5938 1.5313,4.3594 0,2.6875 -1.5938,4.3203 -1.5937,1.6329 -4.25,1.6329 -3.0312,0 -4.6406,-2.3282 -1.6094,-2.3281 -1.6094,-6.75 0,-4.1406 1.9688,-6.6094 1.9687,-2.4687 5.2968,-2.4687 0.8907,0 1.7969,0.1719 0.9063,0.1718 1.8906,0.5312 z"
       style="stroke:none" />
  </g>
  <g
     id="g113"
     style="font-size:24px;fill:#262626;stroke:#262626;font-family:SansSerif"
     transform="translate(92.4673,43)">
    <path
       inkscape:connector-curvature="0"
       id="path115"
       d="m -31.375,-7.4375 q -1.8281,0 -2.7422,1.7969 -0.914,1.7968 -0.914,5.4062 0,3.5938 0.914,5.3985 0.9141,1.8047 2.7422,1.8047 1.8438,0 2.7656,-1.8047 0.9219,-1.8047 0.9219,-5.3985 0,-3.6094 -0.9219,-5.4062 -0.9218,-1.7969 -2.7656,-1.7969 z m 0,-1.875 q 2.9531,0 4.5,2.3281 1.5469,2.3282 1.5469,6.75 0,4.4219 -1.5469,6.75 -1.5469,2.3282 -4.5,2.3282 -2.9375,0 -4.4922,-2.3282 -1.5547,-2.3281 -1.5547,-6.75 0,-4.4218 1.5547,-6.75 1.5547,-2.3281 4.4922,-2.3281 z m 10.207,14.8281 2.4844,0 0,2.9844 -2.4844,0 0,-2.9844 z M -14.1328,-9 l 11.25,0 0,1.0156 -6.3438,16.4844 -2.4843,0 5.9843,-15.5 -8.4062,0 0,-2 z"
       style="stroke:none" />
  </g>
  <g
     id="g121"
     style="fill:#ff0000;stroke:#ff0000;stroke-width:2.66669989;stroke-linecap:butt;stroke-linejoin:round">
    <path
       inkscape:connector-curvature="0"
       id="path123"
       style="fill:none"
       d="m 100,206.2831 99,93.5981 99,-12.5353 99,-25.4603 99,43.2383 99,89.1815 99,71.8632" />
    <line
       id="line125"
       y1="206.5"
       x2="105"
       x1="96"
       style="fill:none"
       y2="206.5" />
    <line
       id="line127"
       y1="211"
       x2="100.5"
       x1="100.5"
       style="fill:none"
       y2="202" />
    <line
       id="line129"
       y1="299.5"
       x2="203"
       x1="194"
       style="fill:none"
       y2="299.5" />
    <line
       id="line131"
       y1="304"
       x2="198.5"
       x1="198.5"
       style="fill:none"
       y2="295" />
    <line
       id="line133"
       y1="287.5"
       x2="302"
       x1="293"
       style="fill:none"
       y2="287.5" />
    <line
       id="line135"
       y1="292"
       x2="297.5"
       x1="297.5"
       style="fill:none"
       y2="283" />
    <line
       id="line137"
       y1="261.5"
       x2="402"
       x1="393"
       style="fill:none"
       y2="261.5" />
    <line
       id="line139"
       y1="266"
       x2="397.5"
       x1="397.5"
       style="fill:none"
       y2="257" />
    <line
       id="line141"
       y1="305.5"
       x2="501"
       x1="492"
       style="fill:none"
       y2="305.5" />
    <line
       id="line143"
       y1="310"
       x2="496.5"
       x1="496.5"
       style="fill:none"
       y2="301" />
    <line
       id="line145"
       y1="394.5"
       x2="600"
       x1="591"
       style="fill:none"
       y2="394.5" />
    <line
       id="line147"
       y1="399"
       x2="595.5"
       x1="595.5"
       style="fill:none"
       y2="390" />
    <line
       id="line149"
       y1="466.5"
       x2="699"
       x1="690"
       style="fill:none"
       y2="466.5" />
    <line
       id="line151"
       y1="471"
       x2="694.5"
       x1="694.5"
       style="fill:none"
       y2="462" />
    <path
       inkscape:connector-curvature="0"
       id="path153"
       style="fill:none;stroke:#0000ff"
       d="m 100,114.1267 99,177.0333 99,-3.8383 99,51.935 99,25.5366 99,43.3184 99,59.2983" />
    <line
       id="line155"
       y2="114.5"
       style="fill:none;stroke:#0000ff"
       y1="114.5"
       x2="105"
       x1="96" />
    <line
       id="line157"
       y2="110"
       style="fill:none;stroke:#0000ff"
       y1="119"
       x2="100.5"
       x1="100.5" />
    <line
       id="line159"
       y2="291.5"
       style="fill:none;stroke:#0000ff"
       y1="291.5"
       x2="203"
       x1="194" />
    <line
       id="line161"
       y2="287"
       style="fill:none;stroke:#0000ff"
       y1="296"
       x2="198.5"
       x1="198.5" />
    <line
       id="line163"
       y2="287.5"
       style="fill:none;stroke:#0000ff"
       y1="287.5"
       x2="302"
       x1="293" />
    <line
       id="line165"
       y2="283"
       style="fill:none;stroke:#0000ff"
       y1="292"
       x2="297.5"
       x1="297.5" />
    <line
       id="line167"
       y2="339.5"
       style="fill:none;stroke:#0000ff"
       y1="339.5"
       x2="402"
       x1="393" />
    <line
       id="line169"
       y2="335"
       style="fill:none;stroke:#0000ff"
       y1="344"
       x2="397.5"
       x1="397.5" />
    <line
       id="line171"
       y2="364.5"
       style="fill:none;stroke:#0000ff"
       y1="364.5"
       x2="501"
       x1="492" />
    <line
       id="line173"
       y2="360"
       style="fill:none;stroke:#0000ff"
       y1="369"
       x2="496.5"
       x1="496.5" />
    <line
       id="line175"
       y2="408.5"
       style="fill:none;stroke:#0000ff"
       y1="408.5"
       x2="600"
       x1="591" />
    <line
       id="line177"
       y2="404"
       style="fill:none;stroke:#0000ff"
       y1="413"
       x2="595.5"
       x1="595.5" />
    <line
       id="line179"
       y2="467.5"
       style="fill:none;stroke:#0000ff"
       y1="467.5"
       x2="699"
       x1="690" />
    <line
       id="line181"
       y2="463"
       style="fill:none;stroke:#0000ff"
       y1="472"
       x2="694.5"
       x1="694.5" />
    <path
       inkscape:connector-curvature="0"
       id="path183"
       style="fill:none;stroke:#00ff00"
       d="m 100,101.515 99,172.1767 99,33.605 99,-18.2517 99,63.9983 99,38.9317 99,50.8383" />
    <line
       id="line185"
       y2="101.5"
       style="fill:none;stroke:#00ff00"
       y1="101.5"
       x2="105"
       x1="96" />
    <line
       id="line187"
       y2="97"
       style="fill:none;stroke:#00ff00"
       y1="106"
       x2="100.5"
       x1="100.5" />
    <line
       id="line189"
       y2="273.5"
       style="fill:none;stroke:#00ff00"
       y1="273.5"
       x2="203"
       x1="194" />
    <line
       id="line191"
       y2="269"
       style="fill:none;stroke:#00ff00"
       y1="278"
       x2="198.5"
       x1="198.5" />
    <line
       id="line193"
       y2="307.5"
       style="fill:none;stroke:#00ff00"
       y1="307.5"
       x2="302"
       x1="293" />
    <line
       id="line195"
       y2="303"
       style="fill:none;stroke:#00ff00"
       y1="312"
       x2="297.5"
       x1="297.5" />
    <line
       id="line197"
       y2="289.5"
       style="fill:none;stroke:#00ff00"
       y1="289.5"
       x2="402"
       x1="393" />
    <line
       id="line199"
       y2="285"
       style="fill:none;stroke:#00ff00"
       y1="294"
       x2="397.5"
       x1="397.5" />
    <line
       id="line201"
       y2="353.5"
       style="fill:none;stroke:#00ff00"
       y1="353.5"
       x2="501"
       x1="492" />
    <line
       id="line203"
       y2="349"
       style="fill:none;stroke:#00ff00"
       y1="358"
       x2="496.5"
       x1="496.5" />
    <line
       id="line205"
       y2="391.5"
       style="fill:none;stroke:#00ff00"
       y1="391.5"
       x2="600"
       x1="591" />
    <line
       id="line207"
       y2="387"
       style="fill:none;stroke:#00ff00"
       y1="396"
       x2="595.5"
       x1="595.5" />
    <line
       id="line209"
       y2="442.5"
       style="fill:none;stroke:#00ff00"
       y1="442.5"
       x2="699"
       x1="690" />
    <line
       id="line211"
       y2="438"
       style="fill:none;stroke:#00ff00"
       y1="447"
       x2="694.5"
       x1="694.5" />
    <path
       inkscape:connector-curvature="0"
       id="path213"
       style="fill:none;stroke:#000000"
       d="m 100,87.5926 99,1.4095 99,96.3805 99,12.1617 99,42.4544 99,89.2198 99,50.8504" />
    <line
       id="line215"
       y2="87.5"
       style="fill:none;stroke:#000000"
       y1="87.5"
       x2="105"
       x1="96" />
    <line
       id="line217"
       y2="83"
       style="fill:none;stroke:#000000"
       y1="92"
       x2="100.5"
       x1="100.5" />
    <line
       id="line219"
       y2="89.5"
       style="fill:none;stroke:#000000"
       y1="89.5"
       x2="203"
       x1="194" />
    <line
       id="line221"
       y2="85"
       style="fill:none;stroke:#000000"
       y1="94"
       x2="198.5"
       x1="198.5" />
    <line
       id="line223"
       y2="185.5"
       style="fill:none;stroke:#000000"
       y1="185.5"
       x2="302"
       x1="293" />
    <line
       id="line225"
       y2="181"
       style="fill:none;stroke:#000000"
       y1="190"
       x2="297.5"
       x1="297.5" />
    <line
       id="line227"
       y2="197.5"
       style="fill:none;stroke:#000000"
       y1="197.5"
       x2="402"
       x1="393" />
    <line
       id="line229"
       y2="193"
       style="fill:none;stroke:#000000"
       y1="202"
       x2="397.5"
       x1="397.5" />
    <line
       id="line231"
       y2="239.5"
       style="fill:none;stroke:#000000"
       y1="239.5"
       x2="501"
       x1="492" />
    <line
       id="line233"
       y2="235"
       style="fill:none;stroke:#000000"
       y1="244"
       x2="496.5"
       x1="496.5" />
    <line
       id="line235"
       y2="329.5"
       style="fill:none;stroke:#000000"
       y1="329.5"
       x2="600"
       x1="591" />
    <line
       id="line237"
       y2="325"
       style="fill:none;stroke:#000000"
       y1="334"
       x2="595.5"
       x1="595.5" />
    <line
       id="line239"
       y2="380.5"
       style="fill:none;stroke:#000000"
       y1="380.5"
       x2="699"
       x1="690" />
    <line
       id="line241"
       y2="376"
       style="fill:none;stroke:#000000"
       y1="385"
       x2="694.5"
       x1="694.5" />
  </g>
  <g
     id="g243"
     style="fill:#ffffff;stroke:#ffffff">
    <path
       inkscape:connector-curvature="0"
       id="path245"
       d="m 114,486 0,-122 285,0 0,122 z"
       style="stroke:none" />
  </g>
  <g
     id="g247"
     style="font-size:24px;font-family:SansSerif"
     transform="translate(151,380.5679)">
    <path
       inkscape:connector-curvature="0"
       id="path249"
       d="m 12.4844,-2.1094 q 0.8125,-1.4531 1.9375,-2.1406 1.125,-0.6875 2.6406,-0.6875 2.0469,0 3.1641,1.4297 1.1172,1.4297 1.1172,4.0859 l 0,7.9219 -2.1719,0 0,-7.8594 q 0,-1.875 -0.6641,-2.789 -0.664,-0.9141 -2.039,-0.9141 -1.6719,0 -2.6485,1.1094 -0.9765,1.1093 -0.9765,3.0312 l 0,7.4219 -2.1719,0 0,-7.8594 q 0,-1.8906 -0.6641,-2.7968 -0.664,-0.9063 -2.0547,-0.9063 -1.6562,0 -2.6328,1.1172 -0.9765,1.1172 -0.9765,3.0234 l 0,7.4219 -2.1563,0 0,-13.125 2.1563,0 0,2.0312 q 0.75,-1.2031 1.7812,-1.7734 1.0312,-0.5703 2.4375,-0.5703 1.4375,0 2.4375,0.7266 1,0.7265 1.4844,2.1015 z m 18.2383,-1 q -1.7344,0 -2.7422,1.3516 -1.0078,1.3516 -1.0078,3.7109 0,2.3438 1.0078,3.7031 1.0078,1.3594 2.7422,1.3594 1.7343,0 2.7421,-1.3594 1.0079,-1.3593 1.0079,-3.7031 0,-2.3437 -1.0079,-3.7031 -1.0078,-1.3594 -2.7421,-1.3594 z m 0,-1.8281 q 2.8125,0 4.4218,1.8281 1.6094,1.8282 1.6094,5.0625 0,3.2188 -1.6094,5.0547 -1.6093,1.836 -4.4218,1.836 -2.8125,0 -4.4141,-1.836 -1.6016,-1.8359 -1.6016,-5.0547 0,-3.2343 1.6016,-5.0625 1.6016,-1.8281 4.4141,-1.8281 z m 18.2461,2.2969 0,-7.0938 2.1562,0 0,18.2344 -2.1562,0 0,-1.9688 q -0.6876,1.1719 -1.7266,1.7422 -1.0391,0.5704 -2.4922,0.5704 -2.375,0 -3.8672,-1.8985 -1.4922,-1.8984 -1.4922,-4.9922 0,-3.0937 1.4922,-4.9922 1.4922,-1.8984 3.8672,-1.8984 1.4531,0 2.4922,0.5625 1.039,0.5625 1.7266,1.7344 z m -7.3594,4.5937 q 0,2.375 0.9844,3.7266 0.9843,1.3515 2.6874,1.3515 1.7188,0 2.7032,-1.3515 0.9844,-1.3516 0.9844,-3.7266 0,-2.3906 -0.9844,-3.7422 Q 47,-3.1406 45.2812,-3.1406 q -1.7031,0 -2.6874,1.3515 -0.9844,1.3516 -0.9844,3.7422 z m 25.1718,-0.5625 0,1.0625 -9.9062,0 q 0.1406,2.2188 1.3438,3.3907 1.2031,1.1718 3.3437,1.1718 1.2344,0 2.4063,-0.3047 1.1718,-0.3047 2.3124,-0.914 l 0,2.0312 q -1.1562,0.5 -2.375,0.7578 -1.2187,0.2579 -2.4687,0.2579 -3.1406,0 -4.9766,-1.8282 -1.8359,-1.8281 -1.8359,-4.9531 0,-3.2187 1.7422,-5.1094 1.7422,-1.8906 4.6953,-1.8906 2.6406,0 4.1797,1.7031 1.539,1.7032 1.539,4.625 z M 64.625,0.7656 Q 64.6094,-1 63.6406,-2.0547 q -0.9687,-1.0547 -2.5625,-1.0547 -1.7969,0 -2.8828,1.0156 -1.0859,1.0157 -1.2578,2.875 L 64.625,0.7656 z m 5.7031,-10.5 2.1563,0 0,18.2344 -2.1563,0 0,-18.2344 z"
       style="stroke:none" />
  </g>
  <g
     id="g251"
     style="fill:#ff0000;stroke:#ff0000;stroke-width:2.66669989;stroke-linecap:butt;stroke-linejoin:round">
    <line
       id="line253"
       y1="380.5679"
       x2="148"
       x1="118"
       style="fill:none"
       y2="380.5679" />
    <line
       id="line255"
       y1="380.5"
       x2="138"
       x1="129"
       style="fill:none"
       y2="380.5" />
    <line
       id="line257"
       y1="385"
       x2="133.5"
       x1="133.5"
       style="fill:none"
       y2="376" />
  </g>
  <g
     id="g259"
     style="font-size:24px;font-family:SansSerif"
     transform="translate(151,410.1893)">
    <path
       inkscape:connector-curvature="0"
       id="path261"
       d="m 12.4844,-2.1094 q 0.8125,-1.4531 1.9375,-2.1406 1.125,-0.6875 2.6406,-0.6875 2.0469,0 3.1641,1.4297 1.1172,1.4297 1.1172,4.0859 l 0,7.9219 -2.1719,0 0,-7.8594 q 0,-1.875 -0.6641,-2.789 -0.664,-0.9141 -2.039,-0.9141 -1.6719,0 -2.6485,1.1094 -0.9765,1.1093 -0.9765,3.0312 l 0,7.4219 -2.1719,0 0,-7.8594 q 0,-1.8906 -0.6641,-2.7968 -0.664,-0.9063 -2.0547,-0.9063 -1.6562,0 -2.6328,1.1172 -0.9765,1.1172 -0.9765,3.0234 l 0,7.4219 -2.1563,0 0,-13.125 2.1563,0 0,2.0312 q 0.75,-1.2031 1.7812,-1.7734 1.0312,-0.5703 2.4375,-0.5703 1.4375,0 2.4375,0.7266 1,0.7265 1.4844,2.1015 z m 19.1289,4.0156 q -2.625,0 -3.6328,0.5938 -1.0078,0.5938 -1.0078,2.0312 0,1.1563 0.7578,1.8282 0.7578,0.6718 2.0547,0.6718 1.7968,0 2.8828,-1.2734 1.0859,-1.2734 1.0859,-3.3828 l 0,-0.4688 -2.1406,0 z m 4.2969,-0.8906 0,7.4844 -2.1563,0 0,-2 q -0.7344,1.2031 -1.8359,1.7734 -1.1016,0.5704 -2.6953,0.5704 -2.0157,0 -3.211,-1.1329 -1.1953,-1.1328 -1.1953,-3.039 0,-2.2031 1.4844,-3.3281 1.4844,-1.125 4.4219,-1.125 l 3.0312,0 0,-0.2188 q 0,-1.4844 -0.9766,-2.2969 -0.9765,-0.8125 -2.7578,-0.8125 -1.125,0 -2.1875,0.2656 -1.0625,0.2657 -2.0468,0.8126 l 0,-2 q 1.1875,-0.4532 2.2968,-0.6797 1.1094,-0.2266 2.1719,-0.2266 2.8438,0 4.25,1.4766 1.4063,1.4765 1.4063,4.4765 z m 15.3476,-5.6406 -4.75,6.3906 5,6.7344 -2.5469,0 -3.8125,-5.1562 -3.8281,5.1562 -2.5469,0 5.1094,-6.875 -4.6719,-6.25 2.5469,0 3.4844,4.6719 3.4687,-4.6719 2.5469,0 z m 3.2969,0 2.1562,0 0,13.125 -2.1562,0 0,-13.125 z m 0,-5.1094 2.1562,0 0,2.7344 -2.1562,0 0,-2.7344 z m 16.8867,7.625 q 0.8125,-1.4531 1.9375,-2.1406 1.125,-0.6875 2.6406,-0.6875 2.0469,0 3.1641,1.4297 1.1172,1.4297 1.1172,4.0859 l 0,7.9219 -2.1719,0 0,-7.8594 q 0,-1.875 -0.6641,-2.789 -0.664,-0.9141 -2.039,-0.9141 -1.6719,0 -2.6485,1.1094 -0.9765,1.1093 -0.9765,3.0312 l 0,7.4219 -2.1719,0 0,-7.8594 q 0,-1.8906 -0.6641,-2.7968 -0.664,-0.9063 -2.0546,-0.9063 -1.6563,0 -2.6329,1.1172 -0.9765,1.1172 -0.9765,3.0234 l 0,7.4219 -2.1563,0 0,-13.125 2.1563,0 0,2.0312 q 0.75,-1.2031 1.7812,-1.7734 1.0313,-0.5703 2.4375,-0.5703 1.4375,0 2.4375,0.7266 1,0.7265 1.4844,2.1015 z m 12.9414,5.4219 0,-7.9375 2.1563,0 0,7.8594 q 0,1.8594 0.7265,2.7968 0.7266,0.9376 2.1797,0.9376 1.7344,0 2.75,-1.1172 1.0156,-1.1172 1.0156,-3.0391 l 0,-7.4375 2.1563,0 0,13.125 -2.1563,0 0,-2.0156 q -0.7812,1.1875 -1.8203,1.7734 -1.039,0.586 -2.414,0.586 -2.25,0 -3.4219,-1.4063 -1.1719,-1.4063 -1.1719,-4.125 z m 25.6484,-5.4219 q 0.8126,-1.4531 1.9376,-2.1406 1.125,-0.6875 2.6406,-0.6875 2.0468,0 3.164,1.4297 1.1172,1.4297 1.1172,4.0859 l 0,7.9219 -2.1718,0 0,-7.8594 q 0,-1.875 -0.6641,-2.789 -0.6641,-0.9141 -2.0391,-0.9141 -1.6718,0 -2.6484,1.1094 -0.9766,1.1093 -0.9766,3.0312 l 0,7.4219 -2.1718,0 0,-7.8594 q 0,-1.8906 -0.6641,-2.7968 -0.6641,-0.9063 -2.0547,-0.9063 -1.6562,0 -2.6328,1.1172 -0.9766,1.1172 -0.9766,3.0234 l 0,7.4219 -2.1562,0 0,-13.125 2.1562,0 0,2.0312 q 0.75,-1.2031 1.7813,-1.7734 1.0312,-0.5703 2.4375,-0.5703 1.4375,0 2.4375,0.7266 1,0.7265 1.4843,2.1015 z m 20.7891,-7.625 2.1563,0 0,18.2344 -2.1563,0 0,-18.2344 z m 6.668,5.1094 2.1562,0 0,13.125 -2.1562,0 0,-13.125 z m 0,-5.1094 2.1562,0 0,2.7344 -2.1562,0 0,-2.7344 z m 6.5898,0 2.1563,0 0,10.7656 6.4375,-5.6562 2.75,0 -6.9531,6.1406 7.25,6.9844 -2.8126,0 -6.6718,-6.4062 0,6.4062 -2.1563,0 0,-18.2344 z m 25.1953,11.125 0,1.0625 -9.9062,0 q 0.1406,2.2188 1.3437,3.3907 1.2032,1.1718 3.3438,1.1718 1.2344,0 2.4062,-0.3047 1.1719,-0.3047 2.3125,-0.914 l 0,2.0312 q -1.1562,0.5 -2.375,0.7578 -1.2187,0.2579 -2.4687,0.2579 -3.1406,0 -4.9766,-1.8282 -1.8359,-1.8281 -1.8359,-4.9531 0,-3.2187 1.7422,-5.1094 1.7422,-1.8906 4.6953,-1.8906 2.6406,0 4.1797,1.7031 1.539,1.7032 1.539,4.625 z m -2.1562,-0.625 Q 167.1016,-1 166.1328,-2.0547 q -0.9687,-1.0547 -2.5625,-1.0547 -1.7969,0 -2.8828,1.0156 -1.0859,1.0157 -1.2578,2.875 l 7.6875,-0.0156 z m 5.7031,-10.5 2.1563,0 0,18.2344 -2.1563,0 0,-18.2344 z m 6.668,5.1094 2.1562,0 0,13.125 -2.1562,0 0,-13.125 z m 0,-5.1094 2.1562,0 0,2.7344 -2.1562,0 0,-2.7344 z m 17.5742,10.3125 0,7.9219 -2.1563,0 0,-7.8594 q 0,-1.8594 -0.7265,-2.7812 -0.7266,-0.9219 -2.1797,-0.9219 -1.75,0 -2.7578,1.1094 -1.0078,1.1093 -1.0078,3.0312 l 0,7.4219 -2.1563,0 0,-18.2344 2.1563,0 0,7.1406 q 0.7812,-1.1718 1.8281,-1.7578 1.0469,-0.5859 2.4219,-0.5859 2.2656,0 3.4218,1.3984 1.1563,1.3985 1.1563,4.1172 z m 9.3828,-3.6875 q -1.7344,0 -2.7422,1.3516 -1.0078,1.3516 -1.0078,3.7109 0,2.3438 1.0078,3.7031 1.0078,1.3594 2.7422,1.3594 1.7344,0 2.7422,-1.3594 1.0078,-1.3593 1.0078,-3.7031 0,-2.3437 -1.0078,-3.7031 -1.0078,-1.3594 -2.7422,-1.3594 z m 0,-1.8281 q 2.8125,0 4.4219,1.8281 1.6094,1.8282 1.6094,5.0625 0,3.2188 -1.6094,5.0547 -1.6094,1.836 -4.4219,1.836 -2.8125,0 -4.4141,-1.836 -1.6015,-1.8359 -1.6015,-5.0547 0,-3.2343 1.6015,-5.0625 1.6016,-1.8281 4.4141,-1.8281 z m 14.6836,1.8281 q -1.7344,0 -2.7422,1.3516 -1.0078,1.3516 -1.0078,3.7109 0,2.3438 1.0078,3.7031 1.0078,1.3594 2.7422,1.3594 1.7344,0 2.7422,-1.3594 1.0078,-1.3593 1.0078,-3.7031 0,-2.3437 -1.0078,-3.7031 -1.0078,-1.3594 -2.7422,-1.3594 z m 0,-1.8281 q 2.8125,0 4.4219,1.8281 1.6094,1.8282 1.6094,5.0625 0,3.2188 -1.6094,5.0547 -1.6094,1.836 -4.4219,1.836 -2.8125,0 -4.4141,-1.836 -1.6015,-1.8359 -1.6015,-5.0547 0,-3.2343 1.6015,-5.0625 1.6016,-1.8281 4.4141,-1.8281 z m 18.2461,2.2969 0,-7.0938 2.1562,0 0,18.2344 -2.1562,0 0,-1.9688 q -0.6875,1.1719 -1.7266,1.7422 -1.039,0.5704 -2.4922,0.5704 -2.375,0 -3.8671,-1.8985 -1.4922,-1.8984 -1.4922,-4.9922 0,-3.0937 1.4922,-4.9922 1.4921,-1.8984 3.8671,-1.8984 1.4532,0 2.4922,0.5625 1.0391,0.5625 1.7266,1.7344 z m -7.3594,4.5937 q 0,2.375 0.9844,3.7266 0.9844,1.3515 2.6875,1.3515 1.7187,0 2.7031,-1.3515 0.9844,-1.3516 0.9844,-3.7266 0,-2.3906 -0.9844,-3.7422 -0.9844,-1.3515 -2.7031,-1.3515 -1.7031,0 -2.6875,1.3515 -0.9844,1.3516 -0.9844,3.7422 z"
       style="stroke:none" />
  </g>
  <g
     id="g263"
     style="fill:#0000ff;stroke:#0000ff;stroke-width:2.66669989;stroke-linecap:butt;stroke-linejoin:round">
    <line
       id="line265"
       y1="410.1893"
       x2="148"
       x1="118"
       style="fill:none"
       y2="410.1893" />
    <line
       id="line267"
       y1="410.5"
       x2="138"
       x1="129"
       style="fill:none"
       y2="410.5" />
    <line
       id="line269"
       y1="415"
       x2="133.5"
       x1="133.5"
       style="fill:none"
       y2="406" />
  </g>
  <g
     id="g271"
     style="font-size:24px;font-family:SansSerif"
     transform="translate(151,439.8107)">
    <path
       inkscape:connector-curvature="0"
       id="path273"
       d="m 10.9062,-2.6406 0,-7.0938 2.1563,0 0,18.2344 -2.1563,0 0,-1.9688 Q 10.2188,7.7031 9.1797,8.2734 8.1406,8.8438 6.6875,8.8438 4.3125,8.8438 2.8203,6.9453 1.3281,5.0469 1.3281,1.9531 q 0,-3.0937 1.4922,-4.9922 1.4922,-1.8984 3.8672,-1.8984 1.4531,0 2.4922,0.5625 1.0391,0.5625 1.7265,1.7344 z M 3.5469,1.9531 q 0,2.375 0.9843,3.7266 0.9844,1.3515 2.6876,1.3515 1.7187,0 2.7031,-1.3515 0.9843,-1.3516 0.9843,-3.7266 0,-2.3906 -0.9843,-3.7422 -0.9844,-1.3515 -2.7031,-1.3515 -1.7032,0 -2.6876,1.3515 -0.9843,1.3516 -0.9843,3.7422 z M 17.5,-4.625 l 2.1562,0 0,13.125 -2.1562,0 0,-13.125 z m 0,-5.1094 2.1562,0 0,2.7344 -2.1562,0 0,-2.7344 z m 15.0273,5.5 0,2.0313 q -0.9062,-0.4688 -1.8906,-0.7031 -0.9844,-0.2344 -2.0469,-0.2344 -1.5937,0 -2.3984,0.4922 -0.8047,0.4922 -0.8047,1.4765 0,0.75 0.5703,1.1797 0.5703,0.4297 2.3047,0.8203 l 0.75,0.1563 q 2.2969,0.5 3.2578,1.3906 0.961,0.8906 0.961,2.5 0,1.8281 -1.4453,2.8984 -1.4454,1.0704 -3.9766,1.0704 -1.0469,0 -2.1953,-0.211 -1.1485,-0.2109 -2.4141,-0.6172 l 0,-2.2187 q 1.2031,0.6093 2.3594,0.9219 1.1562,0.3124 2.2969,0.3124 1.5312,0 2.3515,-0.5234 0.8203,-0.5234 0.8203,-1.4609 0,-0.8907 -0.5937,-1.3594 -0.5938,-0.4687 -2.5938,-0.8906 l -0.75,-0.1875 Q 25.0742,2.1875 24.1836,1.3203 23.293,0.4531 23.293,-1.0781 q 0,-1.8438 1.3125,-2.8516 1.3125,-1.0078 3.7343,-1.0078 1.1875,0 2.2422,0.1719 1.0547,0.1718 1.9453,0.5312 z m 6.2696,-4.125 0,3.7344 4.4531,0 0,1.6719 -4.4531,0 0,7.125 q 0,1.6093 0.4453,2.0625 0.4453,0.4531 1.789,0.4531 l 2.2188,0 0,1.8125 -2.2188,0 q -2.5,0 -3.4453,-0.9297 -0.9453,-0.9297 -0.9453,-3.3984 l 0,-7.125 -1.5937,0 0,-1.6719 1.5937,0 0,-3.7344 2.1563,0 z M 52.0508,1.9062 q -2.625,0 -3.6328,0.5938 -1.0078,0.5938 -1.0078,2.0312 0,1.1563 0.7578,1.8282 0.7578,0.6718 2.0547,0.6718 1.7968,0 2.8828,-1.2734 1.0859,-1.2734 1.0859,-3.3828 l 0,-0.4688 -2.1406,0 z m 4.2969,-0.8906 0,7.4844 -2.1563,0 0,-2 q -0.7344,1.2031 -1.8359,1.7734 -1.1016,0.5704 -2.6953,0.5704 -2.0157,0 -3.211,-1.1329 -1.1953,-1.1328 -1.1953,-3.039 0,-2.2031 1.4844,-3.3281 1.4844,-1.125 4.4219,-1.125 l 3.0312,0 0,-0.2188 q 0,-1.4844 -0.9766,-2.2969 -0.9765,-0.8125 -2.7578,-0.8125 -1.125,0 -2.1875,0.2656 -1.0625,0.2657 -2.0468,0.8126 l 0,-2 q 1.1875,-0.4532 2.2968,-0.6797 1.1094,-0.2266 2.1719,-0.2266 2.8438,0 4.25,1.4766 1.4063,1.4765 1.4063,4.4765 z m 15.3476,-0.4375 0,7.9219 -2.1562,0 0,-7.8594 q 0,-1.8594 -0.7266,-2.7812 -0.7266,-0.9219 -2.1797,-0.9219 -1.75,0 -2.7578,1.1094 -1.0078,1.1093 -1.0078,3.0312 l 0,7.4219 -2.1563,0 0,-13.125 2.1563,0 0,2.0312 q 0.7812,-1.1718 1.8281,-1.7578 1.0469,-0.5859 2.4219,-0.5859 2.2656,0 3.4219,1.3984 1.1562,1.3985 1.1562,4.1172 z m 13.7422,-4.7031 0,2.0156 q -0.9063,-0.5 -1.8281,-0.75 -0.9219,-0.25 -1.8594,-0.25 -2.0938,0 -3.2578,1.3282 -1.1641,1.3281 -1.1641,3.7343 0,2.3907 1.1641,3.7266 1.164,1.3359 3.2578,1.3359 0.9375,0 1.8594,-0.2578 Q 84.5312,6.5 85.4375,6 l 0,2 q -0.8906,0.4219 -1.8594,0.6328 -0.9687,0.211 -2.0625,0.211 -2.9687,0 -4.7109,-1.8672 -1.7422,-1.8672 -1.7422,-5.0235 0,-3.2187 1.7656,-5.0547 1.7657,-1.8359 4.8281,-1.8359 1,0 1.9454,0.2031 0.9453,0.2032 1.8359,0.6094 z m 14.9766,5.5156 0,1.0625 -9.9063,0 q 0.1406,2.2188 1.3438,3.3907 1.2031,1.1718 3.3437,1.1718 1.2344,0 2.4063,-0.3047 1.1718,-0.3047 2.3125,-0.914 l 0,2.0312 q -1.1563,0.5 -2.375,0.7578 -1.2188,0.2579 -2.4688,0.2579 -3.1406,0 -4.9765,-1.8282 -1.836,-1.8281 -1.836,-4.9531 0,-3.2187 1.7422,-5.1094 1.7422,-1.8906 4.6953,-1.8906 2.6406,0 4.1797,1.7031 1.5391,1.7032 1.5391,4.625 z M 98.2578,0.7656 Q 98.2422,-1 97.2734,-2.0547 q -0.9687,-1.0547 -2.5625,-1.0547 -1.7968,0 -2.8828,1.0156 -1.0859,1.0157 -1.2578,2.875 l 7.6875,-0.0156 z"
       style="stroke:none" />
  </g>
  <g
     id="g275"
     style="fill:#00ff00;stroke:#00ff00;stroke-width:2.66669989;stroke-linecap:butt;stroke-linejoin:round">
    <line
       id="line277"
       y1="439.8107"
       x2="148"
       x1="118"
       style="fill:none"
       y2="439.8107" />
    <line
       id="line279"
       y1="439.5"
       x2="138"
       x1="129"
       style="fill:none"
       y2="439.5" />
    <line
       id="line281"
       y1="444"
       x2="133.5"
       x1="133.5"
       style="fill:none"
       y2="435" />
  </g>
  <g
     id="g283"
     style="font-size:24px;font-family:SansSerif"
     transform="translate(151,469.4321)">
    <path
       inkscape:connector-curvature="0"
       id="path285"
       d="m 12.4844,-2.1094 q 0.8125,-1.4531 1.9375,-2.1406 1.125,-0.6875 2.6406,-0.6875 2.0469,0 3.1641,1.4297 1.1172,1.4297 1.1172,4.0859 l 0,7.9219 -2.1719,0 0,-7.8594 q 0,-1.875 -0.6641,-2.789 -0.664,-0.9141 -2.039,-0.9141 -1.6719,0 -2.6485,1.1094 -0.9765,1.1093 -0.9765,3.0312 l 0,7.4219 -2.1719,0 0,-7.8594 q 0,-1.8906 -0.6641,-2.7968 -0.664,-0.9063 -2.0547,-0.9063 -1.6562,0 -2.6328,1.1172 -0.9765,1.1172 -0.9765,3.0234 l 0,7.4219 -2.1563,0 0,-13.125 2.1563,0 0,2.0312 q 0.75,-1.2031 1.7812,-1.7734 1.0312,-0.5703 2.4375,-0.5703 1.4375,0 2.4375,0.7266 1,0.7265 1.4844,2.1015 z m 24.3789,3.5 0,1.0625 -9.9063,0 q 0.1407,2.2188 1.3438,3.3907 1.2031,1.1718 3.3437,1.1718 1.2344,0 2.4063,-0.3047 1.1719,-0.3047 2.3125,-0.914 l 0,2.0312 q -1.1563,0.5 -2.375,0.7578 -1.2188,0.2579 -2.4688,0.2579 -3.1406,0 -4.9765,-1.8282 -1.836,-1.8281 -1.836,-4.9531 0,-3.2187 1.7422,-5.1094 1.7422,-1.8906 4.6953,-1.8906 2.6407,0 4.1797,1.7031 1.5391,1.7032 1.5391,4.625 z M 34.707,0.7656 Q 34.6914,-1 33.7227,-2.0547 q -0.9688,-1.0547 -2.5625,-1.0547 -1.7969,0 -2.8829,1.0156 -1.0859,1.0157 -1.2578,2.875 L 34.707,0.7656 z m 11.6719,1.1406 q -2.625,0 -3.6328,0.5938 -1.0078,0.5938 -1.0078,2.0312 0,1.1563 0.7578,1.8282 0.7578,0.6718 2.0547,0.6718 1.7969,0 2.8828,-1.2734 1.0859,-1.2734 1.0859,-3.3828 l 0,-0.4688 -2.1406,0 z m 4.2969,-0.8906 0,7.4844 -2.1563,0 0,-2 q -0.7343,1.2031 -1.8359,1.7734 -1.1016,0.5704 -2.6953,0.5704 -2.0156,0 -3.211,-1.1329 -1.1953,-1.1328 -1.1953,-3.039 0,-2.2031 1.4844,-3.3281 1.4844,-1.125 4.4219,-1.125 l 3.0312,0 0,-0.2188 q 0,-1.4844 -0.9765,-2.2969 -0.9766,-0.8125 -2.7578,-0.8125 -1.125,0 -2.1875,0.2656 -1.0625,0.2657 -2.0469,0.8126 l 0,-2 q 1.1875,-0.4532 2.2969,-0.6797 1.1093,-0.2266 2.1718,-0.2266 2.8438,0 4.25,1.4766 1.4063,1.4765 1.4063,4.4765 z m 15.3476,-0.4375 0,7.9219 -2.1562,0 0,-7.8594 q 0,-1.8594 -0.7266,-2.7812 -0.7265,-0.9219 -2.1797,-0.9219 -1.75,0 -2.7578,1.1094 -1.0078,1.1093 -1.0078,3.0312 l 0,7.4219 -2.1562,0 0,-13.125 2.1562,0 0,2.0312 q 0.7813,-1.1718 1.8281,-1.7578 1.0469,-0.5859 2.4219,-0.5859 2.2656,0 3.4219,1.3984 1.1562,1.3985 1.1562,4.1172 z"
       style="stroke:none" />
  </g>
  <g
     id="g287"
     style="stroke-width:2.66669989;stroke-linecap:butt;stroke-linejoin:round">
    <line
       id="line289"
       y1="469.4321"
       x2="148"
       x1="118"
       style="fill:none"
       y2="469.4321" />
    <line
       id="line291"
       y1="469.5"
       x2="138"
       x1="129"
       style="fill:none"
       y2="469.5" />
    <line
       id="line293"
       y1="474"
       x2="133.5"
       x1="133.5"
       style="fill:none"
       y2="465" />
    <path
       inkscape:connector-curvature="0"
       id="path295"
       style="fill:none;stroke-width:0.66670001;stroke-linejoin:miter"
       d="m 114,486 0,-122 285,0 0,122 z" />
  </g>
  <g
     transform="matrix(0.0063587,-0.96913202,0.96913202,0.0063587,-197.21228,567.89909)"
     id="g3575">
    <g
       id="g3906">
      <g
         word-spacing="normal"
         letter-spacing="normal"
         font-size-adjust="none"
         font-stretch="normal"
         font-weight="normal"
         font-variant="normal"
         font-style="normal"
         stroke-miterlimit="10.433"
         xml:space="preserve"
         transform="matrix(0.82285714,0,0,-0.82285714,-144,575.25)"
         id="g3908"
         style="font-style:normal;font-variant:normal;font-weight:normal;font-stretch:normal;letter-spacing:normal;word-spacing:normal;text-anchor:start;fill:none;stroke:#000000;stroke-linecap:butt;stroke-linejoin:miter;stroke-miterlimit:10.43299961;stroke-opacity:1;stroke-dasharray:none;stroke-dashoffset:0"><path
           id="path3910"
           d="m 463.44,441.78 0,0.16 0,0.17 -0.01,0.16 0,0.08 0,0.08 -0.01,0.08 -0.01,0.08 -0.01,0.07 -0.01,0.07 -0.02,0.07 -0.01,0.07 -0.02,0.07 -0.02,0.06 -0.03,0.06 -0.03,0.06 -0.03,0.06 -0.03,0.05 -0.04,0.05 -0.04,0.05 -0.05,0.04 -0.05,0.04 -0.03,0.01 -0.03,0.02 -0.03,0.02 -0.03,0.01 -0.03,0.01 -0.03,0.02 -0.03,0.01 -0.04,0.01 -0.04,0.01 -0.03,0.01 -0.04,0 -0.04,0.01 -0.04,0 -0.05,0.01 -0.04,0 -0.05,0 c -1,0 -1,-0.89 -1,-1.78 v -46.24 c 0,-0.9 0,-1.79 1,-1.79 1,0 1,0.89 1,1.79 z"
           inkscape:connector-curvature="0"
           style="fill:#000000;stroke-width:0" /><polygon
           id="polygon3912"
           points="491.25,449.9 484.58,443.12 485.47,442.23 491.25,447.3 496.99,442.23 497.88,443.12 "
           style="fill:#000000;stroke-width:0" /><path
           id="path3914"
           d="m 479.59,426.12 h 4.68 c 0.99,0 1.49,0 1.49,1 0,0.55 -0.5,0.55 -1.39,0.55 h -4.39 c 1.79,7.08 2.04,8.08 2.04,8.37 0,0.85 -0.59,1.35 -1.43,1.35 -0.16,0 -1.55,-0.05 -2,-1.8 l -1.94,-7.92 h -4.69 c -1,0 -1.5,0 -1.5,-0.94 0,-0.61 0.41,-0.61 1.41,-0.61 h 4.37 c -3.58,-14.14 -3.78,-14.98 -3.78,-15.89 0,-2.69 1.89,-4.58 4.58,-4.58 5.08,0 7.92,7.27 7.92,7.67 0,0.5 -0.39,0.5 -0.59,0.5 -0.46,0 -0.5,-0.15 -0.75,-0.7 -2.14,-5.17 -4.78,-6.37 -6.47,-6.37 -1.05,0 -1.55,0.65 -1.55,2.29 0,1.19 0.1,1.55 0.3,2.39 z"
           inkscape:connector-curvature="0"
           style="fill:#000000;stroke-width:0" /><path
           id="path3916"
           d="m 501.51,412.53 h 3.4 c 0.71,0 1.16,0 1.16,0.76 0,0.49 -0.45,0.49 -1.08,0.49 h -3.25 c 0.81,4.42 1.08,6.03 1.36,7.04 0.17,0.77 0.94,1.5 1.78,1.5 0.03,0 0.97,0 1.64,-0.42 -1.43,-0.45 -1.53,-1.72 -1.53,-1.92 0,-0.77 0.6,-1.28 1.39,-1.28 0.94,0 1.99,0.8 1.99,2.12 0,1.6 -1.71,2.47 -3.49,2.47 -1.53,0 -3.23,-0.87 -4.18,-2.61 -0.69,-1.29 -0.97,-2.86 -1.71,-6.9 h -2.75 c -0.7,0 -1.15,0 -1.15,-0.77 0,-0.48 0.45,-0.48 1.07,-0.48 h 2.58 c -0.03,-0.22 -2.22,-12.75 -3.06,-16.49 -0.17,-0.76 -0.77,-3.4 -2.44,-3.4 -0.03,0 -0.87,0 -1.53,0.4 1.42,0.46 1.53,1.72 1.53,1.92 0,0.77 -0.59,1.29 -1.39,1.29 -0.94,0 -1.98,-0.8 -1.98,-2.13 0,-1.56 1.64,-2.47 3.37,-2.47 2.24,0 3.77,2.3 4.19,3.06 1.25,2.35 2.05,6.63 2.12,7.05 z"
           inkscape:connector-curvature="0"
           style="fill:#000000;stroke-width:0" /><path
           id="path3918"
           d="m 557.11,417.65 0.16,0 0.16,0 0.15,0.01 0.08,0 0.08,0.01 0.07,0 0.08,0.01 0.07,0.01 0.07,0.01 0.07,0.02 0.07,0.02 0.07,0.02 0.06,0.02 0.06,0.02 0.06,0.03 0.06,0.03 0.05,0.04 0.05,0.03 0.04,0.05 0.05,0.04 0.03,0.05 0.02,0.03 0.02,0.03 0.01,0.03 0.02,0.03 0.01,0.03 0.02,0.03 0.01,0.04 0.01,0.03 0.01,0.04 0.01,0.04 0,0.04 0.01,0.04 0,0.04 0.01,0.04 0,0.05 0,0.04 c 0,1 -0.91,1 -1.75,1 h -26.95 c -0.85,0 -1.74,0 -1.74,-1 0,-1 0.89,-1 1.74,-1 z"
           inkscape:connector-curvature="0"
           style="fill:#000000;stroke-width:0" /><path
           id="path3920"
           d="m 584.34,426.12 h 4.69 c 0.99,0 1.49,0 1.49,1 0,0.55 -0.5,0.55 -1.4,0.55 h -4.39 c 1.8,7.08 2.05,8.08 2.05,8.37 0,0.85 -0.59,1.35 -1.44,1.35 -0.15,0 -1.54,-0.05 -2,-1.8 l -1.93,-7.92 h -4.69 c -1,0 -1.5,0 -1.5,-0.94 0,-0.61 0.4,-0.61 1.4,-0.61 H 581 c -3.58,-14.14 -3.78,-14.98 -3.78,-15.89 0,-2.69 1.89,-4.58 4.58,-4.58 5.08,0 7.92,7.27 7.92,7.67 0,0.5 -0.39,0.5 -0.6,0.5 -0.45,0 -0.5,-0.15 -0.74,-0.7 -2.15,-5.17 -4.79,-6.37 -6.47,-6.37 -1.05,0 -1.55,0.65 -1.55,2.29 0,1.19 0.09,1.55 0.3,2.39 z"
           inkscape:connector-curvature="0"
           style="fill:#000000;stroke-width:0" /><path
           id="path3922"
           d="m 603.33,432.87 0.26,0.12 0.26,0.11 0.24,0.11 0.24,0.1 0.23,0.1 0.22,0.1 0.21,0.09 0.21,0.09 0.2,0.08 0.19,0.08 0.18,0.08 0.18,0.07 0.16,0.08 0.17,0.06 0.16,0.07 0.15,0.06 0.14,0.06 0.14,0.06 0.13,0.06 0.13,0.05 0.13,0.06 0.12,0.05 0.11,0.05 0.11,0.04 0.11,0.05 0.1,0.04 0.19,0.09 0.18,0.08 0.16,0.08 c 0.68,0.27 0.99,0.41 0.99,1.08 0,0.59 -0.45,1.11 -1.08,1.11 -0.25,0 -0.31,0 -0.73,-0.31 l -4.74,-3.17 0.52,5.15 c 0.08,0.63 0,1.5 -1.05,1.5 -0.42,0 -1.08,-0.28 -1.08,-1.04 0,-0.32 0.14,-1.36 0.17,-1.71 0.08,-0.59 0.32,-3.11 0.39,-3.9 l -4.7,3.17 c -0.36,0.2 -0.45,0.31 -0.76,0.31 -0.65,0 -1.1,-0.52 -1.1,-1.11 0,-0.7 0.42,-0.87 0.74,-1.01 l 5.26,-2.19 c -2.86,-1.27 -4.14,-1.75 -5.01,-2.17 -0.66,-0.29 -0.99,-0.43 -0.99,-1.08 0,-0.6 0.45,-1.11 1.1,-1.11 0.23,0 0.31,0 0.71,0.31 l 4.75,3.17 -0.56,-5.61 c 0,-0.76 0.66,-1.04 1.08,-1.04 0.42,0 1.08,0.28 1.08,1.04 0,0.32 -0.14,1.36 -0.17,1.71 -0.07,0.59 -0.32,3.09 -0.38,3.9 l 4.17,-2.79 c 0.91,-0.69 0.99,-0.69 1.3,-0.69 0.63,0 1.08,0.51 1.08,1.11 0,0.7 -0.42,0.87 -0.74,1.01 z"
           inkscape:connector-curvature="0"
           style="fill:#000000;stroke-width:0" /><path
           id="path3924"
           d="m 606.27,405.8 h 3.4 c 0.71,0 1.16,0 1.16,0.77 0,0.48 -0.45,0.48 -1.08,0.48 h -3.25 c 0.81,4.43 1.08,6.04 1.36,7.05 0.17,0.77 0.94,1.5 1.78,1.5 0.03,0 0.97,0 1.64,-0.42 -1.44,-0.45 -1.53,-1.72 -1.53,-1.92 0,-0.77 0.59,-1.28 1.39,-1.28 0.94,0 1.98,0.79 1.98,2.12 0,1.6 -1.7,2.47 -3.48,2.47 -1.53,0 -3.23,-0.87 -4.19,-2.61 -0.68,-1.3 -0.97,-2.86 -1.7,-6.91 H 601 c -0.7,0 -1.16,0 -1.16,-0.76 0,-0.49 0.46,-0.49 1.08,-0.49 h 2.58 c -0.03,-0.21 -2.22,-12.75 -3.06,-16.48 -0.17,-0.77 -0.77,-3.41 -2.44,-3.41 -0.03,0 -0.88,0 -1.53,0.41 1.42,0.45 1.53,1.72 1.53,1.92 0,0.77 -0.59,1.28 -1.39,1.28 -0.94,0 -1.99,-0.79 -1.99,-2.12 0,-1.56 1.65,-2.47 3.38,-2.47 2.23,0 3.77,2.3 4.19,3.06 1.25,2.35 2.04,6.63 2.12,7.05 z"
           inkscape:connector-curvature="0"
           style="fill:#000000;stroke-width:0" /><path
           id="path3926"
           d="m 625.8,441.78 0,0.16 0,0.17 -0.01,0.16 0,0.08 0,0.08 -0.01,0.08 -0.01,0.08 -0.01,0.07 -0.01,0.07 -0.02,0.07 -0.01,0.07 -0.02,0.07 -0.02,0.06 -0.03,0.06 -0.03,0.06 -0.03,0.06 -0.03,0.05 -0.04,0.05 -0.04,0.05 -0.05,0.04 -0.05,0.04 -0.03,0.01 -0.03,0.02 -0.02,0.02 -0.04,0.01 -0.03,0.01 -0.03,0.02 -0.03,0.01 -0.04,0.01 -0.04,0.01 -0.03,0.01 -0.04,0 -0.04,0.01 -0.04,0 -0.05,0.01 -0.04,0 -0.05,0 c -1,0 -1,-0.89 -1,-1.78 v -46.24 c 0,-0.9 0,-1.79 1,-1.79 1,0 1,0.89 1,1.79 z"
           inkscape:connector-curvature="0"
           style="fill:#000000;stroke-width:0" /></g>    </g>
  </g>
  <text
     xml:space="preserve"
     style="font-size:29.64409256px;font-style:normal;font-weight:normal;line-height:125%;letter-spacing:0px;word-spacing:0px;fill:#000000;fill-opacity:1;stroke:none;font-family:Sans"
     x="-197.62418"
     y="28.453835"
     id="text3136"
     sodipodi:linespacing="125%"
     transform="matrix(-0.03081384,-0.99952514,0.99952514,-0.03081384,0,0)"><tspan
       sodipodi:role="line"
       id="tspan3138"
       x="-197.62418"
       y="28.453835">[s]</tspan></text>
</svg>
