<?xml version="1.0" encoding="UTF-8" standalone="no"?>
<!-- Created with Inkscape (http://www.inkscape.org/) -->

<svg
   xmlns:dc="http://purl.org/dc/elements/1.1/"
   xmlns:cc="http://creativecommons.org/ns#"
   xmlns:rdf="http://www.w3.org/1999/02/22-rdf-syntax-ns#"
   xmlns:svg="http://www.w3.org/2000/svg"
   xmlns="http://www.w3.org/2000/svg"
   xmlns:sodipodi="http://sodipodi.sourceforge.net/DTD/sodipodi-0.dtd"
   xmlns:inkscape="http://www.inkscape.org/namespaces/inkscape"
   id="svg2"
   version="1.1"
   inkscape:version="0.48.4 r9939"
   width="506.09827"
   height="371.58713"
   xml:space="preserve"
   sodipodi:docname="YErrorAll.pdf"><sodipodi:namedview
     pagecolor="#ffffff"
     bordercolor="#666666"
     borderopacity="1"
     objecttolerance="10"
     gridtolerance="10"
     guidetolerance="10"
     inkscape:pageopacity="0"
     inkscape:pageshadow="2"
     inkscape:window-width="1873"
     inkscape:window-height="1028"
     id="namedview4"
     showgrid="false"
     showguides="true"
     inkscape:guide-bbox="true"
     inkscape:zoom="1.7835717"
     inkscape:cx="123.43816"
     inkscape:cy="170.1529"
     inkscape:window-x="47"
     inkscape:window-y="24"
     inkscape:window-maximized="0"
     inkscape:current-layer="g12"
     fit-margin-top="0"
     fit-margin-left="0"
     fit-margin-right="0"
     fit-margin-bottom="0" /><metadata
     id="metadata8"><rdf:RDF><cc:Work
         rdf:about=""><dc:format>image/svg+xml</dc:format><dc:type
           rdf:resource="http://purl.org/dc/dcmitype/StillImage" /><dc:title></dc:title></cc:Work></rdf:RDF></metadata><defs
     id="defs6" /><g
     transform="matrix(1.25,0,0,-1.25,-9.8300862,374.25481)"
     inkscape:label="YErrorAll"
     inkscape:groupmode="layer"
     id="g10"><g
       id="g12"><g
         transform="matrix(1,0,0,-1,0,299.40317)"
         id="g14"><path
           id="path16"
           style="fill:none;stroke:#262626;stroke-width:0.53336;stroke-linecap:square;stroke-linejoin:round;stroke-miterlimit:10;stroke-opacity:1;stroke-dasharray:none"
           d="m 78.875,261.867 328.801,0"
           inkscape:connector-curvature="0" /></g><g
         transform="matrix(1,0,0,-1,0,299.40317)"
         id="g18"><path
           id="path20"
           style="fill:none;stroke:#262626;stroke-width:0.53336;stroke-linecap:square;stroke-linejoin:round;stroke-miterlimit:10;stroke-opacity:1;stroke-dasharray:none"
           d="m 78.875,261.867 0,-3.289"
           inkscape:connector-curvature="0" /></g><g
         transform="matrix(1,0,0,-1,0,299.40317)"
         id="g22"><path
           id="path24"
           style="fill:none;stroke:#262626;stroke-width:0.53336;stroke-linecap:square;stroke-linejoin:round;stroke-miterlimit:10;stroke-opacity:1;stroke-dasharray:none"
           d="m 133.676,261.867 0,-3.289"
           inkscape:connector-curvature="0" /></g><g
         transform="matrix(1,0,0,-1,0,299.40317)"
         id="g26"><path
           id="path28"
           style="fill:none;stroke:#262626;stroke-width:0.53336;stroke-linecap:square;stroke-linejoin:round;stroke-miterlimit:10;stroke-opacity:1;stroke-dasharray:none"
           d="m 188.477,261.867 0,-3.289"
           inkscape:connector-curvature="0" /></g><g
         transform="matrix(1,0,0,-1,0,299.40317)"
         id="g30"><path
           id="path32"
           style="fill:none;stroke:#262626;stroke-width:0.53336;stroke-linecap:square;stroke-linejoin:round;stroke-miterlimit:10;stroke-opacity:1;stroke-dasharray:none"
           d="m 243.277,261.867 0,-3.289"
           inkscape:connector-curvature="0" /></g><g
         transform="matrix(1,0,0,-1,0,299.40317)"
         id="g34"><path
           id="path36"
           style="fill:none;stroke:#262626;stroke-width:0.53336;stroke-linecap:square;stroke-linejoin:round;stroke-miterlimit:10;stroke-opacity:1;stroke-dasharray:none"
           d="m 298.074,261.867 0,-3.289"
           inkscape:connector-curvature="0" /></g><g
         transform="matrix(1,0,0,-1,0,299.40317)"
         id="g38"><path
           id="path40"
           style="fill:none;stroke:#262626;stroke-width:0.53336;stroke-linecap:square;stroke-linejoin:round;stroke-miterlimit:10;stroke-opacity:1;stroke-dasharray:none"
           d="m 352.875,261.867 0,-3.289"
           inkscape:connector-curvature="0" /></g><g
         transform="matrix(1,0,0,-1,0,299.40317)"
         id="g42"><path
           id="path44"
           style="fill:none;stroke:#262626;stroke-width:0.53336;stroke-linecap:square;stroke-linejoin:round;stroke-miterlimit:10;stroke-opacity:1;stroke-dasharray:none"
           d="m 407.676,261.867 0,-3.289"
           inkscape:connector-curvature="0" /></g><text
         style="font-size:9.65375805px"
         y="-20.284262"
         x="92.340172"
         id="text46"
         transform="scale(1.0503603,-0.95205429)"><tspan
           id="tspan48"
           sodipodi:role="line"
           y="-20.284262"
           x="92.340172 100.11724 136.42244 144.19952 180.50473 188.2818 224.57477 232.35185 268.65707 276.43411 312.76767 320.54474 356.84991 364.62698"
           style="font-size:12.2280941px;font-variant:normal;font-weight:normal;writing-mode:lr-tb;fill:#262626;fill-opacity:1;fill-rule:nonzero;stroke:none;font-family:DejaVu Sans;-inkscape-font-specification:DejaVuSans">30405060708090</tspan></text>
<g
         transform="matrix(1,0,0,-1,0,299.40317)"
         id="g54"><path
           id="path56"
           style="fill:none;stroke:#262626;stroke-width:0.53336;stroke-linecap:square;stroke-linejoin:round;stroke-miterlimit:10;stroke-opacity:1;stroke-dasharray:none"
           d="m 78.875,261.867 0,-261.601"
           inkscape:connector-curvature="0" /></g><g
         transform="matrix(1,0,0,-1,0,299.40317)"
         id="g58"><path
           id="path60"
           style="fill:none;stroke:#262626;stroke-width:0.53336;stroke-linecap:square;stroke-linejoin:round;stroke-miterlimit:10;stroke-opacity:1;stroke-dasharray:none"
           d="m 78.875,212.816 3.289,0"
           inkscape:connector-curvature="0" /></g><g
         transform="matrix(1,0,0,-1,0,299.40317)"
         id="g62"><path
           id="path64"
           style="fill:none;stroke:#262626;stroke-width:0.53336;stroke-linecap:square;stroke-linejoin:round;stroke-miterlimit:10;stroke-opacity:1;stroke-dasharray:none"
           d="m 78.875,131.066 3.289,0"
           inkscape:connector-curvature="0" /></g><g
         transform="matrix(1,0,0,-1,0,299.40317)"
         id="g66"><path
           id="path68"
           style="fill:none;stroke:#262626;stroke-width:0.53336;stroke-linecap:square;stroke-linejoin:round;stroke-miterlimit:10;stroke-opacity:1;stroke-dasharray:none"
           d="m 78.875,49.316 3.289,0"
           inkscape:connector-curvature="0" /></g><text
         id="text70"
         transform="scale(1,-1)"
         x="35.870995"
         y="-106.11652"
         style="font-size:8.60002136px"><tspan
           id="tspan72"
           sodipodi:role="line"
           style="font-size:10.89336014px;font-variant:normal;font-weight:normal;writing-mode:lr-tb;fill:#262626;fill-opacity:1;fill-rule:nonzero;stroke:none;font-family:DejaVu Sans;-inkscape-font-specification:DejaVuSans"
           x="35.870995"
           y="-106.11652" /><tspan
           id="tspan74"
           sodipodi:role="line"
           style="font-size:10.89336014px;font-variant:normal;font-weight:normal;writing-mode:lr-tb;fill:#262626;fill-opacity:1;fill-rule:nonzero;stroke:none;font-family:DejaVu Sans;-inkscape-font-specification:DejaVuSans"
           x="35.870995"
           y="-92.499825" /><tspan
           id="tspan76"
           sodipodi:role="line"
           style="font-size:12px;font-variant:normal;font-weight:normal;writing-mode:lr-tb;fill:#262626;fill-opacity:1;fill-rule:nonzero;stroke:none;font-family:DejaVu Sans;-inkscape-font-specification:DejaVuSans"
           x="35.870995"
           y="-78.883125" /></text>
<g
         transform="matrix(1,0,0,-1,0,299.40317)"
         id="g98"><path
           id="path100"
           style="fill:none;stroke:#ff0000;stroke-width:2.13335991;stroke-linecap:butt;stroke-linejoin:round;stroke-miterlimit:10;stroke-opacity:1;stroke-dasharray:none"
           d="m 78.875,58.664 54.801,6.016 54.801,48.207 54.8,82.051 54.797,-9.137 54.801,63.082 54.801,-3.348"
           inkscape:connector-curvature="0" /></g><g
         transform="matrix(1,0,0,-1,0,299.40317)"
         id="g102"><path
           id="path104"
           style="fill:none;stroke:#ff0000;stroke-width:2.13335991;stroke-linecap:butt;stroke-linejoin:round;stroke-miterlimit:10;stroke-opacity:1;stroke-dasharray:none"
           d="m 75.676,58.266 7.199,0"
           inkscape:connector-curvature="0" /></g><g
         transform="matrix(1,0,0,-1,0,299.40317)"
         id="g106"><path
           id="path108"
           style="fill:none;stroke:#ff0000;stroke-width:2.13335991;stroke-linecap:butt;stroke-linejoin:round;stroke-miterlimit:10;stroke-opacity:1;stroke-dasharray:none"
           d="m 79.277,61.867 0,-7.199"
           inkscape:connector-curvature="0" /></g><g
         transform="matrix(1,0,0,-1,0,299.40317)"
         id="g110"><path
           id="path112"
           style="fill:none;stroke:#ff0000;stroke-width:2.13335991;stroke-linecap:butt;stroke-linejoin:round;stroke-miterlimit:10;stroke-opacity:1;stroke-dasharray:none"
           d="m 130.074,64.668 7.203,0"
           inkscape:connector-curvature="0" /></g><g
         transform="matrix(1,0,0,-1,0,299.40317)"
         id="g114"><path
           id="path116"
           style="fill:none;stroke:#ff0000;stroke-width:2.13335991;stroke-linecap:butt;stroke-linejoin:round;stroke-miterlimit:10;stroke-opacity:1;stroke-dasharray:none"
           d="m 133.676,68.266 0,-7.2"
           inkscape:connector-curvature="0" /></g><g
         transform="matrix(1,0,0,-1,0,299.40317)"
         id="g118"><path
           id="path120"
           style="fill:none;stroke:#ff0000;stroke-width:2.13335991;stroke-linecap:butt;stroke-linejoin:round;stroke-miterlimit:10;stroke-opacity:1;stroke-dasharray:none"
           d="m 184.477,112.668 7.199,0"
           inkscape:connector-curvature="0" /></g><g
         transform="matrix(1,0,0,-1,0,299.40317)"
         id="g122"><path
           id="path124"
           style="fill:none;stroke:#ff0000;stroke-width:2.13335991;stroke-linecap:butt;stroke-linejoin:round;stroke-miterlimit:10;stroke-opacity:1;stroke-dasharray:none"
           d="m 188.074,116.266 0,-7.2"
           inkscape:connector-curvature="0" /></g><g
         transform="matrix(1,0,0,-1,0,299.40317)"
         id="g126"><path
           id="path128"
           style="fill:none;stroke:#ff0000;stroke-width:2.13335991;stroke-linecap:butt;stroke-linejoin:round;stroke-miterlimit:10;stroke-opacity:1;stroke-dasharray:none"
           d="m 239.676,195.066 7.199,0"
           inkscape:connector-curvature="0" /></g><g
         transform="matrix(1,0,0,-1,0,299.40317)"
         id="g130"><path
           id="path132"
           style="fill:none;stroke:#ff0000;stroke-width:2.13335991;stroke-linecap:butt;stroke-linejoin:round;stroke-miterlimit:10;stroke-opacity:1;stroke-dasharray:none"
           d="m 243.277,198.668 0,-7.203"
           inkscape:connector-curvature="0" /></g><g
         transform="matrix(1,0,0,-1,0,299.40317)"
         id="g134"><path
           id="path136"
           style="fill:none;stroke:#ff0000;stroke-width:2.13335991;stroke-linecap:butt;stroke-linejoin:round;stroke-miterlimit:10;stroke-opacity:1;stroke-dasharray:none"
           d="m 294.875,185.465 7.199,0"
           inkscape:connector-curvature="0" /></g><g
         transform="matrix(1,0,0,-1,0,299.40317)"
         id="g138"><path
           id="path140"
           style="fill:none;stroke:#ff0000;stroke-width:2.13335991;stroke-linecap:butt;stroke-linejoin:round;stroke-miterlimit:10;stroke-opacity:1;stroke-dasharray:none"
           d="m 298.477,189.066 0,-7.199"
           inkscape:connector-curvature="0" /></g><g
         transform="matrix(1,0,0,-1,0,299.40317)"
         id="g142"><path
           id="path144"
           style="fill:none;stroke:#ff0000;stroke-width:2.13335991;stroke-linecap:butt;stroke-linejoin:round;stroke-miterlimit:10;stroke-opacity:1;stroke-dasharray:none"
           d="m 349.277,248.668 7.2,0"
           inkscape:connector-curvature="0" /></g><g
         transform="matrix(1,0,0,-1,0,299.40317)"
         id="g146"><path
           id="path148"
           style="fill:none;stroke:#ff0000;stroke-width:2.13335991;stroke-linecap:butt;stroke-linejoin:round;stroke-miterlimit:10;stroke-opacity:1;stroke-dasharray:none"
           d="m 352.875,252.266 0,-7.2"
           inkscape:connector-curvature="0" /></g><g
         transform="matrix(1,0,0,-1,0,299.40317)"
         id="g150"><path
           id="path152"
           style="fill:none;stroke:#ff0000;stroke-width:2.13335991;stroke-linecap:butt;stroke-linejoin:round;stroke-miterlimit:10;stroke-opacity:1;stroke-dasharray:none"
           d="m 404.477,245.465 7.199,0"
           inkscape:connector-curvature="0" /></g><g
         transform="matrix(1,0,0,-1,0,299.40317)"
         id="g154"><path
           id="path156"
           style="fill:none;stroke:#ff0000;stroke-width:2.13335991;stroke-linecap:butt;stroke-linejoin:round;stroke-miterlimit:10;stroke-opacity:1;stroke-dasharray:none"
           d="m 408.074,249.066 0,-7.199"
           inkscape:connector-curvature="0" /></g><g
         transform="matrix(1,0,0,-1,0,299.40317)"
         id="g158"><path
           id="path160"
           style="fill:none;stroke:#0000ff;stroke-width:2.13335991;stroke-linecap:butt;stroke-linejoin:round;stroke-miterlimit:10;stroke-opacity:1;stroke-dasharray:none"
           d="m 78.875,25.723 54.801,112.105 54.801,-38.637 54.8,35.414 54.797,32.954 54.801,49.824 54.801,-23.809"
           inkscape:connector-curvature="0" /></g><g
         transform="matrix(1,0,0,-1,0,299.40317)"
         id="g162"><path
           id="path164"
           style="fill:none;stroke:#0000ff;stroke-width:2.13335991;stroke-linecap:butt;stroke-linejoin:round;stroke-miterlimit:10;stroke-opacity:1;stroke-dasharray:none"
           d="m 75.676,25.465 7.199,0"
           inkscape:connector-curvature="0" /></g><g
         transform="matrix(1,0,0,-1,0,299.40317)"
         id="g166"><path
           id="path168"
           style="fill:none;stroke:#0000ff;stroke-width:2.13335991;stroke-linecap:butt;stroke-linejoin:round;stroke-miterlimit:10;stroke-opacity:1;stroke-dasharray:none"
           d="m 79.277,29.066 0,-7.199"
           inkscape:connector-curvature="0" /></g><g
         transform="matrix(1,0,0,-1,0,299.40317)"
         id="g170"><path
           id="path172"
           style="fill:none;stroke:#0000ff;stroke-width:2.13335991;stroke-linecap:butt;stroke-linejoin:round;stroke-miterlimit:10;stroke-opacity:1;stroke-dasharray:none"
           d="m 130.074,137.465 7.203,0"
           inkscape:connector-curvature="0" /></g><g
         transform="matrix(1,0,0,-1,0,299.40317)"
         id="g174"><path
           id="path176"
           style="fill:none;stroke:#0000ff;stroke-width:2.13335991;stroke-linecap:butt;stroke-linejoin:round;stroke-miterlimit:10;stroke-opacity:1;stroke-dasharray:none"
           d="m 133.676,141.066 0,-7.199"
           inkscape:connector-curvature="0" /></g><g
         transform="matrix(1,0,0,-1,0,299.40317)"
         id="g178"><path
           id="path180"
           style="fill:none;stroke:#0000ff;stroke-width:2.13335991;stroke-linecap:butt;stroke-linejoin:round;stroke-miterlimit:10;stroke-opacity:1;stroke-dasharray:none"
           d="m 184.477,99.066 7.199,0"
           inkscape:connector-curvature="0" /></g><g
         transform="matrix(1,0,0,-1,0,299.40317)"
         id="g182"><path
           id="path184"
           style="fill:none;stroke:#0000ff;stroke-width:2.13335991;stroke-linecap:butt;stroke-linejoin:round;stroke-miterlimit:10;stroke-opacity:1;stroke-dasharray:none"
           d="m 188.074,102.668 0,-7.203"
           inkscape:connector-curvature="0" /></g><g
         transform="matrix(1,0,0,-1,0,299.40317)"
         id="g186"><path
           id="path188"
           style="fill:none;stroke:#0000ff;stroke-width:2.13335991;stroke-linecap:butt;stroke-linejoin:round;stroke-miterlimit:10;stroke-opacity:1;stroke-dasharray:none"
           d="m 239.676,134.266 7.199,0"
           inkscape:connector-curvature="0" /></g><g
         transform="matrix(1,0,0,-1,0,299.40317)"
         id="g190"><path
           id="path192"
           style="fill:none;stroke:#0000ff;stroke-width:2.13335991;stroke-linecap:butt;stroke-linejoin:round;stroke-miterlimit:10;stroke-opacity:1;stroke-dasharray:none"
           d="m 243.277,137.867 0,-7.199"
           inkscape:connector-curvature="0" /></g><g
         transform="matrix(1,0,0,-1,0,299.40317)"
         id="g194"><path
           id="path196"
           style="fill:none;stroke:#0000ff;stroke-width:2.13335991;stroke-linecap:butt;stroke-linejoin:round;stroke-miterlimit:10;stroke-opacity:1;stroke-dasharray:none"
           d="m 294.875,167.867 7.199,0"
           inkscape:connector-curvature="0" /></g><g
         transform="matrix(1,0,0,-1,0,299.40317)"
         id="g198"><path
           id="path200"
           style="fill:none;stroke:#0000ff;stroke-width:2.13335991;stroke-linecap:butt;stroke-linejoin:round;stroke-miterlimit:10;stroke-opacity:1;stroke-dasharray:none"
           d="m 298.477,171.465 0,-7.199"
           inkscape:connector-curvature="0" /></g><g
         transform="matrix(1,0,0,-1,0,299.40317)"
         id="g202"><path
           id="path204"
           style="fill:none;stroke:#0000ff;stroke-width:2.13335991;stroke-linecap:butt;stroke-linejoin:round;stroke-miterlimit:10;stroke-opacity:1;stroke-dasharray:none"
           d="m 349.277,217.465 7.2,0"
           inkscape:connector-curvature="0" /></g><g
         transform="matrix(1,0,0,-1,0,299.40317)"
         id="g206"><path
           id="path208"
           style="fill:none;stroke:#0000ff;stroke-width:2.13335991;stroke-linecap:butt;stroke-linejoin:round;stroke-miterlimit:10;stroke-opacity:1;stroke-dasharray:none"
           d="m 352.875,221.066 0,-7.199"
           inkscape:connector-curvature="0" /></g><g
         transform="matrix(1,0,0,-1,0,299.40317)"
         id="g210"><path
           id="path212"
           style="fill:none;stroke:#0000ff;stroke-width:2.13335991;stroke-linecap:butt;stroke-linejoin:round;stroke-miterlimit:10;stroke-opacity:1;stroke-dasharray:none"
           d="m 404.477,193.465 7.199,0"
           inkscape:connector-curvature="0" /></g><g
         transform="matrix(1,0,0,-1,0,299.40317)"
         id="g214"><path
           id="path216"
           style="fill:none;stroke:#0000ff;stroke-width:2.13335991;stroke-linecap:butt;stroke-linejoin:round;stroke-miterlimit:10;stroke-opacity:1;stroke-dasharray:none"
           d="m 408.074,197.066 0,-7.199"
           inkscape:connector-curvature="0" /></g><g
         transform="matrix(1,0,0,-1,0,299.40317)"
         id="g218"><path
           id="path220"
           style="fill:none;stroke:#00ff00;stroke-width:2.13335991;stroke-linecap:butt;stroke-linejoin:round;stroke-miterlimit:10;stroke-opacity:1;stroke-dasharray:none"
           d="m 78.875,87.43 54.801,-8.891 54.801,44.773 54.8,14.247 54.797,49.558 54.801,19.481 54.801,-17.645"
           inkscape:connector-curvature="0" /></g><g
         transform="matrix(1,0,0,-1,0,299.40317)"
         id="g222"><path
           id="path224"
           style="fill:none;stroke:#00ff00;stroke-width:2.13335991;stroke-linecap:butt;stroke-linejoin:round;stroke-miterlimit:10;stroke-opacity:1;stroke-dasharray:none"
           d="m 75.676,87.066 7.199,0"
           inkscape:connector-curvature="0" /></g><g
         transform="matrix(1,0,0,-1,0,299.40317)"
         id="g226"><path
           id="path228"
           style="fill:none;stroke:#00ff00;stroke-width:2.13335991;stroke-linecap:butt;stroke-linejoin:round;stroke-miterlimit:10;stroke-opacity:1;stroke-dasharray:none"
           d="m 79.277,90.668 0,-7.203"
           inkscape:connector-curvature="0" /></g><g
         transform="matrix(1,0,0,-1,0,299.40317)"
         id="g230"><path
           id="path232"
           style="fill:none;stroke:#00ff00;stroke-width:2.13335991;stroke-linecap:butt;stroke-linejoin:round;stroke-miterlimit:10;stroke-opacity:1;stroke-dasharray:none"
           d="m 130.074,78.266 7.203,0"
           inkscape:connector-curvature="0" /></g><g
         transform="matrix(1,0,0,-1,0,299.40317)"
         id="g234"><path
           id="path236"
           style="fill:none;stroke:#00ff00;stroke-width:2.13335991;stroke-linecap:butt;stroke-linejoin:round;stroke-miterlimit:10;stroke-opacity:1;stroke-dasharray:none"
           d="m 133.676,81.867 0,-7.199"
           inkscape:connector-curvature="0" /></g><g
         transform="matrix(1,0,0,-1,0,299.40317)"
         id="g238"><path
           id="path240"
           style="fill:none;stroke:#00ff00;stroke-width:2.13335991;stroke-linecap:butt;stroke-linejoin:round;stroke-miterlimit:10;stroke-opacity:1;stroke-dasharray:none"
           d="m 184.477,123.066 7.199,0"
           inkscape:connector-curvature="0" /></g><g
         transform="matrix(1,0,0,-1,0,299.40317)"
         id="g242"><path
           id="path244"
           style="fill:none;stroke:#00ff00;stroke-width:2.13335991;stroke-linecap:butt;stroke-linejoin:round;stroke-miterlimit:10;stroke-opacity:1;stroke-dasharray:none"
           d="m 188.074,126.668 0,-7.203"
           inkscape:connector-curvature="0" /></g><g
         transform="matrix(1,0,0,-1,0,299.40317)"
         id="g246"><path
           id="path248"
           style="fill:none;stroke:#00ff00;stroke-width:2.13335991;stroke-linecap:butt;stroke-linejoin:round;stroke-miterlimit:10;stroke-opacity:1;stroke-dasharray:none"
           d="m 239.676,137.465 7.199,0"
           inkscape:connector-curvature="0" /></g><g
         transform="matrix(1,0,0,-1,0,299.40317)"
         id="g250"><path
           id="path252"
           style="fill:none;stroke:#00ff00;stroke-width:2.13335991;stroke-linecap:butt;stroke-linejoin:round;stroke-miterlimit:10;stroke-opacity:1;stroke-dasharray:none"
           d="m 243.277,141.066 0,-7.199"
           inkscape:connector-curvature="0" /></g><g
         transform="matrix(1,0,0,-1,0,299.40317)"
         id="g254"><path
           id="path256"
           style="fill:none;stroke:#00ff00;stroke-width:2.13335991;stroke-linecap:butt;stroke-linejoin:round;stroke-miterlimit:10;stroke-opacity:1;stroke-dasharray:none"
           d="m 294.875,187.066 7.199,0"
           inkscape:connector-curvature="0" /></g><g
         transform="matrix(1,0,0,-1,0,299.40317)"
         id="g258"><path
           id="path260"
           style="fill:none;stroke:#00ff00;stroke-width:2.13335991;stroke-linecap:butt;stroke-linejoin:round;stroke-miterlimit:10;stroke-opacity:1;stroke-dasharray:none"
           d="m 298.477,190.668 0,-7.203"
           inkscape:connector-curvature="0" /></g><g
         transform="matrix(1,0,0,-1,0,299.40317)"
         id="g262"><path
           id="path264"
           style="fill:none;stroke:#00ff00;stroke-width:2.13335991;stroke-linecap:butt;stroke-linejoin:round;stroke-miterlimit:10;stroke-opacity:1;stroke-dasharray:none"
           d="m 349.277,206.266 7.2,0"
           inkscape:connector-curvature="0" /></g><g
         transform="matrix(1,0,0,-1,0,299.40317)"
         id="g266"><path
           id="path268"
           style="fill:none;stroke:#00ff00;stroke-width:2.13335991;stroke-linecap:butt;stroke-linejoin:round;stroke-miterlimit:10;stroke-opacity:1;stroke-dasharray:none"
           d="m 352.875,209.867 0,-7.199"
           inkscape:connector-curvature="0" /></g><g
         transform="matrix(1,0,0,-1,0,299.40317)"
         id="g270"><path
           id="path272"
           style="fill:none;stroke:#00ff00;stroke-width:2.13335991;stroke-linecap:butt;stroke-linejoin:round;stroke-miterlimit:10;stroke-opacity:1;stroke-dasharray:none"
           d="m 404.477,188.668 7.199,0"
           inkscape:connector-curvature="0" /></g><g
         transform="matrix(1,0,0,-1,0,299.40317)"
         id="g274"><path
           id="path276"
           style="fill:none;stroke:#00ff00;stroke-width:2.13335991;stroke-linecap:butt;stroke-linejoin:round;stroke-miterlimit:10;stroke-opacity:1;stroke-dasharray:none"
           d="m 408.074,192.266 0,-7.2"
           inkscape:connector-curvature="0" /></g><g
         transform="matrix(1,0,0,-1,0,299.40317)"
         id="g278"><path
           id="path280"
           style="fill:none;stroke:#000000;stroke-width:2.13335991;stroke-linecap:butt;stroke-linejoin:round;stroke-miterlimit:10;stroke-opacity:1;stroke-dasharray:none"
           d="m 78.875,49.551 54.801,9.383 54.801,19.308 54.8,38.66 54.797,-90.957 54.801,116.16 54.801,57.254"
           inkscape:connector-curvature="0" /></g><g
         transform="matrix(1,0,0,-1,0,299.40317)"
         id="g282"><path
           id="path284"
           style="fill:none;stroke:#000000;stroke-width:2.13335991;stroke-linecap:butt;stroke-linejoin:round;stroke-miterlimit:10;stroke-opacity:1;stroke-dasharray:none"
           d="m 75.676,49.465 7.199,0"
           inkscape:connector-curvature="0" /></g><g
         transform="matrix(1,0,0,-1,0,299.40317)"
         id="g286"><path
           id="path288"
           style="fill:none;stroke:#000000;stroke-width:2.13335991;stroke-linecap:butt;stroke-linejoin:round;stroke-miterlimit:10;stroke-opacity:1;stroke-dasharray:none"
           d="m 79.277,53.066 0,-7.199"
           inkscape:connector-curvature="0" /></g><g
         transform="matrix(1,0,0,-1,0,299.40317)"
         id="g290"><path
           id="path292"
           style="fill:none;stroke:#000000;stroke-width:2.13335991;stroke-linecap:butt;stroke-linejoin:round;stroke-miterlimit:10;stroke-opacity:1;stroke-dasharray:none"
           d="m 130.074,59.066 7.203,0"
           inkscape:connector-curvature="0" /></g><g
         transform="matrix(1,0,0,-1,0,299.40317)"
         id="g294"><path
           id="path296"
           style="fill:none;stroke:#000000;stroke-width:2.13335991;stroke-linecap:butt;stroke-linejoin:round;stroke-miterlimit:10;stroke-opacity:1;stroke-dasharray:none"
           d="m 133.676,62.668 0,-7.203"
           inkscape:connector-curvature="0" /></g><g
         transform="matrix(1,0,0,-1,0,299.40317)"
         id="g298"><path
           id="path300"
           style="fill:none;stroke:#000000;stroke-width:2.13335991;stroke-linecap:butt;stroke-linejoin:round;stroke-miterlimit:10;stroke-opacity:1;stroke-dasharray:none"
           d="m 184.477,78.266 7.199,0"
           inkscape:connector-curvature="0" /></g><g
         transform="matrix(1,0,0,-1,0,299.40317)"
         id="g302"><path
           id="path304"
           style="fill:none;stroke:#000000;stroke-width:2.13335991;stroke-linecap:butt;stroke-linejoin:round;stroke-miterlimit:10;stroke-opacity:1;stroke-dasharray:none"
           d="m 188.074,81.867 0,-7.199"
           inkscape:connector-curvature="0" /></g><g
         transform="matrix(1,0,0,-1,0,299.40317)"
         id="g306"><path
           id="path308"
           style="fill:none;stroke:#000000;stroke-width:2.13335991;stroke-linecap:butt;stroke-linejoin:round;stroke-miterlimit:10;stroke-opacity:1;stroke-dasharray:none"
           d="m 239.676,116.668 7.199,0"
           inkscape:connector-curvature="0" /></g><g
         transform="matrix(1,0,0,-1,0,299.40317)"
         id="g310"><path
           id="path312"
           style="fill:none;stroke:#000000;stroke-width:2.13335991;stroke-linecap:butt;stroke-linejoin:round;stroke-miterlimit:10;stroke-opacity:1;stroke-dasharray:none"
           d="m 243.277,120.266 0,-7.2"
           inkscape:connector-curvature="0" /></g><g
         transform="matrix(1,0,0,-1,0,299.40317)"
         id="g314"><path
           id="path316"
           style="fill:none;stroke:#000000;stroke-width:2.13335991;stroke-linecap:butt;stroke-linejoin:round;stroke-miterlimit:10;stroke-opacity:1;stroke-dasharray:none"
           d="m 294.875,26.266 7.199,0"
           inkscape:connector-curvature="0" /></g><g
         transform="matrix(1,0,0,-1,0,299.40317)"
         id="g318"><path
           id="path320"
           style="fill:none;stroke:#000000;stroke-width:2.13335991;stroke-linecap:butt;stroke-linejoin:round;stroke-miterlimit:10;stroke-opacity:1;stroke-dasharray:none"
           d="m 298.477,29.867 0,-7.199"
           inkscape:connector-curvature="0" /></g><g
         transform="matrix(1,0,0,-1,0,299.40317)"
         id="g322"><path
           id="path324"
           style="fill:none;stroke:#000000;stroke-width:2.13335991;stroke-linecap:butt;stroke-linejoin:round;stroke-miterlimit:10;stroke-opacity:1;stroke-dasharray:none"
           d="m 349.277,142.266 7.2,0"
           inkscape:connector-curvature="0" /></g><g
         transform="matrix(1,0,0,-1,0,299.40317)"
         id="g326"><path
           id="path328"
           style="fill:none;stroke:#000000;stroke-width:2.13335991;stroke-linecap:butt;stroke-linejoin:round;stroke-miterlimit:10;stroke-opacity:1;stroke-dasharray:none"
           d="m 352.875,145.867 0,-7.199"
           inkscape:connector-curvature="0" /></g><g
         transform="matrix(1,0,0,-1,0,299.40317)"
         id="g330"><path
           id="path332"
           style="fill:none;stroke:#000000;stroke-width:2.13335991;stroke-linecap:butt;stroke-linejoin:round;stroke-miterlimit:10;stroke-opacity:1;stroke-dasharray:none"
           d="m 404.477,199.066 7.199,0"
           inkscape:connector-curvature="0" /></g><g
         transform="matrix(1,0,0,-1,0,299.40317)"
         id="g334"><path
           id="path336"
           style="fill:none;stroke:#000000;stroke-width:2.13335991;stroke-linecap:butt;stroke-linejoin:round;stroke-miterlimit:10;stroke-opacity:1;stroke-dasharray:none"
           d="m 408.074,202.668 0,-7.203"
           inkscape:connector-curvature="0" /></g><g
         id="ID000172"
         transform="matrix(0.55038792,0,0,-0.55038792,89.265057,255.12933)"><g
           transform="translate(302.17151,418.79791)"
           id="g1374"><g
             id="g1376"><text
               x="-19.492989"
               y="40.336334"
               font-size="24pt"
               id="text1378"
               style="font-size:26.63975906px;text-anchor:middle;fill:#000000;font-family:Helvetica">% observed data</text>
</g></g></g><g
         id="g3352"
         transform="matrix(0.67261546,-0.01070559,-0.01070559,-0.67261546,-157.6696,276.97807)"><g
           word-spacing="normal"
           letter-spacing="normal"
           font-size-adjust="none"
           font-stretch="normal"
           font-weight="normal"
           font-variant="normal"
           font-style="normal"
           stroke-miterlimit="10.433"
           xml:space="preserve"
           transform="matrix(-0.01454491,-0.53445063,-0.53445063,0.01454491,501.31438,517.40635)"
           id="content"
           style="font-style:normal;font-variant:normal;font-weight:normal;font-stretch:normal;letter-spacing:normal;word-spacing:normal;text-anchor:start;fill:none;stroke:#000000;stroke-linecap:butt;stroke-linejoin:miter;stroke-miterlimit:10.43299961;stroke-opacity:1;stroke-dasharray:none;stroke-dashoffset:0"><path
             id="path3355"
             d="m 461,423.34 v -13.36 c 0,-2.23 -0.54,-2.23 -3.89,-2.23 v -1.55 c 1.75,0.05 4.28,0.16 5.63,0.16 1.3,0 3.89,-0.11 5.58,-0.16 v 1.55 c -3.33,0 -3.88,0 -3.88,2.23 v 9.17 c 0,5.19 3.53,7.97 6.72,7.97 3.14,0 3.69,-2.69 3.69,-5.53 v -11.61 c 0,-2.23 -0.55,-2.23 -3.89,-2.23 v -1.55 c 1.75,0.05 4.29,0.16 5.64,0.16 1.29,0 3.87,-0.11 5.58,-0.16 v 1.55 c -3.35,0 -3.89,0 -3.89,2.23 v 9.17 c 0,5.19 3.54,7.97 6.73,7.97 3.14,0 3.69,-2.69 3.69,-5.53 v -11.61 c 0,-2.23 -0.55,-2.23 -3.89,-2.23 v -1.55 c 1.73,0.05 4.28,0.16 5.62,0.16 1.3,0 3.89,-0.11 5.58,-0.16 v 1.55 c -2.58,0 -3.83,0 -3.88,1.5 v 9.51 c 0,4.28 0,5.83 -1.54,7.61 -0.71,0.86 -2.35,1.84 -5.24,1.84 -4.18,0 -6.37,-2.98 -7.22,-4.87 -0.7,4.33 -4.39,4.87 -6.62,4.87 -3.64,0 -5.98,-2.14 -7.38,-5.21 v 5.21 l -7.03,-0.54 v -1.55 c 3.49,0 3.89,-0.34 3.89,-2.78 z"
             inkscape:connector-curvature="0"
             style="fill:#000000;stroke-width:0" /><path
             id="path3357"
             d="m 502.57,417.71 0.05,1.05 c 0.29,7.42 4.48,8.66 6.18,8.66 5.13,0 5.63,-6.72 5.63,-8.66 h -11.81 l -0.05,-1.05 h 13.91 c 1.09,0 1.23,0 1.23,1.05 0,4.92 -2.69,9.75 -8.91,9.75 -5.78,0 -10.37,-5.12 -10.37,-11.36 0,-6.67 5.23,-11.5 10.97,-11.5 6.08,0 8.31,5.53 8.31,6.47 0,0.5 -0.39,0.61 -0.64,0.61 -0.45,0 -0.55,-0.3 -0.66,-0.7 -1.73,-5.13 -6.21,-5.13 -6.71,-5.13 -2.5,0 -4.49,1.49 -5.63,3.33 -1.5,2.39 -1.5,5.69 -1.5,7.48 z"
             inkscape:connector-curvature="0"
             style="fill:#000000;stroke-width:0" /><path
             id="path3359"
             d="m 535.71,409.98 0.02,-0.19 0.03,-0.18 0.04,-0.19 0.04,-0.18 0.05,-0.19 0.05,-0.18 0.07,-0.18 0.06,-0.18 0.08,-0.18 0.08,-0.17 0.09,-0.18 0.09,-0.16 0.1,-0.16 0.11,-0.16 0.11,-0.16 0.12,-0.14 0.13,-0.14 0.13,-0.14 0.14,-0.13 0.14,-0.12 0.15,-0.12 0.16,-0.1 0.16,-0.1 0.17,-0.09 0.18,-0.08 0.18,-0.07 0.19,-0.06 0.19,-0.05 0.2,-0.04 0.2,-0.03 0.22,-0.02 0.21,-0.01 c 1.03,0 4.08,0.71 4.08,4.74 v 2.78 h -1.25 v -2.78 c 0,-2.89 -1.23,-3.19 -1.8,-3.19 -1.64,0 -1.84,2.23 -1.84,2.48 v 9.97 c 0,2.1 0,4.03 -1.78,5.88 -1.96,1.93 -4.44,2.73 -6.83,2.73 -4.09,0 -7.53,-2.33 -7.53,-5.62 0,-1.49 1,-2.35 2.3,-2.35 1.39,0 2.29,1 2.29,2.3 0,0.59 -0.25,2.23 -2.54,2.3 1.34,1.73 3.78,2.28 5.37,2.28 2.45,0 5.28,-1.94 5.28,-6.38 v -1.84 -1.05 -4.98 c 0,-4.74 -3.58,-6.42 -5.83,-6.42 -2.43,0 -4.48,1.75 -4.48,4.23 0,2.73 2.09,6.88 10.31,7.17 h 0 v 1.05 c -2.53,-0.14 -6.01,-0.3 -9.15,-1.8 -3.74,-1.69 -4.99,-4.28 -4.99,-6.47 0,-4.03 4.83,-5.28 7.97,-5.28 3.3,0 5.58,1.99 6.53,4.33 z"
             inkscape:connector-curvature="0"
             style="fill:#000000;stroke-width:0" /><path
             id="path3361"
             d="m 549.56,423.34 v -13.36 c 0,-2.23 -0.55,-2.23 -3.89,-2.23 v -1.55 c 1.75,0.05 4.28,0.16 5.62,0.16 1.3,0 3.89,-0.11 5.58,-0.16 v 1.55 c -3.33,0 -3.87,0 -3.87,2.23 v 9.17 c 0,5.19 3.53,7.97 6.72,7.97 3.13,0 3.68,-2.69 3.68,-5.53 v -11.61 c 0,-2.23 -0.55,-2.23 -3.89,-2.23 v -1.55 c 1.75,0.05 4.3,0.16 5.64,0.16 1.3,0 3.88,-0.11 5.58,-0.16 v 1.55 c -2.59,0 -3.84,0 -3.89,1.5 v 9.51 c 0,4.28 0,5.83 -1.55,7.61 -0.69,0.86 -2.34,1.84 -5.22,1.84 -3.64,0 -5.98,-2.14 -7.37,-5.21 v 5.21 l -7.03,-0.54 v -1.55 c 3.48,0 3.89,-0.34 3.89,-2.78 z"
             inkscape:connector-curvature="0"
             style="fill:#000000;stroke-width:0" /><path
             id="path3363"
             d="m 588.28,394.25 0,0.02 0,0.03 -0.01,0.01 0,0.02 0,0.01 -0.01,0.02 0,0.01 -0.01,0.02 -0.01,0.02 -0.01,0.02 -0.01,0.02 -0.01,0.03 -0.02,0.02 -0.02,0.03 -0.02,0.03 -0.02,0.03 -0.03,0.03 -0.03,0.04 -0.01,0.02 -0.02,0.02 -0.02,0.02 -0.02,0.02 -0.02,0.02 -0.02,0.03 -0.02,0.02 -0.02,0.02 -0.02,0.03 -0.02,0.02 -0.03,0.03 -0.03,0.03 -0.02,0.03 -0.03,0.03 -0.03,0.03 -0.03,0.03 -0.03,0.03 -0.03,0.03 -0.03,0.04 -0.04,0.03 -0.03,0.04 -0.04,0.03 -0.04,0.04 -0.04,0.04 c -6.21,6.28 -7.81,15.69 -7.81,23.31 0,8.67 1.89,17.35 8.02,23.56 0.64,0.61 0.64,0.71 0.64,0.86 0,0.35 -0.19,0.49 -0.49,0.49 -0.5,0 -4.98,-3.38 -7.92,-9.7 -2.55,-5.49 -3.14,-11.02 -3.14,-15.21 0,-3.89 0.55,-9.9 3.28,-15.54 2.99,-6.13 7.28,-9.36 7.78,-9.36 0.3,0 0.49,0.14 0.49,0.5 z"
             inkscape:connector-curvature="0"
             style="fill:#000000;stroke-width:0" /><path
             id="path3365"
             d="m 615.71,441.78 0,0.16 0,0.17 -0.01,0.16 0,0.08 0,0.08 -0.01,0.08 -0.01,0.08 -0.01,0.07 -0.01,0.07 -0.02,0.07 -0.01,0.07 -0.02,0.07 -0.02,0.06 -0.03,0.06 -0.03,0.06 -0.03,0.06 -0.03,0.05 -0.04,0.05 -0.04,0.05 -0.05,0.04 -0.05,0.04 -0.03,0.01 -0.03,0.02 -0.03,0.02 -0.03,0.01 -0.03,0.01 -0.03,0.02 -0.03,0.01 -0.04,0.01 -0.04,0.01 -0.03,0.01 -0.04,0 -0.04,0.01 -0.04,0 -0.05,0.01 -0.04,0 -0.05,0 c -1,0 -1,-0.89 -1,-1.78 v -46.24 c 0,-0.9 0,-1.79 1,-1.79 1,0 1,0.89 1,1.79 z"
             inkscape:connector-curvature="0"
             style="fill:#000000;stroke-width:0" /><path
             id="path3367"
             d="m 652.02,439.93 h -27.7 l -0.39,-7.78 h 1.25 c 0.09,2.05 0.25,3.35 0.59,3.89 0.3,0.39 3.33,0.39 3.78,0.39 h 17.24 c 0.55,0 3.5,0 3.8,-0.39 0.34,-0.54 0.5,-1.84 0.59,-3.89 h 1.25 z"
             inkscape:connector-curvature="0"
             style="fill:#000000;stroke-width:0" /><path
             id="path3369"
             d="m 624.07,406.2 h 28.2 l 0.41,8.31 h -1.25 c -0.16,-2.28 -0.2,-3.58 -0.59,-4.28 -0.3,-0.55 -2.89,-0.55 -3.99,-0.55 h -17.34 c -0.89,0 -3.64,0 -3.99,0.5 -0.4,0.66 -0.5,2.14 -0.59,4.33 h -1.25 z"
             inkscape:connector-curvature="0"
             style="fill:#000000;stroke-width:0" /><polygon
             id="polygon3371"
             points="646.6,419.45 647.84,419.45 647.84,428.03 646.6,428.03 646.6,425.48 629.76,425.48 629.76,428.03 628.51,428.03 628.51,419.45 629.76,419.45 629.76,422 646.6,422 "
             style="fill:#000000;stroke-width:0" /><path
             id="path3373"
             d="m 666.09,432.87 0.26,0.12 0.26,0.11 0.24,0.11 0.24,0.1 0.23,0.1 0.22,0.1 0.21,0.09 0.21,0.09 0.2,0.08 0.19,0.08 0.18,0.08 0.18,0.07 0.17,0.08 0.16,0.06 0.16,0.07 0.15,0.06 0.14,0.06 0.14,0.06 0.14,0.06 0.12,0.05 0.13,0.06 0.12,0.05 0.11,0.05 0.11,0.04 0.11,0.05 0.1,0.04 0.19,0.09 0.18,0.08 0.16,0.08 c 0.68,0.27 0.99,0.41 0.99,1.08 0,0.59 -0.45,1.11 -1.08,1.11 -0.25,0 -0.31,0 -0.73,-0.31 l -4.74,-3.17 0.52,5.15 c 0.08,0.63 0,1.5 -1.05,1.5 -0.42,0 -1.08,-0.28 -1.08,-1.04 0,-0.32 0.14,-1.36 0.17,-1.71 0.08,-0.59 0.32,-3.11 0.4,-3.9 l -4.71,3.17 c -0.36,0.2 -0.45,0.31 -0.76,0.31 -0.64,0 -1.1,-0.52 -1.1,-1.11 0,-0.7 0.42,-0.87 0.74,-1.01 l 5.26,-2.19 c -2.86,-1.27 -4.14,-1.75 -5.01,-2.17 -0.66,-0.29 -0.99,-0.43 -0.99,-1.08 0,-0.6 0.46,-1.11 1.1,-1.11 0.23,0 0.31,0 0.72,0.31 l 4.75,3.17 -0.57,-5.61 c 0,-0.76 0.66,-1.04 1.08,-1.04 0.42,0 1.08,0.28 1.08,1.04 0,0.32 -0.14,1.36 -0.17,1.71 -0.07,0.59 -0.32,3.09 -0.38,3.9 l 4.18,-2.79 c 0.9,-0.69 0.98,-0.69 1.29,-0.69 0.63,0 1.08,0.51 1.08,1.11 0,0.7 -0.42,0.87 -0.74,1.01 z"
             inkscape:connector-curvature="0"
             style="fill:#000000;stroke-width:0" /><path
             id="path3375"
             d="m 721.63,417.65 0.16,0 0.16,0 0.15,0.01 0.08,0 0.08,0.01 0.07,0 0.08,0.01 0.07,0.01 0.07,0.01 0.07,0.02 0.07,0.02 0.07,0.02 0.06,0.02 0.06,0.02 0.06,0.03 0.06,0.03 0.05,0.04 0.05,0.03 0.04,0.05 0.05,0.04 0.03,0.05 0.02,0.03 0.02,0.03 0.01,0.03 0.02,0.03 0.01,0.03 0.02,0.03 0.01,0.04 0.01,0.03 0.01,0.04 0.01,0.04 0,0.04 0.01,0.04 0,0.04 0.01,0.04 0,0.05 0,0.04 c 0,1 -0.91,1 -1.75,1 h -26.95 c -0.85,0 -1.74,0 -1.74,-1 0,-1 0.89,-1 1.74,-1 z"
             inkscape:connector-curvature="0"
             style="fill:#000000;stroke-width:0" /><polygon
             id="polygon3377"
             points="760.99,445.71 761.88,446.6 755.25,453.38 748.58,446.6 749.47,445.71 755.25,450.79 "
             style="fill:#000000;stroke-width:0" /><path
             id="path3379"
             d="m 769.04,439.93 h -27.7 l -0.39,-7.78 h 1.25 c 0.09,2.05 0.25,3.35 0.59,3.89 0.3,0.39 3.33,0.39 3.78,0.39 h 17.23 c 0.55,0 3.5,0 3.8,-0.39 0.35,-0.54 0.5,-1.84 0.6,-3.89 h 1.25 z"
             inkscape:connector-curvature="0"
             style="fill:#000000;stroke-width:0" /><path
             id="path3381"
             d="m 741.09,406.2 h 28.2 l 0.41,8.31 h -1.25 c -0.16,-2.28 -0.21,-3.58 -0.6,-4.28 -0.3,-0.55 -2.89,-0.55 -3.98,-0.55 h -17.35 c -0.89,0 -3.64,0 -3.98,0.5 -0.41,0.66 -0.5,2.14 -0.59,4.33 h -1.25 z"
             inkscape:connector-curvature="0"
             style="fill:#000000;stroke-width:0" /><polygon
             id="polygon3383"
             points="763.62,419.45 764.85,419.45 764.85,428.03 763.62,428.03 763.62,425.48 746.77,425.48 746.77,428.03 745.52,428.03 745.52,419.45 746.77,419.45 746.77,422 763.62,422 "
             style="fill:#000000;stroke-width:0" /><path
             id="path3385"
             d="m 779.76,441.78 0,0.16 0,0.17 0,0.16 -0.01,0.08 0,0.08 -0.01,0.08 -0.01,0.08 -0.01,0.07 -0.01,0.07 -0.02,0.07 -0.01,0.07 -0.02,0.07 -0.02,0.06 -0.03,0.06 -0.03,0.06 -0.03,0.06 -0.03,0.05 -0.04,0.05 -0.04,0.05 -0.05,0.04 -0.05,0.04 -0.03,0.01 -0.02,0.02 -0.03,0.02 -0.03,0.01 -0.04,0.01 -0.03,0.02 -0.03,0.01 -0.04,0.01 -0.03,0.01 -0.04,0.01 -0.04,0 -0.04,0.01 -0.04,0 -0.05,0.01 -0.04,0 -0.05,0 c -1,0 -1,-0.89 -1,-1.78 v -46.24 c 0,-0.9 0,-1.79 1,-1.79 1,0 1,0.89 1,1.79 z"
             inkscape:connector-curvature="0"
             style="fill:#000000;stroke-width:0" /><path
             id="path3387"
             d="m 800.03,418.65 0,0.37 -0.01,0.39 -0.01,0.39 -0.01,0.41 -0.04,0.84 -0.06,0.88 -0.08,0.92 -0.11,0.95 -0.13,0.97 -0.17,1.01 -0.19,1.02 -0.23,1.03 -0.27,1.05 -0.31,1.06 -0.35,1.07 -0.39,1.07 -0.21,0.53 -0.23,0.53 -0.23,0.53 -0.25,0.53 c -2.99,6.12 -7.27,9.36 -7.77,9.36 -0.3,0 -0.5,-0.19 -0.5,-0.49 0,-0.15 0,-0.25 0.94,-1.15 4.89,-4.92 7.73,-12.85 7.73,-23.27 0,-8.51 -1.84,-17.28 -8.03,-23.56 -0.64,-0.59 -0.64,-0.7 -0.64,-0.84 0,-0.3 0.2,-0.5 0.5,-0.5 0.5,0 4.97,3.39 7.92,9.71 2.53,5.47 3.13,11 3.13,15.19 z"
             inkscape:connector-curvature="0"
             style="fill:#000000;stroke-width:0" /><polygon
             id="polygon3389"
             points="829.51,395.73 829.51,441.57 834.34,441.57 834.34,443.56 827.51,443.56 827.51,393.75 834.34,393.75 834.34,395.73 "
             style="fill:#000000;stroke-width:0" /><path
             id="path3391"
             d="m 840.91,423.34 v -13.36 c 0,-2.23 -0.54,-2.23 -3.89,-2.23 v -1.55 c 1.75,0.05 4.28,0.16 5.63,0.16 1.3,0 3.89,-0.11 5.58,-0.16 v 1.55 c -3.33,0 -3.88,0 -3.88,2.23 v 9.17 c 0,5.19 3.53,7.97 6.72,7.97 3.14,0 3.69,-2.69 3.69,-5.53 v -11.61 c 0,-2.23 -0.55,-2.23 -3.89,-2.23 v -1.55 c 1.75,0.05 4.29,0.16 5.64,0.16 1.29,0 3.87,-0.11 5.58,-0.16 v 1.55 c -3.35,0 -3.89,0 -3.89,2.23 v 9.17 c 0,5.19 3.54,7.97 6.73,7.97 3.14,0 3.69,-2.69 3.69,-5.53 v -11.61 c 0,-2.23 -0.55,-2.23 -3.89,-2.23 v -1.55 c 1.73,0.05 4.28,0.16 5.62,0.16 1.3,0 3.89,-0.11 5.58,-0.16 v 1.55 c -2.58,0 -3.83,0 -3.88,1.5 v 9.51 c 0,4.28 0,5.83 -1.54,7.61 -0.71,0.86 -2.35,1.84 -5.24,1.84 -4.18,0 -6.37,-2.98 -7.22,-4.87 -0.7,4.33 -4.39,4.87 -6.62,4.87 -3.64,0 -5.98,-2.14 -7.38,-5.21 v 5.21 l -7.03,-0.54 v -1.55 c 3.49,0 3.89,-0.34 3.89,-2.78 z"
             inkscape:connector-curvature="0"
             style="fill:#000000;stroke-width:0" /><polygon
             id="polygon3393"
             points="878.04,441.57 882.87,441.57 882.87,395.73 878.04,395.73 878.04,393.75 884.87,393.75 884.87,443.56 878.04,443.56 "
             style="fill:#000000;stroke-width:0" /></g></g><text
         xml:space="preserve"
         style="font-size:28px;font-style:normal;font-weight:normal;line-height:125%;letter-spacing:0px;word-spacing:0px;fill:#000000;fill-opacity:1;stroke:none;font-family:Sans"
         x="38.125744"
         y="-82.082489"
         id="text3585"
         sodipodi:linespacing="125%"
         transform="scale(1,-1)"><tspan
           sodipodi:role="line"
           id="tspan3587"
           x="38.125744"
           y="-82.082489"
           style="font-size:12px">0.005</tspan></text>
<text
         xml:space="preserve"
         style="font-size:28px;font-style:normal;font-weight:normal;line-height:125%;letter-spacing:0px;word-spacing:0px;fill:#000000;fill-opacity:1;stroke:none;font-family:Sans"
         x="45.824963"
         y="-164.61351"
         id="text3589"
         sodipodi:linespacing="125%"
         transform="scale(1,-1)"><tspan
           sodipodi:role="line"
           id="tspan3591"
           x="45.824963"
           y="-164.61351"
           style="font-size:12px">0.01</tspan></text>
<text
         xml:space="preserve"
         style="font-size:28px;font-style:normal;font-weight:normal;line-height:125%;letter-spacing:0px;word-spacing:0px;fill:#000000;fill-opacity:1;stroke:none;font-family:Sans"
         x="38.125744"
         y="-247.14453"
         id="text3593"
         sodipodi:linespacing="125%"
         transform="scale(1,-1)"><tspan
           sodipodi:role="line"
           id="tspan3595"
           x="38.125744"
           y="-247.14453"
           style="font-size:12px">0.015</tspan></text>
</g></g></svg>