<?xml version="1.0" encoding="utf-8" standalone="no"?><!DOCTYPE svg PUBLIC "-//W3C//DTD SVG 1.1//EN" "http://www.w3.org/Graphics/SVG/1.1/DTD/svg11.dtd">
<svg preserveAspectRatio="xMinYMin meet" width="100%" height="100%" viewBox="0 0 393.000 420.000"  version="1.1" xmlns="http://www.w3.org/2000/svg" xmlns:xlink="http://www.w3.org/1999/xlink">
  <desc>Matlab Figure Converted by PLOT2SVG written by Juerg Schwizer</desc>
  <g id="topgroup">
  <rect x="0" y="0" width="393.000" height="420.000" fill="#ffffff" stroke="none" />
  <g id ="ID000000">
  <clipPath id="ID000001">
    <rect x="75.793" y="36.915" width="279.872" height="67.393"/>
  </clipPath>
      <polygon fill="#ffffff" fill-opacity="1.00" stroke="none" stroke-width="0.5pt" stroke-opacity="1.00" stroke-dasharray="none" points="75.793,104.309 355.665,104.309 355.665,36.915 75.793,36.915 "/>
      <polygon fill="#ffffff" fill-opacity="1.00" stroke="none" stroke-width="0.5pt" stroke-opacity="1.00" stroke-dasharray="none" points="75.793,36.915 355.665,36.915 355.665,36.915 75.793,36.915 "/>
      <polygon fill="#ffffff" fill-opacity="1.00" stroke="none" stroke-width="0.5pt" stroke-opacity="1.00" stroke-dasharray="none" points="75.793,104.309 75.793,104.309 75.793,36.915 75.793,36.915 "/>
    <g>
<g id="ID000002" clip-path="url(#ID000001)" >
      <polygon fill="#0000ff" fill-opacity="0.15" stroke="none" stroke-width="0.5pt" stroke-opacity="1.00" stroke-dasharray="none" points="77.659,65.301 79.524,65.339 81.390,65.380 83.256,65.427 85.122,65.479 86.988,65.537 88.854,65.601 90.719,65.672 92.585,65.751 94.451,65.838 96.317,65.934 98.183,66.039 100.048,66.154 101.914,66.280 103.780,66.417 105.646,66.565 107.512,66.727 109.378,66.900 111.243,67.088 113.109,67.288 114.975,67.503 116.841,67.732 118.707,67.975 120.572,68.232 122.438,68.504 124.304,68.789 126.170,69.088 128.036,69.400 129.901,69.724 131.767,70.061 133.633,70.408 135.499,70.766 137.365,71.133 139.231,71.509 141.096,71.891 142.962,72.280 144.828,72.673 146.694,73.070 148.560,73.469 150.425,73.870 152.291,74.271 154.157,74.671 156.023,75.068 157.889,75.463 159.755,75.854 161.620,76.240 163.486,76.621 165.352,76.996 167.218,77.364 169.084,77.726 170.949,78.079 172.815,78.425 174.681,78.762 176.547,79.091 178.413,79.411 180.278,79.723 182.144,80.025 184.010,80.318 185.876,80.603 187.742,80.878 189.608,81.143 191.473,81.400 193.339,81.647 195.205,81.885 197.071,82.114 198.937,82.334 200.802,82.545 202.668,82.746 204.534,82.939 206.400,83.124 208.266,83.299 210.131,83.466 211.997,83.625 213.863,83.777 215.729,83.920 217.595,84.055 219.461,84.184 221.326,84.305 223.192,84.420 225.058,84.528 226.924,84.629 228.790,84.725 230.655,84.815 232.521,84.899 234.387,84.978 236.253,85.052 238.119,85.122 239.985,85.187 241.850,85.248 243.716,85.304 245.582,85.357 247.448,85.407 249.314,85.453 251.179,85.496 253.045,85.536 254.911,85.573 256.777,85.607 258.643,85.640 260.508,85.669 262.374,85.697 264.240,85.723 266.106,85.747 267.972,85.769 269.838,85.789 271.703,85.808 273.569,85.826 275.435,85.842 277.301,85.857 279.167,85.871 281.032,85.884 282.898,85.896 284.764,85.907 286.630,85.917 288.496,85.926 290.361,85.935 292.227,85.943 294.093,85.950 295.959,85.957 297.825,85.963 299.691,85.969 299.691,73.597 297.825,73.537 295.959,73.472 294.093,73.402 292.227,73.327 290.361,73.246 288.496,73.159 286.630,73.065 284.764,72.965 282.898,72.857 281.032,72.741 279.167,72.617 277.301,72.485 275.435,72.343 273.569,72.192 271.703,72.031 269.838,71.860 267.972,71.677 266.106,71.484 264.240,71.279 262.374,71.062 260.508,70.834 258.643,70.593 256.777,70.339 254.911,70.073 253.045,69.794 251.179,69.503 249.314,69.199 247.448,68.883 245.582,68.555 243.716,68.215 241.850,67.864 239.985,67.503 238.119,67.131 236.253,66.751 234.387,66.361 232.521,65.964 230.655,65.559 228.790,65.149 226.924,64.733 225.058,64.313 223.192,63.889 221.326,63.462 219.461,63.034 217.595,62.605 215.729,62.175 213.863,61.746 211.997,61.319 210.131,60.893 208.266,60.470 206.400,60.050 204.534,59.634 202.668,59.222 200.802,58.815 198.937,58.413 197.071,58.017 195.205,57.628 193.339,57.245 191.473,56.869 189.608,56.500 187.742,56.140 185.876,55.788 184.010,55.444 182.144,55.109 180.278,54.783 178.413,54.467 176.547,54.160 174.681,53.863 172.815,53.576 170.949,53.299 169.084,53.033 167.218,52.776 165.352,52.530 163.486,52.295 161.620,52.070 159.755,51.855 157.889,51.651 156.023,51.457 154.157,51.274 152.291,51.101 150.425,50.938 148.560,50.785 146.694,50.643 144.828,50.510 142.962,50.388 141.096,50.276 139.231,50.173 137.365,50.080 135.499,49.997 133.633,49.924 131.767,49.860 129.901,49.806 128.036,49.761 126.170,49.724 124.304,49.697 122.438,49.678 120.572,49.667 118.707,49.664 116.841,49.668 114.975,49.680 113.109,49.698 111.243,49.723 109.378,49.754 107.512,49.789 105.646,49.830 103.780,49.875 101.914,49.924 100.048,49.975 98.183,50.030 96.317,50.087 94.451,50.146 92.585,50.206 90.719,50.267 88.854,50.328 86.988,50.389 85.122,50.450 83.256,50.510 81.390,50.570 79.524,50.628 77.659,50.685 "/>
</g>
<g id="ID000003" clip-path="url(#ID000001)" >
      <polyline fill="none" stroke="#8c8cff" stroke-width="1.0pt" stroke-dasharray="none" points="77.659,65.301 79.524,65.339 81.390,65.380 83.256,65.427 85.122,65.479 86.988,65.537 88.854,65.601 90.719,65.672 92.585,65.751 94.451,65.838 96.317,65.934 98.183,66.039 100.048,66.154 101.914,66.280 103.780,66.417 105.646,66.565 107.512,66.727 109.378,66.900 111.243,67.088 113.109,67.288 114.975,67.503 116.841,67.732 118.707,67.975 120.572,68.232 122.438,68.504 124.304,68.789 126.170,69.088 128.036,69.400 129.901,69.724 131.767,70.061 133.633,70.408 135.499,70.766 137.365,71.133 139.231,71.509 141.096,71.891 142.962,72.280 144.828,72.673 146.694,73.070 148.560,73.469 150.425,73.870 152.291,74.271 154.157,74.671 156.023,75.068 157.889,75.463 159.755,75.854 161.620,76.240 163.486,76.621 165.352,76.996 167.218,77.364 169.084,77.726 170.949,78.079 172.815,78.425 174.681,78.762 176.547,79.091 178.413,79.411 180.278,79.723 182.144,80.025 184.010,80.318 185.876,80.603 187.742,80.878 189.608,81.143 191.473,81.400 193.339,81.647 195.205,81.885 197.071,82.114 198.937,82.334 200.802,82.545 202.668,82.746 204.534,82.939 206.400,83.124 208.266,83.299 210.131,83.466 211.997,83.625 213.863,83.777 215.729,83.920 217.595,84.055 219.461,84.184 221.326,84.305 223.192,84.420 225.058,84.528 226.924,84.629 228.790,84.725 230.655,84.815 232.521,84.899 234.387,84.978 236.253,85.052 238.119,85.122 239.985,85.187 241.850,85.248 243.716,85.304 245.582,85.357 247.448,85.407 249.314,85.453 251.179,85.496 253.045,85.536 254.911,85.573 256.777,85.607 258.643,85.640 260.508,85.669 262.374,85.697 264.240,85.723 266.106,85.747 267.972,85.769 269.838,85.789 271.703,85.808 273.569,85.826 275.435,85.842 277.301,85.857 279.167,85.871 281.032,85.884 282.898,85.896 284.764,85.907 286.630,85.917 288.496,85.926 290.361,85.935 292.227,85.943 294.093,85.950 295.959,85.957 297.825,85.963 299.691,85.969 "/>
<g>
</g>
</g>
<g id="ID000004" clip-path="url(#ID000001)" >
      <polyline fill="none" stroke="#8c8cff" stroke-width="1.0pt" stroke-dasharray="none" points="77.659,50.685 79.524,50.628 81.390,50.570 83.256,50.510 85.122,50.450 86.988,50.389 88.854,50.328 90.719,50.267 92.585,50.206 94.451,50.146 96.317,50.087 98.183,50.030 100.048,49.975 101.914,49.924 103.780,49.875 105.646,49.830 107.512,49.789 109.378,49.754 111.243,49.723 113.109,49.698 114.975,49.680 116.841,49.668 118.707,49.664 120.572,49.667 122.438,49.678 124.304,49.697 126.170,49.724 128.036,49.761 129.901,49.806 131.767,49.860 133.633,49.924 135.499,49.997 137.365,50.080 139.231,50.173 141.096,50.276 142.962,50.388 144.828,50.510 146.694,50.643 148.560,50.785 150.425,50.938 152.291,51.101 154.157,51.274 156.023,51.457 157.889,51.651 159.755,51.855 161.620,52.070 163.486,52.295 165.352,52.530 167.218,52.776 169.084,53.033 170.949,53.299 172.815,53.576 174.681,53.863 176.547,54.160 178.413,54.467 180.278,54.783 182.144,55.109 184.010,55.444 185.876,55.788 187.742,56.140 189.608,56.500 191.473,56.869 193.339,57.245 195.205,57.628 197.071,58.017 198.937,58.413 200.802,58.815 202.668,59.222 204.534,59.634 206.400,60.050 208.266,60.470 210.131,60.893 211.997,61.319 213.863,61.746 215.729,62.175 217.595,62.605 219.461,63.034 221.326,63.462 223.192,63.889 225.058,64.313 226.924,64.733 228.790,65.149 230.655,65.559 232.521,65.964 234.387,66.361 236.253,66.751 238.119,67.131 239.985,67.503 241.850,67.864 243.716,68.215 245.582,68.555 247.448,68.883 249.314,69.199 251.179,69.503 253.045,69.794 254.911,70.073 256.777,70.339 258.643,70.593 260.508,70.834 262.374,71.062 264.240,71.279 266.106,71.484 267.972,71.677 269.838,71.860 271.703,72.031 273.569,72.192 275.435,72.343 277.301,72.485 279.167,72.617 281.032,72.741 282.898,72.857 284.764,72.965 286.630,73.065 288.496,73.159 290.361,73.246 292.227,73.327 294.093,73.402 295.959,73.472 297.825,73.537 299.691,73.597 "/>
<g>
</g>
</g>
<g id="ID000005" clip-path="url(#ID000001)" >
      <polyline fill="none" stroke="#0000ff" stroke-width="1.0pt" stroke-dasharray="none" points="77.659,57.993 79.524,57.983 81.390,57.975 83.256,57.969 85.122,57.965 86.988,57.963 88.854,57.965 90.719,57.970 92.585,57.979 94.451,57.992 96.317,58.010 98.183,58.035 100.048,58.065 101.914,58.102 103.780,58.146 105.646,58.198 107.512,58.258 109.378,58.327 111.243,58.405 113.109,58.493 114.975,58.592 116.841,58.700 118.707,58.819 120.572,58.949 122.438,59.091 124.304,59.243 126.170,59.406 128.036,59.580 129.901,59.765 131.767,59.961 133.633,60.166 135.499,60.382 137.365,60.607 139.231,60.841 141.096,61.083 142.962,61.334 144.828,61.592 146.694,61.856 148.560,62.127 150.425,62.404 152.291,62.686 154.157,62.972 156.023,63.263 157.889,63.557 159.755,63.855 161.620,64.155 163.486,64.458 165.352,64.763 167.218,65.070 169.084,65.379 170.949,65.689 172.815,66.000 174.681,66.312 176.547,66.625 178.413,66.939 180.278,67.253 182.144,67.567 184.010,67.881 185.876,68.195 187.742,68.509 189.608,68.822 191.473,69.134 193.339,69.446 195.205,69.757 197.071,70.066 198.937,70.374 200.802,70.680 202.668,70.984 204.534,71.287 206.400,71.587 208.266,71.884 210.131,72.180 211.997,72.472 213.863,72.761 215.729,73.048 217.595,73.330 219.461,73.609 221.326,73.884 223.192,74.154 225.058,74.420 226.924,74.681 228.790,74.937 230.655,75.187 232.521,75.431 234.387,75.670 236.253,75.901 238.119,76.127 239.985,76.345 241.850,76.556 243.716,76.760 245.582,76.956 247.448,77.145 249.314,77.326 251.179,77.499 253.045,77.665 254.911,77.823 256.777,77.973 258.643,78.116 260.508,78.252 262.374,78.380 264.240,78.501 266.106,78.615 267.972,78.723 269.838,78.824 271.703,78.920 273.569,79.009 275.435,79.093 277.301,79.171 279.167,79.244 281.032,79.313 282.898,79.376 284.764,79.436 286.630,79.491 288.496,79.543 290.361,79.590 292.227,79.635 294.093,79.676 295.959,79.715 297.825,79.750 299.691,79.783 "/>
<g>
</g>
</g>
<g id="ID000006" clip-path="url(#ID000001)" >
      <polyline fill="none" stroke="#0000ff" stroke-width="1.0pt" stroke-dasharray="none" points="77.659,57.993 79.524,57.983 81.390,57.975 83.256,57.969 85.122,57.965 86.988,57.963 88.854,57.965 90.719,57.970 92.585,57.979 94.451,57.992 96.317,58.010 98.183,58.035 100.048,58.065 101.914,58.102 103.780,58.146 105.646,58.198 107.512,58.258 109.378,58.327 111.243,58.405 113.109,58.493 114.975,58.592 116.841,58.700 118.707,58.819 120.572,58.949 122.438,59.091 124.304,59.243 126.170,59.406 128.036,59.580 129.901,59.765 131.767,59.961 133.633,60.166 135.499,60.382 137.365,60.607 139.231,60.841 141.096,61.083 142.962,61.334 144.828,61.592 146.694,61.856 148.560,62.127 150.425,62.404 152.291,62.686 154.157,62.972 156.023,63.263 157.889,63.557 159.755,63.855 161.620,64.155 163.486,64.458 165.352,64.763 167.218,65.070 169.084,65.379 170.949,65.689 172.815,66.000 174.681,66.312 176.547,66.625 178.413,66.939 180.278,67.253 182.144,67.567 184.010,67.881 185.876,68.195 187.742,68.509 189.608,68.822 191.473,69.134 193.339,69.446 195.205,69.757 197.071,70.066 198.937,70.374 200.802,70.680 202.668,70.984 204.534,71.287 206.400,71.587 208.266,71.884 210.131,72.180 211.997,72.472 213.863,72.761 215.729,73.048 217.595,73.330 219.461,73.609 221.326,73.884 223.192,74.154 225.058,74.420 226.924,74.681 228.790,74.937 230.655,75.187 232.521,75.431 234.387,75.670 236.253,75.901 238.119,76.127 239.985,76.345 241.850,76.556 243.716,76.760 245.582,76.956 247.448,77.145 249.314,77.326 251.179,77.499 253.045,77.665 254.911,77.823 256.777,77.973 258.643,78.116 260.508,78.252 262.374,78.380 264.240,78.501 266.106,78.615 267.972,78.723 269.838,78.824 271.703,78.920 273.569,79.009 275.435,79.093 277.301,79.171 279.167,79.244 281.032,79.313 282.898,79.376 284.764,79.436 286.630,79.491 288.496,79.543 290.361,79.590 292.227,79.635 294.093,79.676 295.959,79.715 297.825,79.750 299.691,79.783 "/>
<g>
</g>
</g>
<g id="ID000007" clip-path="url(#ID000001)" >
      <polygon fill="#ff0000" fill-opacity="0.15" stroke="none" stroke-width="0.5pt" stroke-opacity="1.00" stroke-dasharray="none" points="77.659,53.910 79.524,53.903 81.390,53.899 83.256,53.896 85.122,53.896 86.988,53.899 88.854,53.905 90.719,53.914 92.585,53.928 94.451,53.947 96.317,53.971 98.183,54.001 100.048,54.037 101.914,54.081 103.780,54.132 105.646,54.191 107.512,54.259 109.378,54.336 111.243,54.422 113.109,54.519 114.975,54.627 116.841,54.745 118.707,54.875 120.572,55.015 122.438,55.168 124.304,55.332 126.170,55.508 128.036,55.695 129.901,55.894 131.767,56.105 133.633,56.326 135.499,56.558 137.365,56.800 139.231,57.053 141.096,57.315 142.962,57.585 144.828,57.865 146.694,58.152 148.560,58.447 150.425,58.749 152.291,59.057 154.157,59.372 156.023,59.692 157.889,60.018 159.755,60.348 161.620,60.683 163.486,61.023 165.352,61.366 167.218,61.714 169.084,62.065 170.949,62.420 172.815,62.778 174.681,63.139 176.547,63.503 178.413,63.871 180.278,64.241 182.144,64.614 184.010,64.989 185.876,65.367 187.742,65.748 189.608,66.130 191.473,66.514 193.339,66.901 195.205,67.289 197.071,67.678 198.937,68.068 200.802,68.460 202.668,68.852 204.534,69.245 206.400,69.638 208.266,70.031 210.131,70.424 211.997,70.816 213.863,71.207 215.729,71.596 217.595,71.983 219.461,72.368 221.326,72.750 223.192,73.128 225.058,73.502 226.924,73.871 228.790,74.235 230.655,74.593 232.521,74.944 234.387,75.288 236.253,75.625 238.119,75.953 239.985,76.272 241.850,76.582 243.716,76.882 245.582,77.172 247.448,77.452 249.314,77.721 251.179,77.979 253.045,78.226 254.911,78.462 256.777,78.688 258.643,78.902 260.508,79.106 262.374,79.299 264.240,79.482 266.106,79.655 267.972,79.818 269.838,79.971 271.703,80.115 273.569,80.251 275.435,80.378 277.301,80.497 279.167,80.608 281.032,80.712 282.898,80.810 284.764,80.900 286.630,80.984 288.496,81.063 290.361,81.136 292.227,81.204 294.093,81.267 295.959,81.325 297.825,81.380 299.691,81.430 299.691,73.096 297.825,73.031 295.959,72.961 294.093,72.885 292.227,72.803 290.361,72.715 288.496,72.621 286.630,72.519 284.764,72.410 282.898,72.293 281.032,72.168 279.167,72.034 277.301,71.891 275.435,71.737 273.569,71.574 271.703,71.400 269.838,71.215 267.972,71.019 266.106,70.810 264.240,70.590 262.374,70.357 260.508,70.111 258.643,69.852 256.777,69.581 254.911,69.296 253.045,68.998 251.179,68.687 249.314,68.364 247.448,68.028 245.582,67.680 243.716,67.321 241.850,66.951 239.985,66.571 238.119,66.182 236.253,65.783 234.387,65.378 232.521,64.966 230.655,64.548 228.790,64.125 226.924,63.699 225.058,63.271 223.192,62.842 221.326,62.412 219.461,61.983 217.595,61.556 215.729,61.131 213.863,60.710 211.997,60.293 210.131,59.882 208.266,59.476 206.400,59.076 204.534,58.684 202.668,58.299 200.802,57.922 198.937,57.553 197.071,57.193 195.205,56.842 193.339,56.500 191.473,56.168 189.608,55.845 187.742,55.532 185.876,55.230 184.010,54.938 182.144,54.656 180.278,54.385 178.413,54.124 176.547,53.874 174.681,53.634 172.815,53.405 170.949,53.186 169.084,52.978 167.218,52.780 165.352,52.592 163.486,52.414 161.620,52.246 159.755,52.088 157.889,51.939 156.023,51.799 154.157,51.669 152.291,51.548 150.425,51.435 148.560,51.331 146.694,51.235 144.828,51.146 142.962,51.066 141.096,50.994 139.231,50.928 137.365,50.870 135.499,50.819 133.633,50.774 131.767,50.736 129.901,50.704 128.036,50.678 126.170,50.658 124.304,50.643 122.438,50.634 120.572,50.630 118.707,50.630 116.841,50.636 114.975,50.645 113.109,50.658 111.243,50.675 109.378,50.695 107.512,50.718 105.646,50.743 103.780,50.771 101.914,50.802 100.048,50.833 98.183,50.867 96.317,50.901 94.451,50.937 92.585,50.973 90.719,51.009 88.854,51.045 86.988,51.082 85.122,51.118 83.256,51.153 81.390,51.188 79.524,51.222 77.659,51.255 "/>
</g>
<g id="ID000008" clip-path="url(#ID000001)" >
      <polyline fill="none" stroke="#ff8c8c" stroke-width="1.0pt" stroke-dasharray="none" points="77.659,53.910 79.524,53.903 81.390,53.899 83.256,53.896 85.122,53.896 86.988,53.899 88.854,53.905 90.719,53.914 92.585,53.928 94.451,53.947 96.317,53.971 98.183,54.001 100.048,54.037 101.914,54.081 103.780,54.132 105.646,54.191 107.512,54.259 109.378,54.336 111.243,54.422 113.109,54.519 114.975,54.627 116.841,54.745 118.707,54.875 120.572,55.015 122.438,55.168 124.304,55.332 126.170,55.508 128.036,55.695 129.901,55.894 131.767,56.105 133.633,56.326 135.499,56.558 137.365,56.800 139.231,57.053 141.096,57.315 142.962,57.585 144.828,57.865 146.694,58.152 148.560,58.447 150.425,58.749 152.291,59.057 154.157,59.372 156.023,59.692 157.889,60.018 159.755,60.348 161.620,60.683 163.486,61.023 165.352,61.366 167.218,61.714 169.084,62.065 170.949,62.420 172.815,62.778 174.681,63.139 176.547,63.503 178.413,63.871 180.278,64.241 182.144,64.614 184.010,64.989 185.876,65.367 187.742,65.748 189.608,66.130 191.473,66.514 193.339,66.901 195.205,67.289 197.071,67.678 198.937,68.068 200.802,68.460 202.668,68.852 204.534,69.245 206.400,69.638 208.266,70.031 210.131,70.424 211.997,70.816 213.863,71.207 215.729,71.596 217.595,71.983 219.461,72.368 221.326,72.750 223.192,73.128 225.058,73.502 226.924,73.871 228.790,74.235 230.655,74.593 232.521,74.944 234.387,75.288 236.253,75.625 238.119,75.953 239.985,76.272 241.850,76.582 243.716,76.882 245.582,77.172 247.448,77.452 249.314,77.721 251.179,77.979 253.045,78.226 254.911,78.462 256.777,78.688 258.643,78.902 260.508,79.106 262.374,79.299 264.240,79.482 266.106,79.655 267.972,79.818 269.838,79.971 271.703,80.115 273.569,80.251 275.435,80.378 277.301,80.497 279.167,80.608 281.032,80.712 282.898,80.810 284.764,80.900 286.630,80.984 288.496,81.063 290.361,81.136 292.227,81.204 294.093,81.267 295.959,81.325 297.825,81.380 299.691,81.430 "/>
<g>
</g>
</g>
<g id="ID000009" clip-path="url(#ID000001)" >
      <polyline fill="none" stroke="#ff8c8c" stroke-width="1.0pt" stroke-dasharray="none" points="77.659,51.255 79.524,51.222 81.390,51.188 83.256,51.153 85.122,51.118 86.988,51.082 88.854,51.045 90.719,51.009 92.585,50.973 94.451,50.937 96.317,50.901 98.183,50.867 100.048,50.833 101.914,50.802 103.780,50.771 105.646,50.743 107.512,50.718 109.378,50.695 111.243,50.675 113.109,50.658 114.975,50.645 116.841,50.636 118.707,50.630 120.572,50.630 122.438,50.634 124.304,50.643 126.170,50.658 128.036,50.678 129.901,50.704 131.767,50.736 133.633,50.774 135.499,50.819 137.365,50.870 139.231,50.928 141.096,50.994 142.962,51.066 144.828,51.146 146.694,51.235 148.560,51.331 150.425,51.435 152.291,51.548 154.157,51.669 156.023,51.799 157.889,51.939 159.755,52.088 161.620,52.246 163.486,52.414 165.352,52.592 167.218,52.780 169.084,52.978 170.949,53.186 172.815,53.405 174.681,53.634 176.547,53.874 178.413,54.124 180.278,54.385 182.144,54.656 184.010,54.938 185.876,55.230 187.742,55.532 189.608,55.845 191.473,56.168 193.339,56.500 195.205,56.842 197.071,57.193 198.937,57.553 200.802,57.922 202.668,58.299 204.534,58.684 206.400,59.076 208.266,59.476 210.131,59.882 211.997,60.293 213.863,60.710 215.729,61.131 217.595,61.556 219.461,61.983 221.326,62.412 223.192,62.842 225.058,63.271 226.924,63.699 228.790,64.125 230.655,64.548 232.521,64.966 234.387,65.378 236.253,65.783 238.119,66.182 239.985,66.571 241.850,66.951 243.716,67.321 245.582,67.680 247.448,68.028 249.314,68.364 251.179,68.687 253.045,68.998 254.911,69.296 256.777,69.581 258.643,69.852 260.508,70.111 262.374,70.357 264.240,70.590 266.106,70.810 267.972,71.019 269.838,71.215 271.703,71.400 273.569,71.574 275.435,71.737 277.301,71.891 279.167,72.034 281.032,72.168 282.898,72.293 284.764,72.410 286.630,72.519 288.496,72.621 290.361,72.715 292.227,72.803 294.093,72.885 295.959,72.961 297.825,73.031 299.691,73.096 "/>
<g>
</g>
</g>
<g id="ID000010" clip-path="url(#ID000001)" >
      <polyline fill="none" stroke="#ff0000" stroke-width="1.0pt" stroke-dasharray="none" points="77.659,52.583 79.524,52.563 81.390,52.543 83.256,52.525 85.122,52.507 86.988,52.490 88.854,52.475 90.719,52.462 92.585,52.450 94.451,52.442 96.317,52.436 98.183,52.434 100.048,52.435 101.914,52.441 103.780,52.452 105.646,52.467 107.512,52.488 109.378,52.515 111.243,52.548 113.109,52.589 114.975,52.636 116.841,52.690 118.707,52.753 120.572,52.823 122.438,52.901 124.304,52.988 126.170,53.083 128.036,53.187 129.901,53.299 131.767,53.420 133.633,53.550 135.499,53.688 137.365,53.835 139.231,53.990 141.096,54.154 142.962,54.326 144.828,54.506 146.694,54.693 148.560,54.889 150.425,55.092 152.291,55.303 154.157,55.521 156.023,55.746 157.889,55.978 159.755,56.218 161.620,56.465 163.486,56.718 165.352,56.979 167.218,57.247 169.084,57.521 170.949,57.803 172.815,58.091 174.681,58.386 176.547,58.689 178.413,58.997 180.278,59.313 182.144,59.635 184.010,59.964 185.876,60.299 187.742,60.640 189.608,60.988 191.473,61.341 193.339,61.700 195.205,62.065 197.071,62.435 198.937,62.811 200.802,63.191 202.668,63.576 204.534,63.965 206.400,64.357 208.266,64.754 210.131,65.153 211.997,65.555 213.863,65.958 215.729,66.363 217.595,66.769 219.461,67.175 221.326,67.581 223.192,67.985 225.058,68.386 226.924,68.785 228.790,69.180 230.655,69.570 232.521,69.955 234.387,70.333 236.253,70.704 238.119,71.067 239.985,71.421 241.850,71.767 243.716,72.102 245.582,72.426 247.448,72.740 249.314,73.042 251.179,73.333 253.045,73.612 254.911,73.879 256.777,74.134 258.643,74.377 260.508,74.608 262.374,74.828 264.240,75.036 266.106,75.233 267.972,75.418 269.838,75.593 271.703,75.758 273.569,75.913 275.435,76.058 277.301,76.194 279.167,76.321 281.032,76.440 282.898,76.551 284.764,76.655 286.630,76.752 288.496,76.842 290.361,76.926 292.227,77.004 294.093,77.076 295.959,77.143 297.825,77.205 299.691,77.263 "/>
<g>
</g>
</g>
<g id="ID000011" clip-path="url(#ID000001)" >
      <polyline fill="none" stroke="#ff0000" stroke-width="1.0pt" stroke-dasharray="none" points="77.659,52.583 79.524,52.563 81.390,52.543 83.256,52.525 85.122,52.507 86.988,52.490 88.854,52.475 90.719,52.462 92.585,52.450 94.451,52.442 96.317,52.436 98.183,52.434 100.048,52.435 101.914,52.441 103.780,52.452 105.646,52.467 107.512,52.488 109.378,52.515 111.243,52.548 113.109,52.589 114.975,52.636 116.841,52.690 118.707,52.753 120.572,52.823 122.438,52.901 124.304,52.988 126.170,53.083 128.036,53.187 129.901,53.299 131.767,53.420 133.633,53.550 135.499,53.688 137.365,53.835 139.231,53.990 141.096,54.154 142.962,54.326 144.828,54.506 146.694,54.693 148.560,54.889 150.425,55.092 152.291,55.303 154.157,55.521 156.023,55.746 157.889,55.978 159.755,56.218 161.620,56.465 163.486,56.718 165.352,56.979 167.218,57.247 169.084,57.521 170.949,57.803 172.815,58.091 174.681,58.386 176.547,58.689 178.413,58.997 180.278,59.313 182.144,59.635 184.010,59.964 185.876,60.299 187.742,60.640 189.608,60.988 191.473,61.341 193.339,61.700 195.205,62.065 197.071,62.435 198.937,62.811 200.802,63.191 202.668,63.576 204.534,63.965 206.400,64.357 208.266,64.754 210.131,65.153 211.997,65.555 213.863,65.958 215.729,66.363 217.595,66.769 219.461,67.175 221.326,67.581 223.192,67.985 225.058,68.386 226.924,68.785 228.790,69.180 230.655,69.570 232.521,69.955 234.387,70.333 236.253,70.704 238.119,71.067 239.985,71.421 241.850,71.767 243.716,72.102 245.582,72.426 247.448,72.740 249.314,73.042 251.179,73.333 253.045,73.612 254.911,73.879 256.777,74.134 258.643,74.377 260.508,74.608 262.374,74.828 264.240,75.036 266.106,75.233 267.972,75.418 269.838,75.593 271.703,75.758 273.569,75.913 275.435,76.058 277.301,76.194 279.167,76.321 281.032,76.440 282.898,76.551 284.764,76.655 286.630,76.752 288.496,76.842 290.361,76.926 292.227,77.004 294.093,77.076 295.959,77.143 297.825,77.205 299.691,77.263 "/>
<g>
</g>
</g>
<g id="ID000012" clip-path="url(#ID000001)" >
      <polyline fill="none" stroke="#000000" stroke-width="2.0pt" stroke-dasharray="2.0,2.0" points="75.794,53.529 77.646,53.224 79.498,52.963 81.350,52.742 83.202,52.558 85.054,52.408 86.906,52.279 88.758,52.194 90.611,52.146 92.463,52.118 94.315,52.115 96.167,52.123 98.019,52.152 99.871,52.191 101.723,52.233 103.575,52.271 105.427,52.332 107.280,52.376 109.132,52.444 110.984,52.517 112.836,52.637 114.688,52.786 116.540,52.945 118.392,53.140 120.244,53.393 122.096,53.613 123.949,53.846 125.801,54.099 127.653,54.375 129.505,54.679 131.357,55.012 133.209,55.358 135.061,55.764 136.913,56.136 138.765,56.592 140.618,57.089 142.470,57.604 144.322,58.148 146.174,58.729 148.026,59.319 149.878,59.896 151.730,60.554 153.582,61.202 155.434,61.861 157.287,62.555 159.139,63.241 160.991,63.899 162.843,64.532 164.695,65.149 166.547,65.755 168.399,66.384 170.251,67.013 172.103,67.608 173.956,68.228 175.808,68.804 177.660,69.391 179.512,69.947 181.364,70.490 183.216,71.022 185.068,71.557 186.920,72.075 188.772,72.571 190.625,73.050 192.477,73.482 194.329,73.896 196.181,74.288 198.033,74.678 199.885,75.025 201.737,75.364 203.589,75.678 205.442,75.970 207.294,76.231 209.146,76.479 210.998,76.709 212.850,76.914 214.702,77.112 "/>
<g>
</g>
</g>
<g id="ID000013" clip-path="url(#ID000001)" >
<g>
<circle cx="77.659" cy="53.529" r="3.000" fill="none" stroke="#000000" stroke-width="3.0pt" />
<circle cx="79.524" cy="53.224" r="3.000" fill="none" stroke="#000000" stroke-width="3.0pt" />
<circle cx="81.390" cy="52.963" r="3.000" fill="none" stroke="#000000" stroke-width="3.0pt" />
<circle cx="83.256" cy="52.742" r="3.000" fill="none" stroke="#000000" stroke-width="3.0pt" />
<circle cx="85.122" cy="52.558" r="3.000" fill="none" stroke="#000000" stroke-width="3.0pt" />
<circle cx="86.988" cy="52.408" r="3.000" fill="none" stroke="#000000" stroke-width="3.0pt" />
<circle cx="88.854" cy="52.279" r="3.000" fill="none" stroke="#000000" stroke-width="3.0pt" />
<circle cx="90.719" cy="52.194" r="3.000" fill="none" stroke="#000000" stroke-width="3.0pt" />
<circle cx="92.585" cy="52.146" r="3.000" fill="none" stroke="#000000" stroke-width="3.0pt" />
<circle cx="94.451" cy="52.118" r="3.000" fill="none" stroke="#000000" stroke-width="3.0pt" />
<circle cx="96.317" cy="52.115" r="3.000" fill="none" stroke="#000000" stroke-width="3.0pt" />
<circle cx="98.183" cy="52.123" r="3.000" fill="none" stroke="#000000" stroke-width="3.0pt" />
<circle cx="100.048" cy="52.152" r="3.000" fill="none" stroke="#000000" stroke-width="3.0pt" />
<circle cx="101.914" cy="52.191" r="3.000" fill="none" stroke="#000000" stroke-width="3.0pt" />
<circle cx="103.780" cy="52.233" r="3.000" fill="none" stroke="#000000" stroke-width="3.0pt" />
<circle cx="105.646" cy="52.271" r="3.000" fill="none" stroke="#000000" stroke-width="3.0pt" />
<circle cx="107.512" cy="52.332" r="3.000" fill="none" stroke="#000000" stroke-width="3.0pt" />
<circle cx="109.378" cy="52.376" r="3.000" fill="none" stroke="#000000" stroke-width="3.0pt" />
<circle cx="111.243" cy="52.444" r="3.000" fill="none" stroke="#000000" stroke-width="3.0pt" />
<circle cx="113.109" cy="52.517" r="3.000" fill="none" stroke="#000000" stroke-width="3.0pt" />
<circle cx="114.975" cy="52.637" r="3.000" fill="none" stroke="#000000" stroke-width="3.0pt" />
<circle cx="116.841" cy="52.786" r="3.000" fill="none" stroke="#000000" stroke-width="3.0pt" />
<circle cx="118.707" cy="52.945" r="3.000" fill="none" stroke="#000000" stroke-width="3.0pt" />
</g>
</g>
<g id="ID000014" >
  <g transform="translate(19.316,71.618)">
    <g transform="rotate(-90.0)">
      <text x="0.000" y="0.000" font-family="Helvetica" text-anchor="middle" font-size="24pt" fill="#000000" >x[m]</text>
    </g>
  </g>
</g>
<g id="ID000015" >
</g>
<g id="ID000016" >
</g>
    </g>
    <g>
      <polyline fill="none" stroke="#000000" stroke-width="0.5pt" stroke-dasharray="none" points="169.084,104.309 169.084,101.510 "/>
      <polyline fill="none" stroke="#000000" stroke-width="0.5pt" stroke-dasharray="none" points="262.374,104.309 262.374,101.510 "/>
      <polyline fill="none" stroke="#000000" stroke-width="0.5pt" stroke-dasharray="none" points="75.793,104.309 355.665,104.309 "/>
      <polyline fill="none" stroke="#000000" stroke-width="0.5pt" stroke-dasharray="none" points="169.084,36.915 169.084,39.714 "/>
      <polyline fill="none" stroke="#000000" stroke-width="0.5pt" stroke-dasharray="none" points="262.374,36.915 262.374,39.714 "/>
      <polyline fill="none" stroke="#000000" stroke-width="0.5pt" stroke-dasharray="none" points="75.793,36.915 355.665,36.915 "/>
  <g transform="translate(75.793,129.257)">
    <g transform="rotate(-0.0)">
      <text x="0.000" y="0.000" font-family="Helvetica" text-anchor="middle" font-size="20pt" fill="#000000" >0</text>
    </g>
  </g>
  <g transform="translate(169.084,129.257)">
    <g transform="rotate(-0.0)">
      <text x="0.000" y="0.000" font-family="Helvetica" text-anchor="middle" font-size="20pt" fill="#000000" >0.5</text>
    </g>
  </g>
  <g transform="translate(262.374,129.257)">
    <g transform="rotate(-0.0)">
      <text x="0.000" y="0.000" font-family="Helvetica" text-anchor="middle" font-size="20pt" fill="#000000" >1</text>
    </g>
  </g>
  <g transform="translate(355.665,129.257)">
    <g transform="rotate(-0.0)">
      <text x="0.000" y="0.000" font-family="Helvetica" text-anchor="middle" font-size="20pt" fill="#000000" >1.5</text>
    </g>
  </g>
      <polyline fill="none" stroke="#000000" stroke-width="0.5pt" stroke-dasharray="none" points="75.793,70.612 78.592,70.612 "/>
      <polyline fill="none" stroke="#000000" stroke-width="0.5pt" stroke-dasharray="none" points="75.793,104.309 75.793,36.915 "/>
      <polyline fill="none" stroke="#000000" stroke-width="0.5pt" stroke-dasharray="none" points="355.665,70.612 352.866,70.612 "/>
      <polyline fill="none" stroke="#000000" stroke-width="0.5pt" stroke-dasharray="none" points="355.665,104.309 355.665,36.915 "/>
  <g transform="translate(70.195,113.309)">
    <g transform="rotate(-0.0)">
      <text x="0.000" y="0.000" font-family="Helvetica" text-anchor="end" font-size="20pt" fill="#000000" >-0.4</text>
    </g>
  </g>
  <g transform="translate(70.195,79.612)">
    <g transform="rotate(-0.0)">
      <text x="0.000" y="0.000" font-family="Helvetica" text-anchor="end" font-size="20pt" fill="#000000" >-0.3</text>
    </g>
  </g>
  <g transform="translate(70.195,45.915)">
    <g transform="rotate(-0.0)">
      <text x="0.000" y="0.000" font-family="Helvetica" text-anchor="end" font-size="20pt" fill="#000000" >-0.2</text>
    </g>
  </g>
      <polyline fill="none" stroke="#000000" stroke-width="0.5pt" stroke-dasharray="none" points="75.793,104.309 75.793,103.635 "/>
      <polyline fill="none" stroke="#000000" stroke-width="0.5pt" stroke-dasharray="none" points="75.793,104.309 75.793,104.309 "/>
    </g>
  </g>
  <g id ="ID000017">
  <clipPath id="ID000018">
    <rect x="75.793" y="162.761" width="279.872" height="67.393"/>
  </clipPath>
      <polygon fill="#ffffff" fill-opacity="1.00" stroke="none" stroke-width="0.5pt" stroke-opacity="1.00" stroke-dasharray="none" points="75.793,230.154 355.665,230.154 355.665,162.761 75.793,162.761 "/>
      <polygon fill="#ffffff" fill-opacity="1.00" stroke="none" stroke-width="0.5pt" stroke-opacity="1.00" stroke-dasharray="none" points="75.793,162.761 355.665,162.761 355.665,162.761 75.793,162.761 "/>
      <polygon fill="#ffffff" fill-opacity="1.00" stroke="none" stroke-width="0.5pt" stroke-opacity="1.00" stroke-dasharray="none" points="75.793,230.154 75.793,230.154 75.793,162.761 75.793,162.761 "/>
    <g>
<g id="ID000019" clip-path="url(#ID000018)" >
      <polygon fill="#0000ff" fill-opacity="0.15" stroke="none" stroke-width="0.5pt" stroke-opacity="1.00" stroke-dasharray="none" points="77.659,202.327 79.524,202.374 81.390,202.424 83.256,202.477 85.122,202.532 86.988,202.590 88.854,202.651 90.719,202.715 92.585,202.782 94.451,202.852 96.317,202.925 98.183,203.001 100.048,203.079 101.914,203.161 103.780,203.245 105.646,203.333 107.512,203.422 109.378,203.515 111.243,203.609 113.109,203.706 114.975,203.805 116.841,203.905 118.707,204.007 120.572,204.110 122.438,204.214 124.304,204.318 126.170,204.422 128.036,204.526 129.901,204.629 131.767,204.730 133.633,204.828 135.499,204.924 137.365,205.017 139.231,205.105 141.096,205.188 142.962,205.266 144.828,205.338 146.694,205.403 148.560,205.460 150.425,205.508 152.291,205.548 154.157,205.579 156.023,205.599 157.889,205.610 159.755,205.609 161.620,205.598 163.486,205.575 165.352,205.541 167.218,205.496 169.084,205.440 170.949,205.372 172.815,205.295 174.681,205.206 176.547,205.109 178.413,205.002 180.278,204.886 182.144,204.762 184.010,204.632 185.876,204.495 187.742,204.353 189.608,204.206 191.473,204.056 193.339,203.903 195.205,203.747 197.071,203.591 198.937,203.435 200.802,203.279 202.668,203.125 204.534,202.972 206.400,202.823 208.266,202.676 210.131,202.533 211.997,202.394 213.863,202.259 215.729,202.129 217.595,202.003 219.461,201.883 221.326,201.768 223.192,201.659 225.058,201.554 226.924,201.455 228.790,201.360 230.655,201.271 232.521,201.187 234.387,201.108 236.253,201.033 238.119,200.963 239.985,200.897 241.850,200.835 243.716,200.778 245.582,200.724 247.448,200.673 249.314,200.626 251.179,200.582 253.045,200.542 254.911,200.504 256.777,200.468 258.643,200.436 260.508,200.405 262.374,200.377 264.240,200.351 266.106,200.326 267.972,200.304 269.838,200.283 271.703,200.264 273.569,200.246 275.435,200.230 277.301,200.214 279.167,200.200 281.032,200.187 282.898,200.175 284.764,200.164 286.630,200.154 288.496,200.144 290.361,200.136 292.227,200.128 294.093,200.120 295.959,200.113 297.825,200.107 299.691,200.101 299.691,179.258 297.825,179.157 295.959,179.049 294.093,178.932 292.227,178.806 290.361,178.671 288.496,178.527 286.630,178.371 284.764,178.205 282.898,178.027 281.032,177.837 279.167,177.634 277.301,177.417 275.435,177.187 273.569,176.942 271.703,176.683 269.838,176.408 267.972,176.118 266.106,175.811 264.240,175.489 262.374,175.151 260.508,174.796 258.643,174.427 256.777,174.041 254.911,173.641 253.045,173.228 251.179,172.801 249.314,172.362 247.448,171.913 245.582,171.455 243.716,170.990 241.850,170.520 239.985,170.047 238.119,169.573 236.253,169.102 234.387,168.635 232.521,168.175 230.655,167.725 228.790,167.289 226.924,166.868 225.058,166.466 223.192,166.085 221.326,165.728 219.461,165.397 217.595,165.094 215.729,164.822 213.863,164.582 211.997,164.375 210.131,164.204 208.266,164.067 206.400,163.967 204.534,163.904 202.668,163.877 200.802,163.887 198.937,163.932 197.071,164.011 195.205,164.125 193.339,164.272 191.473,164.449 189.608,164.656 187.742,164.892 185.876,165.154 184.010,165.440 182.144,165.749 180.278,166.079 178.413,166.428 176.547,166.794 174.681,167.176 172.815,167.572 170.949,167.980 169.084,168.399 167.218,168.827 165.352,169.263 163.486,169.706 161.620,170.153 159.755,170.605 157.889,171.059 156.023,171.515 154.157,171.972 152.291,172.428 150.425,172.882 148.560,173.333 146.694,173.781 144.828,174.224 142.962,174.661 141.096,175.091 139.231,175.514 137.365,175.928 135.499,176.333 133.633,176.728 131.767,177.112 129.901,177.485 128.036,177.847 126.170,178.196 124.304,178.533 122.438,178.857 120.572,179.168 118.707,179.467 116.841,179.752 114.975,180.024 113.109,180.283 111.243,180.530 109.378,180.764 107.512,180.986 105.646,181.196 103.780,181.395 101.914,181.582 100.048,181.759 98.183,181.925 96.317,182.082 94.451,182.228 92.585,182.366 90.719,182.495 88.854,182.616 86.988,182.729 85.122,182.834 83.256,182.933 81.390,183.025 79.524,183.110 77.659,183.190 "/>
</g>
<g id="ID000020" clip-path="url(#ID000018)" >
      <polyline fill="none" stroke="#8c8cff" stroke-width="1.0pt" stroke-dasharray="none" points="77.659,202.327 79.524,202.374 81.390,202.424 83.256,202.477 85.122,202.532 86.988,202.590 88.854,202.651 90.719,202.715 92.585,202.782 94.451,202.852 96.317,202.925 98.183,203.001 100.048,203.079 101.914,203.161 103.780,203.245 105.646,203.333 107.512,203.422 109.378,203.515 111.243,203.609 113.109,203.706 114.975,203.805 116.841,203.905 118.707,204.007 120.572,204.110 122.438,204.214 124.304,204.318 126.170,204.422 128.036,204.526 129.901,204.629 131.767,204.730 133.633,204.828 135.499,204.924 137.365,205.017 139.231,205.105 141.096,205.188 142.962,205.266 144.828,205.338 146.694,205.403 148.560,205.460 150.425,205.508 152.291,205.548 154.157,205.579 156.023,205.599 157.889,205.610 159.755,205.609 161.620,205.598 163.486,205.575 165.352,205.541 167.218,205.496 169.084,205.440 170.949,205.372 172.815,205.295 174.681,205.206 176.547,205.109 178.413,205.002 180.278,204.886 182.144,204.762 184.010,204.632 185.876,204.495 187.742,204.353 189.608,204.206 191.473,204.056 193.339,203.903 195.205,203.747 197.071,203.591 198.937,203.435 200.802,203.279 202.668,203.125 204.534,202.972 206.400,202.823 208.266,202.676 210.131,202.533 211.997,202.394 213.863,202.259 215.729,202.129 217.595,202.003 219.461,201.883 221.326,201.768 223.192,201.659 225.058,201.554 226.924,201.455 228.790,201.360 230.655,201.271 232.521,201.187 234.387,201.108 236.253,201.033 238.119,200.963 239.985,200.897 241.850,200.835 243.716,200.778 245.582,200.724 247.448,200.673 249.314,200.626 251.179,200.582 253.045,200.542 254.911,200.504 256.777,200.468 258.643,200.436 260.508,200.405 262.374,200.377 264.240,200.351 266.106,200.326 267.972,200.304 269.838,200.283 271.703,200.264 273.569,200.246 275.435,200.230 277.301,200.214 279.167,200.200 281.032,200.187 282.898,200.175 284.764,200.164 286.630,200.154 288.496,200.144 290.361,200.136 292.227,200.128 294.093,200.120 295.959,200.113 297.825,200.107 299.691,200.101 "/>
<g>
</g>
</g>
<g id="ID000021" clip-path="url(#ID000018)" >
      <polyline fill="none" stroke="#8c8cff" stroke-width="1.0pt" stroke-dasharray="none" points="77.659,183.190 79.524,183.110 81.390,183.025 83.256,182.933 85.122,182.834 86.988,182.729 88.854,182.616 90.719,182.495 92.585,182.366 94.451,182.228 96.317,182.082 98.183,181.925 100.048,181.759 101.914,181.582 103.780,181.395 105.646,181.196 107.512,180.986 109.378,180.764 111.243,180.530 113.109,180.283 114.975,180.024 116.841,179.752 118.707,179.467 120.572,179.168 122.438,178.857 124.304,178.533 126.170,178.196 128.036,177.847 129.901,177.485 131.767,177.112 133.633,176.728 135.499,176.333 137.365,175.928 139.231,175.514 141.096,175.091 142.962,174.661 144.828,174.224 146.694,173.781 148.560,173.333 150.425,172.882 152.291,172.428 154.157,171.972 156.023,171.515 157.889,171.059 159.755,170.605 161.620,170.153 163.486,169.706 165.352,169.263 167.218,168.827 169.084,168.399 170.949,167.980 172.815,167.572 174.681,167.176 176.547,166.794 178.413,166.428 180.278,166.079 182.144,165.749 184.010,165.440 185.876,165.154 187.742,164.892 189.608,164.656 191.473,164.449 193.339,164.272 195.205,164.125 197.071,164.011 198.937,163.932 200.802,163.887 202.668,163.877 204.534,163.904 206.400,163.967 208.266,164.067 210.131,164.204 211.997,164.375 213.863,164.582 215.729,164.822 217.595,165.094 219.461,165.397 221.326,165.728 223.192,166.085 225.058,166.466 226.924,166.868 228.790,167.289 230.655,167.725 232.521,168.175 234.387,168.635 236.253,169.102 238.119,169.573 239.985,170.047 241.850,170.520 243.716,170.990 245.582,171.455 247.448,171.913 249.314,172.362 251.179,172.801 253.045,173.228 254.911,173.641 256.777,174.041 258.643,174.427 260.508,174.796 262.374,175.151 264.240,175.489 266.106,175.811 267.972,176.118 269.838,176.408 271.703,176.683 273.569,176.942 275.435,177.187 277.301,177.417 279.167,177.634 281.032,177.837 282.898,178.027 284.764,178.205 286.630,178.371 288.496,178.527 290.361,178.671 292.227,178.806 294.093,178.932 295.959,179.049 297.825,179.157 299.691,179.258 "/>
<g>
</g>
</g>
<g id="ID000022" clip-path="url(#ID000018)" >
      <polyline fill="none" stroke="#0000ff" stroke-width="1.0pt" stroke-dasharray="none" points="77.659,192.759 79.524,192.742 81.390,192.725 83.256,192.705 85.122,192.683 86.988,192.660 88.854,192.634 90.719,192.605 92.585,192.574 94.451,192.540 96.317,192.503 98.183,192.463 100.048,192.419 101.914,192.372 103.780,192.320 105.646,192.265 107.512,192.204 109.378,192.139 111.243,192.070 113.109,191.995 114.975,191.914 116.841,191.829 118.707,191.737 120.572,191.639 122.438,191.536 124.304,191.426 126.170,191.309 128.036,191.186 129.901,191.057 131.767,190.921 133.633,190.778 135.499,190.628 137.365,190.472 139.231,190.309 141.096,190.140 142.962,189.963 144.828,189.781 146.694,189.592 148.560,189.396 150.425,189.195 152.291,188.988 154.157,188.775 156.023,188.557 157.889,188.334 159.755,188.107 161.620,187.875 163.486,187.640 165.352,187.402 167.218,187.161 169.084,186.919 170.949,186.676 172.815,186.433 174.681,186.191 176.547,185.951 178.413,185.715 180.278,185.482 182.144,185.256 184.010,185.036 185.876,184.824 187.742,184.622 189.608,184.431 191.473,184.252 193.339,184.087 195.205,183.936 197.071,183.801 198.937,183.683 200.802,183.583 202.668,183.501 204.534,183.438 206.400,183.395 208.266,183.372 210.131,183.368 211.997,183.384 213.863,183.420 215.729,183.475 217.595,183.549 219.461,183.640 221.326,183.748 223.192,183.872 225.058,184.010 226.924,184.161 228.790,184.325 230.655,184.498 232.521,184.681 234.387,184.871 236.253,185.067 238.119,185.268 239.985,185.472 241.850,185.678 243.716,185.884 245.582,186.089 247.448,186.293 249.314,186.494 251.179,186.692 253.045,186.885 254.911,187.073 256.777,187.255 258.643,187.431 260.508,187.601 262.374,187.764 264.240,187.920 266.106,188.069 267.972,188.211 269.838,188.346 271.703,188.473 273.569,188.594 275.435,188.708 277.301,188.816 279.167,188.917 281.032,189.012 282.898,189.101 284.764,189.185 286.630,189.263 288.496,189.336 290.361,189.404 292.227,189.467 294.093,189.526 295.959,189.581 297.825,189.632 299.691,189.680 "/>
<g>
</g>
</g>
<g id="ID000023" clip-path="url(#ID000018)" >
      <polyline fill="none" stroke="#0000ff" stroke-width="1.0pt" stroke-dasharray="none" points="77.659,192.759 79.524,192.742 81.390,192.725 83.256,192.705 85.122,192.683 86.988,192.660 88.854,192.634 90.719,192.605 92.585,192.574 94.451,192.540 96.317,192.503 98.183,192.463 100.048,192.419 101.914,192.372 103.780,192.320 105.646,192.265 107.512,192.204 109.378,192.139 111.243,192.070 113.109,191.995 114.975,191.914 116.841,191.829 118.707,191.737 120.572,191.639 122.438,191.536 124.304,191.426 126.170,191.309 128.036,191.186 129.901,191.057 131.767,190.921 133.633,190.778 135.499,190.628 137.365,190.472 139.231,190.309 141.096,190.140 142.962,189.963 144.828,189.781 146.694,189.592 148.560,189.396 150.425,189.195 152.291,188.988 154.157,188.775 156.023,188.557 157.889,188.334 159.755,188.107 161.620,187.875 163.486,187.640 165.352,187.402 167.218,187.161 169.084,186.919 170.949,186.676 172.815,186.433 174.681,186.191 176.547,185.951 178.413,185.715 180.278,185.482 182.144,185.256 184.010,185.036 185.876,184.824 187.742,184.622 189.608,184.431 191.473,184.252 193.339,184.087 195.205,183.936 197.071,183.801 198.937,183.683 200.802,183.583 202.668,183.501 204.534,183.438 206.400,183.395 208.266,183.372 210.131,183.368 211.997,183.384 213.863,183.420 215.729,183.475 217.595,183.549 219.461,183.640 221.326,183.748 223.192,183.872 225.058,184.010 226.924,184.161 228.790,184.325 230.655,184.498 232.521,184.681 234.387,184.871 236.253,185.067 238.119,185.268 239.985,185.472 241.850,185.678 243.716,185.884 245.582,186.089 247.448,186.293 249.314,186.494 251.179,186.692 253.045,186.885 254.911,187.073 256.777,187.255 258.643,187.431 260.508,187.601 262.374,187.764 264.240,187.920 266.106,188.069 267.972,188.211 269.838,188.346 271.703,188.473 273.569,188.594 275.435,188.708 277.301,188.816 279.167,188.917 281.032,189.012 282.898,189.101 284.764,189.185 286.630,189.263 288.496,189.336 290.361,189.404 292.227,189.467 294.093,189.526 295.959,189.581 297.825,189.632 299.691,189.680 "/>
<g>
</g>
</g>
<g id="ID000024" clip-path="url(#ID000018)" >
      <polygon fill="#ff0000" fill-opacity="0.15" stroke="none" stroke-width="0.5pt" stroke-opacity="1.00" stroke-dasharray="none" points="77.659,195.554 79.524,195.494 81.390,195.437 83.256,195.382 85.122,195.330 86.988,195.283 88.854,195.241 90.719,195.205 92.585,195.176 94.451,195.157 96.317,195.146 98.183,195.147 100.048,195.160 101.914,195.186 103.780,195.226 105.646,195.282 107.512,195.354 109.378,195.442 111.243,195.548 113.109,195.673 114.975,195.815 116.841,195.975 118.707,196.153 120.572,196.349 122.438,196.561 124.304,196.789 126.170,197.031 128.036,197.286 129.901,197.551 131.767,197.825 133.633,198.104 135.499,198.387 137.365,198.671 139.231,198.951 141.096,199.227 142.962,199.493 144.828,199.747 146.694,199.986 148.560,200.207 150.425,200.406 152.291,200.581 154.157,200.728 156.023,200.847 157.889,200.934 159.755,200.987 161.620,201.007 163.486,200.991 165.352,200.939 167.218,200.851 169.084,200.727 170.949,200.568 172.815,200.375 174.681,200.151 176.547,199.896 178.413,199.614 180.278,199.307 182.144,198.978 184.010,198.630 185.876,198.267 187.742,197.894 189.608,197.512 191.473,197.127 193.339,196.741 195.205,196.359 197.071,195.984 198.937,195.620 200.802,195.269 202.668,194.935 204.534,194.620 206.400,194.326 208.266,194.056 210.131,193.811 211.997,193.591 213.863,193.398 215.729,193.233 217.595,193.095 219.461,192.984 221.326,192.899 223.192,192.841 225.058,192.807 226.924,192.796 228.790,192.808 230.655,192.840 232.521,192.891 234.387,192.958 236.253,193.041 238.119,193.136 239.985,193.243 241.850,193.360 243.716,193.484 245.582,193.615 247.448,193.750 249.314,193.888 251.179,194.028 253.045,194.169 254.911,194.309 256.777,194.448 258.643,194.585 260.508,194.719 262.374,194.849 264.240,194.976 266.106,195.098 267.972,195.216 269.838,195.328 271.703,195.436 273.569,195.539 275.435,195.636 277.301,195.729 279.167,195.816 281.032,195.898 282.898,195.976 284.764,196.049 286.630,196.118 288.496,196.182 290.361,196.243 292.227,196.299 294.093,196.351 295.959,196.400 297.825,196.446 299.691,196.489 299.691,178.553 297.825,178.476 295.959,178.393 294.093,178.304 292.227,178.208 290.361,178.105 288.496,177.995 286.630,177.877 284.764,177.751 282.898,177.616 281.032,177.472 279.167,177.319 277.301,177.156 275.435,176.983 273.569,176.800 271.703,176.606 269.838,176.402 267.972,176.187 266.106,175.960 264.240,175.724 262.374,175.476 260.508,175.219 258.643,174.951 256.777,174.675 254.911,174.389 253.045,174.097 251.179,173.798 249.314,173.494 247.448,173.187 245.582,172.877 243.716,172.568 241.850,172.261 239.985,171.957 238.119,171.661 236.253,171.373 234.387,171.097 232.521,170.836 230.655,170.591 228.790,170.365 226.924,170.162 225.058,169.983 223.192,169.831 221.326,169.708 219.461,169.616 217.595,169.557 215.729,169.532 213.863,169.542 211.997,169.588 210.131,169.670 208.266,169.789 206.400,169.943 204.534,170.133 202.668,170.357 200.802,170.614 198.937,170.901 197.071,171.217 195.205,171.558 193.339,171.923 191.473,172.309 189.608,172.712 187.742,173.130 185.876,173.558 184.010,173.995 182.144,174.436 180.278,174.879 178.413,175.320 176.547,175.757 174.681,176.188 172.815,176.610 170.949,177.021 169.084,177.418 167.218,177.802 165.352,178.170 163.486,178.521 161.620,178.856 159.755,179.173 157.889,179.473 156.023,179.756 154.157,180.021 152.291,180.271 150.425,180.506 148.560,180.726 146.694,180.934 144.828,181.129 142.962,181.315 141.096,181.491 139.231,181.660 137.365,181.823 135.499,181.981 133.633,182.136 131.767,182.289 129.901,182.441 128.036,182.594 126.170,182.748 124.304,182.904 122.438,183.063 120.572,183.226 118.707,183.392 116.841,183.563 114.975,183.738 113.109,183.918 111.243,184.101 109.378,184.289 107.512,184.480 105.646,184.675 103.780,184.872 101.914,185.071 100.048,185.271 98.183,185.472 96.317,185.672 94.451,185.872 92.585,186.071 90.719,186.266 88.854,186.460 86.988,186.649 85.122,186.834 83.256,187.015 81.390,187.190 79.524,187.361 77.659,187.525 "/>
</g>
<g id="ID000025" clip-path="url(#ID000018)" >
      <polyline fill="none" stroke="#ff8c8c" stroke-width="1.0pt" stroke-dasharray="none" points="77.659,195.554 79.524,195.494 81.390,195.437 83.256,195.382 85.122,195.330 86.988,195.283 88.854,195.241 90.719,195.205 92.585,195.176 94.451,195.157 96.317,195.146 98.183,195.147 100.048,195.160 101.914,195.186 103.780,195.226 105.646,195.282 107.512,195.354 109.378,195.442 111.243,195.548 113.109,195.673 114.975,195.815 116.841,195.975 118.707,196.153 120.572,196.349 122.438,196.561 124.304,196.789 126.170,197.031 128.036,197.286 129.901,197.551 131.767,197.825 133.633,198.104 135.499,198.387 137.365,198.671 139.231,198.951 141.096,199.227 142.962,199.493 144.828,199.747 146.694,199.986 148.560,200.207 150.425,200.406 152.291,200.581 154.157,200.728 156.023,200.847 157.889,200.934 159.755,200.987 161.620,201.007 163.486,200.991 165.352,200.939 167.218,200.851 169.084,200.727 170.949,200.568 172.815,200.375 174.681,200.151 176.547,199.896 178.413,199.614 180.278,199.307 182.144,198.978 184.010,198.630 185.876,198.267 187.742,197.894 189.608,197.512 191.473,197.127 193.339,196.741 195.205,196.359 197.071,195.984 198.937,195.620 200.802,195.269 202.668,194.935 204.534,194.620 206.400,194.326 208.266,194.056 210.131,193.811 211.997,193.591 213.863,193.398 215.729,193.233 217.595,193.095 219.461,192.984 221.326,192.899 223.192,192.841 225.058,192.807 226.924,192.796 228.790,192.808 230.655,192.840 232.521,192.891 234.387,192.958 236.253,193.041 238.119,193.136 239.985,193.243 241.850,193.360 243.716,193.484 245.582,193.615 247.448,193.750 249.314,193.888 251.179,194.028 253.045,194.169 254.911,194.309 256.777,194.448 258.643,194.585 260.508,194.719 262.374,194.849 264.240,194.976 266.106,195.098 267.972,195.216 269.838,195.328 271.703,195.436 273.569,195.539 275.435,195.636 277.301,195.729 279.167,195.816 281.032,195.898 282.898,195.976 284.764,196.049 286.630,196.118 288.496,196.182 290.361,196.243 292.227,196.299 294.093,196.351 295.959,196.400 297.825,196.446 299.691,196.489 "/>
<g>
</g>
</g>
<g id="ID000026" clip-path="url(#ID000018)" >
      <polyline fill="none" stroke="#ff8c8c" stroke-width="1.0pt" stroke-dasharray="none" points="77.659,187.525 79.524,187.361 81.390,187.190 83.256,187.015 85.122,186.834 86.988,186.649 88.854,186.460 90.719,186.266 92.585,186.071 94.451,185.872 96.317,185.672 98.183,185.472 100.048,185.271 101.914,185.071 103.780,184.872 105.646,184.675 107.512,184.480 109.378,184.289 111.243,184.101 113.109,183.918 114.975,183.738 116.841,183.563 118.707,183.392 120.572,183.226 122.438,183.063 124.304,182.904 126.170,182.748 128.036,182.594 129.901,182.441 131.767,182.289 133.633,182.136 135.499,181.981 137.365,181.823 139.231,181.660 141.096,181.491 142.962,181.315 144.828,181.129 146.694,180.934 148.560,180.726 150.425,180.506 152.291,180.271 154.157,180.021 156.023,179.756 157.889,179.473 159.755,179.173 161.620,178.856 163.486,178.521 165.352,178.170 167.218,177.802 169.084,177.418 170.949,177.021 172.815,176.610 174.681,176.188 176.547,175.757 178.413,175.320 180.278,174.879 182.144,174.436 184.010,173.995 185.876,173.558 187.742,173.130 189.608,172.712 191.473,172.309 193.339,171.923 195.205,171.558 197.071,171.217 198.937,170.901 200.802,170.614 202.668,170.357 204.534,170.133 206.400,169.943 208.266,169.789 210.131,169.670 211.997,169.588 213.863,169.542 215.729,169.532 217.595,169.557 219.461,169.616 221.326,169.708 223.192,169.831 225.058,169.983 226.924,170.162 228.790,170.365 230.655,170.591 232.521,170.836 234.387,171.097 236.253,171.373 238.119,171.661 239.985,171.957 241.850,172.261 243.716,172.568 245.582,172.877 247.448,173.187 249.314,173.494 251.179,173.798 253.045,174.097 254.911,174.389 256.777,174.675 258.643,174.951 260.508,175.219 262.374,175.476 264.240,175.724 266.106,175.960 267.972,176.187 269.838,176.402 271.703,176.606 273.569,176.800 275.435,176.983 277.301,177.156 279.167,177.319 281.032,177.472 282.898,177.616 284.764,177.751 286.630,177.877 288.496,177.995 290.361,178.105 292.227,178.208 294.093,178.304 295.959,178.393 297.825,178.476 299.691,178.553 "/>
<g>
</g>
</g>
<g id="ID000027" clip-path="url(#ID000018)" >
      <polyline fill="none" stroke="#ff0000" stroke-width="1.0pt" stroke-dasharray="none" points="77.659,191.539 79.524,191.427 81.390,191.314 83.256,191.198 85.122,191.082 86.988,190.966 88.854,190.850 90.719,190.736 92.585,190.623 94.451,190.514 96.317,190.409 98.183,190.309 100.048,190.215 101.914,190.128 103.780,190.049 105.646,189.978 107.512,189.917 109.378,189.866 111.243,189.825 113.109,189.795 114.975,189.776 116.841,189.769 118.707,189.773 120.572,189.787 122.438,189.812 124.304,189.847 126.170,189.890 128.036,189.940 129.901,189.996 131.767,190.057 133.633,190.120 135.499,190.184 137.365,190.247 139.231,190.306 141.096,190.359 142.962,190.404 144.828,190.438 146.694,190.460 148.560,190.466 150.425,190.456 152.291,190.426 154.157,190.375 156.023,190.301 157.889,190.203 159.755,190.080 161.620,189.931 163.486,189.756 165.352,189.554 167.218,189.326 169.084,189.073 170.949,188.794 172.815,188.493 174.681,188.169 176.547,187.827 178.413,187.467 180.278,187.093 182.144,186.707 184.010,186.312 185.876,185.913 187.742,185.512 189.608,185.112 191.473,184.718 193.339,184.332 195.205,183.959 197.071,183.600 198.937,183.260 200.802,182.941 202.668,182.646 204.534,182.377 206.400,182.135 208.266,181.922 210.131,181.740 211.997,181.589 213.863,181.470 215.729,181.382 217.595,181.326 219.461,181.300 221.326,181.304 223.192,181.336 225.058,181.395 226.924,181.479 228.790,181.587 230.655,181.715 232.521,181.863 234.387,182.028 236.253,182.207 238.119,182.399 239.985,182.600 241.850,182.810 243.716,183.026 245.582,183.246 247.448,183.468 249.314,183.691 251.179,183.913 253.045,184.133 254.911,184.349 256.777,184.561 258.643,184.768 260.508,184.969 262.374,185.163 264.240,185.350 266.106,185.529 267.972,185.701 269.838,185.865 271.703,186.021 273.569,186.169 275.435,186.310 277.301,186.442 279.167,186.568 281.032,186.685 282.898,186.796 284.764,186.900 286.630,186.998 288.496,187.089 290.361,187.174 292.227,187.253 294.093,187.328 295.959,187.397 297.825,187.461 299.691,187.521 "/>
<g>
</g>
</g>
<g id="ID000028" clip-path="url(#ID000018)" >
      <polyline fill="none" stroke="#ff0000" stroke-width="1.0pt" stroke-dasharray="none" points="77.659,191.539 79.524,191.427 81.390,191.314 83.256,191.198 85.122,191.082 86.988,190.966 88.854,190.850 90.719,190.736 92.585,190.623 94.451,190.514 96.317,190.409 98.183,190.309 100.048,190.215 101.914,190.128 103.780,190.049 105.646,189.978 107.512,189.917 109.378,189.866 111.243,189.825 113.109,189.795 114.975,189.776 116.841,189.769 118.707,189.773 120.572,189.787 122.438,189.812 124.304,189.847 126.170,189.890 128.036,189.940 129.901,189.996 131.767,190.057 133.633,190.120 135.499,190.184 137.365,190.247 139.231,190.306 141.096,190.359 142.962,190.404 144.828,190.438 146.694,190.460 148.560,190.466 150.425,190.456 152.291,190.426 154.157,190.375 156.023,190.301 157.889,190.203 159.755,190.080 161.620,189.931 163.486,189.756 165.352,189.554 167.218,189.326 169.084,189.073 170.949,188.794 172.815,188.493 174.681,188.169 176.547,187.827 178.413,187.467 180.278,187.093 182.144,186.707 184.010,186.312 185.876,185.913 187.742,185.512 189.608,185.112 191.473,184.718 193.339,184.332 195.205,183.959 197.071,183.600 198.937,183.260 200.802,182.941 202.668,182.646 204.534,182.377 206.400,182.135 208.266,181.922 210.131,181.740 211.997,181.589 213.863,181.470 215.729,181.382 217.595,181.326 219.461,181.300 221.326,181.304 223.192,181.336 225.058,181.395 226.924,181.479 228.790,181.587 230.655,181.715 232.521,181.863 234.387,182.028 236.253,182.207 238.119,182.399 239.985,182.600 241.850,182.810 243.716,183.026 245.582,183.246 247.448,183.468 249.314,183.691 251.179,183.913 253.045,184.133 254.911,184.349 256.777,184.561 258.643,184.768 260.508,184.969 262.374,185.163 264.240,185.350 266.106,185.529 267.972,185.701 269.838,185.865 271.703,186.021 273.569,186.169 275.435,186.310 277.301,186.442 279.167,186.568 281.032,186.685 282.898,186.796 284.764,186.900 286.630,186.998 288.496,187.089 290.361,187.174 292.227,187.253 294.093,187.328 295.959,187.397 297.825,187.461 299.691,187.521 "/>
<g>
</g>
</g>
<g id="ID000029" clip-path="url(#ID000018)" >
      <polyline fill="none" stroke="#000000" stroke-width="2.0pt" stroke-dasharray="2.0,2.0" points="75.794,192.869 77.646,192.278 79.498,191.755 81.350,191.299 83.202,190.912 85.054,190.589 86.906,190.305 88.758,190.104 90.611,189.967 92.463,189.871 94.315,189.816 96.167,189.787 98.019,189.794 99.871,189.843 101.723,189.932 103.575,190.065 105.427,190.122 107.280,190.092 109.132,189.986 110.984,189.923 112.836,189.907 114.688,189.820 116.540,189.744 118.392,189.684 120.244,189.483 122.096,189.249 123.949,189.046 125.801,188.881 127.653,188.743 129.505,188.497 131.357,188.279 133.209,188.125 135.061,187.842 136.913,187.509 138.765,187.248 140.618,186.954 142.470,186.657 144.322,186.302 146.174,185.919 148.026,185.561 149.878,185.139 151.730,184.733 153.582,184.374 155.434,184.048 157.287,183.804 159.139,183.622 160.991,183.439 162.843,183.248 164.695,183.040 166.547,182.830 168.399,182.694 170.251,182.615 172.103,182.503 173.956,182.446 175.808,182.368 177.660,182.325 179.512,182.296 181.364,182.263 183.216,182.250 185.068,182.357 186.920,182.594 188.772,182.895 190.625,183.223 192.477,183.512 194.329,183.787 196.181,184.073 198.033,184.470 199.885,184.921 201.737,185.459 203.589,186.073 205.442,186.730 207.294,187.366 209.146,187.987 210.998,188.595 212.850,189.147 214.702,189.688 "/>
<g>
</g>
</g>
<g id="ID000030" clip-path="url(#ID000018)" >
<g>
<circle cx="77.659" cy="192.869" r="3.000" fill="none" stroke="#000000" stroke-width="3.0pt" />
<circle cx="79.524" cy="192.278" r="3.000" fill="none" stroke="#000000" stroke-width="3.0pt" />
<circle cx="81.390" cy="191.755" r="3.000" fill="none" stroke="#000000" stroke-width="3.0pt" />
<circle cx="83.256" cy="191.299" r="3.000" fill="none" stroke="#000000" stroke-width="3.0pt" />
<circle cx="85.122" cy="190.912" r="3.000" fill="none" stroke="#000000" stroke-width="3.0pt" />
<circle cx="86.988" cy="190.589" r="3.000" fill="none" stroke="#000000" stroke-width="3.0pt" />
<circle cx="88.854" cy="190.305" r="3.000" fill="none" stroke="#000000" stroke-width="3.0pt" />
<circle cx="90.719" cy="190.104" r="3.000" fill="none" stroke="#000000" stroke-width="3.0pt" />
<circle cx="92.585" cy="189.967" r="3.000" fill="none" stroke="#000000" stroke-width="3.0pt" />
<circle cx="94.451" cy="189.871" r="3.000" fill="none" stroke="#000000" stroke-width="3.0pt" />
<circle cx="96.317" cy="189.816" r="3.000" fill="none" stroke="#000000" stroke-width="3.0pt" />
<circle cx="98.183" cy="189.787" r="3.000" fill="none" stroke="#000000" stroke-width="3.0pt" />
<circle cx="100.048" cy="189.794" r="3.000" fill="none" stroke="#000000" stroke-width="3.0pt" />
<circle cx="101.914" cy="189.843" r="3.000" fill="none" stroke="#000000" stroke-width="3.0pt" />
<circle cx="103.780" cy="189.932" r="3.000" fill="none" stroke="#000000" stroke-width="3.0pt" />
<circle cx="105.646" cy="190.065" r="3.000" fill="none" stroke="#000000" stroke-width="3.0pt" />
<circle cx="107.512" cy="190.122" r="3.000" fill="none" stroke="#000000" stroke-width="3.0pt" />
<circle cx="109.378" cy="190.092" r="3.000" fill="none" stroke="#000000" stroke-width="3.0pt" />
<circle cx="111.243" cy="189.986" r="3.000" fill="none" stroke="#000000" stroke-width="3.0pt" />
<circle cx="113.109" cy="189.923" r="3.000" fill="none" stroke="#000000" stroke-width="3.0pt" />
<circle cx="114.975" cy="189.907" r="3.000" fill="none" stroke="#000000" stroke-width="3.0pt" />
<circle cx="116.841" cy="189.820" r="3.000" fill="none" stroke="#000000" stroke-width="3.0pt" />
<circle cx="118.707" cy="189.744" r="3.000" fill="none" stroke="#000000" stroke-width="3.0pt" />
</g>
</g>
<g id="ID000031" >
  <g transform="translate(6.322,197.464)">
    <g transform="rotate(-90.0)">
      <text x="0.000" y="0.000" font-family="Helvetica" text-anchor="middle" font-size="24pt" fill="#000000" >y[m]</text>
    </g>
  </g>
</g>
<g id="ID000032" >
</g>
<g id="ID000033" >
</g>
    </g>
    <g>
      <polyline fill="none" stroke="#000000" stroke-width="0.5pt" stroke-dasharray="none" points="169.084,230.154 169.084,227.356 "/>
      <polyline fill="none" stroke="#000000" stroke-width="0.5pt" stroke-dasharray="none" points="262.374,230.154 262.374,227.356 "/>
      <polyline fill="none" stroke="#000000" stroke-width="0.5pt" stroke-dasharray="none" points="75.793,230.154 355.665,230.154 "/>
      <polyline fill="none" stroke="#000000" stroke-width="0.5pt" stroke-dasharray="none" points="169.084,162.761 169.084,165.560 "/>
      <polyline fill="none" stroke="#000000" stroke-width="0.5pt" stroke-dasharray="none" points="262.374,162.761 262.374,165.560 "/>
      <polyline fill="none" stroke="#000000" stroke-width="0.5pt" stroke-dasharray="none" points="75.793,162.761 355.665,162.761 "/>
  <g transform="translate(75.793,255.102)">
    <g transform="rotate(-0.0)">
      <text x="0.000" y="0.000" font-family="Helvetica" text-anchor="middle" font-size="20pt" fill="#000000" >0</text>
    </g>
  </g>
  <g transform="translate(169.084,255.102)">
    <g transform="rotate(-0.0)">
      <text x="0.000" y="0.000" font-family="Helvetica" text-anchor="middle" font-size="20pt" fill="#000000" >0.5</text>
    </g>
  </g>
  <g transform="translate(262.374,255.102)">
    <g transform="rotate(-0.0)">
      <text x="0.000" y="0.000" font-family="Helvetica" text-anchor="middle" font-size="20pt" fill="#000000" >1</text>
    </g>
  </g>
  <g transform="translate(355.665,255.102)">
    <g transform="rotate(-0.0)">
      <text x="0.000" y="0.000" font-family="Helvetica" text-anchor="middle" font-size="20pt" fill="#000000" >1.5</text>
    </g>
  </g>
      <polyline fill="none" stroke="#000000" stroke-width="0.5pt" stroke-dasharray="none" points="75.793,196.458 78.592,196.458 "/>
      <polyline fill="none" stroke="#000000" stroke-width="0.5pt" stroke-dasharray="none" points="75.793,230.154 75.793,162.761 "/>
      <polyline fill="none" stroke="#000000" stroke-width="0.5pt" stroke-dasharray="none" points="355.665,196.458 352.866,196.458 "/>
      <polyline fill="none" stroke="#000000" stroke-width="0.5pt" stroke-dasharray="none" points="355.665,230.154 355.665,162.761 "/>
  <g transform="translate(70.195,239.154)">
    <g transform="rotate(-0.0)">
      <text x="0.000" y="0.000" font-family="Helvetica" text-anchor="end" font-size="20pt" fill="#000000" >-0.15</text>
    </g>
  </g>
  <g transform="translate(70.195,205.458)">
    <g transform="rotate(-0.0)">
      <text x="0.000" y="0.000" font-family="Helvetica" text-anchor="end" font-size="20pt" fill="#000000" >-0.1</text>
    </g>
  </g>
  <g transform="translate(70.195,171.761)">
    <g transform="rotate(-0.0)">
      <text x="0.000" y="0.000" font-family="Helvetica" text-anchor="end" font-size="20pt" fill="#000000" >-0.05</text>
    </g>
  </g>
      <polyline fill="none" stroke="#000000" stroke-width="0.5pt" stroke-dasharray="none" points="75.793,230.154 75.793,229.480 "/>
      <polyline fill="none" stroke="#000000" stroke-width="0.5pt" stroke-dasharray="none" points="75.793,230.154 75.793,230.154 "/>
    </g>
  </g>
  <g id ="ID000034">
  <clipPath id="ID000035">
    <rect x="75.793" y="288.607" width="279.872" height="67.393"/>
  </clipPath>
      <polygon fill="#ffffff" fill-opacity="1.00" stroke="none" stroke-width="0.5pt" stroke-opacity="1.00" stroke-dasharray="none" points="75.793,356.000 355.665,356.000 355.665,288.607 75.793,288.607 "/>
      <polygon fill="#ffffff" fill-opacity="1.00" stroke="none" stroke-width="0.5pt" stroke-opacity="1.00" stroke-dasharray="none" points="75.793,288.607 355.665,288.607 355.665,288.607 75.793,288.607 "/>
      <polygon fill="#ffffff" fill-opacity="1.00" stroke="none" stroke-width="0.5pt" stroke-opacity="1.00" stroke-dasharray="none" points="75.793,356.000 75.793,356.000 75.793,288.607 75.793,288.607 "/>
    <g>
<g id="ID000036" clip-path="url(#ID000035)" >
      <polygon fill="#0000ff" fill-opacity="0.15" stroke="none" stroke-width="0.5pt" stroke-opacity="1.00" stroke-dasharray="none" points="77.659,343.981 79.524,343.992 81.390,344.005 83.256,344.018 85.122,344.031 86.988,344.045 88.854,344.060 90.719,344.076 92.585,344.092 94.451,344.109 96.317,344.127 98.183,344.145 100.048,344.164 101.914,344.183 103.780,344.203 105.646,344.224 107.512,344.245 109.378,344.267 111.243,344.290 113.109,344.313 114.975,344.336 116.841,344.360 118.707,344.384 120.572,344.408 122.438,344.433 124.304,344.458 126.170,344.483 128.036,344.508 129.901,344.533 131.767,344.558 133.633,344.583 135.499,344.608 137.365,344.632 139.231,344.656 141.096,344.679 142.962,344.702 144.828,344.723 146.694,344.744 148.560,344.764 150.425,344.783 152.291,344.800 154.157,344.816 156.023,344.831 157.889,344.845 159.755,344.857 161.620,344.867 163.486,344.876 165.352,344.883 167.218,344.889 169.084,344.893 170.949,344.895 172.815,344.896 174.681,344.896 176.547,344.893 178.413,344.890 180.278,344.884 182.144,344.878 184.010,344.870 185.876,344.861 187.742,344.851 189.608,344.840 191.473,344.828 193.339,344.816 195.205,344.802 197.071,344.788 198.937,344.773 200.802,344.758 202.668,344.743 204.534,344.727 206.400,344.711 208.266,344.694 210.131,344.678 211.997,344.662 213.863,344.645 215.729,344.629 217.595,344.613 219.461,344.597 221.326,344.581 223.192,344.566 225.058,344.550 226.924,344.535 228.790,344.521 230.655,344.506 232.521,344.492 234.387,344.479 236.253,344.466 238.119,344.453 239.985,344.441 241.850,344.429 243.716,344.418 245.582,344.407 247.448,344.396 249.314,344.386 251.179,344.377 253.045,344.368 254.911,344.359 256.777,344.351 258.643,344.343 260.508,344.336 262.374,344.329 264.240,344.322 266.106,344.316 267.972,344.310 269.838,344.305 271.703,344.300 273.569,344.295 275.435,344.290 277.301,344.286 279.167,344.282 281.032,344.279 282.898,344.275 284.764,344.272 286.630,344.269 288.496,344.267 290.361,344.264 292.227,344.262 294.093,344.259 295.959,344.257 297.825,344.256 299.691,344.254 299.691,323.863 297.825,323.820 295.959,323.774 294.093,323.724 292.227,323.671 290.361,323.613 288.496,323.552 286.630,323.486 284.764,323.415 282.898,323.340 281.032,323.259 279.167,323.174 277.301,323.082 275.435,322.985 273.569,322.882 271.703,322.773 269.838,322.658 267.972,322.537 266.106,322.409 264.240,322.275 262.374,322.135 260.508,321.989 258.643,321.837 256.777,321.679 254.911,321.516 253.045,321.349 251.179,321.177 249.314,321.002 247.448,320.824 245.582,320.644 243.716,320.463 241.850,320.282 239.985,320.102 238.119,319.925 236.253,319.752 234.387,319.583 232.521,319.422 230.655,319.268 228.790,319.124 226.924,318.991 225.058,318.870 223.192,318.762 221.326,318.670 219.461,318.593 217.595,318.534 215.729,318.493 213.863,318.471 211.997,318.468 210.131,318.486 208.266,318.524 206.400,318.583 204.534,318.663 202.668,318.763 200.802,318.884 198.937,319.025 197.071,319.185 195.205,319.363 193.339,319.560 191.473,319.774 189.608,320.003 187.742,320.247 185.876,320.505 184.010,320.776 182.144,321.059 180.278,321.352 178.413,321.654 176.547,321.965 174.681,322.282 172.815,322.607 170.949,322.936 169.084,323.270 167.218,323.607 165.352,323.947 163.486,324.289 161.620,324.632 159.755,324.975 157.889,325.319 156.023,325.661 154.157,326.002 152.291,326.341 150.425,326.678 148.560,327.011 146.694,327.340 144.828,327.665 142.962,327.984 141.096,328.299 139.231,328.607 137.365,328.909 135.499,329.203 133.633,329.491 131.767,329.771 129.901,330.043 128.036,330.306 126.170,330.561 124.304,330.808 122.438,331.045 120.572,331.274 118.707,331.493 116.841,331.704 114.975,331.905 113.109,332.098 111.243,332.282 109.378,332.458 107.512,332.625 105.646,332.784 103.780,332.935 101.914,333.078 100.048,333.214 98.183,333.342 96.317,333.463 94.451,333.578 92.585,333.686 90.719,333.788 88.854,333.883 86.988,333.973 85.122,334.058 83.256,334.138 81.390,334.212 79.524,334.282 77.659,334.347 "/>
</g>
<g id="ID000037" clip-path="url(#ID000035)" >
      <polyline fill="none" stroke="#8c8cff" stroke-width="1.0pt" stroke-dasharray="none" points="77.659,343.981 79.524,343.992 81.390,344.005 83.256,344.018 85.122,344.031 86.988,344.045 88.854,344.060 90.719,344.076 92.585,344.092 94.451,344.109 96.317,344.127 98.183,344.145 100.048,344.164 101.914,344.183 103.780,344.203 105.646,344.224 107.512,344.245 109.378,344.267 111.243,344.290 113.109,344.313 114.975,344.336 116.841,344.360 118.707,344.384 120.572,344.408 122.438,344.433 124.304,344.458 126.170,344.483 128.036,344.508 129.901,344.533 131.767,344.558 133.633,344.583 135.499,344.608 137.365,344.632 139.231,344.656 141.096,344.679 142.962,344.702 144.828,344.723 146.694,344.744 148.560,344.764 150.425,344.783 152.291,344.800 154.157,344.816 156.023,344.831 157.889,344.845 159.755,344.857 161.620,344.867 163.486,344.876 165.352,344.883 167.218,344.889 169.084,344.893 170.949,344.895 172.815,344.896 174.681,344.896 176.547,344.893 178.413,344.890 180.278,344.884 182.144,344.878 184.010,344.870 185.876,344.861 187.742,344.851 189.608,344.840 191.473,344.828 193.339,344.816 195.205,344.802 197.071,344.788 198.937,344.773 200.802,344.758 202.668,344.743 204.534,344.727 206.400,344.711 208.266,344.694 210.131,344.678 211.997,344.662 213.863,344.645 215.729,344.629 217.595,344.613 219.461,344.597 221.326,344.581 223.192,344.566 225.058,344.550 226.924,344.535 228.790,344.521 230.655,344.506 232.521,344.492 234.387,344.479 236.253,344.466 238.119,344.453 239.985,344.441 241.850,344.429 243.716,344.418 245.582,344.407 247.448,344.396 249.314,344.386 251.179,344.377 253.045,344.368 254.911,344.359 256.777,344.351 258.643,344.343 260.508,344.336 262.374,344.329 264.240,344.322 266.106,344.316 267.972,344.310 269.838,344.305 271.703,344.300 273.569,344.295 275.435,344.290 277.301,344.286 279.167,344.282 281.032,344.279 282.898,344.275 284.764,344.272 286.630,344.269 288.496,344.267 290.361,344.264 292.227,344.262 294.093,344.259 295.959,344.257 297.825,344.256 299.691,344.254 "/>
<g>
</g>
</g>
<g id="ID000038" clip-path="url(#ID000035)" >
      <polyline fill="none" stroke="#8c8cff" stroke-width="1.0pt" stroke-dasharray="none" points="77.659,334.347 79.524,334.282 81.390,334.212 83.256,334.138 85.122,334.058 86.988,333.973 88.854,333.883 90.719,333.788 92.585,333.686 94.451,333.578 96.317,333.463 98.183,333.342 100.048,333.214 101.914,333.078 103.780,332.935 105.646,332.784 107.512,332.625 109.378,332.458 111.243,332.282 113.109,332.098 114.975,331.905 116.841,331.704 118.707,331.493 120.572,331.274 122.438,331.045 124.304,330.808 126.170,330.561 128.036,330.306 129.901,330.043 131.767,329.771 133.633,329.491 135.499,329.203 137.365,328.909 139.231,328.607 141.096,328.299 142.962,327.984 144.828,327.665 146.694,327.340 148.560,327.011 150.425,326.678 152.291,326.341 154.157,326.002 156.023,325.661 157.889,325.319 159.755,324.975 161.620,324.632 163.486,324.289 165.352,323.947 167.218,323.607 169.084,323.270 170.949,322.936 172.815,322.607 174.681,322.282 176.547,321.965 178.413,321.654 180.278,321.352 182.144,321.059 184.010,320.776 185.876,320.505 187.742,320.247 189.608,320.003 191.473,319.774 193.339,319.560 195.205,319.363 197.071,319.185 198.937,319.025 200.802,318.884 202.668,318.763 204.534,318.663 206.400,318.583 208.266,318.524 210.131,318.486 211.997,318.468 213.863,318.471 215.729,318.493 217.595,318.534 219.461,318.593 221.326,318.670 223.192,318.762 225.058,318.870 226.924,318.991 228.790,319.124 230.655,319.268 232.521,319.422 234.387,319.583 236.253,319.752 238.119,319.925 239.985,320.102 241.850,320.282 243.716,320.463 245.582,320.644 247.448,320.824 249.314,321.002 251.179,321.177 253.045,321.349 254.911,321.516 256.777,321.679 258.643,321.837 260.508,321.989 262.374,322.135 264.240,322.275 266.106,322.409 267.972,322.537 269.838,322.658 271.703,322.773 273.569,322.882 275.435,322.985 277.301,323.082 279.167,323.174 281.032,323.259 282.898,323.340 284.764,323.415 286.630,323.486 288.496,323.552 290.361,323.613 292.227,323.671 294.093,323.724 295.959,323.774 297.825,323.820 299.691,323.863 "/>
<g>
</g>
</g>
<g id="ID000039" clip-path="url(#ID000035)" >
      <polyline fill="none" stroke="#0000ff" stroke-width="1.0pt" stroke-dasharray="none" points="77.659,339.164 79.524,339.137 81.390,339.108 83.256,339.078 85.122,339.045 86.988,339.009 88.854,338.972 90.719,338.932 92.585,338.889 94.451,338.843 96.317,338.795 98.183,338.743 100.048,338.689 101.914,338.631 103.780,338.569 105.646,338.504 107.512,338.435 109.378,338.363 111.243,338.286 113.109,338.205 114.975,338.121 116.841,338.032 118.707,337.938 120.572,337.841 122.438,337.739 124.304,337.633 126.170,337.522 128.036,337.407 129.901,337.288 131.767,337.165 133.633,337.037 135.499,336.906 137.365,336.770 139.231,336.631 141.096,336.489 142.962,336.343 144.828,336.194 146.694,336.042 148.560,335.887 150.425,335.730 152.291,335.571 154.157,335.409 156.023,335.246 157.889,335.082 159.755,334.916 161.620,334.750 163.486,334.582 165.352,334.415 167.218,334.248 169.084,334.081 170.949,333.916 172.815,333.751 174.681,333.589 176.547,333.429 178.413,333.272 180.278,333.118 182.144,332.968 184.010,332.823 185.876,332.683 187.742,332.549 189.608,332.422 191.473,332.301 193.339,332.188 195.205,332.083 197.071,331.986 198.937,331.899 200.802,331.821 202.668,331.753 204.534,331.695 206.400,331.647 208.266,331.609 210.131,331.582 211.997,331.565 213.863,331.558 215.729,331.561 217.595,331.573 219.461,331.595 221.326,331.625 223.192,331.664 225.058,331.710 226.924,331.763 228.790,331.822 230.655,331.887 232.521,331.957 234.387,332.031 236.253,332.109 238.119,332.189 239.985,332.271 241.850,332.355 243.716,332.440 245.582,332.525 247.448,332.610 249.314,332.694 251.179,332.777 253.045,332.858 254.911,332.938 256.777,333.015 258.643,333.090 260.508,333.162 262.374,333.232 264.240,333.299 266.106,333.363 267.972,333.424 269.838,333.481 271.703,333.536 273.569,333.589 275.435,333.638 277.301,333.684 279.167,333.728 281.032,333.769 282.898,333.808 284.764,333.844 286.630,333.878 288.496,333.909 290.361,333.939 292.227,333.966 294.093,333.992 295.959,334.016 297.825,334.038 299.691,334.059 "/>
<g>
</g>
</g>
<g id="ID000040" clip-path="url(#ID000035)" >
      <polyline fill="none" stroke="#0000ff" stroke-width="1.0pt" stroke-dasharray="none" points="77.659,339.164 79.524,339.137 81.390,339.108 83.256,339.078 85.122,339.045 86.988,339.009 88.854,338.972 90.719,338.932 92.585,338.889 94.451,338.843 96.317,338.795 98.183,338.743 100.048,338.689 101.914,338.631 103.780,338.569 105.646,338.504 107.512,338.435 109.378,338.363 111.243,338.286 113.109,338.205 114.975,338.121 116.841,338.032 118.707,337.938 120.572,337.841 122.438,337.739 124.304,337.633 126.170,337.522 128.036,337.407 129.901,337.288 131.767,337.165 133.633,337.037 135.499,336.906 137.365,336.770 139.231,336.631 141.096,336.489 142.962,336.343 144.828,336.194 146.694,336.042 148.560,335.887 150.425,335.730 152.291,335.571 154.157,335.409 156.023,335.246 157.889,335.082 159.755,334.916 161.620,334.750 163.486,334.582 165.352,334.415 167.218,334.248 169.084,334.081 170.949,333.916 172.815,333.751 174.681,333.589 176.547,333.429 178.413,333.272 180.278,333.118 182.144,332.968 184.010,332.823 185.876,332.683 187.742,332.549 189.608,332.422 191.473,332.301 193.339,332.188 195.205,332.083 197.071,331.986 198.937,331.899 200.802,331.821 202.668,331.753 204.534,331.695 206.400,331.647 208.266,331.609 210.131,331.582 211.997,331.565 213.863,331.558 215.729,331.561 217.595,331.573 219.461,331.595 221.326,331.625 223.192,331.664 225.058,331.710 226.924,331.763 228.790,331.822 230.655,331.887 232.521,331.957 234.387,332.031 236.253,332.109 238.119,332.189 239.985,332.271 241.850,332.355 243.716,332.440 245.582,332.525 247.448,332.610 249.314,332.694 251.179,332.777 253.045,332.858 254.911,332.938 256.777,333.015 258.643,333.090 260.508,333.162 262.374,333.232 264.240,333.299 266.106,333.363 267.972,333.424 269.838,333.481 271.703,333.536 273.569,333.589 275.435,333.638 277.301,333.684 279.167,333.728 281.032,333.769 282.898,333.808 284.764,333.844 286.630,333.878 288.496,333.909 290.361,333.939 292.227,333.966 294.093,333.992 295.959,334.016 297.825,334.038 299.691,334.059 "/>
<g>
</g>
</g>
<g id="ID000041" clip-path="url(#ID000035)" >
      <polygon fill="#ff0000" fill-opacity="0.15" stroke="none" stroke-width="0.5pt" stroke-opacity="1.00" stroke-dasharray="none" points="77.659,342.851 79.524,342.794 81.390,342.735 83.256,342.676 85.122,342.616 86.988,342.556 88.854,342.497 90.719,342.438 92.585,342.380 94.451,342.324 96.317,342.270 98.183,342.218 100.048,342.170 101.914,342.125 103.780,342.083 105.646,342.046 107.512,342.014 109.378,341.986 111.243,341.964 113.109,341.947 114.975,341.935 116.841,341.928 118.707,341.927 120.572,341.930 122.438,341.938 124.304,341.949 126.170,341.964 128.036,341.982 129.901,342.001 131.767,342.020 133.633,342.039 135.499,342.057 137.365,342.071 139.231,342.081 141.096,342.086 142.962,342.083 144.828,342.072 146.694,342.051 148.560,342.019 150.425,341.975 152.291,341.916 154.157,341.843 156.023,341.754 157.889,341.648 159.755,341.524 161.620,341.383 163.486,341.224 165.352,341.047 167.218,340.852 169.084,340.639 170.949,340.409 172.815,340.163 174.681,339.903 176.547,339.628 178.413,339.341 180.278,339.043 182.144,338.736 184.010,338.423 185.876,338.104 187.742,337.783 189.608,337.462 191.473,337.142 193.339,336.826 195.205,336.515 197.071,336.213 198.937,335.920 200.802,335.640 202.668,335.372 204.534,335.119 206.400,334.883 208.266,334.663 210.131,334.461 211.997,334.277 213.863,334.113 215.729,333.967 217.595,333.840 219.461,333.732 221.326,333.642 223.192,333.570 225.058,333.515 226.924,333.475 228.790,333.451 230.655,333.441 232.521,333.444 234.387,333.459 236.253,333.484 238.119,333.518 239.985,333.561 241.850,333.611 243.716,333.666 245.582,333.727 247.448,333.792 249.314,333.859 251.179,333.929 253.045,333.999 254.911,334.071 256.777,334.143 258.643,334.214 260.508,334.284 262.374,334.352 264.240,334.419 266.106,334.484 267.972,334.547 269.838,334.608 271.703,334.666 273.569,334.721 275.435,334.774 277.301,334.824 279.167,334.872 281.032,334.917 282.898,334.959 284.764,334.999 286.630,335.036 288.496,335.072 290.361,335.105 292.227,335.136 294.093,335.165 295.959,335.192 297.825,335.217 299.691,335.240 299.691,322.525 297.825,322.478 295.959,322.428 294.093,322.374 292.227,322.317 290.361,322.255 288.496,322.189 286.630,322.118 284.764,322.042 282.898,321.962 281.032,321.876 279.167,321.785 277.301,321.689 275.435,321.587 273.569,321.479 271.703,321.365 269.838,321.246 267.972,321.121 266.106,320.990 264.240,320.853 262.374,320.712 260.508,320.566 258.643,320.415 256.777,320.261 254.911,320.104 253.045,319.944 251.179,319.784 249.314,319.623 247.448,319.463 245.582,319.305 243.716,319.152 241.850,319.004 239.985,318.863 238.119,318.732 236.253,318.611 234.387,318.504 232.521,318.411 230.655,318.336 228.790,318.280 226.924,318.244 225.058,318.232 223.192,318.244 221.326,318.283 219.461,318.349 217.595,318.444 215.729,318.569 213.863,318.725 211.997,318.911 210.131,319.129 208.266,319.378 206.400,319.658 204.534,319.967 202.668,320.305 200.802,320.670 198.937,321.061 197.071,321.475 195.205,321.911 193.339,322.365 191.473,322.836 189.608,323.320 187.742,323.816 185.876,324.319 184.010,324.827 182.144,325.338 180.278,325.848 178.413,326.356 176.547,326.857 174.681,327.351 172.815,327.835 170.949,328.308 169.084,328.767 167.218,329.211 165.352,329.640 163.486,330.052 161.620,330.446 159.755,330.823 157.889,331.181 156.023,331.522 154.157,331.845 152.291,332.151 150.425,332.439 148.560,332.712 146.694,332.970 144.828,333.213 142.962,333.443 141.096,333.660 139.231,333.866 137.365,334.062 135.499,334.248 133.633,334.426 131.767,334.597 129.901,334.761 128.036,334.920 126.170,335.075 124.304,335.225 122.438,335.373 120.572,335.517 118.707,335.660 116.841,335.801 114.975,335.940 113.109,336.078 111.243,336.216 109.378,336.352 107.512,336.487 105.646,336.622 103.780,336.755 101.914,336.887 100.048,337.017 98.183,337.146 96.317,337.273 94.451,337.398 92.585,337.521 90.719,337.640 88.854,337.757 86.988,337.871 85.122,337.981 83.256,338.088 81.390,338.192 79.524,338.291 77.659,338.387 "/>
</g>
<g id="ID000042" clip-path="url(#ID000035)" >
      <polyline fill="none" stroke="#ff8c8c" stroke-width="1.0pt" stroke-dasharray="none" points="77.659,342.851 79.524,342.794 81.390,342.735 83.256,342.676 85.122,342.616 86.988,342.556 88.854,342.497 90.719,342.438 92.585,342.380 94.451,342.324 96.317,342.270 98.183,342.218 100.048,342.170 101.914,342.125 103.780,342.083 105.646,342.046 107.512,342.014 109.378,341.986 111.243,341.964 113.109,341.947 114.975,341.935 116.841,341.928 118.707,341.927 120.572,341.930 122.438,341.938 124.304,341.949 126.170,341.964 128.036,341.982 129.901,342.001 131.767,342.020 133.633,342.039 135.499,342.057 137.365,342.071 139.231,342.081 141.096,342.086 142.962,342.083 144.828,342.072 146.694,342.051 148.560,342.019 150.425,341.975 152.291,341.916 154.157,341.843 156.023,341.754 157.889,341.648 159.755,341.524 161.620,341.383 163.486,341.224 165.352,341.047 167.218,340.852 169.084,340.639 170.949,340.409 172.815,340.163 174.681,339.903 176.547,339.628 178.413,339.341 180.278,339.043 182.144,338.736 184.010,338.423 185.876,338.104 187.742,337.783 189.608,337.462 191.473,337.142 193.339,336.826 195.205,336.515 197.071,336.213 198.937,335.920 200.802,335.640 202.668,335.372 204.534,335.119 206.400,334.883 208.266,334.663 210.131,334.461 211.997,334.277 213.863,334.113 215.729,333.967 217.595,333.840 219.461,333.732 221.326,333.642 223.192,333.570 225.058,333.515 226.924,333.475 228.790,333.451 230.655,333.441 232.521,333.444 234.387,333.459 236.253,333.484 238.119,333.518 239.985,333.561 241.850,333.611 243.716,333.666 245.582,333.727 247.448,333.792 249.314,333.859 251.179,333.929 253.045,333.999 254.911,334.071 256.777,334.143 258.643,334.214 260.508,334.284 262.374,334.352 264.240,334.419 266.106,334.484 267.972,334.547 269.838,334.608 271.703,334.666 273.569,334.721 275.435,334.774 277.301,334.824 279.167,334.872 281.032,334.917 282.898,334.959 284.764,334.999 286.630,335.036 288.496,335.072 290.361,335.105 292.227,335.136 294.093,335.165 295.959,335.192 297.825,335.217 299.691,335.240 "/>
<g>
</g>
</g>
<g id="ID000043" clip-path="url(#ID000035)" >
      <polyline fill="none" stroke="#ff8c8c" stroke-width="1.0pt" stroke-dasharray="none" points="77.659,338.387 79.524,338.291 81.390,338.192 83.256,338.088 85.122,337.981 86.988,337.871 88.854,337.757 90.719,337.640 92.585,337.521 94.451,337.398 96.317,337.273 98.183,337.146 100.048,337.017 101.914,336.887 103.780,336.755 105.646,336.622 107.512,336.487 109.378,336.352 111.243,336.216 113.109,336.078 114.975,335.940 116.841,335.801 118.707,335.660 120.572,335.517 122.438,335.373 124.304,335.225 126.170,335.075 128.036,334.920 129.901,334.761 131.767,334.597 133.633,334.426 135.499,334.248 137.365,334.062 139.231,333.866 141.096,333.660 142.962,333.443 144.828,333.213 146.694,332.970 148.560,332.712 150.425,332.439 152.291,332.151 154.157,331.845 156.023,331.522 157.889,331.181 159.755,330.823 161.620,330.446 163.486,330.052 165.352,329.640 167.218,329.211 169.084,328.767 170.949,328.308 172.815,327.835 174.681,327.351 176.547,326.857 178.413,326.356 180.278,325.848 182.144,325.338 184.010,324.827 185.876,324.319 187.742,323.816 189.608,323.320 191.473,322.836 193.339,322.365 195.205,321.911 197.071,321.475 198.937,321.061 200.802,320.670 202.668,320.305 204.534,319.967 206.400,319.658 208.266,319.378 210.131,319.129 211.997,318.911 213.863,318.725 215.729,318.569 217.595,318.444 219.461,318.349 221.326,318.283 223.192,318.244 225.058,318.232 226.924,318.244 228.790,318.280 230.655,318.336 232.521,318.411 234.387,318.504 236.253,318.611 238.119,318.732 239.985,318.863 241.850,319.004 243.716,319.152 245.582,319.305 247.448,319.463 249.314,319.623 251.179,319.784 253.045,319.944 254.911,320.104 256.777,320.261 258.643,320.415 260.508,320.566 262.374,320.712 264.240,320.853 266.106,320.990 267.972,321.121 269.838,321.246 271.703,321.365 273.569,321.479 275.435,321.587 277.301,321.689 279.167,321.785 281.032,321.876 282.898,321.962 284.764,322.042 286.630,322.118 288.496,322.189 290.361,322.255 292.227,322.317 294.093,322.374 295.959,322.428 297.825,322.478 299.691,322.525 "/>
<g>
</g>
</g>
<g id="ID000044" clip-path="url(#ID000035)" >
      <polyline fill="none" stroke="#ff0000" stroke-width="1.0pt" stroke-dasharray="none" points="77.659,340.619 79.524,340.542 81.390,340.463 83.256,340.382 85.122,340.299 86.988,340.214 88.854,340.127 90.719,340.039 92.585,339.950 94.451,339.861 96.317,339.772 98.183,339.682 100.048,339.594 101.914,339.506 103.780,339.419 105.646,339.334 107.512,339.251 109.378,339.169 111.243,339.090 113.109,339.013 114.975,338.938 116.841,338.865 118.707,338.793 120.572,338.724 122.438,338.655 124.304,338.587 126.170,338.519 128.036,338.451 129.901,338.381 131.767,338.308 133.633,338.233 135.499,338.152 137.365,338.066 139.231,337.974 141.096,337.873 142.962,337.763 144.828,337.643 146.694,337.511 148.560,337.366 150.425,337.207 152.291,337.033 154.157,336.844 156.023,336.638 157.889,336.414 159.755,336.174 161.620,335.915 163.486,335.638 165.352,335.343 167.218,335.032 169.084,334.703 170.949,334.359 172.815,333.999 174.681,333.627 176.547,333.243 178.413,332.848 180.278,332.446 182.144,332.037 184.010,331.625 185.876,331.212 187.742,330.800 189.608,330.391 191.473,329.989 193.339,329.595 195.205,329.213 197.071,328.844 198.937,328.491 200.802,328.155 202.668,327.839 204.534,327.543 206.400,327.270 208.266,327.021 210.131,326.795 211.997,326.594 213.863,326.419 215.729,326.268 217.595,326.142 219.461,326.040 221.326,325.962 223.192,325.907 225.058,325.873 226.924,325.860 228.790,325.865 230.655,325.889 232.521,325.928 234.387,325.981 236.253,326.048 238.119,326.125 239.985,326.212 241.850,326.307 243.716,326.409 245.582,326.516 247.448,326.627 249.314,326.741 251.179,326.856 253.045,326.972 254.911,327.087 256.777,327.202 258.643,327.315 260.508,327.425 262.374,327.532 264.240,327.636 266.106,327.737 267.972,327.834 269.838,327.927 271.703,328.015 273.569,328.100 275.435,328.180 277.301,328.256 279.167,328.328 281.032,328.396 282.898,328.460 284.764,328.521 286.630,328.577 288.496,328.630 290.361,328.680 292.227,328.726 294.093,328.769 295.959,328.810 297.825,328.847 299.691,328.882 "/>
<g>
</g>
</g>
<g id="ID000045" clip-path="url(#ID000035)" >
      <polyline fill="none" stroke="#ff0000" stroke-width="1.0pt" stroke-dasharray="none" points="77.659,340.619 79.524,340.542 81.390,340.463 83.256,340.382 85.122,340.299 86.988,340.214 88.854,340.127 90.719,340.039 92.585,339.950 94.451,339.861 96.317,339.772 98.183,339.682 100.048,339.594 101.914,339.506 103.780,339.419 105.646,339.334 107.512,339.251 109.378,339.169 111.243,339.090 113.109,339.013 114.975,338.938 116.841,338.865 118.707,338.793 120.572,338.724 122.438,338.655 124.304,338.587 126.170,338.519 128.036,338.451 129.901,338.381 131.767,338.308 133.633,338.233 135.499,338.152 137.365,338.066 139.231,337.974 141.096,337.873 142.962,337.763 144.828,337.643 146.694,337.511 148.560,337.366 150.425,337.207 152.291,337.033 154.157,336.844 156.023,336.638 157.889,336.414 159.755,336.174 161.620,335.915 163.486,335.638 165.352,335.343 167.218,335.032 169.084,334.703 170.949,334.359 172.815,333.999 174.681,333.627 176.547,333.243 178.413,332.848 180.278,332.446 182.144,332.037 184.010,331.625 185.876,331.212 187.742,330.800 189.608,330.391 191.473,329.989 193.339,329.595 195.205,329.213 197.071,328.844 198.937,328.491 200.802,328.155 202.668,327.839 204.534,327.543 206.400,327.270 208.266,327.021 210.131,326.795 211.997,326.594 213.863,326.419 215.729,326.268 217.595,326.142 219.461,326.040 221.326,325.962 223.192,325.907 225.058,325.873 226.924,325.860 228.790,325.865 230.655,325.889 232.521,325.928 234.387,325.981 236.253,326.048 238.119,326.125 239.985,326.212 241.850,326.307 243.716,326.409 245.582,326.516 247.448,326.627 249.314,326.741 251.179,326.856 253.045,326.972 254.911,327.087 256.777,327.202 258.643,327.315 260.508,327.425 262.374,327.532 264.240,327.636 266.106,327.737 267.972,327.834 269.838,327.927 271.703,328.015 273.569,328.100 275.435,328.180 277.301,328.256 279.167,328.328 281.032,328.396 282.898,328.460 284.764,328.521 286.630,328.577 288.496,328.630 290.361,328.680 292.227,328.726 294.093,328.769 295.959,328.810 297.825,328.847 299.691,328.882 "/>
<g>
</g>
</g>
<g id="ID000046" clip-path="url(#ID000035)" >
      <polyline fill="none" stroke="#000000" stroke-width="2.0pt" stroke-dasharray="2.0,2.0" points="75.794,340.860 77.646,340.744 79.498,340.627 81.350,340.511 83.202,340.395 85.054,340.276 86.906,340.140 88.758,340.016 90.611,339.905 92.463,339.782 94.315,339.661 96.167,339.527 98.019,339.410 99.871,339.302 101.723,339.201 103.575,339.099 105.427,338.998 107.280,338.879 109.132,338.751 110.984,338.610 112.836,338.449 114.688,338.260 116.540,338.040 118.392,337.791 120.244,337.522 122.096,337.211 123.949,336.895 125.801,336.568 127.653,336.242 129.505,335.905 131.357,335.559 133.209,335.239 135.061,334.902 136.913,334.518 138.765,334.002 140.618,333.438 142.470,332.894 144.322,332.353 146.174,331.838 148.026,331.348 149.878,330.840 151.730,330.271 153.582,329.634 155.434,328.997 157.287,328.406 159.139,327.853 160.991,327.404 162.843,326.948 164.695,326.535 166.547,326.166 168.399,325.859 170.251,325.582 172.103,325.295 173.956,325.043 175.808,324.804 177.660,324.642 179.512,324.471 181.364,324.328 183.216,324.212 185.068,324.181 186.920,324.184 188.772,324.236 190.625,324.311 192.477,324.395 194.329,324.504 196.181,324.641 198.033,324.836 199.885,325.056 201.737,325.323 203.589,325.616 205.442,325.923 207.294,326.229 209.146,326.539 210.998,326.854 212.850,327.149 214.702,327.454 "/>
<g>
</g>
</g>
<g id="ID000047" clip-path="url(#ID000035)" >
<g>
<circle cx="77.659" cy="340.860" r="3.000" fill="none" stroke="#000000" stroke-width="3.0pt" />
<circle cx="79.524" cy="340.744" r="3.000" fill="none" stroke="#000000" stroke-width="3.0pt" />
<circle cx="81.390" cy="340.627" r="3.000" fill="none" stroke="#000000" stroke-width="3.0pt" />
<circle cx="83.256" cy="340.511" r="3.000" fill="none" stroke="#000000" stroke-width="3.0pt" />
<circle cx="85.122" cy="340.395" r="3.000" fill="none" stroke="#000000" stroke-width="3.0pt" />
<circle cx="86.988" cy="340.276" r="3.000" fill="none" stroke="#000000" stroke-width="3.0pt" />
<circle cx="88.854" cy="340.140" r="3.000" fill="none" stroke="#000000" stroke-width="3.0pt" />
<circle cx="90.719" cy="340.016" r="3.000" fill="none" stroke="#000000" stroke-width="3.0pt" />
<circle cx="92.585" cy="339.905" r="3.000" fill="none" stroke="#000000" stroke-width="3.0pt" />
<circle cx="94.451" cy="339.782" r="3.000" fill="none" stroke="#000000" stroke-width="3.0pt" />
<circle cx="96.317" cy="339.661" r="3.000" fill="none" stroke="#000000" stroke-width="3.0pt" />
<circle cx="98.183" cy="339.527" r="3.000" fill="none" stroke="#000000" stroke-width="3.0pt" />
<circle cx="100.048" cy="339.410" r="3.000" fill="none" stroke="#000000" stroke-width="3.0pt" />
<circle cx="101.914" cy="339.302" r="3.000" fill="none" stroke="#000000" stroke-width="3.0pt" />
<circle cx="103.780" cy="339.201" r="3.000" fill="none" stroke="#000000" stroke-width="3.0pt" />
<circle cx="105.646" cy="339.099" r="3.000" fill="none" stroke="#000000" stroke-width="3.0pt" />
<circle cx="107.512" cy="338.998" r="3.000" fill="none" stroke="#000000" stroke-width="3.0pt" />
<circle cx="109.378" cy="338.879" r="3.000" fill="none" stroke="#000000" stroke-width="3.0pt" />
<circle cx="111.243" cy="338.751" r="3.000" fill="none" stroke="#000000" stroke-width="3.0pt" />
<circle cx="113.109" cy="338.610" r="3.000" fill="none" stroke="#000000" stroke-width="3.0pt" />
<circle cx="114.975" cy="338.449" r="3.000" fill="none" stroke="#000000" stroke-width="3.0pt" />
<circle cx="116.841" cy="338.260" r="3.000" fill="none" stroke="#000000" stroke-width="3.0pt" />
<circle cx="118.707" cy="338.040" r="3.000" fill="none" stroke="#000000" stroke-width="3.0pt" />
</g>
</g>
<g id="ID000048" >
  <g transform="translate(27.312,323.309)">
    <g transform="rotate(-90.0)">
      <text x="0.000" y="0.000" font-family="Helvetica" text-anchor="middle" font-size="24pt" fill="#000000" >z[m]</text>
    </g>
  </g>
</g>
<g id="ID000049" >
  <g transform="translate(215.229,418.532)">
    <g transform="rotate(-0.0)">
      <text x="0.000" y="0.000" font-family="Helvetica" text-anchor="middle" font-size="24pt" fill="#000000" >Time [s]</text>
    </g>
  </g>
</g>
<g id="ID000050" >
</g>
<g id="ID000051" >
</g>
<g id="ID000052" >
</g>
    </g>
    <g>
      <polyline fill="none" stroke="#000000" stroke-width="0.5pt" stroke-dasharray="none" points="169.084,356.000 169.084,353.201 "/>
      <polyline fill="none" stroke="#000000" stroke-width="0.5pt" stroke-dasharray="none" points="262.374,356.000 262.374,353.201 "/>
      <polyline fill="none" stroke="#000000" stroke-width="0.5pt" stroke-dasharray="none" points="75.793,356.000 355.665,356.000 "/>
      <polyline fill="none" stroke="#000000" stroke-width="0.5pt" stroke-dasharray="none" points="169.084,288.607 169.084,291.405 "/>
      <polyline fill="none" stroke="#000000" stroke-width="0.5pt" stroke-dasharray="none" points="262.374,288.607 262.374,291.405 "/>
      <polyline fill="none" stroke="#000000" stroke-width="0.5pt" stroke-dasharray="none" points="75.793,288.607 355.665,288.607 "/>
  <g transform="translate(75.793,380.948)">
    <g transform="rotate(-0.0)">
      <text x="0.000" y="0.000" font-family="Helvetica" text-anchor="middle" font-size="20pt" fill="#000000" >0</text>
    </g>
  </g>
  <g transform="translate(169.084,380.948)">
    <g transform="rotate(-0.0)">
      <text x="0.000" y="0.000" font-family="Helvetica" text-anchor="middle" font-size="20pt" fill="#000000" >0.5</text>
    </g>
  </g>
  <g transform="translate(262.374,380.948)">
    <g transform="rotate(-0.0)">
      <text x="0.000" y="0.000" font-family="Helvetica" text-anchor="middle" font-size="20pt" fill="#000000" >1</text>
    </g>
  </g>
  <g transform="translate(355.665,380.948)">
    <g transform="rotate(-0.0)">
      <text x="0.000" y="0.000" font-family="Helvetica" text-anchor="middle" font-size="20pt" fill="#000000" >1.5</text>
    </g>
  </g>
      <polyline fill="none" stroke="#000000" stroke-width="0.5pt" stroke-dasharray="none" points="75.793,322.303 78.592,322.303 "/>
      <polyline fill="none" stroke="#000000" stroke-width="0.5pt" stroke-dasharray="none" points="75.793,356.000 75.793,288.607 "/>
      <polyline fill="none" stroke="#000000" stroke-width="0.5pt" stroke-dasharray="none" points="355.665,322.303 352.866,322.303 "/>
      <polyline fill="none" stroke="#000000" stroke-width="0.5pt" stroke-dasharray="none" points="355.665,356.000 355.665,288.607 "/>
  <g transform="translate(70.195,365.000)">
    <g transform="rotate(-0.0)">
      <text x="0.000" y="0.000" font-family="Helvetica" text-anchor="end" font-size="20pt" fill="#000000" >0</text>
    </g>
  </g>
  <g transform="translate(70.195,331.303)">
    <g transform="rotate(-0.0)">
      <text x="0.000" y="0.000" font-family="Helvetica" text-anchor="end" font-size="20pt" fill="#000000" >0.1</text>
    </g>
  </g>
  <g transform="translate(70.195,297.607)">
    <g transform="rotate(-0.0)">
      <text x="0.000" y="0.000" font-family="Helvetica" text-anchor="end" font-size="20pt" fill="#000000" >0.2</text>
    </g>
  </g>
      <polyline fill="none" stroke="#000000" stroke-width="0.5pt" stroke-dasharray="none" points="75.793,356.000 75.793,355.326 "/>
      <polyline fill="none" stroke="#000000" stroke-width="0.5pt" stroke-dasharray="none" points="75.793,356.000 75.793,356.000 "/>
    </g>
  </g>
  </g>
</svg>
