<?xml version="1.0" encoding="utf-8" standalone="no"?><!DOCTYPE svg PUBLIC "-//W3C//DTD SVG 1.1//EN" "http://www.w3.org/Graphics/SVG/1.1/DTD/svg11.dtd">
<svg preserveAspectRatio="xMinYMin meet" width="100%" height="100%" viewBox="0 0 360.000 420.000"  version="1.1" xmlns="http://www.w3.org/2000/svg" xmlns:xlink="http://www.w3.org/1999/xlink">
  <desc>Matlab Figure Converted by PLOT2SVG written by Juerg Schwizer</desc>
  <g id="topgroup">
  <rect x="0" y="0" width="360.000" height="420.000" fill="#ffffff" stroke="none" />
  <g id ="ID000000">
  <clipPath id="ID000001">
    <rect x="69.429" y="36.915" width="256.371" height="67.393"/>
  </clipPath>
      <polygon fill="#ffffff" fill-opacity="1.00" stroke="none" stroke-width="0.5pt" stroke-opacity="1.00" stroke-dasharray="none" points="69.429,104.309 325.800,104.309 325.800,36.915 69.429,36.915 "/>
      <polygon fill="#ffffff" fill-opacity="1.00" stroke="none" stroke-width="0.5pt" stroke-opacity="1.00" stroke-dasharray="none" points="69.429,36.915 325.800,36.915 325.800,36.915 69.429,36.915 "/>
      <polygon fill="#ffffff" fill-opacity="1.00" stroke="none" stroke-width="0.5pt" stroke-opacity="1.00" stroke-dasharray="none" points="69.429,104.309 69.429,104.309 69.429,36.915 69.429,36.915 "/>
    <g>
<g id="ID000002" clip-path="url(#ID000001)" >
      <polygon fill="#0000ff" fill-opacity="0.15" stroke="none" stroke-width="0.5pt" stroke-opacity="1.00" stroke-dasharray="none" points="71.992,65.316 74.556,65.373 77.120,65.439 79.683,65.517 82.247,65.606 84.811,65.710 87.375,65.830 89.938,65.966 92.502,66.123 95.066,66.300 97.629,66.499 100.193,66.723 102.757,66.973 105.321,67.249 107.884,67.554 110.448,67.886 113.012,68.247 115.575,68.636 118.139,69.053 120.703,69.496 123.267,69.964 125.830,70.455 128.394,70.966 130.958,71.494 133.521,72.037 136.085,72.591 138.649,73.153 141.213,73.719 143.776,74.286 146.340,74.851 148.904,75.411 151.467,75.964 154.031,76.507 156.595,77.038 159.159,77.556 161.722,78.059 164.286,78.547 166.850,79.017 169.413,79.471 171.977,79.906 174.541,80.324 177.105,80.723 179.668,81.104 182.232,81.466 184.796,81.810 187.359,82.135 189.923,82.442 192.487,82.731 195.051,83.003 197.614,83.257 200.178,83.494 202.742,83.715 205.305,83.920 207.869,84.110 210.433,84.285 212.997,84.447 215.560,84.595 218.124,84.732 220.688,84.857 223.251,84.971 225.815,85.075 228.379,85.170 230.943,85.256 233.506,85.335 236.070,85.406 238.634,85.470 241.197,85.528 243.761,85.581 246.325,85.628 248.889,85.671 251.452,85.709 254.016,85.744 256.580,85.775 259.143,85.803 261.707,85.828 264.271,85.850 266.835,85.870 269.398,85.888 271.962,85.904 274.526,85.919 277.089,85.932 279.653,85.943 282.217,85.953 284.781,85.963 287.344,85.971 287.344,73.613 284.781,73.528 282.217,73.434 279.653,73.330 277.089,73.214 274.526,73.085 271.962,72.943 269.398,72.786 266.835,72.612 264.271,72.422 261.707,72.213 259.143,71.984 256.580,71.734 254.016,71.461 251.452,71.166 248.889,70.847 246.325,70.503 243.761,70.134 241.197,69.740 238.634,69.321 236.070,68.877 233.506,68.409 230.943,67.918 228.379,67.406 225.815,66.874 223.251,66.324 220.688,65.758 218.124,65.180 215.560,64.591 212.997,63.993 210.433,63.390 207.869,62.783 205.305,62.175 202.742,61.568 200.178,60.965 197.614,60.366 195.051,59.774 192.487,59.191 189.923,58.617 187.359,58.054 184.796,57.504 182.232,56.967 179.668,56.445 177.105,55.939 174.541,55.450 171.977,54.979 169.413,54.526 166.850,54.092 164.286,53.678 161.722,53.284 159.159,52.910 156.595,52.558 154.031,52.226 151.467,51.915 148.904,51.625 146.340,51.356 143.776,51.107 141.213,50.879 138.649,50.672 136.085,50.484 133.521,50.317 130.958,50.169 128.394,50.042 125.830,49.933 123.267,49.844 120.703,49.773 118.139,49.721 115.575,49.686 113.012,49.667 110.448,49.665 107.884,49.677 105.321,49.703 102.757,49.741 100.193,49.790 97.629,49.849 95.066,49.916 92.502,49.990 89.938,50.069 87.375,50.151 84.811,50.237 82.247,50.323 79.683,50.410 77.120,50.496 74.556,50.580 71.992,50.661 "/>
</g>
<g id="ID000003" clip-path="url(#ID000001)" >
      <polyline fill="none" stroke="#8c8cff" stroke-width="1.0pt" stroke-dasharray="none" points="71.992,65.316 74.556,65.373 77.120,65.439 79.683,65.517 82.247,65.606 84.811,65.710 87.375,65.830 89.938,65.966 92.502,66.123 95.066,66.300 97.629,66.499 100.193,66.723 102.757,66.973 105.321,67.249 107.884,67.554 110.448,67.886 113.012,68.247 115.575,68.636 118.139,69.053 120.703,69.496 123.267,69.964 125.830,70.455 128.394,70.966 130.958,71.494 133.521,72.037 136.085,72.591 138.649,73.153 141.213,73.719 143.776,74.286 146.340,74.851 148.904,75.411 151.467,75.964 154.031,76.507 156.595,77.038 159.159,77.556 161.722,78.059 164.286,78.547 166.850,79.017 169.413,79.471 171.977,79.906 174.541,80.324 177.105,80.723 179.668,81.104 182.232,81.466 184.796,81.810 187.359,82.135 189.923,82.442 192.487,82.731 195.051,83.003 197.614,83.257 200.178,83.494 202.742,83.715 205.305,83.920 207.869,84.110 210.433,84.285 212.997,84.447 215.560,84.595 218.124,84.732 220.688,84.857 223.251,84.971 225.815,85.075 228.379,85.170 230.943,85.256 233.506,85.335 236.070,85.406 238.634,85.470 241.197,85.528 243.761,85.581 246.325,85.628 248.889,85.671 251.452,85.709 254.016,85.744 256.580,85.775 259.143,85.803 261.707,85.828 264.271,85.850 266.835,85.870 269.398,85.888 271.962,85.904 274.526,85.919 277.089,85.932 279.653,85.943 282.217,85.953 284.781,85.963 287.344,85.971 "/>
<g>
</g>
</g>
<g id="ID000004" clip-path="url(#ID000001)" >
      <polyline fill="none" stroke="#8c8cff" stroke-width="1.0pt" stroke-dasharray="none" points="71.992,50.661 74.556,50.580 77.120,50.496 79.683,50.410 82.247,50.323 84.811,50.237 87.375,50.151 89.938,50.069 92.502,49.990 95.066,49.916 97.629,49.849 100.193,49.790 102.757,49.741 105.321,49.703 107.884,49.677 110.448,49.665 113.012,49.667 115.575,49.686 118.139,49.721 120.703,49.773 123.267,49.844 125.830,49.933 128.394,50.042 130.958,50.169 133.521,50.317 136.085,50.484 138.649,50.672 141.213,50.879 143.776,51.107 146.340,51.356 148.904,51.625 151.467,51.915 154.031,52.226 156.595,52.558 159.159,52.910 161.722,53.284 164.286,53.678 166.850,54.092 169.413,54.526 171.977,54.979 174.541,55.450 177.105,55.939 179.668,56.445 182.232,56.967 184.796,57.504 187.359,58.054 189.923,58.617 192.487,59.191 195.051,59.774 197.614,60.366 200.178,60.965 202.742,61.568 205.305,62.175 207.869,62.783 210.433,63.390 212.997,63.993 215.560,64.591 218.124,65.180 220.688,65.758 223.251,66.324 225.815,66.874 228.379,67.406 230.943,67.918 233.506,68.409 236.070,68.877 238.634,69.321 241.197,69.740 243.761,70.134 246.325,70.503 248.889,70.847 251.452,71.166 254.016,71.461 256.580,71.734 259.143,71.984 261.707,72.213 264.271,72.422 266.835,72.612 269.398,72.786 271.962,72.943 274.526,73.085 277.089,73.214 279.653,73.330 282.217,73.434 284.781,73.528 287.344,73.613 "/>
<g>
</g>
</g>
<g id="ID000005" clip-path="url(#ID000001)" >
      <polyline fill="none" stroke="#0000ff" stroke-width="1.0pt" stroke-dasharray="none" points="71.992,57.989 74.556,57.976 77.120,57.968 79.683,57.963 82.247,57.965 84.811,57.973 87.375,57.991 89.938,58.018 92.502,58.056 95.066,58.108 97.629,58.174 100.193,58.257 102.757,58.357 105.321,58.476 107.884,58.615 110.448,58.775 113.012,58.957 115.575,59.161 118.139,59.387 120.703,59.635 123.267,59.904 125.830,60.194 128.394,60.504 130.958,60.832 133.521,61.177 136.085,61.538 138.649,61.912 141.213,62.299 143.776,62.697 146.340,63.103 148.904,63.518 151.467,63.940 154.031,64.366 156.595,64.798 159.159,65.233 161.722,65.671 164.286,66.112 166.850,66.554 169.413,66.998 171.977,67.442 174.541,67.887 177.105,68.331 179.668,68.775 182.232,69.217 184.796,69.657 187.359,70.095 189.923,70.530 192.487,70.961 195.051,71.389 197.614,71.812 200.178,72.229 202.742,72.642 205.305,73.047 207.869,73.446 210.433,73.837 212.997,74.220 215.560,74.593 218.124,74.956 220.688,75.308 223.251,75.647 225.815,75.974 228.379,76.288 230.943,76.587 233.506,76.872 236.070,77.141 238.634,77.395 241.197,77.634 243.761,77.858 246.325,78.066 248.889,78.259 251.452,78.438 254.016,78.603 256.580,78.754 259.143,78.893 261.707,79.020 264.271,79.136 266.835,79.241 269.398,79.337 271.962,79.424 274.526,79.502 277.089,79.573 279.653,79.637 282.217,79.694 284.781,79.745 287.344,79.792 "/>
<g>
</g>
</g>
<g id="ID000006" clip-path="url(#ID000001)" >
      <polyline fill="none" stroke="#0000ff" stroke-width="1.0pt" stroke-dasharray="none" points="71.992,57.989 74.556,57.976 77.120,57.968 79.683,57.963 82.247,57.965 84.811,57.973 87.375,57.991 89.938,58.018 92.502,58.056 95.066,58.108 97.629,58.174 100.193,58.257 102.757,58.357 105.321,58.476 107.884,58.615 110.448,58.775 113.012,58.957 115.575,59.161 118.139,59.387 120.703,59.635 123.267,59.904 125.830,60.194 128.394,60.504 130.958,60.832 133.521,61.177 136.085,61.538 138.649,61.912 141.213,62.299 143.776,62.697 146.340,63.103 148.904,63.518 151.467,63.940 154.031,64.366 156.595,64.798 159.159,65.233 161.722,65.671 164.286,66.112 166.850,66.554 169.413,66.998 171.977,67.442 174.541,67.887 177.105,68.331 179.668,68.775 182.232,69.217 184.796,69.657 187.359,70.095 189.923,70.530 192.487,70.961 195.051,71.389 197.614,71.812 200.178,72.229 202.742,72.642 205.305,73.047 207.869,73.446 210.433,73.837 212.997,74.220 215.560,74.593 218.124,74.956 220.688,75.308 223.251,75.647 225.815,75.974 228.379,76.288 230.943,76.587 233.506,76.872 236.070,77.141 238.634,77.395 241.197,77.634 243.761,77.858 246.325,78.066 248.889,78.259 251.452,78.438 254.016,78.603 256.580,78.754 259.143,78.893 261.707,79.020 264.271,79.136 266.835,79.241 269.398,79.337 271.962,79.424 274.526,79.502 277.089,79.573 279.653,79.637 282.217,79.694 284.781,79.745 287.344,79.792 "/>
<g>
</g>
</g>
<g id="ID000007" clip-path="url(#ID000001)" >
      <polygon fill="#ff0000" fill-opacity="0.15" stroke="none" stroke-width="0.5pt" stroke-opacity="1.00" stroke-dasharray="none" points="71.992,53.998 74.556,53.936 77.120,53.874 79.683,53.813 82.247,53.753 84.811,53.696 87.375,53.643 89.938,53.595 92.502,53.555 95.066,53.524 97.629,53.504 100.193,53.495 102.757,53.501 105.321,53.521 107.884,53.559 110.448,53.615 113.012,53.690 115.575,53.786 118.139,53.902 120.703,54.041 123.267,54.201 125.830,54.385 128.394,54.590 130.958,54.819 133.521,55.070 136.085,55.343 138.649,55.638 141.213,55.954 143.776,56.292 146.340,56.651 148.904,57.031 151.467,57.431 154.031,57.851 156.595,58.290 159.159,58.748 161.722,59.225 164.286,59.720 166.850,60.232 169.413,60.760 171.977,61.303 174.541,61.860 177.105,62.429 179.668,63.010 182.232,63.601 184.796,64.199 187.359,64.805 189.923,65.415 192.487,66.030 195.051,66.646 197.614,67.263 200.178,67.878 202.742,68.491 205.305,69.100 207.869,69.703 210.433,70.298 212.997,70.884 215.560,71.459 218.124,72.021 220.688,72.568 223.251,73.099 225.815,73.611 228.379,74.104 230.943,74.576 233.506,75.025 236.070,75.452 238.634,75.856 241.197,76.235 243.761,76.591 246.325,76.922 248.889,77.231 251.452,77.517 254.016,77.780 256.580,78.023 259.143,78.245 261.707,78.449 264.271,78.635 266.835,78.804 269.398,78.957 271.962,79.096 274.526,79.222 277.089,79.336 279.653,79.438 282.217,79.530 284.781,79.613 287.344,79.688 287.344,72.840 284.781,72.761 282.217,72.673 279.653,72.575 277.089,72.466 274.526,72.346 271.962,72.212 269.398,72.065 266.835,71.903 264.271,71.725 261.707,71.529 259.143,71.315 256.580,71.082 254.016,70.828 251.452,70.553 248.889,70.256 246.325,69.937 243.761,69.595 241.197,69.230 238.634,68.842 236.070,68.432 233.506,68.001 230.943,67.551 228.379,67.082 225.815,66.596 223.251,66.096 220.688,65.583 218.124,65.061 215.560,64.531 212.997,63.997 210.433,63.460 207.869,62.922 205.305,62.387 202.742,61.856 200.178,61.331 197.614,60.813 195.051,60.303 192.487,59.803 189.923,59.314 187.359,58.836 184.796,58.370 182.232,57.916 179.668,57.475 177.105,57.048 174.541,56.633 171.977,56.232 169.413,55.845 166.850,55.471 164.286,55.110 161.722,54.764 159.159,54.431 156.595,54.111 154.031,53.806 151.467,53.514 148.904,53.236 146.340,52.972 143.776,52.722 141.213,52.487 138.649,52.267 136.085,52.063 133.521,51.874 130.958,51.702 128.394,51.547 125.830,51.409 123.267,51.288 120.703,51.186 118.139,51.100 115.575,51.032 113.012,50.981 110.448,50.947 107.884,50.928 105.321,50.924 102.757,50.934 100.193,50.957 97.629,50.990 95.066,51.033 92.502,51.085 89.938,51.143 87.375,51.207 84.811,51.274 82.247,51.345 79.683,51.416 77.120,51.489 74.556,51.560 71.992,51.630 "/>
</g>
<g id="ID000008" clip-path="url(#ID000001)" >
      <polyline fill="none" stroke="#ff8c8c" stroke-width="1.0pt" stroke-dasharray="none" points="71.992,53.998 74.556,53.936 77.120,53.874 79.683,53.813 82.247,53.753 84.811,53.696 87.375,53.643 89.938,53.595 92.502,53.555 95.066,53.524 97.629,53.504 100.193,53.495 102.757,53.501 105.321,53.521 107.884,53.559 110.448,53.615 113.012,53.690 115.575,53.786 118.139,53.902 120.703,54.041 123.267,54.201 125.830,54.385 128.394,54.590 130.958,54.819 133.521,55.070 136.085,55.343 138.649,55.638 141.213,55.954 143.776,56.292 146.340,56.651 148.904,57.031 151.467,57.431 154.031,57.851 156.595,58.290 159.159,58.748 161.722,59.225 164.286,59.720 166.850,60.232 169.413,60.760 171.977,61.303 174.541,61.860 177.105,62.429 179.668,63.010 182.232,63.601 184.796,64.199 187.359,64.805 189.923,65.415 192.487,66.030 195.051,66.646 197.614,67.263 200.178,67.878 202.742,68.491 205.305,69.100 207.869,69.703 210.433,70.298 212.997,70.884 215.560,71.459 218.124,72.021 220.688,72.568 223.251,73.099 225.815,73.611 228.379,74.104 230.943,74.576 233.506,75.025 236.070,75.452 238.634,75.856 241.197,76.235 243.761,76.591 246.325,76.922 248.889,77.231 251.452,77.517 254.016,77.780 256.580,78.023 259.143,78.245 261.707,78.449 264.271,78.635 266.835,78.804 269.398,78.957 271.962,79.096 274.526,79.222 277.089,79.336 279.653,79.438 282.217,79.530 284.781,79.613 287.344,79.688 "/>
<g>
</g>
</g>
<g id="ID000009" clip-path="url(#ID000001)" >
      <polyline fill="none" stroke="#ff8c8c" stroke-width="1.0pt" stroke-dasharray="none" points="71.992,51.630 74.556,51.560 77.120,51.489 79.683,51.416 82.247,51.345 84.811,51.274 87.375,51.207 89.938,51.143 92.502,51.085 95.066,51.033 97.629,50.990 100.193,50.957 102.757,50.934 105.321,50.924 107.884,50.928 110.448,50.947 113.012,50.981 115.575,51.032 118.139,51.100 120.703,51.186 123.267,51.288 125.830,51.409 128.394,51.547 130.958,51.702 133.521,51.874 136.085,52.063 138.649,52.267 141.213,52.487 143.776,52.722 146.340,52.972 148.904,53.236 151.467,53.514 154.031,53.806 156.595,54.111 159.159,54.431 161.722,54.764 164.286,55.110 166.850,55.471 169.413,55.845 171.977,56.232 174.541,56.633 177.105,57.048 179.668,57.475 182.232,57.916 184.796,58.370 187.359,58.836 189.923,59.314 192.487,59.803 195.051,60.303 197.614,60.813 200.178,61.331 202.742,61.856 205.305,62.387 207.869,62.922 210.433,63.460 212.997,63.997 215.560,64.531 218.124,65.061 220.688,65.583 223.251,66.096 225.815,66.596 228.379,67.082 230.943,67.551 233.506,68.001 236.070,68.432 238.634,68.842 241.197,69.230 243.761,69.595 246.325,69.937 248.889,70.256 251.452,70.553 254.016,70.828 256.580,71.082 259.143,71.315 261.707,71.529 264.271,71.725 266.835,71.903 269.398,72.065 271.962,72.212 274.526,72.346 277.089,72.466 279.653,72.575 282.217,72.673 284.781,72.761 287.344,72.840 "/>
<g>
</g>
</g>
<g id="ID000010" clip-path="url(#ID000001)" >
      <polyline fill="none" stroke="#ff0000" stroke-width="1.0pt" stroke-dasharray="none" points="71.992,52.814 74.556,52.748 77.120,52.681 79.683,52.615 82.247,52.549 84.811,52.485 87.375,52.425 89.938,52.369 92.502,52.320 95.066,52.279 97.629,52.247 100.193,52.226 102.757,52.217 105.321,52.223 107.884,52.244 110.448,52.281 113.012,52.336 115.575,52.409 118.139,52.501 120.703,52.613 123.267,52.745 125.830,52.897 128.394,53.069 130.958,53.260 133.521,53.472 136.085,53.703 138.649,53.952 141.213,54.221 143.776,54.507 146.340,54.811 148.904,55.133 151.467,55.472 154.031,55.828 156.595,56.201 159.159,56.590 161.722,56.995 164.286,57.415 166.850,57.851 169.413,58.302 171.977,58.767 174.541,59.246 177.105,59.738 179.668,60.243 182.232,60.758 184.796,61.285 187.359,61.820 189.923,62.365 192.487,62.916 195.051,63.474 197.614,64.038 200.178,64.604 202.742,65.174 205.305,65.744 207.869,66.313 210.433,66.879 212.997,67.441 215.560,67.995 218.124,68.541 220.688,69.076 223.251,69.597 225.815,70.104 228.379,70.593 230.943,71.063 233.506,71.513 236.070,71.942 238.634,72.349 241.197,72.732 243.761,73.093 246.325,73.430 248.889,73.744 251.452,74.035 254.016,74.304 256.580,74.552 259.143,74.780 261.707,74.989 264.271,75.180 266.835,75.353 269.398,75.511 271.962,75.654 274.526,75.784 277.089,75.901 279.653,76.006 282.217,76.102 284.781,76.187 287.344,76.264 "/>
<g>
</g>
</g>
<g id="ID000011" clip-path="url(#ID000001)" >
      <polyline fill="none" stroke="#ff0000" stroke-width="1.0pt" stroke-dasharray="none" points="71.992,52.814 74.556,52.748 77.120,52.681 79.683,52.615 82.247,52.549 84.811,52.485 87.375,52.425 89.938,52.369 92.502,52.320 95.066,52.279 97.629,52.247 100.193,52.226 102.757,52.217 105.321,52.223 107.884,52.244 110.448,52.281 113.012,52.336 115.575,52.409 118.139,52.501 120.703,52.613 123.267,52.745 125.830,52.897 128.394,53.069 130.958,53.260 133.521,53.472 136.085,53.703 138.649,53.952 141.213,54.221 143.776,54.507 146.340,54.811 148.904,55.133 151.467,55.472 154.031,55.828 156.595,56.201 159.159,56.590 161.722,56.995 164.286,57.415 166.850,57.851 169.413,58.302 171.977,58.767 174.541,59.246 177.105,59.738 179.668,60.243 182.232,60.758 184.796,61.285 187.359,61.820 189.923,62.365 192.487,62.916 195.051,63.474 197.614,64.038 200.178,64.604 202.742,65.174 205.305,65.744 207.869,66.313 210.433,66.879 212.997,67.441 215.560,67.995 218.124,68.541 220.688,69.076 223.251,69.597 225.815,70.104 228.379,70.593 230.943,71.063 233.506,71.513 236.070,71.942 238.634,72.349 241.197,72.732 243.761,73.093 246.325,73.430 248.889,73.744 251.452,74.035 254.016,74.304 256.580,74.552 259.143,74.780 261.707,74.989 264.271,75.180 266.835,75.353 269.398,75.511 271.962,75.654 274.526,75.784 277.089,75.901 279.653,76.006 282.217,76.102 284.781,76.187 287.344,76.264 "/>
<g>
</g>
</g>
<g id="ID000012" clip-path="url(#ID000001)" >
      <polyline fill="none" stroke="#000000" stroke-width="2.0pt" stroke-dasharray="2.0,2.0" points="69.430,53.529 71.974,53.224 74.519,52.963 77.064,52.742 79.609,52.558 82.154,52.408 84.699,52.279 87.244,52.194 89.789,52.146 92.334,52.118 94.878,52.115 97.423,52.123 99.968,52.152 102.513,52.191 105.058,52.233 107.603,52.271 110.148,52.332 112.693,52.376 115.238,52.444 117.782,52.517 120.327,52.637 122.872,52.786 125.417,52.945 127.962,53.140 130.507,53.393 133.052,53.613 135.597,53.846 138.142,54.099 140.686,54.375 143.231,54.679 145.776,55.012 148.321,55.358 150.866,55.764 153.411,56.136 155.956,56.592 158.501,57.089 161.046,57.604 163.590,58.148 166.135,58.729 168.680,59.319 171.225,59.896 173.770,60.554 176.315,61.202 178.860,61.861 181.405,62.555 183.950,63.241 186.494,63.899 189.039,64.532 191.584,65.149 194.129,65.755 196.674,66.384 199.219,67.013 201.764,67.608 204.309,68.228 206.854,68.804 209.398,69.391 211.943,69.947 214.488,70.490 217.033,71.022 219.578,71.557 222.123,72.075 224.668,72.571 227.213,73.050 229.758,73.482 232.302,73.896 234.847,74.288 237.392,74.678 239.937,75.025 242.482,75.364 245.027,75.678 247.572,75.970 250.117,76.231 252.662,76.479 255.206,76.709 257.751,76.914 260.296,77.112 "/>
<g>
</g>
</g>
<g id="ID000013" clip-path="url(#ID000001)" >
<g>
<circle cx="71.992" cy="53.529" r="3.000" fill="none" stroke="#000000" stroke-width="3.0pt" />
<circle cx="74.556" cy="53.224" r="3.000" fill="none" stroke="#000000" stroke-width="3.0pt" />
<circle cx="77.120" cy="52.963" r="3.000" fill="none" stroke="#000000" stroke-width="3.0pt" />
<circle cx="79.683" cy="52.742" r="3.000" fill="none" stroke="#000000" stroke-width="3.0pt" />
<circle cx="82.247" cy="52.558" r="3.000" fill="none" stroke="#000000" stroke-width="3.0pt" />
<circle cx="84.811" cy="52.408" r="3.000" fill="none" stroke="#000000" stroke-width="3.0pt" />
<circle cx="87.375" cy="52.279" r="3.000" fill="none" stroke="#000000" stroke-width="3.0pt" />
<circle cx="89.938" cy="52.194" r="3.000" fill="none" stroke="#000000" stroke-width="3.0pt" />
<circle cx="92.502" cy="52.146" r="3.000" fill="none" stroke="#000000" stroke-width="3.0pt" />
<circle cx="95.066" cy="52.118" r="3.000" fill="none" stroke="#000000" stroke-width="3.0pt" />
<circle cx="97.629" cy="52.115" r="3.000" fill="none" stroke="#000000" stroke-width="3.0pt" />
<circle cx="100.193" cy="52.123" r="3.000" fill="none" stroke="#000000" stroke-width="3.0pt" />
<circle cx="102.757" cy="52.152" r="3.000" fill="none" stroke="#000000" stroke-width="3.0pt" />
<circle cx="105.321" cy="52.191" r="3.000" fill="none" stroke="#000000" stroke-width="3.0pt" />
<circle cx="107.884" cy="52.233" r="3.000" fill="none" stroke="#000000" stroke-width="3.0pt" />
<circle cx="110.448" cy="52.271" r="3.000" fill="none" stroke="#000000" stroke-width="3.0pt" />
<circle cx="113.012" cy="52.332" r="3.000" fill="none" stroke="#000000" stroke-width="3.0pt" />
<circle cx="115.575" cy="52.376" r="3.000" fill="none" stroke="#000000" stroke-width="3.0pt" />
<circle cx="118.139" cy="52.444" r="3.000" fill="none" stroke="#000000" stroke-width="3.0pt" />
<circle cx="120.703" cy="52.517" r="3.000" fill="none" stroke="#000000" stroke-width="3.0pt" />
<circle cx="123.267" cy="52.637" r="3.000" fill="none" stroke="#000000" stroke-width="3.0pt" />
<circle cx="125.830" cy="52.786" r="3.000" fill="none" stroke="#000000" stroke-width="3.0pt" />
<circle cx="128.394" cy="52.945" r="3.000" fill="none" stroke="#000000" stroke-width="3.0pt" />
<circle cx="130.958" cy="53.140" r="3.000" fill="none" stroke="#000000" stroke-width="3.0pt" />
<circle cx="133.521" cy="53.393" r="3.000" fill="none" stroke="#000000" stroke-width="3.0pt" />
<circle cx="136.085" cy="53.613" r="3.000" fill="none" stroke="#000000" stroke-width="3.0pt" />
<circle cx="138.649" cy="53.846" r="3.000" fill="none" stroke="#000000" stroke-width="3.0pt" />
<circle cx="141.213" cy="54.099" r="3.000" fill="none" stroke="#000000" stroke-width="3.0pt" />
<circle cx="143.776" cy="54.375" r="3.000" fill="none" stroke="#000000" stroke-width="3.0pt" />
<circle cx="146.340" cy="54.679" r="3.000" fill="none" stroke="#000000" stroke-width="3.0pt" />
<circle cx="148.904" cy="55.012" r="3.000" fill="none" stroke="#000000" stroke-width="3.0pt" />
<circle cx="151.467" cy="55.358" r="3.000" fill="none" stroke="#000000" stroke-width="3.0pt" />
<circle cx="154.031" cy="55.764" r="3.000" fill="none" stroke="#000000" stroke-width="3.0pt" />
<circle cx="156.595" cy="56.136" r="3.000" fill="none" stroke="#000000" stroke-width="3.0pt" />
<circle cx="159.159" cy="56.592" r="3.000" fill="none" stroke="#000000" stroke-width="3.0pt" />
<circle cx="161.722" cy="57.089" r="3.000" fill="none" stroke="#000000" stroke-width="3.0pt" />
<circle cx="164.286" cy="57.604" r="3.000" fill="none" stroke="#000000" stroke-width="3.0pt" />
<circle cx="166.850" cy="58.148" r="3.000" fill="none" stroke="#000000" stroke-width="3.0pt" />
</g>
</g>
<g id="ID000014" >
  <g transform="translate(13.052,71.618)">
    <g transform="rotate(-90.0)">
      <text x="0.000" y="0.000" font-family="Helvetica" text-anchor="middle" font-size="24pt" fill="#000000" >x[m]</text>
    </g>
  </g>
</g>
<g id="ID000015" >
</g>
<g id="ID000016" >
</g>
    </g>
    <g>
      <polyline fill="none" stroke="#000000" stroke-width="0.5pt" stroke-dasharray="none" points="197.614,104.309 197.614,101.745 "/>
      <polyline fill="none" stroke="#000000" stroke-width="0.5pt" stroke-dasharray="none" points="69.429,104.309 325.800,104.309 "/>
      <polyline fill="none" stroke="#000000" stroke-width="0.5pt" stroke-dasharray="none" points="197.614,36.915 197.614,39.479 "/>
      <polyline fill="none" stroke="#000000" stroke-width="0.5pt" stroke-dasharray="none" points="69.429,36.915 325.800,36.915 "/>
  <g transform="translate(69.429,129.257)">
    <g transform="rotate(-0.0)">
      <text x="0.000" y="0.000" font-family="Helvetica" text-anchor="middle" font-size="20pt" fill="#000000" >0</text>
    </g>
  </g>
  <g transform="translate(197.614,129.257)">
    <g transform="rotate(-0.0)">
      <text x="0.000" y="0.000" font-family="Helvetica" text-anchor="middle" font-size="20pt" fill="#000000" >0.5</text>
    </g>
  </g>
  <g transform="translate(325.800,129.257)">
    <g transform="rotate(-0.0)">
      <text x="0.000" y="0.000" font-family="Helvetica" text-anchor="middle" font-size="20pt" fill="#000000" >1</text>
    </g>
  </g>
      <polyline fill="none" stroke="#000000" stroke-width="0.5pt" stroke-dasharray="none" points="69.429,70.612 71.992,70.612 "/>
      <polyline fill="none" stroke="#000000" stroke-width="0.5pt" stroke-dasharray="none" points="69.429,104.309 69.429,36.915 "/>
      <polyline fill="none" stroke="#000000" stroke-width="0.5pt" stroke-dasharray="none" points="325.800,70.612 323.236,70.612 "/>
      <polyline fill="none" stroke="#000000" stroke-width="0.5pt" stroke-dasharray="none" points="325.800,104.309 325.800,36.915 "/>
  <g transform="translate(64.301,113.309)">
    <g transform="rotate(-0.0)">
      <text x="0.000" y="0.000" font-family="Helvetica" text-anchor="end" font-size="20pt" fill="#000000" >-0.4</text>
    </g>
  </g>
  <g transform="translate(64.301,79.612)">
    <g transform="rotate(-0.0)">
      <text x="0.000" y="0.000" font-family="Helvetica" text-anchor="end" font-size="20pt" fill="#000000" >-0.3</text>
    </g>
  </g>
  <g transform="translate(64.301,45.915)">
    <g transform="rotate(-0.0)">
      <text x="0.000" y="0.000" font-family="Helvetica" text-anchor="end" font-size="20pt" fill="#000000" >-0.2</text>
    </g>
  </g>
      <polyline fill="none" stroke="#000000" stroke-width="0.5pt" stroke-dasharray="none" points="69.429,104.309 69.429,103.635 "/>
      <polyline fill="none" stroke="#000000" stroke-width="0.5pt" stroke-dasharray="none" points="69.429,104.309 69.429,104.309 "/>
    </g>
  </g>
  <g id ="ID000017">
  <clipPath id="ID000018">
    <rect x="69.429" y="162.761" width="256.371" height="67.393"/>
  </clipPath>
      <polygon fill="#ffffff" fill-opacity="1.00" stroke="none" stroke-width="0.5pt" stroke-opacity="1.00" stroke-dasharray="none" points="69.429,230.154 325.800,230.154 325.800,162.761 69.429,162.761 "/>
      <polygon fill="#ffffff" fill-opacity="1.00" stroke="none" stroke-width="0.5pt" stroke-opacity="1.00" stroke-dasharray="none" points="69.429,162.761 325.800,162.761 325.800,162.761 69.429,162.761 "/>
      <polygon fill="#ffffff" fill-opacity="1.00" stroke="none" stroke-width="0.5pt" stroke-opacity="1.00" stroke-dasharray="none" points="69.429,230.154 69.429,230.154 69.429,162.761 69.429,162.761 "/>
    <g>
<g id="ID000019" clip-path="url(#ID000018)" >
      <polygon fill="#0000ff" fill-opacity="0.15" stroke="none" stroke-width="0.5pt" stroke-opacity="1.00" stroke-dasharray="none" points="71.992,202.347 74.556,202.416 77.120,202.490 79.683,202.570 82.247,202.656 84.811,202.748 87.375,202.845 89.938,202.949 92.502,203.058 95.066,203.174 97.629,203.294 100.193,203.421 102.757,203.552 105.321,203.688 107.884,203.827 110.448,203.970 113.012,204.116 115.575,204.263 118.139,204.411 120.703,204.557 123.267,204.701 125.830,204.841 128.394,204.975 130.958,205.102 133.521,205.219 136.085,205.324 138.649,205.415 141.213,205.491 143.776,205.550 146.340,205.589 148.904,205.609 151.467,205.607 154.031,205.583 156.595,205.536 159.159,205.468 161.722,205.376 164.286,205.264 166.850,205.132 169.413,204.980 171.977,204.812 174.541,204.629 177.105,204.434 179.668,204.229 182.232,204.015 184.796,203.797 187.359,203.577 189.923,203.356 192.487,203.137 195.051,202.921 197.614,202.712 200.178,202.509 202.742,202.314 205.305,202.129 207.869,201.953 210.433,201.787 212.997,201.632 215.560,201.488 218.124,201.354 220.688,201.229 223.251,201.115 225.815,201.010 228.379,200.914 230.943,200.826 233.506,200.747 236.070,200.674 238.634,200.608 241.197,200.549 243.761,200.495 246.325,200.447 248.889,200.403 251.452,200.364 254.016,200.329 256.580,200.297 259.143,200.269 261.707,200.244 264.271,200.221 266.835,200.201 269.398,200.183 271.962,200.166 274.526,200.152 277.089,200.139 279.653,200.127 282.217,200.117 284.781,200.108 287.344,200.100 287.344,179.285 284.781,179.143 282.217,178.986 279.653,178.811 277.089,178.618 274.526,178.404 271.962,178.169 269.398,177.910 266.835,177.626 264.271,177.315 261.707,176.975 259.143,176.606 256.580,176.207 254.016,175.775 251.452,175.312 248.889,174.817 246.325,174.290 243.761,173.733 241.197,173.148 238.634,172.537 236.070,171.904 233.506,171.254 230.943,170.591 228.379,169.922 225.815,169.252 223.251,168.591 220.688,167.944 218.124,167.321 215.560,166.729 212.997,166.176 210.433,165.669 207.869,165.216 205.305,164.822 202.742,164.492 200.178,164.230 197.614,164.040 195.051,163.922 192.487,163.877 189.923,163.904 187.359,164.002 184.796,164.169 182.232,164.399 179.668,164.690 177.105,165.037 174.541,165.434 171.977,165.877 169.413,166.361 166.850,166.879 164.286,167.428 161.722,168.003 159.159,168.600 156.595,169.213 154.031,169.840 151.467,170.477 148.904,171.120 146.340,171.765 143.776,172.411 141.213,173.053 138.649,173.688 136.085,174.315 133.521,174.929 130.958,175.529 128.394,176.112 125.830,176.676 123.267,177.219 120.703,177.739 118.139,178.235 115.575,178.706 113.012,179.151 110.448,179.570 107.884,179.964 105.321,180.331 102.757,180.673 100.193,180.990 97.629,181.284 95.066,181.555 92.502,181.804 89.938,182.032 87.375,182.242 84.811,182.433 82.247,182.607 79.683,182.765 77.120,182.909 74.556,183.040 71.992,183.158 "/>
</g>
<g id="ID000020" clip-path="url(#ID000018)" >
      <polyline fill="none" stroke="#8c8cff" stroke-width="1.0pt" stroke-dasharray="none" points="71.992,202.347 74.556,202.416 77.120,202.490 79.683,202.570 82.247,202.656 84.811,202.748 87.375,202.845 89.938,202.949 92.502,203.058 95.066,203.174 97.629,203.294 100.193,203.421 102.757,203.552 105.321,203.688 107.884,203.827 110.448,203.970 113.012,204.116 115.575,204.263 118.139,204.411 120.703,204.557 123.267,204.701 125.830,204.841 128.394,204.975 130.958,205.102 133.521,205.219 136.085,205.324 138.649,205.415 141.213,205.491 143.776,205.550 146.340,205.589 148.904,205.609 151.467,205.607 154.031,205.583 156.595,205.536 159.159,205.468 161.722,205.376 164.286,205.264 166.850,205.132 169.413,204.980 171.977,204.812 174.541,204.629 177.105,204.434 179.668,204.229 182.232,204.015 184.796,203.797 187.359,203.577 189.923,203.356 192.487,203.137 195.051,202.921 197.614,202.712 200.178,202.509 202.742,202.314 205.305,202.129 207.869,201.953 210.433,201.787 212.997,201.632 215.560,201.488 218.124,201.354 220.688,201.229 223.251,201.115 225.815,201.010 228.379,200.914 230.943,200.826 233.506,200.747 236.070,200.674 238.634,200.608 241.197,200.549 243.761,200.495 246.325,200.447 248.889,200.403 251.452,200.364 254.016,200.329 256.580,200.297 259.143,200.269 261.707,200.244 264.271,200.221 266.835,200.201 269.398,200.183 271.962,200.166 274.526,200.152 277.089,200.139 279.653,200.127 282.217,200.117 284.781,200.108 287.344,200.100 "/>
<g>
</g>
</g>
<g id="ID000021" clip-path="url(#ID000018)" >
      <polyline fill="none" stroke="#8c8cff" stroke-width="1.0pt" stroke-dasharray="none" points="71.992,183.158 74.556,183.040 77.120,182.909 79.683,182.765 82.247,182.607 84.811,182.433 87.375,182.242 89.938,182.032 92.502,181.804 95.066,181.555 97.629,181.284 100.193,180.990 102.757,180.673 105.321,180.331 107.884,179.964 110.448,179.570 113.012,179.151 115.575,178.706 118.139,178.235 120.703,177.739 123.267,177.219 125.830,176.676 128.394,176.112 130.958,175.529 133.521,174.929 136.085,174.315 138.649,173.688 141.213,173.053 143.776,172.411 146.340,171.765 148.904,171.120 151.467,170.477 154.031,169.840 156.595,169.213 159.159,168.600 161.722,168.003 164.286,167.428 166.850,166.879 169.413,166.361 171.977,165.877 174.541,165.434 177.105,165.037 179.668,164.690 182.232,164.399 184.796,164.169 187.359,164.002 189.923,163.904 192.487,163.877 195.051,163.922 197.614,164.040 200.178,164.230 202.742,164.492 205.305,164.822 207.869,165.216 210.433,165.669 212.997,166.176 215.560,166.729 218.124,167.321 220.688,167.944 223.251,168.591 225.815,169.252 228.379,169.922 230.943,170.591 233.506,171.254 236.070,171.904 238.634,172.537 241.197,173.148 243.761,173.733 246.325,174.290 248.889,174.817 251.452,175.312 254.016,175.775 256.580,176.207 259.143,176.606 261.707,176.975 264.271,177.315 266.835,177.626 269.398,177.910 271.962,178.169 274.526,178.404 277.089,178.618 279.653,178.811 282.217,178.986 284.781,179.143 287.344,179.285 "/>
<g>
</g>
</g>
<g id="ID000022" clip-path="url(#ID000018)" >
      <polyline fill="none" stroke="#0000ff" stroke-width="1.0pt" stroke-dasharray="none" points="71.992,192.752 74.556,192.728 77.120,192.700 79.683,192.668 82.247,192.632 84.811,192.590 87.375,192.544 89.938,192.491 92.502,192.431 95.066,192.364 97.629,192.289 100.193,192.206 102.757,192.112 105.321,192.009 107.884,191.895 110.448,191.770 113.012,191.634 115.575,191.484 118.139,191.323 120.703,191.148 123.267,190.960 125.830,190.759 128.394,190.544 130.958,190.316 133.521,190.074 136.085,189.819 138.649,189.552 141.213,189.272 143.776,188.980 146.340,188.677 148.904,188.364 151.467,188.042 154.031,187.712 156.595,187.375 159.159,187.034 161.722,186.690 164.286,186.346 166.850,186.005 169.413,185.670 171.977,185.345 174.541,185.032 177.105,184.735 179.668,184.459 182.232,184.207 184.796,183.983 187.359,183.790 189.923,183.630 192.487,183.507 195.051,183.421 197.614,183.376 200.178,183.369 202.742,183.403 205.305,183.475 207.869,183.585 210.433,183.728 212.997,183.904 215.560,184.108 218.124,184.337 220.688,184.587 223.251,184.853 225.815,185.131 228.379,185.418 230.943,185.709 233.506,186.000 236.070,186.289 238.634,186.573 241.197,186.849 243.761,187.114 246.325,187.369 248.889,187.610 251.452,187.838 254.016,188.052 256.580,188.252 259.143,188.438 261.707,188.610 264.271,188.768 266.835,188.913 269.398,189.046 271.962,189.168 274.526,189.278 277.089,189.378 279.653,189.469 282.217,189.551 284.781,189.626 287.344,189.692 "/>
<g>
</g>
</g>
<g id="ID000023" clip-path="url(#ID000018)" >
      <polyline fill="none" stroke="#0000ff" stroke-width="1.0pt" stroke-dasharray="none" points="71.992,192.752 74.556,192.728 77.120,192.700 79.683,192.668 82.247,192.632 84.811,192.590 87.375,192.544 89.938,192.491 92.502,192.431 95.066,192.364 97.629,192.289 100.193,192.206 102.757,192.112 105.321,192.009 107.884,191.895 110.448,191.770 113.012,191.634 115.575,191.484 118.139,191.323 120.703,191.148 123.267,190.960 125.830,190.759 128.394,190.544 130.958,190.316 133.521,190.074 136.085,189.819 138.649,189.552 141.213,189.272 143.776,188.980 146.340,188.677 148.904,188.364 151.467,188.042 154.031,187.712 156.595,187.375 159.159,187.034 161.722,186.690 164.286,186.346 166.850,186.005 169.413,185.670 171.977,185.345 174.541,185.032 177.105,184.735 179.668,184.459 182.232,184.207 184.796,183.983 187.359,183.790 189.923,183.630 192.487,183.507 195.051,183.421 197.614,183.376 200.178,183.369 202.742,183.403 205.305,183.475 207.869,183.585 210.433,183.728 212.997,183.904 215.560,184.108 218.124,184.337 220.688,184.587 223.251,184.853 225.815,185.131 228.379,185.418 230.943,185.709 233.506,186.000 236.070,186.289 238.634,186.573 241.197,186.849 243.761,187.114 246.325,187.369 248.889,187.610 251.452,187.838 254.016,188.052 256.580,188.252 259.143,188.438 261.707,188.610 264.271,188.768 266.835,188.913 269.398,189.046 271.962,189.168 274.526,189.278 277.089,189.378 279.653,189.469 282.217,189.551 284.781,189.626 287.344,189.692 "/>
<g>
</g>
</g>
<g id="ID000024" clip-path="url(#ID000018)" >
      <polygon fill="#ff0000" fill-opacity="0.15" stroke="none" stroke-width="0.5pt" stroke-opacity="1.00" stroke-dasharray="none" points="71.992,193.933 74.556,193.856 77.120,193.779 79.683,193.701 82.247,193.624 84.811,193.550 87.375,193.478 89.938,193.412 92.502,193.351 95.066,193.298 97.629,193.254 100.193,193.219 102.757,193.194 105.321,193.181 107.884,193.178 110.448,193.187 113.012,193.205 115.575,193.233 118.139,193.268 120.703,193.307 123.267,193.349 125.830,193.391 128.394,193.427 130.958,193.455 133.521,193.471 136.085,193.470 138.649,193.448 141.213,193.401 143.776,193.326 146.340,193.219 148.904,193.078 151.467,192.901 154.031,192.688 156.595,192.438 159.159,192.152 161.722,191.832 164.286,191.483 166.850,191.108 169.413,190.712 171.977,190.301 174.541,189.883 177.105,189.464 179.668,189.052 182.232,188.655 184.796,188.280 187.359,187.935 189.923,187.625 192.487,187.358 195.051,187.138 197.614,186.968 200.178,186.851 202.742,186.788 205.305,186.779 207.869,186.824 210.433,186.920 212.997,187.063 215.560,187.250 218.124,187.475 220.688,187.734 223.251,188.021 225.815,188.330 228.379,188.655 230.943,188.991 233.506,189.333 236.070,189.676 238.634,190.016 241.197,190.349 243.761,190.673 246.325,190.984 248.889,191.282 251.452,191.564 254.016,191.830 256.580,192.079 259.143,192.311 261.707,192.526 264.271,192.725 266.835,192.908 269.398,193.075 271.962,193.228 274.526,193.368 277.089,193.495 279.653,193.610 282.217,193.714 284.781,193.808 287.344,193.893 287.344,178.653 284.781,178.565 282.217,178.467 279.653,178.360 277.089,178.241 274.526,178.110 271.962,177.966 269.398,177.809 266.835,177.637 264.271,177.450 261.707,177.246 259.143,177.027 256.580,176.792 254.016,176.540 251.452,176.272 248.889,175.989 246.325,175.693 243.761,175.385 241.197,175.068 238.634,174.745 236.070,174.419 233.506,174.095 230.943,173.779 228.379,173.476 225.815,173.192 223.251,172.933 220.688,172.707 218.124,172.521 215.560,172.380 212.997,172.292 210.433,172.262 207.869,172.294 205.305,172.394 202.742,172.562 200.178,172.802 197.614,173.111 195.051,173.489 192.487,173.932 189.923,174.435 187.359,174.993 184.796,175.597 182.232,176.240 179.668,176.913 177.105,177.605 174.541,178.308 171.977,179.011 169.413,179.706 166.850,180.384 164.286,181.037 161.722,181.659 159.159,182.244 156.595,182.788 154.031,183.288 151.467,183.741 148.904,184.149 146.340,184.511 143.776,184.830 141.213,185.107 138.649,185.345 136.085,185.550 133.521,185.725 130.958,185.874 128.394,186.002 125.830,186.114 123.267,186.213 120.703,186.305 118.139,186.391 115.575,186.476 113.012,186.562 110.448,186.651 107.884,186.745 105.321,186.844 102.757,186.949 100.193,187.060 97.629,187.177 95.066,187.299 92.502,187.426 89.938,187.555 87.375,187.686 84.811,187.819 82.247,187.950 79.683,188.080 77.120,188.208 74.556,188.331 71.992,188.450 "/>
</g>
<g id="ID000025" clip-path="url(#ID000018)" >
      <polyline fill="none" stroke="#ff8c8c" stroke-width="1.0pt" stroke-dasharray="none" points="71.992,193.933 74.556,193.856 77.120,193.779 79.683,193.701 82.247,193.624 84.811,193.550 87.375,193.478 89.938,193.412 92.502,193.351 95.066,193.298 97.629,193.254 100.193,193.219 102.757,193.194 105.321,193.181 107.884,193.178 110.448,193.187 113.012,193.205 115.575,193.233 118.139,193.268 120.703,193.307 123.267,193.349 125.830,193.391 128.394,193.427 130.958,193.455 133.521,193.471 136.085,193.470 138.649,193.448 141.213,193.401 143.776,193.326 146.340,193.219 148.904,193.078 151.467,192.901 154.031,192.688 156.595,192.438 159.159,192.152 161.722,191.832 164.286,191.483 166.850,191.108 169.413,190.712 171.977,190.301 174.541,189.883 177.105,189.464 179.668,189.052 182.232,188.655 184.796,188.280 187.359,187.935 189.923,187.625 192.487,187.358 195.051,187.138 197.614,186.968 200.178,186.851 202.742,186.788 205.305,186.779 207.869,186.824 210.433,186.920 212.997,187.063 215.560,187.250 218.124,187.475 220.688,187.734 223.251,188.021 225.815,188.330 228.379,188.655 230.943,188.991 233.506,189.333 236.070,189.676 238.634,190.016 241.197,190.349 243.761,190.673 246.325,190.984 248.889,191.282 251.452,191.564 254.016,191.830 256.580,192.079 259.143,192.311 261.707,192.526 264.271,192.725 266.835,192.908 269.398,193.075 271.962,193.228 274.526,193.368 277.089,193.495 279.653,193.610 282.217,193.714 284.781,193.808 287.344,193.893 "/>
<g>
</g>
</g>
<g id="ID000026" clip-path="url(#ID000018)" >
      <polyline fill="none" stroke="#ff8c8c" stroke-width="1.0pt" stroke-dasharray="none" points="71.992,188.450 74.556,188.331 77.120,188.208 79.683,188.080 82.247,187.950 84.811,187.819 87.375,187.686 89.938,187.555 92.502,187.426 95.066,187.299 97.629,187.177 100.193,187.060 102.757,186.949 105.321,186.844 107.884,186.745 110.448,186.651 113.012,186.562 115.575,186.476 118.139,186.391 120.703,186.305 123.267,186.213 125.830,186.114 128.394,186.002 130.958,185.874 133.521,185.725 136.085,185.550 138.649,185.345 141.213,185.107 143.776,184.830 146.340,184.511 148.904,184.149 151.467,183.741 154.031,183.288 156.595,182.788 159.159,182.244 161.722,181.659 164.286,181.037 166.850,180.384 169.413,179.706 171.977,179.011 174.541,178.308 177.105,177.605 179.668,176.913 182.232,176.240 184.796,175.597 187.359,174.993 189.923,174.435 192.487,173.932 195.051,173.489 197.614,173.111 200.178,172.802 202.742,172.562 205.305,172.394 207.869,172.294 210.433,172.262 212.997,172.292 215.560,172.380 218.124,172.521 220.688,172.707 223.251,172.933 225.815,173.192 228.379,173.476 230.943,173.779 233.506,174.095 236.070,174.419 238.634,174.745 241.197,175.068 243.761,175.385 246.325,175.693 248.889,175.989 251.452,176.272 254.016,176.540 256.580,176.792 259.143,177.027 261.707,177.246 264.271,177.450 266.835,177.637 269.398,177.809 271.962,177.966 274.526,178.110 277.089,178.241 279.653,178.360 282.217,178.467 284.781,178.565 287.344,178.653 "/>
<g>
</g>
</g>
<g id="ID000027" clip-path="url(#ID000018)" >
      <polyline fill="none" stroke="#ff0000" stroke-width="1.0pt" stroke-dasharray="none" points="71.992,191.192 74.556,191.094 77.120,190.993 79.683,190.891 82.247,190.787 84.811,190.684 87.375,190.582 89.938,190.483 92.502,190.388 95.066,190.299 97.629,190.215 100.193,190.139 102.757,190.072 105.321,190.012 107.884,189.961 110.448,189.919 113.012,189.884 115.575,189.854 118.139,189.829 120.703,189.806 123.267,189.781 125.830,189.752 128.394,189.715 130.958,189.665 133.521,189.598 136.085,189.510 138.649,189.397 141.213,189.254 143.776,189.078 146.340,188.865 148.904,188.614 151.467,188.321 154.031,187.988 156.595,187.613 159.159,187.198 161.722,186.746 164.286,186.260 166.850,185.746 169.413,185.209 171.977,184.656 174.541,184.095 177.105,183.534 179.668,182.982 182.232,182.447 184.796,181.938 187.359,181.464 189.923,181.030 192.487,180.645 195.051,180.313 197.614,180.039 200.178,179.826 202.742,179.675 205.305,179.587 207.869,179.559 210.433,179.591 212.997,179.677 215.560,179.815 218.124,179.998 220.688,180.221 223.251,180.477 225.815,180.761 228.379,181.065 230.943,181.385 233.506,181.714 236.070,182.047 238.634,182.380 241.197,182.709 243.761,183.029 246.325,183.339 248.889,183.636 251.452,183.918 254.016,184.185 256.580,184.435 259.143,184.669 261.707,184.886 264.271,185.087 266.835,185.272 269.398,185.442 271.962,185.597 274.526,185.739 277.089,185.868 279.653,185.985 282.217,186.091 284.781,186.186 287.344,186.273 "/>
<g>
</g>
</g>
<g id="ID000028" clip-path="url(#ID000018)" >
      <polyline fill="none" stroke="#ff0000" stroke-width="1.0pt" stroke-dasharray="none" points="71.992,191.192 74.556,191.094 77.120,190.993 79.683,190.891 82.247,190.787 84.811,190.684 87.375,190.582 89.938,190.483 92.502,190.388 95.066,190.299 97.629,190.215 100.193,190.139 102.757,190.072 105.321,190.012 107.884,189.961 110.448,189.919 113.012,189.884 115.575,189.854 118.139,189.829 120.703,189.806 123.267,189.781 125.830,189.752 128.394,189.715 130.958,189.665 133.521,189.598 136.085,189.510 138.649,189.397 141.213,189.254 143.776,189.078 146.340,188.865 148.904,188.614 151.467,188.321 154.031,187.988 156.595,187.613 159.159,187.198 161.722,186.746 164.286,186.260 166.850,185.746 169.413,185.209 171.977,184.656 174.541,184.095 177.105,183.534 179.668,182.982 182.232,182.447 184.796,181.938 187.359,181.464 189.923,181.030 192.487,180.645 195.051,180.313 197.614,180.039 200.178,179.826 202.742,179.675 205.305,179.587 207.869,179.559 210.433,179.591 212.997,179.677 215.560,179.815 218.124,179.998 220.688,180.221 223.251,180.477 225.815,180.761 228.379,181.065 230.943,181.385 233.506,181.714 236.070,182.047 238.634,182.380 241.197,182.709 243.761,183.029 246.325,183.339 248.889,183.636 251.452,183.918 254.016,184.185 256.580,184.435 259.143,184.669 261.707,184.886 264.271,185.087 266.835,185.272 269.398,185.442 271.962,185.597 274.526,185.739 277.089,185.868 279.653,185.985 282.217,186.091 284.781,186.186 287.344,186.273 "/>
<g>
</g>
</g>
<g id="ID000029" clip-path="url(#ID000018)" >
      <polyline fill="none" stroke="#000000" stroke-width="2.0pt" stroke-dasharray="2.0,2.0" points="69.430,192.869 71.974,192.278 74.519,191.755 77.064,191.299 79.609,190.912 82.154,190.589 84.699,190.305 87.244,190.104 89.789,189.967 92.334,189.871 94.878,189.816 97.423,189.787 99.968,189.794 102.513,189.843 105.058,189.932 107.603,190.065 110.148,190.122 112.693,190.092 115.238,189.986 117.782,189.923 120.327,189.907 122.872,189.820 125.417,189.744 127.962,189.684 130.507,189.483 133.052,189.249 135.597,189.046 138.142,188.881 140.686,188.743 143.231,188.497 145.776,188.279 148.321,188.125 150.866,187.842 153.411,187.509 155.956,187.248 158.501,186.954 161.046,186.657 163.590,186.302 166.135,185.919 168.680,185.561 171.225,185.139 173.770,184.733 176.315,184.374 178.860,184.048 181.405,183.804 183.950,183.622 186.494,183.439 189.039,183.248 191.584,183.040 194.129,182.830 196.674,182.694 199.219,182.615 201.764,182.503 204.309,182.446 206.854,182.368 209.398,182.325 211.943,182.296 214.488,182.263 217.033,182.250 219.578,182.357 222.123,182.594 224.668,182.895 227.213,183.223 229.758,183.512 232.302,183.787 234.847,184.073 237.392,184.470 239.937,184.921 242.482,185.459 245.027,186.073 247.572,186.730 250.117,187.366 252.662,187.987 255.206,188.595 257.751,189.147 260.296,189.688 "/>
<g>
</g>
</g>
<g id="ID000030" clip-path="url(#ID000018)" >
<g>
<circle cx="71.992" cy="192.869" r="3.000" fill="none" stroke="#000000" stroke-width="3.0pt" />
<circle cx="74.556" cy="192.278" r="3.000" fill="none" stroke="#000000" stroke-width="3.0pt" />
<circle cx="77.120" cy="191.755" r="3.000" fill="none" stroke="#000000" stroke-width="3.0pt" />
<circle cx="79.683" cy="191.299" r="3.000" fill="none" stroke="#000000" stroke-width="3.0pt" />
<circle cx="82.247" cy="190.912" r="3.000" fill="none" stroke="#000000" stroke-width="3.0pt" />
<circle cx="84.811" cy="190.589" r="3.000" fill="none" stroke="#000000" stroke-width="3.0pt" />
<circle cx="87.375" cy="190.305" r="3.000" fill="none" stroke="#000000" stroke-width="3.0pt" />
<circle cx="89.938" cy="190.104" r="3.000" fill="none" stroke="#000000" stroke-width="3.0pt" />
<circle cx="92.502" cy="189.967" r="3.000" fill="none" stroke="#000000" stroke-width="3.0pt" />
<circle cx="95.066" cy="189.871" r="3.000" fill="none" stroke="#000000" stroke-width="3.0pt" />
<circle cx="97.629" cy="189.816" r="3.000" fill="none" stroke="#000000" stroke-width="3.0pt" />
<circle cx="100.193" cy="189.787" r="3.000" fill="none" stroke="#000000" stroke-width="3.0pt" />
<circle cx="102.757" cy="189.794" r="3.000" fill="none" stroke="#000000" stroke-width="3.0pt" />
<circle cx="105.321" cy="189.843" r="3.000" fill="none" stroke="#000000" stroke-width="3.0pt" />
<circle cx="107.884" cy="189.932" r="3.000" fill="none" stroke="#000000" stroke-width="3.0pt" />
<circle cx="110.448" cy="190.065" r="3.000" fill="none" stroke="#000000" stroke-width="3.0pt" />
<circle cx="113.012" cy="190.122" r="3.000" fill="none" stroke="#000000" stroke-width="3.0pt" />
<circle cx="115.575" cy="190.092" r="3.000" fill="none" stroke="#000000" stroke-width="3.0pt" />
<circle cx="118.139" cy="189.986" r="3.000" fill="none" stroke="#000000" stroke-width="3.0pt" />
<circle cx="120.703" cy="189.923" r="3.000" fill="none" stroke="#000000" stroke-width="3.0pt" />
<circle cx="123.267" cy="189.907" r="3.000" fill="none" stroke="#000000" stroke-width="3.0pt" />
<circle cx="125.830" cy="189.820" r="3.000" fill="none" stroke="#000000" stroke-width="3.0pt" />
<circle cx="128.394" cy="189.744" r="3.000" fill="none" stroke="#000000" stroke-width="3.0pt" />
<circle cx="130.958" cy="189.684" r="3.000" fill="none" stroke="#000000" stroke-width="3.0pt" />
<circle cx="133.521" cy="189.483" r="3.000" fill="none" stroke="#000000" stroke-width="3.0pt" />
<circle cx="136.085" cy="189.249" r="3.000" fill="none" stroke="#000000" stroke-width="3.0pt" />
<circle cx="138.649" cy="189.046" r="3.000" fill="none" stroke="#000000" stroke-width="3.0pt" />
<circle cx="141.213" cy="188.881" r="3.000" fill="none" stroke="#000000" stroke-width="3.0pt" />
<circle cx="143.776" cy="188.743" r="3.000" fill="none" stroke="#000000" stroke-width="3.0pt" />
<circle cx="146.340" cy="188.497" r="3.000" fill="none" stroke="#000000" stroke-width="3.0pt" />
<circle cx="148.904" cy="188.279" r="3.000" fill="none" stroke="#000000" stroke-width="3.0pt" />
<circle cx="151.467" cy="188.125" r="3.000" fill="none" stroke="#000000" stroke-width="3.0pt" />
<circle cx="154.031" cy="187.842" r="3.000" fill="none" stroke="#000000" stroke-width="3.0pt" />
<circle cx="156.595" cy="187.509" r="3.000" fill="none" stroke="#000000" stroke-width="3.0pt" />
<circle cx="159.159" cy="187.248" r="3.000" fill="none" stroke="#000000" stroke-width="3.0pt" />
<circle cx="161.722" cy="186.954" r="3.000" fill="none" stroke="#000000" stroke-width="3.0pt" />
<circle cx="164.286" cy="186.657" r="3.000" fill="none" stroke="#000000" stroke-width="3.0pt" />
<circle cx="166.850" cy="186.302" r="3.000" fill="none" stroke="#000000" stroke-width="3.0pt" />
</g>
</g>
<g id="ID000031" >
  <g transform="translate(0.084,197.464)">
    <g transform="rotate(-90.0)">
      <text x="0.000" y="0.000" font-family="Helvetica" text-anchor="middle" font-size="24pt" fill="#000000" >y[m]</text>
    </g>
  </g>
</g>
<g id="ID000032" >
</g>
<g id="ID000033" >
</g>
    </g>
    <g>
      <polyline fill="none" stroke="#000000" stroke-width="0.5pt" stroke-dasharray="none" points="197.614,230.154 197.614,227.591 "/>
      <polyline fill="none" stroke="#000000" stroke-width="0.5pt" stroke-dasharray="none" points="69.429,230.154 325.800,230.154 "/>
      <polyline fill="none" stroke="#000000" stroke-width="0.5pt" stroke-dasharray="none" points="197.614,162.761 197.614,165.325 "/>
      <polyline fill="none" stroke="#000000" stroke-width="0.5pt" stroke-dasharray="none" points="69.429,162.761 325.800,162.761 "/>
  <g transform="translate(69.429,255.102)">
    <g transform="rotate(-0.0)">
      <text x="0.000" y="0.000" font-family="Helvetica" text-anchor="middle" font-size="20pt" fill="#000000" >0</text>
    </g>
  </g>
  <g transform="translate(197.614,255.102)">
    <g transform="rotate(-0.0)">
      <text x="0.000" y="0.000" font-family="Helvetica" text-anchor="middle" font-size="20pt" fill="#000000" >0.5</text>
    </g>
  </g>
  <g transform="translate(325.800,255.102)">
    <g transform="rotate(-0.0)">
      <text x="0.000" y="0.000" font-family="Helvetica" text-anchor="middle" font-size="20pt" fill="#000000" >1</text>
    </g>
  </g>
      <polyline fill="none" stroke="#000000" stroke-width="0.5pt" stroke-dasharray="none" points="69.429,196.458 71.992,196.458 "/>
      <polyline fill="none" stroke="#000000" stroke-width="0.5pt" stroke-dasharray="none" points="69.429,230.154 69.429,162.761 "/>
      <polyline fill="none" stroke="#000000" stroke-width="0.5pt" stroke-dasharray="none" points="325.800,196.458 323.236,196.458 "/>
      <polyline fill="none" stroke="#000000" stroke-width="0.5pt" stroke-dasharray="none" points="325.800,230.154 325.800,162.761 "/>
  <g transform="translate(64.301,239.154)">
    <g transform="rotate(-0.0)">
      <text x="0.000" y="0.000" font-family="Helvetica" text-anchor="end" font-size="20pt" fill="#000000" >-0.15</text>
    </g>
  </g>
  <g transform="translate(64.301,205.458)">
    <g transform="rotate(-0.0)">
      <text x="0.000" y="0.000" font-family="Helvetica" text-anchor="end" font-size="20pt" fill="#000000" >-0.1</text>
    </g>
  </g>
  <g transform="translate(64.301,171.761)">
    <g transform="rotate(-0.0)">
      <text x="0.000" y="0.000" font-family="Helvetica" text-anchor="end" font-size="20pt" fill="#000000" >-0.05</text>
    </g>
  </g>
      <polyline fill="none" stroke="#000000" stroke-width="0.5pt" stroke-dasharray="none" points="69.429,230.154 69.429,229.480 "/>
      <polyline fill="none" stroke="#000000" stroke-width="0.5pt" stroke-dasharray="none" points="69.429,230.154 69.429,230.154 "/>
    </g>
  </g>
  <g id ="ID000034">
  <clipPath id="ID000035">
    <rect x="69.429" y="288.607" width="256.371" height="67.393"/>
  </clipPath>
      <polygon fill="#ffffff" fill-opacity="1.00" stroke="none" stroke-width="0.5pt" stroke-opacity="1.00" stroke-dasharray="none" points="69.429,356.000 325.800,356.000 325.800,288.607 69.429,288.607 "/>
      <polygon fill="#ffffff" fill-opacity="1.00" stroke="none" stroke-width="0.5pt" stroke-opacity="1.00" stroke-dasharray="none" points="69.429,288.607 325.800,288.607 325.800,288.607 69.429,288.607 "/>
      <polygon fill="#ffffff" fill-opacity="1.00" stroke="none" stroke-width="0.5pt" stroke-opacity="1.00" stroke-dasharray="none" points="69.429,356.000 69.429,356.000 69.429,288.607 69.429,288.607 "/>
    <g>
<g id="ID000036" clip-path="url(#ID000035)" >
      <polygon fill="#0000ff" fill-opacity="0.15" stroke="none" stroke-width="0.5pt" stroke-opacity="1.00" stroke-dasharray="none" points="71.992,343.985 74.556,344.003 77.120,344.021 79.683,344.041 82.247,344.062 84.811,344.084 87.375,344.108 89.938,344.133 92.502,344.159 95.066,344.186 97.629,344.215 100.193,344.245 102.757,344.276 105.321,344.308 107.884,344.341 110.448,344.375 113.012,344.410 115.575,344.445 118.139,344.480 120.703,344.516 123.267,344.551 125.830,344.587 128.394,344.621 130.958,344.655 133.521,344.688 136.085,344.719 138.649,344.748 141.213,344.776 143.776,344.801 146.340,344.823 148.904,344.843 151.467,344.860 154.031,344.874 156.595,344.884 159.159,344.891 161.722,344.895 164.286,344.896 166.850,344.894 169.413,344.889 171.977,344.881 174.541,344.870 177.105,344.857 179.668,344.842 182.232,344.825 184.796,344.807 187.359,344.787 189.923,344.766 192.487,344.744 195.051,344.721 197.614,344.698 200.178,344.675 202.742,344.652 205.305,344.629 207.869,344.606 210.433,344.584 212.997,344.562 215.560,344.540 218.124,344.520 220.688,344.499 223.251,344.480 225.815,344.462 228.379,344.444 230.943,344.427 233.506,344.411 236.070,344.396 238.634,344.382 241.197,344.369 243.761,344.357 246.325,344.346 248.889,344.335 251.452,344.326 254.016,344.317 256.580,344.309 259.143,344.301 261.707,344.294 264.271,344.288 266.835,344.283 269.398,344.277 271.962,344.273 274.526,344.269 277.089,344.265 279.653,344.262 282.217,344.259 284.781,344.256 287.344,344.253 287.344,323.875 284.781,323.814 282.217,323.747 279.653,323.673 277.089,323.591 274.526,323.500 271.962,323.400 269.398,323.290 266.835,323.170 264.271,323.039 261.707,322.896 259.143,322.741 256.580,322.574 254.016,322.394 251.452,322.202 248.889,321.997 246.325,321.781 243.761,321.554 241.197,321.317 238.634,321.071 236.070,320.820 233.506,320.565 230.943,320.309 228.379,320.055 225.815,319.807 223.251,319.568 220.688,319.342 218.124,319.134 215.560,318.948 212.997,318.787 210.433,318.655 207.869,318.556 205.305,318.493 202.742,318.467 200.178,318.481 197.614,318.537 195.051,318.633 192.487,318.772 189.923,318.951 187.359,319.169 184.796,319.425 182.232,319.716 179.668,320.039 177.105,320.392 174.541,320.771 171.977,321.174 169.413,321.596 166.850,322.036 164.286,322.490 161.722,322.955 159.159,323.428 156.595,323.908 154.031,324.392 151.467,324.878 148.904,325.364 146.340,325.848 143.776,326.329 141.213,326.804 138.649,327.272 136.085,327.731 133.521,328.181 130.958,328.618 128.394,329.043 125.830,329.453 123.267,329.849 120.703,330.228 118.139,330.590 115.575,330.934 113.012,331.261 110.448,331.570 107.884,331.861 105.321,332.134 102.757,332.389 100.193,332.628 97.629,332.850 95.066,333.057 92.502,333.248 89.938,333.425 87.375,333.588 84.811,333.738 82.247,333.876 79.683,334.003 77.120,334.118 74.556,334.224 71.992,334.321 "/>
</g>
<g id="ID000037" clip-path="url(#ID000035)" >
      <polyline fill="none" stroke="#8c8cff" stroke-width="1.0pt" stroke-dasharray="none" points="71.992,343.985 74.556,344.003 77.120,344.021 79.683,344.041 82.247,344.062 84.811,344.084 87.375,344.108 89.938,344.133 92.502,344.159 95.066,344.186 97.629,344.215 100.193,344.245 102.757,344.276 105.321,344.308 107.884,344.341 110.448,344.375 113.012,344.410 115.575,344.445 118.139,344.480 120.703,344.516 123.267,344.551 125.830,344.587 128.394,344.621 130.958,344.655 133.521,344.688 136.085,344.719 138.649,344.748 141.213,344.776 143.776,344.801 146.340,344.823 148.904,344.843 151.467,344.860 154.031,344.874 156.595,344.884 159.159,344.891 161.722,344.895 164.286,344.896 166.850,344.894 169.413,344.889 171.977,344.881 174.541,344.870 177.105,344.857 179.668,344.842 182.232,344.825 184.796,344.807 187.359,344.787 189.923,344.766 192.487,344.744 195.051,344.721 197.614,344.698 200.178,344.675 202.742,344.652 205.305,344.629 207.869,344.606 210.433,344.584 212.997,344.562 215.560,344.540 218.124,344.520 220.688,344.499 223.251,344.480 225.815,344.462 228.379,344.444 230.943,344.427 233.506,344.411 236.070,344.396 238.634,344.382 241.197,344.369 243.761,344.357 246.325,344.346 248.889,344.335 251.452,344.326 254.016,344.317 256.580,344.309 259.143,344.301 261.707,344.294 264.271,344.288 266.835,344.283 269.398,344.277 271.962,344.273 274.526,344.269 277.089,344.265 279.653,344.262 282.217,344.259 284.781,344.256 287.344,344.253 "/>
<g>
</g>
</g>
<g id="ID000038" clip-path="url(#ID000035)" >
      <polyline fill="none" stroke="#8c8cff" stroke-width="1.0pt" stroke-dasharray="none" points="71.992,334.321 74.556,334.224 77.120,334.118 79.683,334.003 82.247,333.876 84.811,333.738 87.375,333.588 89.938,333.425 92.502,333.248 95.066,333.057 97.629,332.850 100.193,332.628 102.757,332.389 105.321,332.134 107.884,331.861 110.448,331.570 113.012,331.261 115.575,330.934 118.139,330.590 120.703,330.228 123.267,329.849 125.830,329.453 128.394,329.043 130.958,328.618 133.521,328.181 136.085,327.731 138.649,327.272 141.213,326.804 143.776,326.329 146.340,325.848 148.904,325.364 151.467,324.878 154.031,324.392 156.595,323.908 159.159,323.428 161.722,322.955 164.286,322.490 166.850,322.036 169.413,321.596 171.977,321.174 174.541,320.771 177.105,320.392 179.668,320.039 182.232,319.716 184.796,319.425 187.359,319.169 189.923,318.951 192.487,318.772 195.051,318.633 197.614,318.537 200.178,318.481 202.742,318.467 205.305,318.493 207.869,318.556 210.433,318.655 212.997,318.787 215.560,318.948 218.124,319.134 220.688,319.342 223.251,319.568 225.815,319.807 228.379,320.055 230.943,320.309 233.506,320.565 236.070,320.820 238.634,321.071 241.197,321.317 243.761,321.554 246.325,321.781 248.889,321.997 251.452,322.202 254.016,322.394 256.580,322.574 259.143,322.741 261.707,322.896 264.271,323.039 266.835,323.170 269.398,323.290 271.962,323.400 274.526,323.500 277.089,323.591 279.653,323.673 282.217,323.747 284.781,323.814 287.344,323.875 "/>
<g>
</g>
</g>
<g id="ID000039" clip-path="url(#ID000035)" >
      <polyline fill="none" stroke="#0000ff" stroke-width="1.0pt" stroke-dasharray="none" points="71.992,339.153 74.556,339.113 77.120,339.070 79.683,339.022 82.247,338.969 84.811,338.911 87.375,338.848 89.938,338.779 92.502,338.703 95.066,338.622 97.629,338.533 100.193,338.437 102.757,338.333 105.321,338.221 107.884,338.101 110.448,337.972 113.012,337.835 115.575,337.689 118.139,337.535 120.703,337.372 123.267,337.200 125.830,337.020 128.394,336.832 130.958,336.637 133.521,336.434 136.085,336.225 138.649,336.010 141.213,335.790 143.776,335.565 146.340,335.336 148.904,335.104 151.467,334.869 154.031,334.633 156.595,334.396 159.159,334.160 161.722,333.925 164.286,333.693 166.850,333.465 169.413,333.243 171.977,333.027 174.541,332.821 177.105,332.624 179.668,332.440 182.232,332.270 184.796,332.116 187.359,331.978 189.923,331.858 192.487,331.758 195.051,331.677 197.614,331.618 200.178,331.578 202.742,331.560 205.305,331.561 207.869,331.581 210.433,331.620 212.997,331.674 215.560,331.744 218.124,331.827 220.688,331.921 223.251,332.024 225.815,332.134 228.379,332.249 230.943,332.368 233.506,332.488 236.070,332.608 238.634,332.727 241.197,332.843 243.761,332.955 246.325,333.063 248.889,333.166 251.452,333.264 254.016,333.355 256.580,333.441 259.143,333.521 261.707,333.595 264.271,333.664 266.835,333.726 269.398,333.784 271.962,333.836 274.526,333.884 277.089,333.928 279.653,333.967 282.217,334.003 284.781,334.035 287.344,334.064 "/>
<g>
</g>
</g>
<g id="ID000040" clip-path="url(#ID000035)" >
      <polyline fill="none" stroke="#0000ff" stroke-width="1.0pt" stroke-dasharray="none" points="71.992,339.153 74.556,339.113 77.120,339.070 79.683,339.022 82.247,338.969 84.811,338.911 87.375,338.848 89.938,338.779 92.502,338.703 95.066,338.622 97.629,338.533 100.193,338.437 102.757,338.333 105.321,338.221 107.884,338.101 110.448,337.972 113.012,337.835 115.575,337.689 118.139,337.535 120.703,337.372 123.267,337.200 125.830,337.020 128.394,336.832 130.958,336.637 133.521,336.434 136.085,336.225 138.649,336.010 141.213,335.790 143.776,335.565 146.340,335.336 148.904,335.104 151.467,334.869 154.031,334.633 156.595,334.396 159.159,334.160 161.722,333.925 164.286,333.693 166.850,333.465 169.413,333.243 171.977,333.027 174.541,332.821 177.105,332.624 179.668,332.440 182.232,332.270 184.796,332.116 187.359,331.978 189.923,331.858 192.487,331.758 195.051,331.677 197.614,331.618 200.178,331.578 202.742,331.560 205.305,331.561 207.869,331.581 210.433,331.620 212.997,331.674 215.560,331.744 218.124,331.827 220.688,331.921 223.251,332.024 225.815,332.134 228.379,332.249 230.943,332.368 233.506,332.488 236.070,332.608 238.634,332.727 241.197,332.843 243.761,332.955 246.325,333.063 248.889,333.166 251.452,333.264 254.016,333.355 256.580,333.441 259.143,333.521 261.707,333.595 264.271,333.664 266.835,333.726 269.398,333.784 271.962,333.836 274.526,333.884 277.089,333.928 279.653,333.967 282.217,334.003 284.781,334.035 287.344,334.064 "/>
<g>
</g>
</g>
<g id="ID000041" clip-path="url(#ID000035)" >
      <polygon fill="#ff0000" fill-opacity="0.15" stroke="none" stroke-width="0.5pt" stroke-opacity="1.00" stroke-dasharray="none" points="71.992,342.171 74.556,342.124 77.120,342.074 79.683,342.021 82.247,341.965 84.811,341.906 87.375,341.845 89.938,341.781 92.502,341.714 95.066,341.645 97.629,341.573 100.193,341.498 102.757,341.421 105.321,341.340 107.884,341.255 110.448,341.166 113.012,341.072 115.575,340.972 118.139,340.866 120.703,340.751 123.267,340.627 125.830,340.491 128.394,340.344 130.958,340.182 133.521,340.005 136.085,339.810 138.649,339.596 141.213,339.362 143.776,339.106 146.340,338.828 148.904,338.526 151.467,338.201 154.031,337.853 156.595,337.483 159.159,337.091 161.722,336.681 164.286,336.255 166.850,335.815 169.413,335.366 171.977,334.912 174.541,334.458 177.105,334.010 179.668,333.571 182.232,333.148 184.796,332.745 187.359,332.368 189.923,332.021 192.487,331.708 195.051,331.433 197.614,331.196 200.178,331.002 202.742,330.849 205.305,330.739 207.869,330.669 210.433,330.639 212.997,330.646 215.560,330.688 218.124,330.760 220.688,330.860 223.251,330.983 225.815,331.125 228.379,331.282 230.943,331.451 233.506,331.628 236.070,331.809 238.634,331.992 241.197,332.174 243.761,332.353 246.325,332.527 248.889,332.694 251.452,332.854 254.016,333.005 256.580,333.148 259.143,333.281 261.707,333.405 264.271,333.520 266.835,333.626 269.398,333.724 271.962,333.813 274.526,333.895 277.089,333.969 279.653,334.036 282.217,334.097 284.781,334.152 287.344,334.202 287.344,322.779 284.781,322.735 282.217,322.686 279.653,322.632 277.089,322.572 274.526,322.507 271.962,322.435 269.398,322.357 266.835,322.272 264.271,322.180 261.707,322.081 259.143,321.975 256.580,321.861 254.016,321.741 251.452,321.614 248.889,321.483 246.325,321.347 243.761,321.208 241.197,321.068 238.634,320.930 236.070,320.795 233.506,320.668 230.943,320.551 228.379,320.449 225.815,320.365 223.251,320.303 220.688,320.270 218.124,320.268 215.560,320.302 212.997,320.376 210.433,320.495 207.869,320.660 205.305,320.875 202.742,321.142 200.178,321.460 197.614,321.830 195.051,322.250 192.487,322.718 189.923,323.232 187.359,323.785 184.796,324.374 182.232,324.992 179.668,325.634 177.105,326.293 174.541,326.961 171.977,327.633 169.413,328.302 166.850,328.962 164.286,329.607 161.722,330.233 159.159,330.836 156.595,331.412 154.031,331.958 151.467,332.474 148.904,332.958 146.340,333.410 143.776,333.830 141.213,334.220 138.649,334.579 136.085,334.910 133.521,335.214 130.958,335.493 128.394,335.750 125.830,335.987 123.267,336.205 120.703,336.406 118.139,336.593 115.575,336.766 113.012,336.929 110.448,337.081 107.884,337.224 105.321,337.359 102.757,337.487 100.193,337.609 97.629,337.724 95.066,337.835 92.502,337.940 89.938,338.039 87.375,338.134 84.811,338.224 82.247,338.310 79.683,338.390 77.120,338.466 74.556,338.537 71.992,338.603 "/>
</g>
<g id="ID000042" clip-path="url(#ID000035)" >
      <polyline fill="none" stroke="#ff8c8c" stroke-width="1.0pt" stroke-dasharray="none" points="71.992,342.171 74.556,342.124 77.120,342.074 79.683,342.021 82.247,341.965 84.811,341.906 87.375,341.845 89.938,341.781 92.502,341.714 95.066,341.645 97.629,341.573 100.193,341.498 102.757,341.421 105.321,341.340 107.884,341.255 110.448,341.166 113.012,341.072 115.575,340.972 118.139,340.866 120.703,340.751 123.267,340.627 125.830,340.491 128.394,340.344 130.958,340.182 133.521,340.005 136.085,339.810 138.649,339.596 141.213,339.362 143.776,339.106 146.340,338.828 148.904,338.526 151.467,338.201 154.031,337.853 156.595,337.483 159.159,337.091 161.722,336.681 164.286,336.255 166.850,335.815 169.413,335.366 171.977,334.912 174.541,334.458 177.105,334.010 179.668,333.571 182.232,333.148 184.796,332.745 187.359,332.368 189.923,332.021 192.487,331.708 195.051,331.433 197.614,331.196 200.178,331.002 202.742,330.849 205.305,330.739 207.869,330.669 210.433,330.639 212.997,330.646 215.560,330.688 218.124,330.760 220.688,330.860 223.251,330.983 225.815,331.125 228.379,331.282 230.943,331.451 233.506,331.628 236.070,331.809 238.634,331.992 241.197,332.174 243.761,332.353 246.325,332.527 248.889,332.694 251.452,332.854 254.016,333.005 256.580,333.148 259.143,333.281 261.707,333.405 264.271,333.520 266.835,333.626 269.398,333.724 271.962,333.813 274.526,333.895 277.089,333.969 279.653,334.036 282.217,334.097 284.781,334.152 287.344,334.202 "/>
<g>
</g>
</g>
<g id="ID000043" clip-path="url(#ID000035)" >
      <polyline fill="none" stroke="#ff8c8c" stroke-width="1.0pt" stroke-dasharray="none" points="71.992,338.603 74.556,338.537 77.120,338.466 79.683,338.390 82.247,338.310 84.811,338.224 87.375,338.134 89.938,338.039 92.502,337.940 95.066,337.835 97.629,337.724 100.193,337.609 102.757,337.487 105.321,337.359 107.884,337.224 110.448,337.081 113.012,336.929 115.575,336.766 118.139,336.593 120.703,336.406 123.267,336.205 125.830,335.987 128.394,335.750 130.958,335.493 133.521,335.214 136.085,334.910 138.649,334.579 141.213,334.220 143.776,333.830 146.340,333.410 148.904,332.958 151.467,332.474 154.031,331.958 156.595,331.412 159.159,330.836 161.722,330.233 164.286,329.607 166.850,328.962 169.413,328.302 171.977,327.633 174.541,326.961 177.105,326.293 179.668,325.634 182.232,324.992 184.796,324.374 187.359,323.785 189.923,323.232 192.487,322.718 195.051,322.250 197.614,321.830 200.178,321.460 202.742,321.142 205.305,320.875 207.869,320.660 210.433,320.495 212.997,320.376 215.560,320.302 218.124,320.268 220.688,320.270 223.251,320.303 225.815,320.365 228.379,320.449 230.943,320.551 233.506,320.668 236.070,320.795 238.634,320.930 241.197,321.068 243.761,321.208 246.325,321.347 248.889,321.483 251.452,321.614 254.016,321.741 256.580,321.861 259.143,321.975 261.707,322.081 264.271,322.180 266.835,322.272 269.398,322.357 271.962,322.435 274.526,322.507 277.089,322.572 279.653,322.632 282.217,322.686 284.781,322.735 287.344,322.779 "/>
<g>
</g>
</g>
<g id="ID000044" clip-path="url(#ID000035)" >
      <polyline fill="none" stroke="#ff0000" stroke-width="1.0pt" stroke-dasharray="none" points="71.992,340.387 74.556,340.330 77.120,340.270 79.683,340.205 82.247,340.137 84.811,340.065 87.375,339.990 89.938,339.910 92.502,339.827 95.066,339.740 97.629,339.649 100.193,339.553 102.757,339.454 105.321,339.349 107.884,339.239 110.448,339.123 113.012,339.000 115.575,338.869 118.139,338.729 120.703,338.578 123.267,338.416 125.830,338.239 128.394,338.047 130.958,337.838 133.521,337.609 136.085,337.360 138.649,337.087 141.213,336.791 143.776,336.468 146.340,336.119 148.904,335.742 151.467,335.338 154.031,334.906 156.595,334.447 159.159,333.963 161.722,333.457 164.286,332.931 166.850,332.388 169.413,331.834 171.977,331.273 174.541,330.710 177.105,330.151 179.668,329.603 182.232,329.070 184.796,328.559 187.359,328.077 189.923,327.626 192.487,327.213 195.051,326.841 197.614,326.513 200.178,326.231 202.742,325.995 205.305,325.807 207.869,325.665 210.433,325.567 212.997,325.511 215.560,325.495 218.124,325.514 220.688,325.565 223.251,325.643 225.815,325.745 228.379,325.866 230.943,326.001 233.506,326.148 236.070,326.302 238.634,326.461 241.197,326.621 243.761,326.781 246.325,326.937 248.889,327.088 251.452,327.234 254.016,327.373 256.580,327.504 259.143,327.628 261.707,327.743 264.271,327.850 266.835,327.949 269.398,328.041 271.962,328.124 274.526,328.201 277.089,328.271 279.653,328.334 282.217,328.392 284.781,328.444 287.344,328.491 "/>
<g>
</g>
</g>
<g id="ID000045" clip-path="url(#ID000035)" >
      <polyline fill="none" stroke="#ff0000" stroke-width="1.0pt" stroke-dasharray="none" points="71.992,340.387 74.556,340.330 77.120,340.270 79.683,340.205 82.247,340.137 84.811,340.065 87.375,339.990 89.938,339.910 92.502,339.827 95.066,339.740 97.629,339.649 100.193,339.553 102.757,339.454 105.321,339.349 107.884,339.239 110.448,339.123 113.012,339.000 115.575,338.869 118.139,338.729 120.703,338.578 123.267,338.416 125.830,338.239 128.394,338.047 130.958,337.838 133.521,337.609 136.085,337.360 138.649,337.087 141.213,336.791 143.776,336.468 146.340,336.119 148.904,335.742 151.467,335.338 154.031,334.906 156.595,334.447 159.159,333.963 161.722,333.457 164.286,332.931 166.850,332.388 169.413,331.834 171.977,331.273 174.541,330.710 177.105,330.151 179.668,329.603 182.232,329.070 184.796,328.559 187.359,328.077 189.923,327.626 192.487,327.213 195.051,326.841 197.614,326.513 200.178,326.231 202.742,325.995 205.305,325.807 207.869,325.665 210.433,325.567 212.997,325.511 215.560,325.495 218.124,325.514 220.688,325.565 223.251,325.643 225.815,325.745 228.379,325.866 230.943,326.001 233.506,326.148 236.070,326.302 238.634,326.461 241.197,326.621 243.761,326.781 246.325,326.937 248.889,327.088 251.452,327.234 254.016,327.373 256.580,327.504 259.143,327.628 261.707,327.743 264.271,327.850 266.835,327.949 269.398,328.041 271.962,328.124 274.526,328.201 277.089,328.271 279.653,328.334 282.217,328.392 284.781,328.444 287.344,328.491 "/>
<g>
</g>
</g>
<g id="ID000046" clip-path="url(#ID000035)" >
      <polyline fill="none" stroke="#000000" stroke-width="2.0pt" stroke-dasharray="2.0,2.0" points="69.430,340.860 71.974,340.744 74.519,340.627 77.064,340.511 79.609,340.395 82.154,340.276 84.699,340.140 87.244,340.016 89.789,339.905 92.334,339.782 94.878,339.661 97.423,339.527 99.968,339.410 102.513,339.302 105.058,339.201 107.603,339.099 110.148,338.998 112.693,338.879 115.238,338.751 117.782,338.610 120.327,338.449 122.872,338.260 125.417,338.040 127.962,337.791 130.507,337.522 133.052,337.211 135.597,336.895 138.142,336.568 140.686,336.242 143.231,335.905 145.776,335.559 148.321,335.239 150.866,334.902 153.411,334.518 155.956,334.002 158.501,333.438 161.046,332.894 163.590,332.353 166.135,331.838 168.680,331.348 171.225,330.840 173.770,330.271 176.315,329.634 178.860,328.997 181.405,328.406 183.950,327.853 186.494,327.404 189.039,326.948 191.584,326.535 194.129,326.166 196.674,325.859 199.219,325.582 201.764,325.295 204.309,325.043 206.854,324.804 209.398,324.642 211.943,324.471 214.488,324.328 217.033,324.212 219.578,324.181 222.123,324.184 224.668,324.236 227.213,324.311 229.758,324.395 232.302,324.504 234.847,324.641 237.392,324.836 239.937,325.056 242.482,325.323 245.027,325.616 247.572,325.923 250.117,326.229 252.662,326.539 255.206,326.854 257.751,327.149 260.296,327.454 "/>
<g>
</g>
</g>
<g id="ID000047" clip-path="url(#ID000035)" >
<g>
<circle cx="71.992" cy="340.860" r="3.000" fill="none" stroke="#000000" stroke-width="3.0pt" />
<circle cx="74.556" cy="340.744" r="3.000" fill="none" stroke="#000000" stroke-width="3.0pt" />
<circle cx="77.120" cy="340.627" r="3.000" fill="none" stroke="#000000" stroke-width="3.0pt" />
<circle cx="79.683" cy="340.511" r="3.000" fill="none" stroke="#000000" stroke-width="3.0pt" />
<circle cx="82.247" cy="340.395" r="3.000" fill="none" stroke="#000000" stroke-width="3.0pt" />
<circle cx="84.811" cy="340.276" r="3.000" fill="none" stroke="#000000" stroke-width="3.0pt" />
<circle cx="87.375" cy="340.140" r="3.000" fill="none" stroke="#000000" stroke-width="3.0pt" />
<circle cx="89.938" cy="340.016" r="3.000" fill="none" stroke="#000000" stroke-width="3.0pt" />
<circle cx="92.502" cy="339.905" r="3.000" fill="none" stroke="#000000" stroke-width="3.0pt" />
<circle cx="95.066" cy="339.782" r="3.000" fill="none" stroke="#000000" stroke-width="3.0pt" />
<circle cx="97.629" cy="339.661" r="3.000" fill="none" stroke="#000000" stroke-width="3.0pt" />
<circle cx="100.193" cy="339.527" r="3.000" fill="none" stroke="#000000" stroke-width="3.0pt" />
<circle cx="102.757" cy="339.410" r="3.000" fill="none" stroke="#000000" stroke-width="3.0pt" />
<circle cx="105.321" cy="339.302" r="3.000" fill="none" stroke="#000000" stroke-width="3.0pt" />
<circle cx="107.884" cy="339.201" r="3.000" fill="none" stroke="#000000" stroke-width="3.0pt" />
<circle cx="110.448" cy="339.099" r="3.000" fill="none" stroke="#000000" stroke-width="3.0pt" />
<circle cx="113.012" cy="338.998" r="3.000" fill="none" stroke="#000000" stroke-width="3.0pt" />
<circle cx="115.575" cy="338.879" r="3.000" fill="none" stroke="#000000" stroke-width="3.0pt" />
<circle cx="118.139" cy="338.751" r="3.000" fill="none" stroke="#000000" stroke-width="3.0pt" />
<circle cx="120.703" cy="338.610" r="3.000" fill="none" stroke="#000000" stroke-width="3.0pt" />
<circle cx="123.267" cy="338.449" r="3.000" fill="none" stroke="#000000" stroke-width="3.0pt" />
<circle cx="125.830" cy="338.260" r="3.000" fill="none" stroke="#000000" stroke-width="3.0pt" />
<circle cx="128.394" cy="338.040" r="3.000" fill="none" stroke="#000000" stroke-width="3.0pt" />
<circle cx="130.958" cy="337.791" r="3.000" fill="none" stroke="#000000" stroke-width="3.0pt" />
<circle cx="133.521" cy="337.522" r="3.000" fill="none" stroke="#000000" stroke-width="3.0pt" />
<circle cx="136.085" cy="337.211" r="3.000" fill="none" stroke="#000000" stroke-width="3.0pt" />
<circle cx="138.649" cy="336.895" r="3.000" fill="none" stroke="#000000" stroke-width="3.0pt" />
<circle cx="141.213" cy="336.568" r="3.000" fill="none" stroke="#000000" stroke-width="3.0pt" />
<circle cx="143.776" cy="336.242" r="3.000" fill="none" stroke="#000000" stroke-width="3.0pt" />
<circle cx="146.340" cy="335.905" r="3.000" fill="none" stroke="#000000" stroke-width="3.0pt" />
<circle cx="148.904" cy="335.559" r="3.000" fill="none" stroke="#000000" stroke-width="3.0pt" />
<circle cx="151.467" cy="335.239" r="3.000" fill="none" stroke="#000000" stroke-width="3.0pt" />
<circle cx="154.031" cy="334.902" r="3.000" fill="none" stroke="#000000" stroke-width="3.0pt" />
<circle cx="156.595" cy="334.518" r="3.000" fill="none" stroke="#000000" stroke-width="3.0pt" />
<circle cx="159.159" cy="334.002" r="3.000" fill="none" stroke="#000000" stroke-width="3.0pt" />
<circle cx="161.722" cy="333.438" r="3.000" fill="none" stroke="#000000" stroke-width="3.0pt" />
<circle cx="164.286" cy="332.894" r="3.000" fill="none" stroke="#000000" stroke-width="3.0pt" />
<circle cx="166.850" cy="332.353" r="3.000" fill="none" stroke="#000000" stroke-width="3.0pt" />
</g>
</g>
<g id="ID000048" >
  <g transform="translate(21.033,323.309)">
    <g transform="rotate(-90.0)">
      <text x="0.000" y="0.000" font-family="Helvetica" text-anchor="middle" font-size="24pt" fill="#000000" >z[m]</text>
    </g>
  </g>
</g>
<g id="ID000049" >
  <g transform="translate(196.617,418.532)">
    <g transform="rotate(-0.0)">
      <text x="0.000" y="0.000" font-family="Helvetica" text-anchor="middle" font-size="24pt" fill="#000000" >Time [s]</text>
    </g>
  </g>
</g>
<g id="ID000050" >
</g>
<g id="ID000051" >
</g>
<g id="ID000052" >
</g>
    </g>
    <g>
      <polyline fill="none" stroke="#000000" stroke-width="0.5pt" stroke-dasharray="none" points="197.614,356.000 197.614,353.436 "/>
      <polyline fill="none" stroke="#000000" stroke-width="0.5pt" stroke-dasharray="none" points="69.429,356.000 325.800,356.000 "/>
      <polyline fill="none" stroke="#000000" stroke-width="0.5pt" stroke-dasharray="none" points="197.614,288.607 197.614,291.170 "/>
      <polyline fill="none" stroke="#000000" stroke-width="0.5pt" stroke-dasharray="none" points="69.429,288.607 325.800,288.607 "/>
  <g transform="translate(69.429,380.948)">
    <g transform="rotate(-0.0)">
      <text x="0.000" y="0.000" font-family="Helvetica" text-anchor="middle" font-size="20pt" fill="#000000" >0</text>
    </g>
  </g>
  <g transform="translate(197.614,380.948)">
    <g transform="rotate(-0.0)">
      <text x="0.000" y="0.000" font-family="Helvetica" text-anchor="middle" font-size="20pt" fill="#000000" >0.5</text>
    </g>
  </g>
  <g transform="translate(325.800,380.948)">
    <g transform="rotate(-0.0)">
      <text x="0.000" y="0.000" font-family="Helvetica" text-anchor="middle" font-size="20pt" fill="#000000" >1</text>
    </g>
  </g>
      <polyline fill="none" stroke="#000000" stroke-width="0.5pt" stroke-dasharray="none" points="69.429,322.303 71.992,322.303 "/>
      <polyline fill="none" stroke="#000000" stroke-width="0.5pt" stroke-dasharray="none" points="69.429,356.000 69.429,288.607 "/>
      <polyline fill="none" stroke="#000000" stroke-width="0.5pt" stroke-dasharray="none" points="325.800,322.303 323.236,322.303 "/>
      <polyline fill="none" stroke="#000000" stroke-width="0.5pt" stroke-dasharray="none" points="325.800,356.000 325.800,288.607 "/>
  <g transform="translate(64.301,365.000)">
    <g transform="rotate(-0.0)">
      <text x="0.000" y="0.000" font-family="Helvetica" text-anchor="end" font-size="20pt" fill="#000000" >0</text>
    </g>
  </g>
  <g transform="translate(64.301,331.303)">
    <g transform="rotate(-0.0)">
      <text x="0.000" y="0.000" font-family="Helvetica" text-anchor="end" font-size="20pt" fill="#000000" >0.1</text>
    </g>
  </g>
  <g transform="translate(64.301,297.607)">
    <g transform="rotate(-0.0)">
      <text x="0.000" y="0.000" font-family="Helvetica" text-anchor="end" font-size="20pt" fill="#000000" >0.2</text>
    </g>
  </g>
      <polyline fill="none" stroke="#000000" stroke-width="0.5pt" stroke-dasharray="none" points="69.429,356.000 69.429,355.326 "/>
      <polyline fill="none" stroke="#000000" stroke-width="0.5pt" stroke-dasharray="none" points="69.429,356.000 69.429,356.000 "/>
    </g>
  </g>
  </g>
</svg>
