<?xml version="1.0" encoding="UTF-8" standalone="no"?>
<!-- Created with Inkscape (http://www.inkscape.org/) -->

<svg
   xmlns:dc="http://purl.org/dc/elements/1.1/"
   xmlns:cc="http://creativecommons.org/ns#"
   xmlns:rdf="http://www.w3.org/1999/02/22-rdf-syntax-ns#"
   xmlns:svg="http://www.w3.org/2000/svg"
   xmlns="http://www.w3.org/2000/svg"
   xmlns:sodipodi="http://sodipodi.sourceforge.net/DTD/sodipodi-0.dtd"
   xmlns:inkscape="http://www.inkscape.org/namespaces/inkscape"
   id="svg2"
   version="1.1"
   inkscape:version="0.48.4 r9939"
   width="560"
   height="420"
   xml:space="preserve"
   sodipodi:docname="bottom10.pdf"><metadata
     id="metadata8"><rdf:RDF><cc:Work
         rdf:about=""><dc:format>image/svg+xml</dc:format><dc:type
           rdf:resource="http://purl.org/dc/dcmitype/StillImage" /><dc:title></dc:title></cc:Work></rdf:RDF></metadata><defs
     id="defs6"><clipPath
       clipPathUnits="userSpaceOnUse"
       id="clipPath22"><path
         d="m 86.398,306.469 319.043,0 0,-53.914 -319.043,0 0,53.914 z"
         id="path24" /></clipPath><clipPath
       clipPathUnits="userSpaceOnUse"
       id="clipPath32"><path
         d="m 90,267 244,0 0,30 -244,0 0,-30 z"
         id="path34" /></clipPath><clipPath
       clipPathUnits="userSpaceOnUse"
       id="clipPath46"><path
         d="m 90,266 244,0 0,19 -244,0 0,-19 z"
         id="path48" /></clipPath><clipPath
       clipPathUnits="userSpaceOnUse"
       id="clipPath62"><path
         d="m 90,276 244,0 0,21 -244,0 0,-21 z"
         id="path64" /></clipPath><clipPath
       clipPathUnits="userSpaceOnUse"
       id="clipPath78"><path
         d="m 90,271 244,0 0,20 -244,0 0,-20 z"
         id="path80" /></clipPath><clipPath
       clipPathUnits="userSpaceOnUse"
       id="clipPath94"><path
         d="m 90,271 244,0 0,20 -244,0 0,-20 z"
         id="path96" /></clipPath><clipPath
       clipPathUnits="userSpaceOnUse"
       id="clipPath110"><path
         d="m 90,270 244,0 0,26 -244,0 0,-26 z"
         id="path112" /></clipPath><clipPath
       clipPathUnits="userSpaceOnUse"
       id="clipPath124"><path
         d="m 90,270 244,0 0,23 -244,0 0,-23 z"
         id="path126" /></clipPath><clipPath
       clipPathUnits="userSpaceOnUse"
       id="clipPath140"><path
         d="m 90,277 244,0 0,20 -244,0 0,-20 z"
         id="path142" /></clipPath><clipPath
       clipPathUnits="userSpaceOnUse"
       id="clipPath156"><path
         d="m 90,273 244,0 0,22 -244,0 0,-22 z"
         id="path158" /></clipPath><clipPath
       clipPathUnits="userSpaceOnUse"
       id="clipPath172"><path
         d="m 90,273 244,0 0,22 -244,0 0,-22 z"
         id="path174" /></clipPath><clipPath
       clipPathUnits="userSpaceOnUse"
       id="clipPath188"><path
         d="m 86,273 298,0 0,23 -298,0 0,-23 z"
         id="path190" /></clipPath><clipPath
       clipPathUnits="userSpaceOnUse"
       id="clipPath204"><path
         d="m 86,289 37,0 0,10 -37,0 0,-10 z"
         id="path206" /></clipPath><clipPath
       clipPathUnits="userSpaceOnUse"
       id="clipPath318"><path
         d="m 86.398,205.793 319.043,0 0,-53.918 -319.043,0 0,53.918 z"
         id="path320" /></clipPath><clipPath
       clipPathUnits="userSpaceOnUse"
       id="clipPath328"><path
         d="m 90,171 244,0 0,34 -244,0 0,-34 z"
         id="path330" /></clipPath><clipPath
       clipPathUnits="userSpaceOnUse"
       id="clipPath342"><path
         d="m 90,171 244,0 0,6 -244,0 0,-6 z"
         id="path344" /></clipPath><clipPath
       clipPathUnits="userSpaceOnUse"
       id="clipPath358"><path
         d="m 90,189 244,0 0,17 -244,0 0,-17 z"
         id="path360" /></clipPath><clipPath
       clipPathUnits="userSpaceOnUse"
       id="clipPath374"><path
         d="m 90,181 244,0 0,9 -244,0 0,-9 z"
         id="path376" /></clipPath><clipPath
       clipPathUnits="userSpaceOnUse"
       id="clipPath390"><path
         d="m 90,181 244,0 0,9 -244,0 0,-9 z"
         id="path392" /></clipPath><clipPath
       clipPathUnits="userSpaceOnUse"
       id="clipPath406"><path
         d="m 90,172 244,0 0,28 -244,0 0,-28 z"
         id="path408" /></clipPath><clipPath
       clipPathUnits="userSpaceOnUse"
       id="clipPath420"><path
         d="m 90,172 244,0 0,8 -244,0 0,-8 z"
         id="path422" /></clipPath><clipPath
       clipPathUnits="userSpaceOnUse"
       id="clipPath436"><path
         d="m 90,186 244,0 0,15 -244,0 0,-15 z"
         id="path438" /></clipPath><clipPath
       clipPathUnits="userSpaceOnUse"
       id="clipPath452"><path
         d="m 90,182 244,0 0,8 -244,0 0,-8 z"
         id="path454" /></clipPath><clipPath
       clipPathUnits="userSpaceOnUse"
       id="clipPath468"><path
         d="m 90,182 244,0 0,8 -244,0 0,-8 z"
         id="path470" /></clipPath><clipPath
       clipPathUnits="userSpaceOnUse"
       id="clipPath484"><path
         d="m 86,180 296,0 0,12 -296,0 0,-12 z"
         id="path486" /></clipPath><clipPath
       clipPathUnits="userSpaceOnUse"
       id="clipPath500"><path
         d="m 86,177 37,0 0,11 -37,0 0,-11 z"
         id="path502" /></clipPath><clipPath
       clipPathUnits="userSpaceOnUse"
       id="clipPath614"><path
         d="m 86.398,105.113 319.043,0 0,-53.914 -319.043,0 0,53.914 z"
         id="path616" /></clipPath><clipPath
       clipPathUnits="userSpaceOnUse"
       id="clipPath624"><path
         d="m 90,60 244,0 0,22 -244,0 0,-22 z"
         id="path626" /></clipPath><clipPath
       clipPathUnits="userSpaceOnUse"
       id="clipPath638"><path
         d="m 90,59 244,0 0,3 -244,0 0,-3 z"
         id="path640" /></clipPath><clipPath
       clipPathUnits="userSpaceOnUse"
       id="clipPath654"><path
         d="m 90,68 244,0 0,14 -244,0 0,-14 z"
         id="path656" /></clipPath><clipPath
       clipPathUnits="userSpaceOnUse"
       id="clipPath670"><path
         d="m 90,64 244,0 0,8 -244,0 0,-8 z"
         id="path672" /></clipPath><clipPath
       clipPathUnits="userSpaceOnUse"
       id="clipPath686"><path
         d="m 90,64 244,0 0,8 -244,0 0,-8 z"
         id="path688" /></clipPath><clipPath
       clipPathUnits="userSpaceOnUse"
       id="clipPath702"><path
         d="m 90,60 244,0 0,20 -244,0 0,-20 z"
         id="path704" /></clipPath><clipPath
       clipPathUnits="userSpaceOnUse"
       id="clipPath716"><path
         d="m 90,59 244,0 0,8 -244,0 0,-8 z"
         id="path718" /></clipPath><clipPath
       clipPathUnits="userSpaceOnUse"
       id="clipPath732"><path
         d="m 90,65 244,0 0,16 -244,0 0,-16 z"
         id="path734" /></clipPath><clipPath
       clipPathUnits="userSpaceOnUse"
       id="clipPath748"><path
         d="m 90,63 244,0 0,11 -244,0 0,-11 z"
         id="path750" /></clipPath><clipPath
       clipPathUnits="userSpaceOnUse"
       id="clipPath764"><path
         d="m 90,63 244,0 0,11 -244,0 0,-11 z"
         id="path766" /></clipPath><clipPath
       clipPathUnits="userSpaceOnUse"
       id="clipPath780"><path
         d="m 86,62 296,0 0,16 -296,0 0,-16 z"
         id="path782" /></clipPath><clipPath
       clipPathUnits="userSpaceOnUse"
       id="clipPath796"><path
         d="m 86,59 37,0 0,9 -37,0 0,-9 z"
         id="path798" /></clipPath><clipPath
       clipPathUnits="userSpaceOnUse"
       id="clipPath918"><path
         d="m 271.676,177.066 164.398,0 0,-120.699 -164.398,0 0,120.699 z"
         id="path920" /></clipPath><clipPath
       clipPathUnits="userSpaceOnUse"
       id="clipPath928"><path
         d="m 277,159 31,0 0,3 -31,0 0,-3 z"
         id="path930" /></clipPath><clipPath
       clipPathUnits="userSpaceOnUse"
       id="clipPath946"><path
         d="m 271.676,184.895 164.398,0 0,-120.699 -164.398,0 0,120.699 z"
         id="path948" /></clipPath><clipPath
       clipPathUnits="userSpaceOnUse"
       id="clipPath956"><path
         d="m 288,135 9,0 0,9 -9,0 0,-9 z"
         id="path958" /></clipPath><clipPath
       clipPathUnits="userSpaceOnUse"
       id="clipPath974"><path
         d="m 272.387,196.285 164.398,0 0,-120.699 -164.398,0 0,120.699 z"
         id="path976" /></clipPath><clipPath
       clipPathUnits="userSpaceOnUse"
       id="clipPath984"><path
         d="m 278,120 31,0 0,2 -31,0 0,-2 z"
         id="path986" /></clipPath><clipPath
       clipPathUnits="userSpaceOnUse"
       id="clipPath1002"><path
         d="m 271.676,203.402 164.398,0 0,-120.699 -164.398,0 0,120.699 z"
         id="path1004" /></clipPath><clipPath
       clipPathUnits="userSpaceOnUse"
       id="clipPath1012"><path
         d="m 277,98 31,0 0,2 -31,0 0,-2 z"
         id="path1014" /></clipPath></defs><sodipodi:namedview
     pagecolor="#ffffff"
     bordercolor="#666666"
     borderopacity="1"
     objecttolerance="10"
     gridtolerance="10"
     guidetolerance="10"
     inkscape:pageopacity="0"
     inkscape:pageshadow="2"
     inkscape:window-width="1873"
     inkscape:window-height="1056"
     id="namedview4"
     showgrid="false"
     inkscape:zoom="3.1786133"
     inkscape:cx="477.70334"
     inkscape:cy="85.787415"
     inkscape:window-x="47"
     inkscape:window-y="24"
     inkscape:window-maximized="1"
     inkscape:current-layer="g10" /><g
     id="g10"
     inkscape:groupmode="layer"
     inkscape:label="bottom10"
     transform="matrix(1.25,0,0,-1.25,0,420)"><g
       id="g12"><path
         d="M 0,0 448,0 448,336 0,336 0,0 z"
         style="fill:#ffffff;fill-opacity:1;fill-rule:nonzero;stroke:none"
         id="path14" /><path
         d="m 86.398,306.469 319.043,0 0,-53.914 -319.043,0 0,53.914 z"
         style="fill:#ffffff;fill-opacity:1;fill-rule:nonzero;stroke:none"
         id="path16" /></g><g
       id="g18"><g
         id="g20"
         clip-path="url(#clipPath22)"><g
           id="g26"><g
             id="g28"><g
               id="g30"
               clip-path="url(#clipPath32)"><g
                 id="g36"><path
                   d="m 98.363,283.582 3.989,-0.102 3.988,-0.125 3.988,-0.148 3.988,-0.176 3.989,-0.211 3.988,-0.246 3.988,-0.281 3.989,-0.324 3.988,-0.367 3.984,-0.407 3.988,-0.453 3.989,-0.484 3.988,-0.528 3.988,-0.554 3.989,-0.578 3.988,-0.598 7.976,-1.227 3.989,-0.617 3.988,-0.609 3.988,-0.594 3.989,-0.582 3.988,-0.562 3.984,-0.536 3.988,-0.515 3.989,-0.488 3.988,-0.461 3.988,-0.438 3.989,-0.406 3.988,-0.379 3.988,-0.356 3.988,-0.324 3.989,-0.301 3.988,-0.273 3.988,-0.246 3.989,-0.227 3.988,-0.203 3.984,-0.183 3.989,-0.164 3.988,-0.145 3.988,-0.125 3.988,-0.113 3.989,-0.102 3.988,-0.086 3.988,-0.078 3.988,-0.066 3.989,-0.059 3.988,-0.051 3.988,-0.043 3.989,-0.039 3.988,-0.031 3.984,-0.031 3.989,-0.024 7.976,-0.039 3.988,-0.015 11.965,-0.035 0,9.929 -3.988,0.102 -3.988,0.113 -3.989,0.137 -3.988,0.152 -3.988,0.176 -3.988,0.203 -3.989,0.227 -3.984,0.257 -3.988,0.289 -3.989,0.325 -3.988,0.359 -3.988,0.399 -3.989,0.433 -3.988,0.473 -3.988,0.504 -3.988,0.543 -3.989,0.57 -3.988,0.598 -3.988,0.621 -3.988,0.636 -3.989,0.649 -3.984,0.66 -7.977,1.32 -3.988,0.653 -3.988,0.644 -3.989,0.633 -3.988,0.621 -3.988,0.598 -3.988,0.578 -3.989,0.559 -3.988,0.531 -3.988,0.504 -3.989,0.476 -3.988,0.449 -3.984,0.418 -3.988,0.387 -3.989,0.359 -3.988,0.325 -3.988,0.297 -3.989,0.261 -3.988,0.235 -3.988,0.207 -3.988,0.172 -3.989,0.148 -3.988,0.113 -3.988,0.09 -3.989,0.063 -3.988,0.035 -3.984,0.012 -3.988,-0.012 -3.989,-0.031 -3.988,-0.047 -3.988,-0.067 -3.989,-0.074 -3.988,-0.082 -3.988,-0.09 -3.988,-0.094 -3.989,-0.097 -7.976,-0.18 0,-11.766 3.988,-0.066 3.988,-0.082 z"
                   style="fill:#0000ff;fill-opacity:0.15;fill-rule:nonzero;stroke:none"
                   id="path38" /></g></g></g></g><g
           id="g40"><g
             id="g42"><g
               id="g44"
               clip-path="url(#clipPath46)"><g
                 id="g50"><g
                   id="g52"
                   transform="matrix(1,0,0,-1,0,336)"><path
                     d="m 90.387,52.27 3.988,0.066 3.988,0.082 3.989,0.102 3.988,0.125 3.988,0.148 3.988,0.176 3.989,0.211 3.988,0.246 3.988,0.281 3.989,0.324 3.988,0.367 3.984,0.407 3.988,0.453 3.989,0.484 3.988,0.528 3.988,0.554 3.989,0.578 3.988,0.598 7.976,1.227 3.989,0.617 3.988,0.609 3.988,0.594 3.989,0.582 3.988,0.562 3.984,0.536 3.988,0.515 3.989,0.488 3.988,0.461 3.988,0.438 3.989,0.406 3.988,0.379 3.988,0.356 3.988,0.324 3.989,0.301 3.988,0.273 3.988,0.246 3.989,0.227 3.988,0.203 3.984,0.183 3.989,0.164 3.988,0.145 3.988,0.125 3.988,0.113 3.989,0.102 3.988,0.086 3.988,0.078 3.988,0.066 3.989,0.059 3.988,0.051 3.988,0.043 3.989,0.039 3.988,0.031 3.984,0.031 3.989,0.024 7.976,0.039 3.988,0.015 11.965,0.035"
                     style="fill:none;stroke:#8c8cff;stroke-opacity:1;stroke-width:1;stroke-linecap:butt;stroke-linejoin:miter;stroke-miterlimit:4;stroke-dasharray:none"
                     id="path54" /></g></g></g></g></g><g
           id="g56"><g
             id="g58"><g
               id="g60"
               clip-path="url(#clipPath62)"><g
                 id="g66"><g
                   id="g68"
                   transform="matrix(1,0,0,-1,0,336)"><path
                     d="m 90.387,40.504 7.976,-0.18 3.989,-0.097 3.988,-0.094 3.988,-0.09 3.988,-0.082 3.989,-0.074 3.988,-0.067 3.988,-0.047 3.989,-0.031 3.988,-0.012 3.984,0.012 3.988,0.035 3.989,0.063 3.988,0.09 3.988,0.113 3.989,0.148 3.988,0.172 3.988,0.207 3.988,0.235 3.989,0.261 3.988,0.297 3.988,0.325 3.989,0.359 3.988,0.387 3.984,0.418 3.988,0.449 3.989,0.476 3.988,0.504 3.988,0.531 3.989,0.559 3.988,0.578 3.988,0.598 3.988,0.621 3.989,0.633 3.988,0.644 3.988,0.653 7.977,1.32 3.984,0.66 3.989,0.649 3.988,0.636 3.988,0.621 3.988,0.598 3.989,0.57 3.988,0.543 3.988,0.504 3.988,0.473 3.989,0.433 3.988,0.399 3.988,0.359 3.989,0.325 3.988,0.289 3.984,0.257 3.989,0.227 3.988,0.203 3.988,0.176 3.988,0.152 3.989,0.137 3.988,0.113 3.988,0.102"
                     style="fill:none;stroke:#8c8cff;stroke-opacity:1;stroke-width:1;stroke-linecap:butt;stroke-linejoin:miter;stroke-miterlimit:4;stroke-dasharray:none"
                     id="path70" /></g></g></g></g></g><g
           id="g72"><g
             id="g74"><g
               id="g76"
               clip-path="url(#clipPath78)"><g
                 id="g82"><g
                   id="g84"
                   transform="matrix(1,0,0,-1,0,336)"><path
                     d="m 90.387,46.387 3.988,-0.012 3.988,-0.004 3.989,0.004 3.988,0.016 3.988,0.027 3.988,0.047 3.989,0.066 3.988,0.094 3.988,0.117 3.989,0.145 3.988,0.179 3.984,0.207 3.988,0.243 3.989,0.277 3.988,0.305 3.988,0.336 3.989,0.363 3.988,0.387 3.988,0.406 3.988,0.426 3.989,0.441 3.988,0.449 3.988,0.461 3.989,0.469 3.988,0.476 3.984,0.477 3.988,0.481 11.965,1.453 7.977,0.961 3.988,0.476 7.977,0.938 3.988,0.457 3.988,0.453 3.989,0.441 3.988,0.434 3.984,0.418 3.989,0.406 3.988,0.391 3.988,0.375 3.988,0.355 3.989,0.336 3.988,0.313 3.988,0.293 3.988,0.269 3.989,0.246 3.988,0.223 3.988,0.203 3.989,0.18 3.988,0.164 3.984,0.14 3.989,0.129 3.988,0.11 3.988,0.097 3.988,0.082 3.989,0.075 3.988,0.066 3.988,0.055"
                     style="fill:none;stroke:#0000ff;stroke-opacity:1;stroke-width:1;stroke-linecap:butt;stroke-linejoin:miter;stroke-miterlimit:4;stroke-dasharray:none"
                     id="path86" /></g></g></g></g></g><g
           id="g88"><g
             id="g90"><g
               id="g92"
               clip-path="url(#clipPath94)"><g
                 id="g98"><g
                   id="g100"
                   transform="matrix(1,0,0,-1,0,336)"><path
                     d="m 90.387,46.387 3.988,-0.012 3.988,-0.004 3.989,0.004 3.988,0.016 3.988,0.027 3.988,0.047 3.989,0.066 3.988,0.094 3.988,0.117 3.989,0.145 3.988,0.179 3.984,0.207 3.988,0.243 3.989,0.277 3.988,0.305 3.988,0.336 3.989,0.363 3.988,0.387 3.988,0.406 3.988,0.426 3.989,0.441 3.988,0.449 3.988,0.461 3.989,0.469 3.988,0.476 3.984,0.477 3.988,0.481 11.965,1.453 7.977,0.961 3.988,0.476 7.977,0.938 3.988,0.457 3.988,0.453 3.989,0.441 3.988,0.434 3.984,0.418 3.989,0.406 3.988,0.391 3.988,0.375 3.988,0.355 3.989,0.336 3.988,0.313 3.988,0.293 3.988,0.269 3.989,0.246 3.988,0.223 3.988,0.203 3.989,0.18 3.988,0.164 3.984,0.14 3.989,0.129 3.988,0.11 3.988,0.097 3.988,0.082 3.989,0.075 3.988,0.066 3.988,0.055"
                     style="fill:none;stroke:#0000ff;stroke-opacity:1;stroke-width:1;stroke-linecap:butt;stroke-linejoin:miter;stroke-miterlimit:4;stroke-dasharray:none"
                     id="path102" /></g></g></g></g></g><g
           id="g104"><g
             id="g106"><g
               id="g108"
               clip-path="url(#clipPath110)"><g
                 id="g114"><path
                   d="m 98.363,292.25 3.989,0.004 3.988,-0.012 3.988,-0.031 3.988,-0.055 3.989,-0.082 3.988,-0.113 3.988,-0.149 3.989,-0.183 3.988,-0.227 3.984,-0.273 3.988,-0.309 3.989,-0.355 3.988,-0.395 3.988,-0.433 3.989,-0.461 3.988,-0.492 3.988,-0.516 3.988,-0.531 3.989,-0.547 3.988,-0.559 7.977,-1.125 3.988,-0.566 3.984,-0.567 3.988,-0.562 7.977,-1.117 3.988,-0.555 7.977,-1.101 3.988,-0.543 3.988,-0.547 3.989,-0.539 3.988,-0.536 3.988,-0.531 3.989,-0.527 3.988,-0.52 3.984,-0.507 3.989,-0.497 3.988,-0.484 3.988,-0.465 3.988,-0.445 3.989,-0.422 3.988,-0.398 3.988,-0.372 3.988,-0.343 3.989,-0.321 3.988,-0.285 3.988,-0.261 3.989,-0.235 3.988,-0.211 3.984,-0.187 3.989,-0.164 3.988,-0.145 3.988,-0.129 3.988,-0.109 3.989,-0.098 3.988,-0.082 3.988,-0.074 0,6.848 -3.988,0.109 -3.988,0.125 -3.989,0.145 -3.988,0.164 -3.988,0.191 -3.988,0.215 -3.989,0.246 -3.984,0.277 -3.988,0.313 -3.989,0.344 -3.988,0.386 -3.988,0.422 -3.989,0.461 -3.988,0.504 -3.988,0.535 -3.988,0.57 -3.989,0.602 -3.988,0.629 -3.988,0.644 -3.988,0.664 -3.989,0.668 -3.984,0.676 -3.988,0.668 -3.989,0.664 -3.988,0.653 -3.988,0.632 -3.989,0.618 -3.988,0.589 -3.988,0.571 -3.988,0.539 -3.989,0.508 -3.988,0.48 -3.988,0.449 -3.989,0.414 -3.988,0.379 -3.984,0.348 -3.988,0.312 -3.989,0.278 -3.988,0.246 -3.988,0.215 -3.989,0.183 -3.988,0.153 -3.988,0.125 -3.988,0.097 -3.989,0.075 -3.988,0.046 -3.988,0.028 -3.989,0.004 -3.988,-0.012 -3.984,-0.035 -3.988,-0.047 -3.989,-0.059 -3.988,-0.074 -3.988,-0.078 -7.977,-0.18 -11.965,-0.281 -3.988,-0.09 -3.988,-0.086 0,-2.82 3.988,0.023 3.988,0.016 z"
                   style="fill:#ff0000;fill-opacity:0.15;fill-rule:nonzero;stroke:none"
                   id="path116" /></g></g></g></g><g
           id="g118"><g
             id="g120"><g
               id="g122"
               clip-path="url(#clipPath124)"><g
                 id="g128"><g
                   id="g130"
                   transform="matrix(1,0,0,-1,0,336)"><path
                     d="m 90.387,43.789 3.988,-0.023 3.988,-0.016 3.989,-0.004 3.988,0.012 3.988,0.031 3.988,0.055 3.989,0.082 3.988,0.113 3.988,0.149 3.989,0.183 3.988,0.227 3.984,0.273 3.988,0.309 3.989,0.355 3.988,0.395 3.988,0.433 3.989,0.461 3.988,0.492 3.988,0.516 3.988,0.531 3.989,0.547 3.988,0.559 7.977,1.125 3.988,0.566 3.984,0.567 3.988,0.562 7.977,1.117 3.988,0.555 7.977,1.101 3.988,0.543 3.988,0.547 3.989,0.539 3.988,0.536 3.988,0.531 3.989,0.527 3.988,0.52 3.984,0.507 3.989,0.497 3.988,0.484 3.988,0.465 3.988,0.445 3.989,0.422 3.988,0.398 3.988,0.372 3.988,0.343 3.989,0.321 3.988,0.285 3.988,0.261 3.989,0.235 3.988,0.211 3.984,0.187 3.989,0.164 3.988,0.145 3.988,0.129 3.988,0.109 3.989,0.098 3.988,0.082 3.988,0.074"
                     style="fill:none;stroke:#ff8c8c;stroke-opacity:1;stroke-width:1;stroke-linecap:butt;stroke-linejoin:miter;stroke-miterlimit:4;stroke-dasharray:none"
                     id="path132" /></g></g></g></g></g><g
           id="g134"><g
             id="g136"><g
               id="g138"
               clip-path="url(#clipPath140)"><g
                 id="g144"><g
                   id="g146"
                   transform="matrix(1,0,0,-1,0,336)"><path
                     d="m 90.387,40.969 3.988,-0.086 3.988,-0.09 11.965,-0.281 7.977,-0.18 3.988,-0.078 3.988,-0.074 3.989,-0.059 3.988,-0.047 3.984,-0.035 3.988,-0.012 3.989,0.004 3.988,0.028 3.988,0.046 3.989,0.075 3.988,0.097 3.988,0.125 3.988,0.153 3.989,0.183 3.988,0.215 3.988,0.246 3.989,0.278 3.988,0.312 3.984,0.348 3.988,0.379 3.989,0.414 3.988,0.449 3.988,0.48 3.989,0.508 3.988,0.539 3.988,0.571 3.988,0.589 3.989,0.618 3.988,0.632 3.988,0.653 3.989,0.664 3.988,0.668 3.984,0.676 3.989,0.668 3.988,0.664 3.988,0.644 3.988,0.629 3.989,0.602 3.988,0.57 3.988,0.535 3.988,0.504 3.989,0.461 3.988,0.422 3.988,0.386 3.989,0.344 3.988,0.313 3.984,0.277 3.989,0.246 3.988,0.215 3.988,0.191 3.988,0.164 3.989,0.145 3.988,0.125 3.988,0.109"
                     style="fill:none;stroke:#ff8c8c;stroke-opacity:1;stroke-width:1;stroke-linecap:butt;stroke-linejoin:miter;stroke-miterlimit:4;stroke-dasharray:none"
                     id="path148" /></g></g></g></g></g><g
           id="g150"><g
             id="g152"><g
               id="g154"
               clip-path="url(#clipPath156)"><g
                 id="g160"><g
                   id="g162"
                   transform="matrix(1,0,0,-1,0,336)"><path
                     d="m 90.387,42.379 3.988,-0.055 7.977,-0.101 3.988,-0.039 3.988,-0.032 3.988,-0.019 3.989,-0.004 3.988,0.016 3.988,0.039 3.989,0.062 3.988,0.09 3.984,0.121 3.988,0.148 3.989,0.18 3.988,0.211 3.988,0.238 3.989,0.27 3.988,0.293 3.988,0.32 3.988,0.344 3.989,0.363 3.988,0.387 3.988,0.402 3.989,0.422 3.988,0.438 3.984,0.457 3.988,0.472 3.989,0.489 3.988,0.5 3.988,0.519 3.989,0.531 3.988,0.543 3.988,0.559 3.988,0.566 3.989,0.579 3.988,0.585 3.988,0.59 3.989,0.594 3.988,0.598 3.984,0.59 3.989,0.582 3.988,0.574 3.988,0.554 3.988,0.536 3.989,0.511 3.988,0.489 3.988,0.453 3.988,0.422 3.989,0.39 3.988,0.356 3.988,0.32 3.989,0.293 3.988,0.262 3.984,0.23 3.989,0.203 3.988,0.184 3.988,0.156 3.988,0.141 3.989,0.121 3.988,0.101 3.988,0.09"
                     style="fill:none;stroke:#ff0000;stroke-opacity:1;stroke-width:1;stroke-linecap:butt;stroke-linejoin:miter;stroke-miterlimit:4;stroke-dasharray:none"
                     id="path164" /></g></g></g></g></g><g
           id="g166"><g
             id="g168"><g
               id="g170"
               clip-path="url(#clipPath172)"><g
                 id="g176"><g
                   id="g178"
                   transform="matrix(1,0,0,-1,0,336)"><path
                     d="m 90.387,42.379 3.988,-0.055 7.977,-0.101 3.988,-0.039 3.988,-0.032 3.988,-0.019 3.989,-0.004 3.988,0.016 3.988,0.039 3.989,0.062 3.988,0.09 3.984,0.121 3.988,0.148 3.989,0.18 3.988,0.211 3.988,0.238 3.989,0.27 3.988,0.293 3.988,0.32 3.988,0.344 3.989,0.363 3.988,0.387 3.988,0.402 3.989,0.422 3.988,0.438 3.984,0.457 3.988,0.472 3.989,0.489 3.988,0.5 3.988,0.519 3.989,0.531 3.988,0.543 3.988,0.559 3.988,0.566 3.989,0.579 3.988,0.585 3.988,0.59 3.989,0.594 3.988,0.598 3.984,0.59 3.989,0.582 3.988,0.574 3.988,0.554 3.988,0.536 3.989,0.511 3.988,0.489 3.988,0.453 3.988,0.422 3.989,0.39 3.988,0.356 3.988,0.32 3.989,0.293 3.988,0.262 3.984,0.23 3.989,0.203 3.988,0.184 3.988,0.156 3.988,0.141 3.989,0.121 3.988,0.101 3.988,0.09"
                     style="fill:none;stroke:#ff0000;stroke-opacity:1;stroke-width:1;stroke-linecap:butt;stroke-linejoin:miter;stroke-miterlimit:4;stroke-dasharray:none"
                     id="path180" /></g></g></g></g></g><g
           id="g182"><g
             id="g184"><g
               id="g186"
               clip-path="url(#clipPath188)"><g
                 id="g192"><g
                   id="g194"
                   transform="matrix(1,0,0,-1,0,336)"><path
                     d="m 86.402,42.824 3.957,-0.246 3.961,-0.207 3.957,-0.176 3.961,-0.148 3.957,-0.121 3.957,-0.102 3.961,-0.07 3.957,-0.035 3.961,-0.024 3.957,-0.004 3.957,0.008 3.961,0.024 3.957,0.031 3.961,0.031 3.957,0.031 3.961,0.051 3.957,0.035 3.961,0.055 3.957,0.055 3.957,0.097 3.961,0.121 3.957,0.125 3.961,0.157 3.957,0.203 3.961,0.176 3.957,0.187 3.961,0.199 3.957,0.223 3.957,0.242 3.961,0.266 3.957,0.277 3.961,0.324 3.957,0.301 3.957,0.363 3.961,0.399 3.957,0.41 3.961,0.438 3.957,0.464 3.961,0.473 3.957,0.461 3.957,0.523 3.961,0.52 3.957,0.527 3.961,0.555 3.957,0.551 3.961,0.527 3.957,0.504 3.961,0.496 3.957,0.484 3.957,0.5 3.961,0.504 3.957,0.477 3.961,0.496 3.957,0.461 3.961,0.469 3.957,0.445 3.957,0.434 3.961,0.425 3.957,0.43 3.961,0.414 3.957,0.399 3.957,0.382 3.961,0.344 3.957,0.332 3.961,0.313 3.957,0.312 3.961,0.278 3.957,0.273 3.961,0.25 3.957,0.234 3.957,0.207 3.961,0.2 3.957,0.183 3.961,0.164 3.957,0.16"
                     style="fill:none;stroke:#000000;stroke-opacity:1;stroke-width:2;stroke-linecap:butt;stroke-linejoin:miter;stroke-miterlimit:4;stroke-dasharray:1.6,1.6;stroke-dashoffset:0"
                     id="path196" /></g></g></g></g></g><g
           id="g198"><g
             id="g200"><g
               id="g202"
               clip-path="url(#clipPath204)"><g
                 id="g208"><g
                   id="g210"
                   transform="matrix(1,0,0,-1,0,336)"><path
                     d="m 92.789,42.824 c 0,1.324 -1.074,2.399 -2.402,2.399 -1.325,0 -2.399,-1.075 -2.399,-2.399 0,-1.328 1.074,-2.402 2.399,-2.402 1.328,0 2.402,1.074 2.402,2.402 z"
                     style="fill:none;stroke:#000000;stroke-opacity:1;stroke-width:3;stroke-linecap:butt;stroke-linejoin:miter;stroke-miterlimit:4;stroke-dasharray:none"
                     id="path212" /></g><g
                   id="g214"
                   transform="matrix(1,0,0,-1,0,336)"><path
                     d="m 96.777,42.578 c 0,1.328 -1.074,2.402 -2.402,2.402 -1.324,0 -2.398,-1.074 -2.398,-2.402 0,-1.324 1.074,-2.398 2.398,-2.398 1.328,0 2.402,1.074 2.402,2.398 z"
                     style="fill:none;stroke:#000000;stroke-opacity:1;stroke-width:3;stroke-linecap:butt;stroke-linejoin:miter;stroke-miterlimit:4;stroke-dasharray:none"
                     id="path216" /></g><g
                   id="g218"
                   transform="matrix(1,0,0,-1,0,336)"><path
                     d="m 100.766,42.371 c 0,1.324 -1.075,2.399 -2.403,2.399 -1.324,0 -2.398,-1.075 -2.398,-2.399 0,-1.328 1.074,-2.402 2.398,-2.402 1.328,0 2.403,1.074 2.403,2.402 z"
                     style="fill:none;stroke:#000000;stroke-opacity:1;stroke-width:3;stroke-linecap:butt;stroke-linejoin:miter;stroke-miterlimit:4;stroke-dasharray:none"
                     id="path220" /></g><g
                   id="g222"
                   transform="matrix(1,0,0,-1,0,336)"><path
                     d="m 104.754,42.195 c 0,1.325 -1.078,2.399 -2.402,2.399 -1.325,0 -2.399,-1.074 -2.399,-2.399 0,-1.328 1.074,-2.402 2.399,-2.402 1.324,0 2.402,1.074 2.402,2.402 z"
                     style="fill:none;stroke:#000000;stroke-opacity:1;stroke-width:3;stroke-linecap:butt;stroke-linejoin:miter;stroke-miterlimit:4;stroke-dasharray:none"
                     id="path224" /></g><g
                   id="g226"
                   transform="matrix(1,0,0,-1,0,336)"><path
                     d="m 108.738,42.047 c 0,1.324 -1.074,2.398 -2.398,2.398 -1.324,0 -2.399,-1.074 -2.399,-2.398 0,-1.324 1.075,-2.402 2.399,-2.402 1.324,0 2.398,1.078 2.398,2.402 z"
                     style="fill:none;stroke:#000000;stroke-opacity:1;stroke-width:3;stroke-linecap:butt;stroke-linejoin:miter;stroke-miterlimit:4;stroke-dasharray:none"
                     id="path228" /></g><g
                   id="g230"
                   transform="matrix(1,0,0,-1,0,336)"><path
                     d="m 112.727,41.926 c 0,1.324 -1.075,2.402 -2.399,2.402 -1.324,0 -2.398,-1.078 -2.398,-2.402 0,-1.324 1.074,-2.399 2.398,-2.399 1.324,0 2.399,1.075 2.399,2.399 z"
                     style="fill:none;stroke:#000000;stroke-opacity:1;stroke-width:3;stroke-linecap:butt;stroke-linejoin:miter;stroke-miterlimit:4;stroke-dasharray:none"
                     id="path232" /></g><g
                   id="g234"
                   transform="matrix(1,0,0,-1,0,336)"><path
                     d="m 116.715,41.824 c 0,1.324 -1.074,2.399 -2.399,2.399 -1.324,0 -2.402,-1.075 -2.402,-2.399 0,-1.328 1.078,-2.402 2.402,-2.402 1.325,0 2.399,1.074 2.399,2.402 z"
                     style="fill:none;stroke:#000000;stroke-opacity:1;stroke-width:3;stroke-linecap:butt;stroke-linejoin:miter;stroke-miterlimit:4;stroke-dasharray:none"
                     id="path236" /></g><g
                   id="g238"
                   transform="matrix(1,0,0,-1,0,336)"><path
                     d="m 120.703,41.754 c 0,1.328 -1.074,2.402 -2.398,2.402 -1.325,0 -2.403,-1.074 -2.403,-2.402 0,-1.324 1.078,-2.399 2.403,-2.399 1.324,0 2.398,1.075 2.398,2.399 z"
                     style="fill:none;stroke:#000000;stroke-opacity:1;stroke-width:3;stroke-linecap:butt;stroke-linejoin:miter;stroke-miterlimit:4;stroke-dasharray:none"
                     id="path240" /></g></g></g></g></g></g></g><g
       id="g242"><text
         transform="matrix(0,1,1,0,41.22,256.04154)"
         id="text244"><tspan
           style="fill:#000000;fill-opacity:1;fill-rule:nonzero;stroke:none;font-family:TeXGyreHeros;font-variant:normal;font-weight:normal;font-size:24;writing-mode:lr;-inkscape-font-specification:TeXGyreHeros-Regular"
           x="0 12 18.672 38.664"
           y="0"
           sodipodi:role="line"
           id="tspan246">x[m]</tspan></text>
<g
         id="g248"
         transform="matrix(1,0,0,-1,0,336)"><path
           d="m 166.16,83.445 0,-3.187"
           style="fill:none;stroke:#000000;stroke-opacity:1;stroke-width:0.5;stroke-linecap:butt;stroke-linejoin:miter;stroke-miterlimit:4;stroke-dasharray:none"
           id="path250" /></g><g
         id="g252"
         transform="matrix(1,0,0,-1,0,336)"><path
           d="m 245.922,83.445 0,-3.187"
           style="fill:none;stroke:#000000;stroke-opacity:1;stroke-width:0.5;stroke-linecap:butt;stroke-linejoin:miter;stroke-miterlimit:4;stroke-dasharray:none"
           id="path254" /></g><g
         id="g256"
         transform="matrix(1,0,0,-1,0,336)"><path
           d="m 325.68,83.445 0,-3.187"
           style="fill:none;stroke:#000000;stroke-opacity:1;stroke-width:0.5;stroke-linecap:butt;stroke-linejoin:miter;stroke-miterlimit:4;stroke-dasharray:none"
           id="path258" /></g><g
         id="g260"
         transform="matrix(1,0,0,-1,0,336)"><path
           d="m 86.398,83.445 319.043,0"
           style="fill:none;stroke:#000000;stroke-opacity:1;stroke-width:0.5;stroke-linecap:butt;stroke-linejoin:miter;stroke-miterlimit:4;stroke-dasharray:none"
           id="path262" /></g><g
         id="g264"
         transform="matrix(1,0,0,-1,0,336)"><path
           d="m 166.16,29.531 0,3.192"
           style="fill:none;stroke:#000000;stroke-opacity:1;stroke-width:0.5;stroke-linecap:butt;stroke-linejoin:miter;stroke-miterlimit:4;stroke-dasharray:none"
           id="path266" /></g><g
         id="g268"
         transform="matrix(1,0,0,-1,0,336)"><path
           d="m 245.922,29.531 0,3.192"
           style="fill:none;stroke:#000000;stroke-opacity:1;stroke-width:0.5;stroke-linecap:butt;stroke-linejoin:miter;stroke-miterlimit:4;stroke-dasharray:none"
           id="path270" /></g><g
         id="g272"
         transform="matrix(1,0,0,-1,0,336)"><path
           d="m 325.68,29.531 0,3.192"
           style="fill:none;stroke:#000000;stroke-opacity:1;stroke-width:0.5;stroke-linecap:butt;stroke-linejoin:miter;stroke-miterlimit:4;stroke-dasharray:none"
           id="path274" /></g><g
         id="g276"
         transform="matrix(1,0,0,-1,0,336)"><path
           d="m 86.398,29.531 319.043,0"
           style="fill:none;stroke:#000000;stroke-opacity:1;stroke-width:0.5;stroke-linecap:butt;stroke-linejoin:miter;stroke-miterlimit:4;stroke-dasharray:none"
           id="path278" /></g><text
         transform="matrix(1,0,0,-1,80.833594,232.5944)"
         id="text280"><tspan
           style="fill:#000000;fill-opacity:1;fill-rule:nonzero;stroke:none;font-family:TeXGyreHeros;font-variant:normal;font-weight:normal;font-size:20;writing-mode:lr;-inkscape-font-specification:TeXGyreHeros-Regular"
           x="0 71.42 82.54 88.1 151.18 162.3 167.86 230.94 242.06 247.62 310.70016 321.82016 327.38016"
           y="0"
           sodipodi:role="line"
           id="tspan282">00.20.40.60.8</tspan></text>
<g
         id="g284"
         transform="matrix(1,0,0,-1,0,336)"><path
           d="m 86.398,56.488 3.192,0"
           style="fill:none;stroke:#000000;stroke-opacity:1;stroke-width:0.5;stroke-linecap:butt;stroke-linejoin:miter;stroke-miterlimit:4;stroke-dasharray:none"
           id="path286" /></g><g
         id="g288"
         transform="matrix(1,0,0,-1,0,336)"><path
           d="m 86.398,83.445 0,-53.914"
           style="fill:none;stroke:#000000;stroke-opacity:1;stroke-width:0.5;stroke-linecap:butt;stroke-linejoin:miter;stroke-miterlimit:4;stroke-dasharray:none"
           id="path290" /></g><g
         id="g292"
         transform="matrix(1,0,0,-1,0,336)"><path
           d="m 405.441,56.488 -3.191,0"
           style="fill:none;stroke:#000000;stroke-opacity:1;stroke-width:0.5;stroke-linecap:butt;stroke-linejoin:miter;stroke-miterlimit:4;stroke-dasharray:none"
           id="path294" /></g><g
         id="g296"
         transform="matrix(1,0,0,-1,0,336)"><path
           d="m 405.441,83.445 0,-53.914"
           style="fill:none;stroke:#000000;stroke-opacity:1;stroke-width:0.5;stroke-linecap:butt;stroke-linejoin:miter;stroke-miterlimit:4;stroke-dasharray:none"
           id="path298" /></g><text
         transform="matrix(1,0,0,-1,45.527013,245.3528)"
         id="text300"><tspan
           style="fill:#000000;fill-opacity:1;fill-rule:nonzero;stroke:none;font-family:TeXGyreHeros;font-variant:normal;font-weight:normal;font-size:20;writing-mode:lr;-inkscape-font-specification:TeXGyreHeros-Regular"
           x="0 6.66 17.78 23.34"
           y="0"
           sodipodi:role="line"
           id="tspan302">-0.4</tspan><tspan
           style="fill:#000000;fill-opacity:1;fill-rule:nonzero;stroke:none;font-family:TeXGyreHeros;font-variant:normal;font-weight:normal;font-size:20;writing-mode:lr;-inkscape-font-specification:TeXGyreHeros-Regular"
           x="0 6.66 17.78 23.34"
           y="-26.9576"
           sodipodi:role="line"
           id="tspan304">-0.3</tspan><tspan
           style="fill:#000000;fill-opacity:1;fill-rule:nonzero;stroke:none;font-family:TeXGyreHeros;font-variant:normal;font-weight:normal;font-size:20;writing-mode:lr;-inkscape-font-specification:TeXGyreHeros-Regular"
           x="0 6.66 17.78 23.34"
           y="-53.9152"
           sodipodi:role="line"
           id="tspan306">-0.2</tspan></text>
<g
         id="g308"
         transform="matrix(1,0,0,-1,0,336)"><path
           d="m 86.398,83.445 0,-0.539"
           style="fill:none;stroke:#000000;stroke-opacity:1;stroke-width:0.5;stroke-linecap:butt;stroke-linejoin:miter;stroke-miterlimit:4;stroke-dasharray:none"
           id="path310" /></g><path
         d="m 86.398,205.793 319.043,0 0,-53.918 -319.043,0 0,53.918 z"
         style="fill:#ffffff;fill-opacity:1;fill-rule:nonzero;stroke:none"
         id="path312" /></g><g
       id="g314"><g
         id="g316"
         clip-path="url(#clipPath318)"><g
           id="g322"><g
             id="g324"><g
               id="g326"
               clip-path="url(#clipPath328)"><g
                 id="g332"><path
                   d="m 98.363,173.938 3.989,-0.094 3.988,-0.106 3.988,-0.109 3.988,-0.125 3.989,-0.129 3.988,-0.137 3.988,-0.144 3.989,-0.153 3.988,-0.156 3.984,-0.156 7.977,-0.32 3.988,-0.157 3.988,-0.144 3.989,-0.137 3.988,-0.117 3.988,-0.098 3.988,-0.078 3.989,-0.047 3.988,-0.019 3.988,0.011 3.989,0.047 3.988,0.082 3.984,0.11 3.988,0.14 3.989,0.172 3.988,0.192 3.988,0.211 3.989,0.226 7.976,0.477 3.988,0.242 3.989,0.234 3.988,0.227 3.988,0.215 3.989,0.203 3.988,0.191 3.984,0.172 3.989,0.16 3.988,0.141 3.988,0.129 3.988,0.113 3.989,0.102 3.988,0.089 3.988,0.079 3.988,0.066 3.989,0.059 3.988,0.054 3.988,0.043 3.989,0.039 3.988,0.035 3.984,0.028 7.977,0.047 3.988,0.019 3.988,0.012 3.989,0.016 3.988,0.011 3.988,0.008 0,16.734 -3.988,0.168 -3.988,0.196 -3.989,0.222 -3.988,0.254 -3.988,0.293 -3.988,0.328 -3.989,0.368 -3.984,0.418 -3.988,0.457 -3.989,0.507 -3.988,0.555 -3.988,0.602 -3.989,0.64 -3.988,0.68 -3.988,0.707 -3.988,0.723 -3.989,0.726 -3.988,0.723 -3.988,0.695 -3.988,0.652 -3.989,0.598 -3.984,0.528 -3.988,0.445 -3.989,0.347 -3.988,0.247 -3.988,0.14 -3.989,0.031 -3.988,-0.078 -3.988,-0.175 -3.988,-0.27 -3.989,-0.359 -3.988,-0.434 -3.988,-0.496 -3.989,-0.555 -3.988,-0.601 -3.984,-0.637 -3.988,-0.664 -3.989,-0.684 -3.988,-0.699 -3.988,-0.703 -3.989,-0.699 -3.988,-0.696 -3.988,-0.679 -3.988,-0.664 -3.989,-0.641 -3.988,-0.609 -3.988,-0.582 -3.989,-0.547 -3.988,-0.508 -3.984,-0.469 -3.988,-0.433 -3.989,-0.391 -3.988,-0.359 -3.988,-0.321 -3.989,-0.285 -3.988,-0.258 -3.988,-0.226 -3.988,-0.203 -3.989,-0.176 -3.988,-0.156 -3.988,-0.133 0,-15.406 3.988,-0.079 3.988,-0.085 z"
                   style="fill:#0000ff;fill-opacity:0.15;fill-rule:nonzero;stroke:none"
                   id="path334" /></g></g></g></g><g
           id="g336"><g
             id="g338"><g
               id="g340"
               clip-path="url(#clipPath342)"><g
                 id="g346"><g
                   id="g348"
                   transform="matrix(1,0,0,-1,0,336)"><path
                     d="m 90.387,161.898 3.988,0.079 3.988,0.085 3.989,0.094 3.988,0.106 3.988,0.109 3.988,0.125 3.989,0.129 3.988,0.137 3.988,0.144 3.989,0.153 3.988,0.156 3.984,0.156 7.977,0.32 3.988,0.157 3.988,0.144 3.989,0.137 3.988,0.117 3.988,0.098 3.988,0.078 3.989,0.047 3.988,0.019 3.988,-0.011 3.989,-0.047 3.988,-0.082 3.984,-0.11 3.988,-0.14 3.989,-0.172 3.988,-0.192 3.988,-0.211 3.989,-0.226 7.976,-0.477 3.988,-0.242 3.989,-0.234 3.988,-0.227 3.988,-0.215 3.989,-0.203 3.988,-0.191 3.984,-0.172 3.989,-0.16 3.988,-0.141 3.988,-0.129 3.988,-0.113 3.989,-0.102 3.988,-0.089 3.988,-0.079 3.988,-0.066 3.989,-0.059 3.988,-0.054 3.988,-0.043 3.989,-0.039 3.988,-0.035 3.984,-0.028 7.977,-0.047 3.988,-0.019 3.988,-0.012 3.989,-0.016 3.988,-0.011 3.988,-0.008"
                     style="fill:none;stroke:#8c8cff;stroke-opacity:1;stroke-width:1;stroke-linecap:butt;stroke-linejoin:miter;stroke-miterlimit:4;stroke-dasharray:none"
                     id="path350" /></g></g></g></g></g><g
           id="g352"><g
             id="g354"><g
               id="g356"
               clip-path="url(#clipPath358)"><g
                 id="g362"><g
                   id="g364"
                   transform="matrix(1,0,0,-1,0,336)"><path
                     d="m 90.387,146.492 3.988,-0.133 3.988,-0.156 3.989,-0.176 3.988,-0.203 3.988,-0.226 3.988,-0.258 3.989,-0.285 3.988,-0.321 3.988,-0.359 3.989,-0.391 3.988,-0.433 3.984,-0.469 3.988,-0.508 3.989,-0.547 3.988,-0.582 3.988,-0.609 3.989,-0.641 3.988,-0.664 3.988,-0.679 3.988,-0.696 3.989,-0.699 3.988,-0.703 3.988,-0.699 3.989,-0.684 3.988,-0.664 3.984,-0.637 3.988,-0.601 3.989,-0.555 3.988,-0.496 3.988,-0.434 3.989,-0.359 3.988,-0.27 3.988,-0.175 3.988,-0.078 3.989,0.031 3.988,0.14 3.988,0.247 3.989,0.347 3.988,0.445 3.984,0.528 3.989,0.598 3.988,0.652 3.988,0.695 3.988,0.723 3.989,0.726 3.988,0.723 3.988,0.707 3.988,0.68 3.989,0.64 3.988,0.602 3.988,0.555 3.989,0.507 3.988,0.457 3.984,0.418 3.989,0.368 3.988,0.328 3.988,0.293 3.988,0.254 3.989,0.222 3.988,0.196 3.988,0.168"
                     style="fill:none;stroke:#8c8cff;stroke-opacity:1;stroke-width:1;stroke-linecap:butt;stroke-linejoin:miter;stroke-miterlimit:4;stroke-dasharray:none"
                     id="path366" /></g></g></g></g></g><g
           id="g368"><g
             id="g370"><g
               id="g372"
               clip-path="url(#clipPath374)"><g
                 id="g378"><g
                   id="g380"
                   transform="matrix(1,0,0,-1,0,336)"><path
                     d="m 90.387,154.195 3.988,-0.027 3.988,-0.035 3.989,-0.043 3.988,-0.047 3.988,-0.059 3.988,-0.066 3.989,-0.078 3.988,-0.094 3.988,-0.105 3.989,-0.121 3.988,-0.137 3.984,-0.156 3.988,-0.172 3.989,-0.196 3.988,-0.211 3.988,-0.234 3.989,-0.254 3.988,-0.269 3.988,-0.293 3.988,-0.309 3.989,-0.328 3.988,-0.34 3.988,-0.355 3.989,-0.364 3.988,-0.375 3.984,-0.371 3.988,-0.375 3.989,-0.359 3.988,-0.348 3.988,-0.32 3.989,-0.293 3.988,-0.254 3.988,-0.207 3.988,-0.16 3.989,-0.102 3.988,-0.043 3.988,0.016 3.989,0.07 3.988,0.129 3.984,0.176 3.989,0.223 3.988,0.253 3.988,0.286 3.988,0.3 7.977,0.633 3.988,0.313 3.988,0.304 3.989,0.293 3.988,0.274 3.988,0.254 3.989,0.234 3.988,0.215 3.984,0.191 3.989,0.172 3.988,0.157 3.988,0.136 3.988,0.117 3.989,0.106 3.988,0.09 3.988,0.082"
                     style="fill:none;stroke:#0000ff;stroke-opacity:1;stroke-width:1;stroke-linecap:butt;stroke-linejoin:miter;stroke-miterlimit:4;stroke-dasharray:none"
                     id="path382" /></g></g></g></g></g><g
           id="g384"><g
             id="g386"><g
               id="g388"
               clip-path="url(#clipPath390)"><g
                 id="g394"><g
                   id="g396"
                   transform="matrix(1,0,0,-1,0,336)"><path
                     d="m 90.387,154.195 3.988,-0.027 3.988,-0.035 3.989,-0.043 3.988,-0.047 3.988,-0.059 3.988,-0.066 3.989,-0.078 3.988,-0.094 3.988,-0.105 3.989,-0.121 3.988,-0.137 3.984,-0.156 3.988,-0.172 3.989,-0.196 3.988,-0.211 3.988,-0.234 3.989,-0.254 3.988,-0.269 3.988,-0.293 3.988,-0.309 3.989,-0.328 3.988,-0.34 3.988,-0.355 3.989,-0.364 3.988,-0.375 3.984,-0.371 3.988,-0.375 3.989,-0.359 3.988,-0.348 3.988,-0.32 3.989,-0.293 3.988,-0.254 3.988,-0.207 3.988,-0.16 3.989,-0.102 3.988,-0.043 3.988,0.016 3.989,0.07 3.988,0.129 3.984,0.176 3.989,0.223 3.988,0.253 3.988,0.286 3.988,0.3 7.977,0.633 3.988,0.313 3.988,0.304 3.989,0.293 3.988,0.274 3.988,0.254 3.989,0.234 3.988,0.215 3.984,0.191 3.989,0.172 3.988,0.157 3.988,0.136 3.988,0.117 3.989,0.106 3.988,0.09 3.988,0.082"
                     style="fill:none;stroke:#0000ff;stroke-opacity:1;stroke-width:1;stroke-linecap:butt;stroke-linejoin:miter;stroke-miterlimit:4;stroke-dasharray:none"
                     id="path398" /></g></g></g></g></g><g
           id="g400"><g
             id="g402"><g
               id="g404"
               clip-path="url(#clipPath406)"><g
                 id="g410"><path
                   d="m 98.363,178.695 3.989,-0.047 3.988,-0.07 3.988,-0.094 3.988,-0.125 3.989,-0.16 3.988,-0.203 3.988,-0.242 3.989,-0.285 3.988,-0.328 3.984,-0.371 3.988,-0.403 3.989,-0.433 3.988,-0.45 3.988,-0.457 3.989,-0.453 3.988,-0.429 3.988,-0.399 3.988,-0.344 3.989,-0.281 3.988,-0.207 3.988,-0.121 3.989,-0.035 3.988,0.054 3.984,0.145 3.988,0.231 3.989,0.304 3.988,0.367 3.988,0.418 3.989,0.453 3.988,0.473 3.988,0.481 3.988,0.468 3.989,0.446 3.988,0.414 3.988,0.375 3.989,0.328 3.988,0.281 3.984,0.234 3.989,0.184 3.988,0.141 3.988,0.101 3.988,0.071 3.989,0.039 3.988,0.011 3.988,0 3.988,-0.019 3.989,-0.028 7.976,-0.07 7.977,-0.078 3.984,-0.039 7.977,-0.07 3.988,-0.032 3.988,-0.027 7.977,-0.047 3.988,-0.019 0,14.765 -3.988,0.11 -3.988,0.129 -3.989,0.148 -3.988,0.168 -3.988,0.187 -3.988,0.215 -3.989,0.242 -3.984,0.266 -3.988,0.297 -3.989,0.328 -3.988,0.352 -3.988,0.375 -3.989,0.398 -3.988,0.41 -7.976,0.844 -3.989,0.41 -3.988,0.391 -3.988,0.351 -3.988,0.305 -3.989,0.246 -3.984,0.176 -3.988,0.098 -3.989,0.007 -3.988,-0.082 -3.988,-0.168 -3.989,-0.257 -3.988,-0.34 -3.988,-0.414 -3.988,-0.473 -3.989,-0.523 -3.988,-0.555 -3.988,-0.582 -7.977,-1.172 -3.984,-0.57 -3.988,-0.555 -3.989,-0.523 -3.988,-0.497 -3.988,-0.46 -3.989,-0.43 -3.988,-0.403 -3.988,-0.371 -3.988,-0.347 -3.989,-0.328 -3.988,-0.309 -3.988,-0.293 -3.989,-0.281 -3.988,-0.274 -3.984,-0.265 -3.988,-0.262 -3.989,-0.258 -3.988,-0.254 -3.988,-0.246 -3.989,-0.242 -3.988,-0.234 -3.988,-0.227 -3.988,-0.215 -3.989,-0.203 -3.988,-0.191 -3.988,-0.176 0,-7.852 3.988,-0.011 3.988,-0.028 z"
                   style="fill:#ff0000;fill-opacity:0.15;fill-rule:nonzero;stroke:none"
                   id="path412" /></g></g></g></g><g
           id="g414"><g
             id="g416"><g
               id="g418"
               clip-path="url(#clipPath420)"><g
                 id="g424"><g
                   id="g426"
                   transform="matrix(1,0,0,-1,0,336)"><path
                     d="m 90.387,157.266 3.988,0.011 3.988,0.028 3.989,0.047 3.988,0.07 3.988,0.094 3.988,0.125 3.989,0.16 3.988,0.203 3.988,0.242 3.989,0.285 3.988,0.328 3.984,0.371 3.988,0.403 3.989,0.433 3.988,0.45 3.988,0.457 3.989,0.453 3.988,0.429 3.988,0.399 3.988,0.344 3.989,0.281 3.988,0.207 3.988,0.121 3.989,0.035 3.988,-0.054 3.984,-0.145 3.988,-0.231 3.989,-0.304 3.988,-0.367 3.988,-0.418 3.989,-0.453 3.988,-0.473 3.988,-0.481 3.988,-0.468 3.989,-0.446 3.988,-0.414 3.988,-0.375 3.989,-0.328 3.988,-0.281 3.984,-0.234 3.989,-0.184 3.988,-0.141 3.988,-0.101 3.988,-0.071 3.989,-0.039 3.988,-0.011 3.988,0 3.988,0.019 3.989,0.028 7.976,0.07 7.977,0.078 3.984,0.039 7.977,0.07 3.988,0.032 3.988,0.027 7.977,0.047 3.988,0.019"
                     style="fill:none;stroke:#ff8c8c;stroke-opacity:1;stroke-width:1;stroke-linecap:butt;stroke-linejoin:miter;stroke-miterlimit:4;stroke-dasharray:none"
                     id="path428" /></g></g></g></g></g><g
           id="g430"><g
             id="g432"><g
               id="g434"
               clip-path="url(#clipPath436)"><g
                 id="g440"><g
                   id="g442"
                   transform="matrix(1,0,0,-1,0,336)"><path
                     d="m 90.387,149.414 3.988,-0.176 3.988,-0.191 3.989,-0.203 3.988,-0.215 3.988,-0.227 3.988,-0.234 3.989,-0.242 3.988,-0.246 3.988,-0.254 3.989,-0.258 3.988,-0.262 3.984,-0.265 3.988,-0.274 3.989,-0.281 3.988,-0.293 3.988,-0.309 3.989,-0.328 3.988,-0.347 3.988,-0.371 3.988,-0.403 3.989,-0.43 3.988,-0.46 3.988,-0.497 3.989,-0.523 3.988,-0.555 3.984,-0.57 7.977,-1.172 3.988,-0.582 3.988,-0.555 3.989,-0.523 3.988,-0.473 3.988,-0.414 3.988,-0.34 3.989,-0.257 3.988,-0.168 3.988,-0.082 3.989,0.007 3.988,0.098 3.984,0.176 3.989,0.246 3.988,0.305 3.988,0.351 3.988,0.391 3.989,0.41 7.976,0.844 3.988,0.41 3.989,0.398 3.988,0.375 3.988,0.352 3.989,0.328 3.988,0.297 3.984,0.266 3.989,0.242 3.988,0.215 3.988,0.187 3.988,0.168 3.989,0.148 3.988,0.129 3.988,0.11"
                     style="fill:none;stroke:#ff8c8c;stroke-opacity:1;stroke-width:1;stroke-linecap:butt;stroke-linejoin:miter;stroke-miterlimit:4;stroke-dasharray:none"
                     id="path444" /></g></g></g></g></g><g
           id="g446"><g
             id="g448"><g
               id="g450"
               clip-path="url(#clipPath452)"><g
                 id="g456"><g
                   id="g458"
                   transform="matrix(1,0,0,-1,0,336)"><path
                     d="m 90.387,153.34 7.976,-0.164 3.989,-0.078 3.988,-0.075 3.988,-0.066 3.988,-0.051 3.989,-0.043 3.988,-0.023 3.988,-0.004 3.989,0.016 3.988,0.031 3.984,0.051 3.988,0.066 3.989,0.074 3.988,0.082 3.988,0.074 3.989,0.063 3.988,0.039 3.988,0.012 3.988,-0.028 3.989,-0.074 3.988,-0.129 3.988,-0.183 3.989,-0.246 3.988,-0.305 3.984,-0.359 3.988,-0.407 3.989,-0.445 3.988,-0.473 7.977,-0.976 3.988,-0.473 3.988,-0.445 3.988,-0.406 3.989,-0.352 3.988,-0.293 3.988,-0.227 3.989,-0.16 3.988,-0.093 3.984,-0.028 3.989,0.031 3.988,0.082 3.988,0.125 3.988,0.161 3.989,0.187 3.988,0.203 3.988,0.211 3.988,0.215 3.989,0.211 3.988,0.207 3.988,0.195 3.989,0.18 3.988,0.168 3.984,0.156 3.989,0.137 3.988,0.125 3.988,0.109 3.988,0.098 3.989,0.086 3.988,0.074 3.988,0.067"
                     style="fill:none;stroke:#ff0000;stroke-opacity:1;stroke-width:1;stroke-linecap:butt;stroke-linejoin:miter;stroke-miterlimit:4;stroke-dasharray:none"
                     id="path460" /></g></g></g></g></g><g
           id="g462"><g
             id="g464"><g
               id="g466"
               clip-path="url(#clipPath468)"><g
                 id="g472"><g
                   id="g474"
                   transform="matrix(1,0,0,-1,0,336)"><path
                     d="m 90.387,153.34 7.976,-0.164 3.989,-0.078 3.988,-0.075 3.988,-0.066 3.988,-0.051 3.989,-0.043 3.988,-0.023 3.988,-0.004 3.989,0.016 3.988,0.031 3.984,0.051 3.988,0.066 3.989,0.074 3.988,0.082 3.988,0.074 3.989,0.063 3.988,0.039 3.988,0.012 3.988,-0.028 3.989,-0.074 3.988,-0.129 3.988,-0.183 3.989,-0.246 3.988,-0.305 3.984,-0.359 3.988,-0.407 3.989,-0.445 3.988,-0.473 7.977,-0.976 3.988,-0.473 3.988,-0.445 3.988,-0.406 3.989,-0.352 3.988,-0.293 3.988,-0.227 3.989,-0.16 3.988,-0.093 3.984,-0.028 3.989,0.031 3.988,0.082 3.988,0.125 3.988,0.161 3.989,0.187 3.988,0.203 3.988,0.211 3.988,0.215 3.989,0.211 3.988,0.207 3.988,0.195 3.989,0.18 3.988,0.168 3.984,0.156 3.989,0.137 3.988,0.125 3.988,0.109 3.988,0.098 3.989,0.086 3.988,0.074 3.988,0.067"
                     style="fill:none;stroke:#ff0000;stroke-opacity:1;stroke-width:1;stroke-linecap:butt;stroke-linejoin:miter;stroke-miterlimit:4;stroke-dasharray:none"
                     id="path476" /></g></g></g></g></g><g
           id="g478"><g
             id="g480"><g
               id="g482"
               clip-path="url(#clipPath484)"><g
                 id="g488"><g
                   id="g490"
                   transform="matrix(1,0,0,-1,0,336)"><path
                     d="m 86.402,154.297 3.957,-0.473 3.961,-0.422 3.957,-0.363 3.961,-0.309 3.957,-0.257 3.957,-0.231 3.961,-0.16 3.957,-0.109 3.961,-0.075 3.957,-0.046 3.957,-0.024 3.961,0.008 3.957,0.039 3.961,0.07 3.957,0.106 3.961,0.047 3.957,-0.024 3.961,-0.086 3.957,-0.05 3.957,-0.012 3.961,-0.071 3.957,-0.058 3.961,-0.051 3.957,-0.16 3.961,-0.188 3.957,-0.16 3.961,-0.133 3.957,-0.109 3.957,-0.199 3.961,-0.172 3.957,-0.125 3.961,-0.227 3.957,-0.265 3.957,-0.211 3.961,-0.235 3.957,-0.238 3.961,-0.281 3.957,-0.309 3.961,-0.285 3.957,-0.34 3.957,-0.324 3.961,-0.285 3.957,-0.262 3.961,-0.195 3.957,-0.145 3.961,-0.148 3.957,-0.152 3.961,-0.164 3.957,-0.168 3.957,-0.11 3.961,-0.062 3.957,-0.09 3.961,-0.047 3.957,-0.062 3.961,-0.036 3.957,-0.023 3.957,-0.027 3.961,-0.008 3.957,0.086 3.961,0.187 3.957,0.242 3.957,0.262 3.961,0.231 3.957,0.222 3.961,0.227 3.957,0.316 3.961,0.364 3.957,0.429 3.961,0.492 3.957,0.524 3.957,0.512 3.961,0.496 3.957,0.484 3.961,0.441 3.957,0.434"
                     style="fill:none;stroke:#000000;stroke-opacity:1;stroke-width:2;stroke-linecap:butt;stroke-linejoin:miter;stroke-miterlimit:4;stroke-dasharray:1.6,1.6;stroke-dashoffset:0"
                     id="path492" /></g></g></g></g></g><g
           id="g494"><g
             id="g496"><g
               id="g498"
               clip-path="url(#clipPath500)"><g
                 id="g504"><g
                   id="g506"
                   transform="matrix(1,0,0,-1,0,336)"><path
                     d="m 92.789,154.297 c 0,1.324 -1.074,2.398 -2.402,2.398 -1.325,0 -2.399,-1.074 -2.399,-2.398 0,-1.328 1.074,-2.402 2.399,-2.402 1.328,0 2.402,1.074 2.402,2.402 z"
                     style="fill:none;stroke:#000000;stroke-opacity:1;stroke-width:3;stroke-linecap:butt;stroke-linejoin:miter;stroke-miterlimit:4;stroke-dasharray:none"
                     id="path508" /></g><g
                   id="g510"
                   transform="matrix(1,0,0,-1,0,336)"><path
                     d="m 96.777,153.824 c 0,1.324 -1.074,2.399 -2.402,2.399 -1.324,0 -2.398,-1.075 -2.398,-2.399 0,-1.328 1.074,-2.402 2.398,-2.402 1.328,0 2.402,1.074 2.402,2.402 z"
                     style="fill:none;stroke:#000000;stroke-opacity:1;stroke-width:3;stroke-linecap:butt;stroke-linejoin:miter;stroke-miterlimit:4;stroke-dasharray:none"
                     id="path512" /></g><g
                   id="g514"
                   transform="matrix(1,0,0,-1,0,336)"><path
                     d="m 100.766,153.402 c 0,1.328 -1.075,2.403 -2.403,2.403 -1.324,0 -2.398,-1.075 -2.398,-2.403 0,-1.324 1.074,-2.398 2.398,-2.398 1.328,0 2.403,1.074 2.403,2.398 z"
                     style="fill:none;stroke:#000000;stroke-opacity:1;stroke-width:3;stroke-linecap:butt;stroke-linejoin:miter;stroke-miterlimit:4;stroke-dasharray:none"
                     id="path516" /></g><g
                   id="g518"
                   transform="matrix(1,0,0,-1,0,336)"><path
                     d="m 104.754,153.039 c 0,1.324 -1.078,2.399 -2.402,2.399 -1.325,0 -2.399,-1.075 -2.399,-2.399 0,-1.324 1.074,-2.398 2.399,-2.398 1.324,0 2.402,1.074 2.402,2.398 z"
                     style="fill:none;stroke:#000000;stroke-opacity:1;stroke-width:3;stroke-linecap:butt;stroke-linejoin:miter;stroke-miterlimit:4;stroke-dasharray:none"
                     id="path520" /></g><g
                   id="g522"
                   transform="matrix(1,0,0,-1,0,336)"><path
                     d="m 108.738,152.73 c 0,1.325 -1.074,2.399 -2.398,2.399 -1.324,0 -2.399,-1.074 -2.399,-2.399 0,-1.328 1.075,-2.402 2.399,-2.402 1.324,0 2.398,1.074 2.398,2.402 z"
                     style="fill:none;stroke:#000000;stroke-opacity:1;stroke-width:3;stroke-linecap:butt;stroke-linejoin:miter;stroke-miterlimit:4;stroke-dasharray:none"
                     id="path524" /></g><g
                   id="g526"
                   transform="matrix(1,0,0,-1,0,336)"><path
                     d="m 112.727,152.473 c 0,1.324 -1.075,2.398 -2.399,2.398 -1.324,0 -2.398,-1.074 -2.398,-2.398 0,-1.328 1.074,-2.403 2.398,-2.403 1.324,0 2.399,1.075 2.399,2.403 z"
                     style="fill:none;stroke:#000000;stroke-opacity:1;stroke-width:3;stroke-linecap:butt;stroke-linejoin:miter;stroke-miterlimit:4;stroke-dasharray:none"
                     id="path528" /></g><g
                   id="g530"
                   transform="matrix(1,0,0,-1,0,336)"><path
                     d="m 116.715,152.242 c 0,1.328 -1.074,2.403 -2.399,2.403 -1.324,0 -2.402,-1.075 -2.402,-2.403 0,-1.324 1.078,-2.398 2.402,-2.398 1.325,0 2.399,1.074 2.399,2.398 z"
                     style="fill:none;stroke:#000000;stroke-opacity:1;stroke-width:3;stroke-linecap:butt;stroke-linejoin:miter;stroke-miterlimit:4;stroke-dasharray:none"
                     id="path532" /></g><g
                   id="g534"
                   transform="matrix(1,0,0,-1,0,336)"><path
                     d="m 120.703,152.082 c 0,1.328 -1.074,2.402 -2.398,2.402 -1.325,0 -2.403,-1.074 -2.403,-2.402 0,-1.324 1.078,-2.398 2.403,-2.398 1.324,0 2.398,1.074 2.398,2.398 z"
                     style="fill:none;stroke:#000000;stroke-opacity:1;stroke-width:3;stroke-linecap:butt;stroke-linejoin:miter;stroke-miterlimit:4;stroke-dasharray:none"
                     id="path536" /></g></g></g></g></g></g></g><g
       id="g538"><text
         transform="matrix(0,1,1,0,30.8256,155.36474)"
         id="text540"><tspan
           style="fill:#000000;fill-opacity:1;fill-rule:nonzero;stroke:none;font-family:TeXGyreHeros;font-variant:normal;font-weight:normal;font-size:24;writing-mode:lr;-inkscape-font-specification:TeXGyreHeros-Regular"
           x="0 12 18.672 38.664"
           y="0"
           sodipodi:role="line"
           id="tspan542">y[m]</tspan></text>
<g
         id="g544"
         transform="matrix(1,0,0,-1,0,336)"><path
           d="m 166.16,184.125 0,-3.191"
           style="fill:none;stroke:#000000;stroke-opacity:1;stroke-width:0.5;stroke-linecap:butt;stroke-linejoin:miter;stroke-miterlimit:4;stroke-dasharray:none"
           id="path546" /></g><g
         id="g548"
         transform="matrix(1,0,0,-1,0,336)"><path
           d="m 245.922,184.125 0,-3.191"
           style="fill:none;stroke:#000000;stroke-opacity:1;stroke-width:0.5;stroke-linecap:butt;stroke-linejoin:miter;stroke-miterlimit:4;stroke-dasharray:none"
           id="path550" /></g><g
         id="g552"
         transform="matrix(1,0,0,-1,0,336)"><path
           d="m 325.68,184.125 0,-3.191"
           style="fill:none;stroke:#000000;stroke-opacity:1;stroke-width:0.5;stroke-linecap:butt;stroke-linejoin:miter;stroke-miterlimit:4;stroke-dasharray:none"
           id="path554" /></g><g
         id="g556"
         transform="matrix(1,0,0,-1,0,336)"><path
           d="m 86.398,184.125 319.043,0"
           style="fill:none;stroke:#000000;stroke-opacity:1;stroke-width:0.5;stroke-linecap:butt;stroke-linejoin:miter;stroke-miterlimit:4;stroke-dasharray:none"
           id="path558" /></g><g
         id="g560"
         transform="matrix(1,0,0,-1,0,336)"><path
           d="m 166.16,130.207 0,3.191"
           style="fill:none;stroke:#000000;stroke-opacity:1;stroke-width:0.5;stroke-linecap:butt;stroke-linejoin:miter;stroke-miterlimit:4;stroke-dasharray:none"
           id="path562" /></g><g
         id="g564"
         transform="matrix(1,0,0,-1,0,336)"><path
           d="m 245.922,130.207 0,3.191"
           style="fill:none;stroke:#000000;stroke-opacity:1;stroke-width:0.5;stroke-linecap:butt;stroke-linejoin:miter;stroke-miterlimit:4;stroke-dasharray:none"
           id="path566" /></g><g
         id="g568"
         transform="matrix(1,0,0,-1,0,336)"><path
           d="m 325.68,130.207 0,3.191"
           style="fill:none;stroke:#000000;stroke-opacity:1;stroke-width:0.5;stroke-linecap:butt;stroke-linejoin:miter;stroke-miterlimit:4;stroke-dasharray:none"
           id="path570" /></g><g
         id="g572"
         transform="matrix(1,0,0,-1,0,336)"><path
           d="m 86.398,130.207 319.043,0"
           style="fill:none;stroke:#000000;stroke-opacity:1;stroke-width:0.5;stroke-linecap:butt;stroke-linejoin:miter;stroke-miterlimit:4;stroke-dasharray:none"
           id="path574" /></g><text
         transform="matrix(1,0,0,-1,80.833594,131.9184)"
         id="text576"><tspan
           style="fill:#000000;fill-opacity:1;fill-rule:nonzero;stroke:none;font-family:TeXGyreHeros;font-variant:normal;font-weight:normal;font-size:20;writing-mode:lr;-inkscape-font-specification:TeXGyreHeros-Regular"
           x="0 71.42 82.54 88.1 151.18 162.3 167.86 230.94 242.06 247.62 310.70016 321.82016 327.38016"
           y="0"
           sodipodi:role="line"
           id="tspan578">00.20.40.60.8</tspan></text>
<g
         id="g580"
         transform="matrix(1,0,0,-1,0,336)"><path
           d="m 86.398,157.168 3.192,0"
           style="fill:none;stroke:#000000;stroke-opacity:1;stroke-width:0.5;stroke-linecap:butt;stroke-linejoin:miter;stroke-miterlimit:4;stroke-dasharray:none"
           id="path582" /></g><g
         id="g584"
         transform="matrix(1,0,0,-1,0,336)"><path
           d="m 86.398,184.125 0,-53.918"
           style="fill:none;stroke:#000000;stroke-opacity:1;stroke-width:0.5;stroke-linecap:butt;stroke-linejoin:miter;stroke-miterlimit:4;stroke-dasharray:none"
           id="path586" /></g><g
         id="g588"
         transform="matrix(1,0,0,-1,0,336)"><path
           d="m 405.441,157.168 -3.191,0"
           style="fill:none;stroke:#000000;stroke-opacity:1;stroke-width:0.5;stroke-linecap:butt;stroke-linejoin:miter;stroke-miterlimit:4;stroke-dasharray:none"
           id="path590" /></g><g
         id="g592"
         transform="matrix(1,0,0,-1,0,336)"><path
           d="m 405.441,184.125 0,-53.918"
           style="fill:none;stroke:#000000;stroke-opacity:1;stroke-width:0.5;stroke-linecap:butt;stroke-linejoin:miter;stroke-miterlimit:4;stroke-dasharray:none"
           id="path594" /></g><text
         transform="matrix(1,0,0,-1,34.3942,144.6768)"
         id="text596"><tspan
           style="fill:#000000;fill-opacity:1;fill-rule:nonzero;stroke:none;font-family:TeXGyreHeros;font-variant:normal;font-weight:normal;font-size:20;writing-mode:lr;-inkscape-font-specification:TeXGyreHeros-Regular"
           x="0 6.66 17.78 23.34 34.46"
           y="0"
           sodipodi:role="line"
           id="tspan598">-0.15</tspan><tspan
           style="fill:#000000;fill-opacity:1;fill-rule:nonzero;stroke:none;font-family:TeXGyreHeros;font-variant:normal;font-weight:normal;font-size:20;writing-mode:lr;-inkscape-font-specification:TeXGyreHeros-Regular"
           x="11.13282 17.79282 28.91282 34.47282"
           y="-26.9568"
           sodipodi:role="line"
           id="tspan600">-0.1</tspan><tspan
           style="fill:#000000;fill-opacity:1;fill-rule:nonzero;stroke:none;font-family:TeXGyreHeros;font-variant:normal;font-weight:normal;font-size:20;writing-mode:lr;-inkscape-font-specification:TeXGyreHeros-Regular"
           x="0 6.66 17.78 23.34 34.46"
           y="-53.9144"
           sodipodi:role="line"
           id="tspan602">-0.05</tspan></text>
<g
         id="g604"
         transform="matrix(1,0,0,-1,0,336)"><path
           d="m 86.398,184.125 0,-0.539"
           style="fill:none;stroke:#000000;stroke-opacity:1;stroke-width:0.5;stroke-linecap:butt;stroke-linejoin:miter;stroke-miterlimit:4;stroke-dasharray:none"
           id="path606" /></g><path
         d="m 86.398,105.113 319.043,0 0,-53.914 -319.043,0 0,53.914 z"
         style="fill:#ffffff;fill-opacity:1;fill-rule:nonzero;stroke:none"
         id="path608" /></g><g
       id="g610"><g
         id="g612"
         clip-path="url(#clipPath614)"><g
           id="g618"><g
             id="g620"><g
               id="g622"
               clip-path="url(#clipPath624)"><g
                 id="g628"><path
                   d="m 98.363,60.766 7.977,-0.047 3.988,-0.028 11.965,-0.093 11.965,-0.106 3.984,-0.039 11.965,-0.117 3.988,-0.035 3.989,-0.039 3.988,-0.032 3.988,-0.035 7.977,-0.054 3.988,-0.02 3.988,-0.016 3.989,-0.011 3.988,-0.008 3.984,-0.004 7.977,0.008 3.988,0.012 7.977,0.031 3.988,0.019 15.953,0.094 3.988,0.027 3.989,0.024 3.988,0.027 3.984,0.024 3.989,0.023 3.988,0.02 3.988,0.023 7.977,0.039 3.988,0.016 3.988,0.019 3.988,0.012 3.989,0.016 7.976,0.023 7.977,0.016 3.984,0.007 3.989,0.008 3.988,0.004 3.988,0.008 15.953,0.016 0,16.336 -3.988,0.07 -3.988,0.086 -3.989,0.094 -3.988,0.105 -3.988,0.125 -3.988,0.137 -3.989,0.156 -3.984,0.176 -3.988,0.191 -3.989,0.211 -3.988,0.227 -3.988,0.246 -3.989,0.262 -3.988,0.269 -7.976,0.555 -3.989,0.273 -3.988,0.258 -3.988,0.238 -3.988,0.211 -3.989,0.176 -3.984,0.129 -3.988,0.074 -3.989,0.024 -3.988,-0.039 -3.988,-0.098 -3.989,-0.16 -3.988,-0.223 -3.988,-0.273 -3.988,-0.329 -3.989,-0.375 -3.988,-0.41 -3.988,-0.449 -3.989,-0.473 -3.988,-0.496 -3.984,-0.507 -3.988,-0.524 -11.965,-1.582 -3.989,-0.519 -3.988,-0.512 -3.988,-0.5 -3.988,-0.488 -3.989,-0.465 -3.988,-0.446 -3.988,-0.421 -3.989,-0.399 -3.988,-0.371 -3.984,-0.348 -3.988,-0.316 -3.989,-0.293 -3.988,-0.27 -3.988,-0.242 -3.989,-0.219 -3.988,-0.199 -3.988,-0.176 -3.988,-0.16 -3.989,-0.14 -3.988,-0.125 -3.988,-0.11 0,-7.761 3.988,-0.02 3.988,-0.023 z"
                   style="fill:#0000ff;fill-opacity:0.15;fill-rule:nonzero;stroke:none"
                   id="path630" /></g></g></g></g><g
           id="g632"><g
             id="g634"><g
               id="g636"
               clip-path="url(#clipPath638)"><g
                 id="g642"><g
                   id="g644"
                   transform="matrix(1,0,0,-1,0,336)"><path
                     d="m 90.387,275.191 3.988,0.02 11.965,0.07 3.988,0.028 11.965,0.093 11.965,0.106 3.984,0.039 11.965,0.117 3.988,0.035 3.989,0.039 3.988,0.032 3.988,0.035 7.977,0.054 3.988,0.02 3.988,0.016 3.989,0.011 3.988,0.008 3.984,0.004 7.977,-0.008 3.988,-0.012 7.977,-0.031 3.988,-0.019 15.953,-0.094 3.988,-0.027 3.989,-0.024 3.988,-0.027 3.984,-0.024 3.989,-0.023 3.988,-0.02 3.988,-0.023 7.977,-0.039 3.988,-0.016 3.988,-0.019 3.988,-0.012 3.989,-0.016 7.976,-0.023 7.977,-0.016 3.984,-0.007 3.989,-0.008 3.988,-0.004 3.988,-0.008 15.953,-0.016"
                     style="fill:none;stroke:#8c8cff;stroke-opacity:1;stroke-width:1;stroke-linecap:butt;stroke-linejoin:miter;stroke-miterlimit:4;stroke-dasharray:none"
                     id="path646" /></g></g></g></g></g><g
           id="g648"><g
             id="g650"><g
               id="g652"
               clip-path="url(#clipPath654)"><g
                 id="g658"><g
                   id="g660"
                   transform="matrix(1,0,0,-1,0,336)"><path
                     d="m 90.387,267.43 3.988,-0.11 3.988,-0.125 3.989,-0.14 3.988,-0.16 3.988,-0.176 3.988,-0.199 3.989,-0.219 3.988,-0.242 3.988,-0.27 3.989,-0.293 3.988,-0.316 3.984,-0.348 3.988,-0.371 3.989,-0.399 3.988,-0.421 3.988,-0.446 3.989,-0.465 3.988,-0.488 3.988,-0.5 3.988,-0.512 3.989,-0.519 11.965,-1.582 3.988,-0.524 3.984,-0.507 3.988,-0.496 3.989,-0.473 3.988,-0.449 3.988,-0.41 3.989,-0.375 3.988,-0.329 3.988,-0.273 3.988,-0.223 3.989,-0.16 3.988,-0.098 3.988,-0.039 3.989,0.024 3.988,0.074 3.984,0.129 3.989,0.176 3.988,0.211 3.988,0.238 3.988,0.258 3.989,0.273 7.976,0.555 3.988,0.269 3.989,0.262 3.988,0.246 3.988,0.227 3.989,0.211 3.988,0.191 3.984,0.176 3.989,0.156 3.988,0.137 3.988,0.125 3.988,0.105 3.989,0.094 3.988,0.086 3.988,0.07"
                     style="fill:none;stroke:#8c8cff;stroke-opacity:1;stroke-width:1;stroke-linecap:butt;stroke-linejoin:miter;stroke-miterlimit:4;stroke-dasharray:none"
                     id="path662" /></g></g></g></g></g><g
           id="g664"><g
             id="g666"><g
               id="g668"
               clip-path="url(#clipPath670)"><g
                 id="g674"><g
                   id="g676"
                   transform="matrix(1,0,0,-1,0,336)"><path
                     d="m 90.387,271.312 3.988,-0.046 3.988,-0.051 3.989,-0.059 3.988,-0.066 3.988,-0.078 3.988,-0.082 3.989,-0.094 3.988,-0.106 3.988,-0.117 3.989,-0.129 3.988,-0.14 3.984,-0.153 3.988,-0.168 3.989,-0.179 3.988,-0.192 3.988,-0.207 3.989,-0.211 3.988,-0.226 3.988,-0.235 3.988,-0.242 3.989,-0.246 3.988,-0.254 3.988,-0.258 3.989,-0.253 3.988,-0.258 3.984,-0.254 3.988,-0.25 3.989,-0.238 3.988,-0.231 3.988,-0.215 3.989,-0.195 3.988,-0.172 3.988,-0.148 3.988,-0.121 3.989,-0.094 3.988,-0.063 3.988,-0.031 3.989,0 3.988,0.023 3.984,0.055 3.989,0.074 3.988,0.094 3.988,0.109 3.988,0.122 3.989,0.125 3.988,0.128 3.988,0.133 3.988,0.129 3.989,0.121 3.988,0.117 3.988,0.11 3.989,0.101 3.988,0.09 3.984,0.082 3.989,0.075 3.988,0.066 3.988,0.058 3.988,0.055 3.989,0.043 3.988,0.039 3.988,0.035"
                     style="fill:none;stroke:#0000ff;stroke-opacity:1;stroke-width:1;stroke-linecap:butt;stroke-linejoin:miter;stroke-miterlimit:4;stroke-dasharray:none"
                     id="path678" /></g></g></g></g></g><g
           id="g680"><g
             id="g682"><g
               id="g684"
               clip-path="url(#clipPath686)"><g
                 id="g690"><g
                   id="g692"
                   transform="matrix(1,0,0,-1,0,336)"><path
                     d="m 90.387,271.312 3.988,-0.046 3.988,-0.051 3.989,-0.059 3.988,-0.066 3.988,-0.078 3.988,-0.082 3.989,-0.094 3.988,-0.106 3.988,-0.117 3.989,-0.129 3.988,-0.14 3.984,-0.153 3.988,-0.168 3.989,-0.179 3.988,-0.192 3.988,-0.207 3.989,-0.211 3.988,-0.226 3.988,-0.235 3.988,-0.242 3.989,-0.246 3.988,-0.254 3.988,-0.258 3.989,-0.253 3.988,-0.258 3.984,-0.254 3.988,-0.25 3.989,-0.238 3.988,-0.231 3.988,-0.215 3.989,-0.195 3.988,-0.172 3.988,-0.148 3.988,-0.121 3.989,-0.094 3.988,-0.063 3.988,-0.031 3.989,0 3.988,0.023 3.984,0.055 3.989,0.074 3.988,0.094 3.988,0.109 3.988,0.122 3.989,0.125 3.988,0.128 3.988,0.133 3.988,0.129 3.989,0.121 3.988,0.117 3.988,0.11 3.989,0.101 3.988,0.09 3.984,0.082 3.989,0.075 3.988,0.066 3.988,0.058 3.988,0.055 3.989,0.043 3.988,0.039 3.988,0.035"
                     style="fill:none;stroke:#0000ff;stroke-opacity:1;stroke-width:1;stroke-linecap:butt;stroke-linejoin:miter;stroke-miterlimit:4;stroke-dasharray:none"
                     id="path694" /></g></g></g></g></g><g
           id="g696"><g
             id="g698"><g
               id="g700"
               clip-path="url(#clipPath702)"><g
                 id="g706"><path
                   d="m 98.363,61.113 3.989,-0.011 7.976,-0.04 3.988,-0.027 3.989,-0.035 3.988,-0.039 3.988,-0.047 3.989,-0.055 3.988,-0.058 3.984,-0.063 7.977,-0.125 3.988,-0.058 3.988,-0.051 3.989,-0.035 3.988,-0.016 3.988,0.004 3.988,0.035 3.989,0.063 3.988,0.101 3.988,0.137 3.989,0.176 3.988,0.211 3.984,0.25 3.988,0.277 3.989,0.309 3.988,0.328 3.988,0.344 7.977,0.695 3.988,0.336 3.988,0.32 3.989,0.297 3.988,0.273 3.988,0.239 3.989,0.207 3.988,0.172 3.984,0.14 3.989,0.11 3.988,0.082 3.988,0.054 3.988,0.035 3.989,0.016 3.988,0.004 3.988,-0.012 3.988,-0.019 3.989,-0.024 7.976,-0.054 3.989,-0.032 3.988,-0.027 3.984,-0.027 3.989,-0.028 7.976,-0.047 3.988,-0.019 11.965,-0.047 0,11.008 -3.988,0.074 -3.988,0.086 -3.989,0.094 -3.988,0.109 -3.988,0.125 -3.988,0.137 -3.989,0.152 -3.984,0.172 -3.988,0.188 -3.989,0.203 -3.988,0.215 -3.988,0.23 -3.989,0.234 -3.988,0.239 -3.988,0.234 -3.988,0.227 -3.989,0.199 -3.988,0.176 -3.988,0.132 -3.988,0.079 -3.989,0.019 -3.984,-0.047 -3.988,-0.129 -3.989,-0.207 -3.988,-0.293 -3.988,-0.375 -3.989,-0.453 -3.988,-0.523 -3.988,-0.59 -3.988,-0.637 -3.989,-0.676 -3.988,-0.699 -3.988,-0.711 -3.989,-0.707 -3.988,-0.691 -3.984,-0.668 -3.988,-0.637 -3.989,-0.598 -3.988,-0.554 -3.988,-0.508 -3.989,-0.465 -3.988,-0.418 -3.988,-0.379 -3.988,-0.336 -3.989,-0.301 -3.988,-0.269 -3.988,-0.238 -3.989,-0.215 -3.988,-0.188 -3.984,-0.172 -3.988,-0.152 -3.989,-0.137 -3.988,-0.121 -3.988,-0.113 -3.989,-0.098 -3.988,-0.093 -3.988,-0.082 -3.988,-0.075 -3.989,-0.07 -3.988,-0.059 -3.988,-0.054 0,-4.801 3.988,-0.004 3.988,-0.008 z"
                   style="fill:#ff0000;fill-opacity:0.15;fill-rule:nonzero;stroke:none"
                   id="path708" /></g></g></g></g><g
           id="g710"><g
             id="g712"><g
               id="g714"
               clip-path="url(#clipPath716)"><g
                 id="g720"><g
                   id="g722"
                   transform="matrix(1,0,0,-1,0,336)"><path
                     d="m 90.387,274.875 3.988,0.004 3.988,0.008 3.989,0.011 7.976,0.04 3.988,0.027 3.989,0.035 3.988,0.039 3.988,0.047 3.989,0.055 3.988,0.058 3.984,0.063 7.977,0.125 3.988,0.058 3.988,0.051 3.989,0.035 3.988,0.016 3.988,-0.004 3.988,-0.035 3.989,-0.063 3.988,-0.101 3.988,-0.137 3.989,-0.176 3.988,-0.211 3.984,-0.25 3.988,-0.277 3.989,-0.309 3.988,-0.328 3.988,-0.344 7.977,-0.695 3.988,-0.336 3.988,-0.32 3.989,-0.297 3.988,-0.273 3.988,-0.239 3.989,-0.207 3.988,-0.172 3.984,-0.14 3.989,-0.11 3.988,-0.082 3.988,-0.054 3.988,-0.035 3.989,-0.016 3.988,-0.004 3.988,0.012 3.988,0.019 3.989,0.024 7.976,0.054 3.989,0.032 3.988,0.027 3.984,0.027 3.989,0.028 7.976,0.047 3.988,0.019 11.965,0.047"
                     style="fill:none;stroke:#ff8c8c;stroke-opacity:1;stroke-width:1;stroke-linecap:butt;stroke-linejoin:miter;stroke-miterlimit:4;stroke-dasharray:none"
                     id="path724" /></g></g></g></g></g><g
           id="g726"><g
             id="g728"><g
               id="g730"
               clip-path="url(#clipPath732)"><g
                 id="g736"><g
                   id="g738"
                   transform="matrix(1,0,0,-1,0,336)"><path
                     d="m 90.387,270.074 3.988,-0.054 3.988,-0.059 3.989,-0.07 3.988,-0.075 3.988,-0.082 3.988,-0.093 3.989,-0.098 3.988,-0.113 3.988,-0.121 3.989,-0.137 3.988,-0.152 3.984,-0.172 3.988,-0.188 3.989,-0.215 3.988,-0.238 3.988,-0.269 3.989,-0.301 3.988,-0.336 3.988,-0.379 3.988,-0.418 3.989,-0.465 3.988,-0.508 3.988,-0.554 3.989,-0.598 3.988,-0.637 3.984,-0.668 3.988,-0.691 3.989,-0.707 3.988,-0.711 3.988,-0.699 3.989,-0.676 3.988,-0.637 3.988,-0.59 3.988,-0.523 3.989,-0.453 3.988,-0.375 3.988,-0.293 3.989,-0.207 3.988,-0.129 3.984,-0.047 3.989,0.019 3.988,0.079 3.988,0.132 3.988,0.176 3.989,0.199 3.988,0.227 3.988,0.234 3.988,0.239 3.989,0.234 3.988,0.23 3.988,0.215 3.989,0.203 3.988,0.188 3.984,0.172 3.989,0.152 3.988,0.137 3.988,0.125 3.988,0.109 3.989,0.094 3.988,0.086 3.988,0.074"
                     style="fill:none;stroke:#ff8c8c;stroke-opacity:1;stroke-width:1;stroke-linecap:butt;stroke-linejoin:miter;stroke-miterlimit:4;stroke-dasharray:none"
                     id="path740" /></g></g></g></g></g><g
           id="g742"><g
             id="g744"><g
               id="g746"
               clip-path="url(#clipPath748)"><g
                 id="g752"><g
                   id="g754"
                   transform="matrix(1,0,0,-1,0,336)"><path
                     d="m 90.387,272.473 3.988,-0.024 11.965,-0.082 7.976,-0.062 7.977,-0.071 7.977,-0.078 3.988,-0.047 3.984,-0.054 3.988,-0.063 3.989,-0.074 3.988,-0.09 3.988,-0.109 3.989,-0.133 3.988,-0.16 3.988,-0.196 3.988,-0.226 3.989,-0.262 3.988,-0.304 3.988,-0.344 3.989,-0.387 3.988,-0.426 3.984,-0.457 3.988,-0.488 3.989,-0.508 7.976,-1.039 3.989,-0.512 3.988,-0.492 3.988,-0.461 3.988,-0.426 3.989,-0.375 3.988,-0.32 3.988,-0.265 3.989,-0.211 3.988,-0.149 3.984,-0.094 3.989,-0.046 3.988,0 3.988,0.039 3.988,0.07 3.989,0.094 3.988,0.109 3.988,0.121 11.965,0.387 3.988,0.125 3.989,0.113 3.988,0.109 3.984,0.098 3.989,0.09 3.988,0.082 3.988,0.074 3.988,0.063 3.989,0.058 3.988,0.051 3.988,0.043"
                     style="fill:none;stroke:#ff0000;stroke-opacity:1;stroke-width:1;stroke-linecap:butt;stroke-linejoin:miter;stroke-miterlimit:4;stroke-dasharray:none"
                     id="path756" /></g></g></g></g></g><g
           id="g758"><g
             id="g760"><g
               id="g762"
               clip-path="url(#clipPath764)"><g
                 id="g768"><g
                   id="g770"
                   transform="matrix(1,0,0,-1,0,336)"><path
                     d="m 90.387,272.473 3.988,-0.024 11.965,-0.082 7.976,-0.062 7.977,-0.071 7.977,-0.078 3.988,-0.047 3.984,-0.054 3.988,-0.063 3.989,-0.074 3.988,-0.09 3.988,-0.109 3.989,-0.133 3.988,-0.16 3.988,-0.196 3.988,-0.226 3.989,-0.262 3.988,-0.304 3.988,-0.344 3.989,-0.387 3.988,-0.426 3.984,-0.457 3.988,-0.488 3.989,-0.508 7.976,-1.039 3.989,-0.512 3.988,-0.492 3.988,-0.461 3.988,-0.426 3.989,-0.375 3.988,-0.32 3.988,-0.265 3.989,-0.211 3.988,-0.149 3.984,-0.094 3.989,-0.046 3.988,0 3.988,0.039 3.988,0.07 3.989,0.094 3.988,0.109 3.988,0.121 11.965,0.387 3.988,0.125 3.989,0.113 3.988,0.109 3.984,0.098 3.989,0.09 3.988,0.082 3.988,0.074 3.988,0.063 3.989,0.058 3.988,0.051 3.988,0.043"
                     style="fill:none;stroke:#ff0000;stroke-opacity:1;stroke-width:1;stroke-linecap:butt;stroke-linejoin:miter;stroke-miterlimit:4;stroke-dasharray:none"
                     id="path772" /></g></g></g></g></g><g
           id="g774"><g
             id="g776"><g
               id="g778"
               clip-path="url(#clipPath780)"><g
                 id="g784"><g
                   id="g786"
                   transform="matrix(1,0,0,-1,0,336)"><path
                     d="m 86.402,272.688 3.957,-0.094 3.961,-0.094 3.957,-0.09 3.961,-0.094 3.957,-0.093 3.957,-0.11 3.961,-0.101 3.957,-0.086 3.961,-0.102 3.957,-0.094 3.957,-0.109 3.961,-0.094 3.957,-0.086 3.961,-0.082 3.957,-0.082 3.961,-0.078 3.957,-0.097 3.961,-0.102 3.957,-0.113 3.957,-0.129 3.961,-0.149 3.957,-0.175 3.961,-0.2 3.957,-0.214 3.961,-0.25 3.957,-0.254 3.961,-0.262 3.957,-0.262 3.957,-0.269 3.961,-0.278 3.957,-0.254 3.961,-0.269 3.957,-0.309 3.957,-0.41 3.961,-0.453 3.957,-0.434 3.961,-0.433 3.957,-0.414 3.961,-0.391 3.957,-0.406 3.957,-0.453 3.961,-0.512 3.957,-0.508 3.961,-0.472 3.957,-0.446 3.961,-0.359 3.957,-0.363 3.961,-0.332 3.957,-0.293 3.957,-0.246 3.961,-0.223 3.957,-0.231 3.961,-0.199 3.957,-0.191 3.961,-0.129 3.957,-0.137 3.957,-0.117 3.961,-0.09 3.957,-0.027 3.961,0.004 3.957,0.043 3.957,0.058 3.961,0.067 3.957,0.086 3.961,0.109 3.957,0.156 3.961,0.176 3.957,0.215 3.961,0.234 7.914,0.492 3.961,0.246 3.957,0.254 3.961,0.235 3.957,0.246"
                     style="fill:none;stroke:#000000;stroke-opacity:1;stroke-width:2;stroke-linecap:butt;stroke-linejoin:miter;stroke-miterlimit:4;stroke-dasharray:1.6,1.6;stroke-dashoffset:0"
                     id="path788" /></g></g></g></g></g><g
           id="g790"><g
             id="g792"><g
               id="g794"
               clip-path="url(#clipPath796)"><g
                 id="g800"><g
                   id="g802"
                   transform="matrix(1,0,0,-1,0,336)"><path
                     d="m 92.789,272.688 c 0,1.324 -1.074,2.402 -2.402,2.402 -1.325,0 -2.399,-1.078 -2.399,-2.402 0,-1.325 1.074,-2.399 2.399,-2.399 1.328,0 2.402,1.074 2.402,2.399 z"
                     style="fill:none;stroke:#000000;stroke-opacity:1;stroke-width:3;stroke-linecap:butt;stroke-linejoin:miter;stroke-miterlimit:4;stroke-dasharray:none"
                     id="path804" /></g><g
                   id="g806"
                   transform="matrix(1,0,0,-1,0,336)"><path
                     d="m 96.777,272.594 c 0,1.328 -1.074,2.402 -2.402,2.402 -1.324,0 -2.398,-1.074 -2.398,-2.402 0,-1.324 1.074,-2.399 2.398,-2.399 1.328,0 2.402,1.075 2.402,2.399 z"
                     style="fill:none;stroke:#000000;stroke-opacity:1;stroke-width:3;stroke-linecap:butt;stroke-linejoin:miter;stroke-miterlimit:4;stroke-dasharray:none"
                     id="path808" /></g><g
                   id="g810"
                   transform="matrix(1,0,0,-1,0,336)"><path
                     d="m 100.766,272.5 c 0,1.328 -1.075,2.402 -2.403,2.402 -1.324,0 -2.398,-1.074 -2.398,-2.402 0,-1.324 1.074,-2.398 2.398,-2.398 1.328,0 2.403,1.074 2.403,2.398 z"
                     style="fill:none;stroke:#000000;stroke-opacity:1;stroke-width:3;stroke-linecap:butt;stroke-linejoin:miter;stroke-miterlimit:4;stroke-dasharray:none"
                     id="path812" /></g><g
                   id="g814"
                   transform="matrix(1,0,0,-1,0,336)"><path
                     d="m 104.754,272.41 c 0,1.324 -1.078,2.399 -2.402,2.399 -1.325,0 -2.399,-1.075 -2.399,-2.399 0,-1.328 1.074,-2.402 2.399,-2.402 1.324,0 2.402,1.074 2.402,2.402 z"
                     style="fill:none;stroke:#000000;stroke-opacity:1;stroke-width:3;stroke-linecap:butt;stroke-linejoin:miter;stroke-miterlimit:4;stroke-dasharray:none"
                     id="path816" /></g><g
                   id="g818"
                   transform="matrix(1,0,0,-1,0,336)"><path
                     d="m 108.738,272.316 c 0,1.325 -1.074,2.399 -2.398,2.399 -1.324,0 -2.399,-1.074 -2.399,-2.399 0,-1.324 1.075,-2.402 2.399,-2.402 1.324,0 2.398,1.078 2.398,2.402 z"
                     style="fill:none;stroke:#000000;stroke-opacity:1;stroke-width:3;stroke-linecap:butt;stroke-linejoin:miter;stroke-miterlimit:4;stroke-dasharray:none"
                     id="path820" /></g><g
                   id="g822"
                   transform="matrix(1,0,0,-1,0,336)"><path
                     d="m 112.727,272.223 c 0,1.324 -1.075,2.398 -2.399,2.398 -1.324,0 -2.398,-1.074 -2.398,-2.398 0,-1.328 1.074,-2.403 2.398,-2.403 1.324,0 2.399,1.075 2.399,2.403 z"
                     style="fill:none;stroke:#000000;stroke-opacity:1;stroke-width:3;stroke-linecap:butt;stroke-linejoin:miter;stroke-miterlimit:4;stroke-dasharray:none"
                     id="path824" /></g><g
                   id="g826"
                   transform="matrix(1,0,0,-1,0,336)"><path
                     d="m 116.715,272.113 c 0,1.325 -1.074,2.399 -2.399,2.399 -1.324,0 -2.402,-1.074 -2.402,-2.399 0,-1.328 1.078,-2.402 2.402,-2.402 1.325,0 2.399,1.074 2.399,2.402 z"
                     style="fill:none;stroke:#000000;stroke-opacity:1;stroke-width:3;stroke-linecap:butt;stroke-linejoin:miter;stroke-miterlimit:4;stroke-dasharray:none"
                     id="path828" /></g><g
                   id="g830"
                   transform="matrix(1,0,0,-1,0,336)"><path
                     d="m 120.703,272.012 c 0,1.328 -1.074,2.402 -2.398,2.402 -1.325,0 -2.403,-1.074 -2.403,-2.402 0,-1.324 1.078,-2.399 2.403,-2.399 1.324,0 2.398,1.075 2.398,2.399 z"
                     style="fill:none;stroke:#000000;stroke-opacity:1;stroke-width:3;stroke-linecap:butt;stroke-linejoin:miter;stroke-miterlimit:4;stroke-dasharray:none"
                     id="path832" /></g></g></g></g></g></g></g><g
       id="g834"><text
         transform="matrix(0,1,1,0,47.6168,54.688737)"
         id="text836"><tspan
           style="fill:#000000;fill-opacity:1;fill-rule:nonzero;stroke:none;font-family:TeXGyreHeros;font-variant:normal;font-weight:normal;font-size:24;writing-mode:lr;-inkscape-font-specification:TeXGyreHeros-Regular"
           x="0 12 18.672 38.664"
           y="0"
           sodipodi:role="line"
           id="tspan838">z[m]</tspan></text>
<text
         transform="matrix(1,0,0,-1,202.44111,1.1744)"
         id="text840"><tspan
           style="fill:#000000;fill-opacity:1;fill-rule:nonzero;stroke:none;font-family:TeXGyreHeros;font-variant:normal;font-weight:normal;font-size:24;writing-mode:lr;-inkscape-font-specification:TeXGyreHeros-Regular"
           x="0 14.664 19.992 39.984 53.4 60.072 66.744 78.744"
           y="0"
           sodipodi:role="line"
           id="tspan842">Time [s]</tspan></text>
<g
         id="g844"
         transform="matrix(1,0,0,-1,0,336)"><path
           d="m 166.16,284.801 0,-3.192"
           style="fill:none;stroke:#000000;stroke-opacity:1;stroke-width:0.5;stroke-linecap:butt;stroke-linejoin:miter;stroke-miterlimit:4;stroke-dasharray:none"
           id="path846" /></g><g
         id="g848"
         transform="matrix(1,0,0,-1,0,336)"><path
           d="m 245.922,284.801 0,-3.192"
           style="fill:none;stroke:#000000;stroke-opacity:1;stroke-width:0.5;stroke-linecap:butt;stroke-linejoin:miter;stroke-miterlimit:4;stroke-dasharray:none"
           id="path850" /></g><g
         id="g852"
         transform="matrix(1,0,0,-1,0,336)"><path
           d="m 325.68,284.801 0,-3.192"
           style="fill:none;stroke:#000000;stroke-opacity:1;stroke-width:0.5;stroke-linecap:butt;stroke-linejoin:miter;stroke-miterlimit:4;stroke-dasharray:none"
           id="path854" /></g><g
         id="g856"
         transform="matrix(1,0,0,-1,0,336)"><path
           d="m 86.398,284.801 319.043,0"
           style="fill:none;stroke:#000000;stroke-opacity:1;stroke-width:0.5;stroke-linecap:butt;stroke-linejoin:miter;stroke-miterlimit:4;stroke-dasharray:none"
           id="path858" /></g><g
         id="g860"
         transform="matrix(1,0,0,-1,0,336)"><path
           d="m 166.16,230.887 0,3.187"
           style="fill:none;stroke:#000000;stroke-opacity:1;stroke-width:0.5;stroke-linecap:butt;stroke-linejoin:miter;stroke-miterlimit:4;stroke-dasharray:none"
           id="path862" /></g><g
         id="g864"
         transform="matrix(1,0,0,-1,0,336)"><path
           d="m 245.922,230.887 0,3.187"
           style="fill:none;stroke:#000000;stroke-opacity:1;stroke-width:0.5;stroke-linecap:butt;stroke-linejoin:miter;stroke-miterlimit:4;stroke-dasharray:none"
           id="path866" /></g><g
         id="g868"
         transform="matrix(1,0,0,-1,0,336)"><path
           d="m 325.68,230.887 0,3.187"
           style="fill:none;stroke:#000000;stroke-opacity:1;stroke-width:0.5;stroke-linecap:butt;stroke-linejoin:miter;stroke-miterlimit:4;stroke-dasharray:none"
           id="path870" /></g><g
         id="g872"
         transform="matrix(1,0,0,-1,0,336)"><path
           d="m 86.398,230.887 319.043,0"
           style="fill:none;stroke:#000000;stroke-opacity:1;stroke-width:0.5;stroke-linecap:butt;stroke-linejoin:miter;stroke-miterlimit:4;stroke-dasharray:none"
           id="path874" /></g><text
         transform="matrix(1,0,0,-1,80.833594,31.2416)"
         id="text876"><tspan
           style="fill:#000000;fill-opacity:1;fill-rule:nonzero;stroke:none;font-family:TeXGyreHeros;font-variant:normal;font-weight:normal;font-size:20;writing-mode:lr;-inkscape-font-specification:TeXGyreHeros-Regular"
           x="0 71.42 82.54 88.1 151.18 162.3 167.86 230.94 242.06 247.62 310.70016 321.82016 327.38016"
           y="0"
           sodipodi:role="line"
           id="tspan878">00.20.40.60.8</tspan></text>
<g
         id="g880"
         transform="matrix(1,0,0,-1,0,336)"><path
           d="m 86.398,257.844 3.192,0"
           style="fill:none;stroke:#000000;stroke-opacity:1;stroke-width:0.5;stroke-linecap:butt;stroke-linejoin:miter;stroke-miterlimit:4;stroke-dasharray:none"
           id="path882" /></g><g
         id="g884"
         transform="matrix(1,0,0,-1,0,336)"><path
           d="m 86.398,284.801 0,-53.914"
           style="fill:none;stroke:#000000;stroke-opacity:1;stroke-width:0.5;stroke-linecap:butt;stroke-linejoin:miter;stroke-miterlimit:4;stroke-dasharray:none"
           id="path886" /></g><g
         id="g888"
         transform="matrix(1,0,0,-1,0,336)"><path
           d="m 405.441,257.844 -3.191,0"
           style="fill:none;stroke:#000000;stroke-opacity:1;stroke-width:0.5;stroke-linecap:butt;stroke-linejoin:miter;stroke-miterlimit:4;stroke-dasharray:none"
           id="path890" /></g><g
         id="g892"
         transform="matrix(1,0,0,-1,0,336)"><path
           d="m 405.441,284.801 0,-53.914"
           style="fill:none;stroke:#000000;stroke-opacity:1;stroke-width:0.5;stroke-linecap:butt;stroke-linejoin:miter;stroke-miterlimit:4;stroke-dasharray:none"
           id="path894" /></g><text
         transform="matrix(1,0,0,-1,68.886388,44)"
         id="text896"><tspan
           style="fill:#000000;fill-opacity:1;fill-rule:nonzero;stroke:none;font-family:TeXGyreHeros;font-variant:normal;font-weight:normal;font-size:20;writing-mode:lr;-inkscape-font-specification:TeXGyreHeros-Regular"
           x="0"
           y="0"
           id="tspan898">0</tspan><tspan
           style="fill:#000000;fill-opacity:1;fill-rule:nonzero;stroke:none;font-family:TeXGyreHeros;font-variant:normal;font-weight:normal;font-size:20;writing-mode:lr;-inkscape-font-specification:TeXGyreHeros-Regular"
           x="-16.67968 -5.55968 0.00032"
           y="-26.9576"
           sodipodi:role="line"
           id="tspan900">0.1</tspan><tspan
           style="fill:#000000;fill-opacity:1;fill-rule:nonzero;stroke:none;font-family:TeXGyreHeros;font-variant:normal;font-weight:normal;font-size:20;writing-mode:lr;-inkscape-font-specification:TeXGyreHeros-Regular"
           x="-16.67968 -5.55968 0.00032"
           y="-53.9144"
           sodipodi:role="line"
           id="tspan902">0.2</tspan></text>
<g
         id="g904"
         transform="matrix(1,0,0,-1,0,336)"><path
           d="m 86.398,284.801 0,-0.539"
           style="fill:none;stroke:#000000;stroke-opacity:1;stroke-width:0.5;stroke-linecap:butt;stroke-linejoin:miter;stroke-miterlimit:4;stroke-dasharray:none"
           id="path906" /></g><path
         d="m 272.133,171.684 164.398,0 0,-85.105 -164.398,0 0,85.105 z"
         style="fill:#ffffff;fill-opacity:1;fill-rule:nonzero;stroke:none"
         id="path908" /><text
         transform="matrix(1,0,0,-1,311.17793,152.67969)"
         id="text910"><tspan
           style="fill:#000000;fill-opacity:1;fill-rule:nonzero;stroke:none;font-family:TeXGyreHeros;font-variant:normal;font-weight:normal;font-size:20;writing-mode:lr;-inkscape-font-specification:TeXGyreHeros-Regular"
           x="0 6.48 17.6 28.72 33.16 38.72 44.28 50.86 61.98 66.42 77.54 87.54 92.94 104.06 111.26"
           y="0"
           sodipodi:role="line"
           id="tspan912">real trajectory</tspan></text>
</g><g
       id="g914"><g
         id="g916"
         clip-path="url(#clipPath918)"><g
           id="g922"><g
             id="g924"><g
               id="g926"
               clip-path="url(#clipPath928)"><g
                 id="g932"><g
                   id="g934"
                   transform="matrix(1,0,0,-1,0,336)"><path
                     d="m 277.676,175.336 30,0"
                     style="fill:none;stroke:#000000;stroke-opacity:1;stroke-width:2;stroke-linecap:butt;stroke-linejoin:miter;stroke-miterlimit:4;stroke-dasharray:1.6,1.6;stroke-dashoffset:0"
                     id="path936" /></g></g></g></g></g><text
           transform="matrix(1,0,0,-1,311.17793,133.78166)"
           id="text938"><tspan
             style="fill:#000000;fill-opacity:1;fill-rule:nonzero;stroke:none;font-family:TeXGyreHeros;font-variant:normal;font-weight:normal;font-size:20;writing-mode:lr;-inkscape-font-specification:TeXGyreHeros-Regular"
             x="0 11.12 22.24 32.24 43.36 50.66 60.28 71.4 76.96 81.4 92.52 103.64"
             y="0"
             sodipodi:role="line"
             id="tspan940">observations</tspan></text>
</g></g><g
       id="g942"><g
         id="g944"
         clip-path="url(#clipPath946)"><g
           id="g950"><g
             id="g952"><g
               id="g954"
               clip-path="url(#clipPath956)"><g
                 id="g960"><g
                   id="g962"
                   transform="matrix(1,0,0,-1,0,336)"><path
                     d="m 295.074,196.805 c 0,1.324 -1.074,2.398 -2.398,2.398 -1.328,0 -2.403,-1.074 -2.403,-2.398 0,-1.325 1.075,-2.403 2.403,-2.403 1.324,0 2.398,1.078 2.398,2.403 z"
                     style="fill:none;stroke:#000000;stroke-opacity:1;stroke-width:3;stroke-linecap:butt;stroke-linejoin:miter;stroke-miterlimit:4;stroke-dasharray:none"
                     id="path964" /></g></g></g></g></g><text
           transform="matrix(1,0,0,-1,311.88979,117.10735)"
           id="text966"><tspan
             style="fill:#000000;fill-opacity:1;fill-rule:nonzero;stroke:none;font-family:TeXGyreHeros;font-variant:normal;font-weight:normal;font-size:20;writing-mode:lr;-inkscape-font-specification:TeXGyreHeros-Regular"
             x="0 11.12 17.78 22.22 33.4 40.06 45.62 56.74 63.32 74.44 91.1"
             y="0"
             sodipodi:role="line"
             id="tspan968">prior proMP</tspan></text>
</g></g><g
       id="g970"><g
         id="g972"
         clip-path="url(#clipPath974)"><g
           id="g978"><g
             id="g980"><g
               id="g982"
               clip-path="url(#clipPath984)"><g
                 id="g988"><g
                   id="g990"
                   transform="matrix(1,0,0,-1,0,336)"><path
                     d="m 278.387,214.715 30,0"
                     style="fill:none;stroke:#0000ff;stroke-opacity:1;stroke-width:1;stroke-linecap:butt;stroke-linejoin:miter;stroke-miterlimit:4;stroke-dasharray:none"
                     id="path992" /></g></g></g></g></g><text
           transform="matrix(1,0,0,-1,311.88979,95.362661)"
           id="text994"><tspan
             style="fill:#000000;fill-opacity:1;fill-rule:nonzero;stroke:none;font-family:TeXGyreHeros;font-variant:normal;font-weight:normal;font-size:20;writing-mode:lr;-inkscape-font-specification:TeXGyreHeros-Regular"
             x="0 11.12 17.62 28.74 39.86 44.3 54.3 59.86 64.3 75.48"
             y="0"
             sodipodi:role="line"
             id="tspan996">prediction</tspan></text>
</g></g><g
       id="g998"><g
         id="g1000"
         clip-path="url(#clipPath1002)"><g
           id="g1006"><g
             id="g1008"><g
               id="g1010"
               clip-path="url(#clipPath1012)"><g
                 id="g1016"><g
                   id="g1018"
                   transform="matrix(1,0,0,-1,0,336)"><path
                     d="m 277.676,236.895 30,0"
                     style="fill:none;stroke:#ff0000;stroke-opacity:1;stroke-width:1;stroke-linecap:butt;stroke-linejoin:miter;stroke-miterlimit:4;stroke-dasharray:none"
                     id="path1020" /></g></g></g></g></g></g></g><g
       id="g1022"><g
         id="g1024"
         transform="matrix(1,0,0,-0.723947,0,336)"><path
           d="m 272.133,346.101 164.398,0"
           style="fill:none;stroke:#000000;stroke-opacity:1;stroke-width:0.5;stroke-linecap:butt;stroke-linejoin:miter;stroke-miterlimit:4;stroke-dasharray:none"
           id="path1026" /></g><g
         id="g1028"
         transform="matrix(1,0,0,-0.723947,0,336)"><path
           d="m 272.133,225.403 164.398,0"
           style="fill:none;stroke:#000000;stroke-opacity:1;stroke-width:0.5;stroke-linecap:butt;stroke-linejoin:miter;stroke-miterlimit:4;stroke-dasharray:none"
           id="path1030" /></g><g
         id="g1032"
         transform="matrix(1,0,0,-0.723947,0,336)"><path
           d="m 272.133,346.101 0,-120.698"
           style="fill:none;stroke:#000000;stroke-opacity:1;stroke-width:0.5;stroke-linecap:butt;stroke-linejoin:miter;stroke-miterlimit:4;stroke-dasharray:none"
           id="path1034" /></g><g
         id="g1036"
         transform="matrix(1,0,0,-0.723947,0,336)"><path
           d="m 436.531,346.101 0,-120.698"
           style="fill:none;stroke:#000000;stroke-opacity:1;stroke-width:0.5;stroke-linecap:butt;stroke-linejoin:miter;stroke-miterlimit:4;stroke-dasharray:none"
           id="path1038" /></g><g
         id="g1040"
         transform="matrix(1,0,0,-0.723947,0,336)"><path
           d="m 272.133,346.101 0,-1.209"
           style="fill:none;stroke:#000000;stroke-opacity:1;stroke-width:0.5;stroke-linecap:butt;stroke-linejoin:miter;stroke-miterlimit:4;stroke-dasharray:none"
           id="path1042" /></g></g><rect
       style="fill:#ff0000;fill-opacity:0.42009134;fill-rule:evenodd;stroke:none"
       id="rect4019"
       width="30.03915"
       height="5.2853236"
       x="277.60532"
       y="-98.659378"
       transform="scale(1,-1)" /><rect
       transform="scale(1,-1)"
       y="-120.72717"
       x="278.40616"
       height="5.2853236"
       width="30.03915"
       id="rect4021"
       style="fill:#0000ff;fill-opacity:0.42009133;fill-rule:evenodd;stroke:none" /></g></svg>